<svg id="Layer_1" data-name="Layer 1" xmlns="http://www.w3.org/2000/svg" viewBox="0 0 48 48"><defs><style>.cls-1{fill:none;stroke:#d94700;stroke-linecap:round;stroke-linejoin:round;stroke-width:2px}</style></defs><rect class="cls-1" x="14" y="3" width="20" height="13" rx="6.5"/><path d="M24 15.5L21.82 13a5.31 5.31 0 01-1.32-3.5 2 2 0 012-2h3a2 2 0 012 2 5.31 5.31 0 01-1.32 3.5zm-10.5 24v-19m21 19v-19" fill="none" stroke="#d94700" stroke-linecap="round" stroke-linejoin="round"/><path class="cls-1" d="M24 17v28m11-34a8.78 8.78 0 016 8.32V37a2 2 0 01-2 2h-4v3.34a2 2 0 01-1.66 2 64.25 64.25 0 01-18.68 0 2 2 0 01-1.66-2V39H9a2 2 0 01-2-2V19.32A8.78 8.78 0 0113 11"/></svg>