<svg data-name="Layer 1" xmlns="http://www.w3.org/2000/svg" viewBox="0 0 48 48"><path d="M29.8 14.41l1 3A5.2 5.2 0 0035.75 21h0a5.18 5.18 0 004.67-2.92l1.58-3.3a1 1 0 011.79.07h0a36.79 36.79 0 013.18 15V36h0a6.75 6.75 0 01-5.61 3h-25.2A27.35 27.35 0 016 37h0a8 8 0 01-5-7.43h0A5.58 5.58 0 016.58 24h0a6 6 0 002.69-.64l1.47-.73a49.91 49.91 0 0013-9.37L24 13a3.51 3.51 0 012.49-1h0a3.52 3.52 0 013.31 2.41z" stroke-width="2" fill="none" stroke="#d94700"/><path d="M1.5 32.5l3.69.5a63.28 63.28 0 0020.55-.45h0a62.89 62.89 0 0111.62-1.05H47" fill="none" stroke="#d94700"/><path d="M24 18l-2-2.67M21 21l-2-2.67M17 23l-1.5-2.25" fill="none" stroke="#d94700" stroke-width="2" stroke-linecap="round"/></svg>