<svg id="Layer_1" data-name="Layer 1" xmlns="http://www.w3.org/2000/svg" viewBox="0 0 48 48"><defs><style>.cls-1{fill:none;stroke:#d94700;stroke-linecap:round;stroke-linejoin:round;stroke-width:2px}</style></defs><path class="cls-1" d="M16 44h16m0-40H16"/><ellipse class="cls-1" cx="32" cy="24" rx="8" ry="14"/><path class="cls-1" d="M25 17.22A22.5 22.5 0 0126 24a22.5 22.5 0 01-1 6.78M32 4c7.18 0 13 8.4 13 20s-5.82 20-13 20M16 4C8.82 4 3 12.4 3 24s5.82 20 13 20"/><path d="M7.05 39.23l1.45-.73 2 1 2-1 2 1 2-1 2 1 2-1M5.26 33.12l1.24-.62 2 1 2-1 2 1 2-1 2 1 2-1m-14-12l2 1 2-1 2 1 2-1 2 1 2-1m-12 6l2 1 2-1 2 1 2-1 2 1 2-1m2-12l-2 1-2-1-2 1-2-1-2 1-2-1-2 1m3-7l2.2 1 2.2-1 2.2 1 2.2-1 2.2 1 2-1" fill="none" stroke="#d94700" stroke-linecap="round" stroke-linejoin="round"/></svg>