<svg id="Layer_1" data-name="Layer 1" xmlns="http://www.w3.org/2000/svg" viewBox="0 0 48 48"><defs><style>.cls-1{fill:none;stroke:#d94700;stroke-linecap:round;stroke-linejoin:round;stroke-width:2px}</style></defs><path class="cls-1" d="M39 16h-3.27a2 2 0 00-2 1.72L33 23H15l-.75-5.28a2 2 0 00-2-1.72H9v27a3 3 0 003 3h24a3 3 0 003-3z"/><path d="M13.5 28.5h8m0-13h17m-24-2h3m1-2h3m-8 20h6" fill="none" stroke="#d94700" stroke-linecap="round" stroke-linejoin="round"/><path class="cls-1" d="M14 17V8.83c0-1.11-4-1.11-4 0V16m8 7V6.09c0-1.09-4-1.09-4 0V17m12 6V8.83c0-1.11-4-1.11-4 0V23m8 0V8.83c0-1.11-4-1.11-4 0V23m8-6V8.83c0-1.11-4-1.11-4 0V23m8-7V8.83c0-1.11-4-1.11-4 0V17m-12 6V3.09c0-1.09-4-1.09-4 0V23"/></svg>