<svg version="1.1" id="Слой_1" xmlns="http://www.w3.org/2000/svg" x="0" y="0" viewBox="0 0 1170 441.4" xml:space="preserve"><style>.st0{fill:none;stroke:#05b;stroke-width:2;stroke-linecap:round;stroke-miterlimit:10}.st1{fill:#05b}.st3{fill:#63666a}.st4{fill:none;stroke:#05b;stroke-width:2;stroke-miterlimit:10}.st4,.st5,.st8{stroke-linejoin:round}.st5{stroke-miterlimit:10}.st5,.st8,.st9{fill:none;stroke:#05b}.st8{stroke-width:2;stroke-linecap:round}.st9{stroke-miterlimit:10}.st12{stroke-width:2}.st12,.st13{fill:#fff;stroke:#05b;stroke-linecap:round;stroke-linejoin:round}.st14,.st15{fill:none;stroke:#05b;stroke-miterlimit:10}.st14{stroke-linecap:round;stroke-linejoin:round}.st15{stroke-width:2}</style><path class="st0" d="M570.1 175.2l-.1 25"/><path class="st1" d="M579.8 180.6l-9.6-3.4-9.9 2.8 9.8-9.4z"/><path class="st0" d="M570 231.9l.1 25M1035 128.7l-.1 64.5"/><path class="st1" d="M1044.7 134.1l-9.6-3.4-9.9 2.8 10.1-9.4z"/><path class="st0" d="M694.8 107.5l218.6.1"/><path class="st1" d="M688.6 108l8.8-10.6-2.2 10 4 9.4z"/><path class="st0" d="M434.5 163.9L242.1 267.4"/><path class="st1" d="M250.1 274.1l-7.7-6.8-2.3-10-3.4 13.3z"/><path class="st0" d="M216.4 236l192.4-103.6"/><path class="st1" d="M400.8 125.7l7.8 6.9 2.2 9.9 3.4-13.3z"/><path class="st0" d="M694.8 171.5l211.7 54.6"/><path class="st1" d="M688.9 169.2l5.9 12.5.3-10.3 6.3-8.1z"/><path d="M947.3 422.3c.5-.1.9-.2 1.5-.2s1-.1 1.6-.1 1.1.1 1.7.2c.6.1 1.1.3 1.6.6s.8.7 1.1 1.2.4 1.1.4 1.9-.1 1.4-.4 1.9-.6 1-1.1 1.3-1 .6-1.6.7-1.2.2-1.8.2h-1.4v4.8h-1.5l-.1-12.5zm3.1 1h-.9c-.3 0-.5 0-.7.1v5.2h1.4c.4 0 .8 0 1.2-.1s.8-.2 1.1-.4c.3-.2.6-.5.8-.9s.3-.8.3-1.4c0-.5-.1-.9-.3-1.2s-.4-.6-.7-.8-.7-.3-1-.4c-.4-.1-.8-.1-1.2-.1zm6.4 5.1c0-2.1.4-3.7 1.3-4.8.9-1.1 2.2-1.7 3.8-1.7.9 0 1.7.2 2.3.5s1.2.8 1.6 1.3c.4.6.7 1.3.9 2.1.2.8.3 1.7.3 2.7 0 2.1-.4 3.7-1.3 4.8-.9 1.1-2.2 1.7-3.8 1.7-.9 0-1.6-.2-2.3-.5-.6-.3-1.2-.8-1.6-1.3s-.7-1.3-.9-2.1c-.1-.8-.3-1.7-.3-2.7zm1.6 0c0 .7.1 1.4.2 2 .1.6.3 1.2.6 1.6s.7.9 1.1 1.1 1 .4 1.6.4c1.1 0 2-.4 2.6-1.3.6-.8 1-2.2 1-3.9 0-.7-.1-1.3-.2-2-.1-.6-.4-1.2-.7-1.7s-.7-.8-1.1-1.1c-.4-.3-1-.4-1.6-.4-1.1 0-2 .4-2.6 1.3-.6 1-.9 2.3-.9 4zm12.3.4v-1.3h2.1c.3-.1.6-.1.9-.3.3-.1.5-.3.7-.4.2-.2.4-.4.5-.6s.2-.5.2-.8c0-.4-.1-.7-.2-1-.1-.3-.3-.5-.5-.6s-.5-.3-.8-.3c-.3-.1-.6-.1-1-.1-.6 0-1.2 0-1.7.1s-.8.2-1.1.3l-.4-1.2c.2-.1.7-.3 1.3-.4s1.3-.2 2.1-.2c.5 0 1 .1 1.4.2s.9.3 1.2.5.7.6.9 1 .3.9.3 1.5-.2 1.2-.6 1.7c-.4.5-1 .9-1.8 1.2v.1c.8.1 1.5.4 2 1 .5.5.7 1.2.7 2.1 0 .7-.1 1.3-.4 1.8s-.6.9-1.1 1.2c-.4.3-.9.6-1.5.7-.6.2-1.1.2-1.7.2-.8 0-1.4 0-2-.1-.5-.1-.9-.2-1.3-.3l.4-1.3c.3.1.7.2 1.2.3.5.1 1.1.1 1.8.1.4 0 .7-.1 1.1-.2s.7-.3 1-.5.5-.5.7-.8.3-.7.3-1.1c0-.8-.3-1.3-.8-1.7-.5-.4-1.2-.6-2.1-.6h-1.8v-.2zm16.3.2h-6v5.8h-1.5v-12.6h1.5v5.5h6v-5.5h1.5v12.6H987V429zm12.2-2.8l.1-1.4h-.1l-.8 1.5-6.1 8.5h-.9v-12.6h1.5v8.6l-.1 1.4h.1l.8-1.5 6.1-8.6h.9v12.6h-1.5v-8.5zm14.9 10.9h-1l-.3-2.3h-9v-12.6h1.5v11.3h5.7v-11.3h1.5v11.3h1.7v3.6h-.1zm8-5.9h-4.6l-1.3 3.5h-1.5l4.8-12.8h.7l4.8 12.8h-1.6l-1.3-3.5zm-4.1-1.3h3.7l-1.4-3.8-.4-1.9-.4 1.9-1.5 3.8zm18.3-9.9l-5.3 16.9h-1.6l5.3-16.9h1.6zm4.7 8.4c0-2.1.4-3.7 1.3-4.8.9-1.1 2.2-1.7 3.8-1.7.9 0 1.7.2 2.3.5.6.3 1.2.8 1.6 1.3.4.6.7 1.3.9 2.1.2.8.3 1.7.3 2.7 0 2.1-.4 3.7-1.3 4.8-.9 1.1-2.2 1.7-3.8 1.7-.9 0-1.6-.2-2.3-.5-.6-.3-1.2-.8-1.6-1.3s-.7-1.3-.9-2.1-.3-1.7-.3-2.7zm1.6 0c0 .7.1 1.4.2 2s.4 1.2.6 1.6.7.9 1.1 1.1 1 .4 1.6.4c1.1 0 2-.4 2.6-1.3.6-.8 1-2.2 1-3.9 0-.7-.1-1.3-.2-2-.1-.6-.4-1.2-.7-1.7-.3-.5-.7-.8-1.1-1.1-.4-.3-1-.4-1.6-.4-1.1 0-2 .4-2.6 1.3-.6 1-.9 2.3-.9 4zm11.3-6.3h6.8v1.3h-5.3v3.8c.2 0 .5-.1.8-.1s.6-.1.9-.1c.6 0 1.2.1 1.7.2.6.1 1 .3 1.5.6s.8.7 1 1.1.4 1.1.4 1.8-.1 1.3-.4 1.9-.6.9-1 1.3c-.4.3-.9.6-1.5.7-.6.2-1.1.2-1.8.2h-1.5c-.3 0-.6 0-.8-.1s-.5-.1-.7-.1l-.1-12.5zm3.2 11.5c.4 0 .7-.1 1.1-.2.3-.1.7-.3.9-.5s.5-.5.6-.8c.2-.3.2-.7.2-1.1 0-.6-.1-1-.3-1.3-.2-.3-.4-.6-.7-.8-.3-.2-.6-.3-1-.4s-.8-.1-1.2-.1h-1.5v5c.1 0 .2 0 .3.1s.3 0 .5 0h.5c.3.1.5.1.6.1zm6.7 1.1v-12.6h1.5v11.3h4.1v-11.3h1.5v11.3h4.1v-11.3h1.5v11.3h1.7v3.7h-1l-.3-2.3h-13.1v-.1zm16.4-12.6h6.9v1.3h-5.4v4.1h4.9v1.3h-4.9v4.5h5.5v1.3h-7v-12.5zm17 1.4h-5.8v11.3h-1.5v-12.6h8.8v12.6h-1.5v-11.3zm12.2 2.7l.1-1.4h-.1l-.8 1.5-6.1 8.5h-.9v-12.6h1.5v8.6l-.1 1.4h.1l.8-1.5 6.1-8.6h.9v12.6h-1.5v-8.5zm12.7-2.7h-3.9v11.3h-1.5v-11.3h-3.9v-1.3h9.3v1.3zM526.1 87l.2-1.9h-.1l-.7 1.7-3.3 5.7h-.5l-3.5-5.7-.7-1.7h-.1l.3 1.9v8.5h-1.4V82.8h1.1l3.9 6.5.6 1.4.6-1.4 3.8-6.4h1.2v12.6H526V87h.1zm10.5 5H532l-1.3 3.5h-1.5l4.8-12.8h.7l4.8 12.8h-1.6l-1.3-3.5zm-4.1-1.4h3.7l-1.4-3.8-.4-1.9-.4 1.9-1.5 3.8zm8.7-7.6c.5-.1.9-.2 1.5-.2s1-.1 1.6-.1 1.1.1 1.7.2c.6.1 1.1.3 1.6.6s.8.7 1.1 1.2.4 1.1.4 1.9-.1 1.4-.4 1.9-.6 1-1.1 1.3-1 .6-1.6.7-1.2.2-1.8.2h-1.4v4.8h-1.5l-.1-12.5zm3 1h-.9c-.3 0-.5 0-.7.1v5.2h1.4c.4 0 .8 0 1.2-.1s.8-.2 1.1-.4c.3-.2.6-.5.8-.9s.3-.8.3-1.4c0-.5-.1-.9-.3-1.2s-.4-.6-.7-.8-.6-.3-1-.4c-.4-.1-.8-.1-1.2-.1zm9.4 5.6h-.8v5.8h-1.5V82.8h1.5v5.9l.8-.3 4.2-5.6h1.7l-4.2 5.4-.8.6.9.7 4.6 5.9h-1.9l-4.5-5.8zm16.3-2.7l.1-1.4-.8 1.5-6.1 8.5h-.9V82.8h1.5v8.6l-.1 1.4h.1l.8-1.5 6.1-8.6h.9v12.6H570l-.1-8.4zm4.6-3.9c.5-.1.9-.2 1.5-.2s1-.1 1.6-.1 1.1.1 1.7.2c.6.1 1.1.3 1.6.6s.8.7 1.1 1.2.4 1.1.4 1.9-.1 1.4-.4 1.9-.6 1-1.1 1.3-1 .6-1.6.7-1.2.2-1.8.2h-1.4v4.8h-1.5l-.1-12.5zm3 1h-.9c-.3 0-.5 0-.7.1v5.2h1.4c.4 0 .8 0 1.2-.1s.8-.2 1.1-.4c.3-.2.6-.5.8-.9s.3-.8.3-1.4c0-.5-.1-.9-.3-1.2s-.4-.6-.7-.8-.6-.3-1-.4c-.4-.1-.8-.1-1.2-.1zm6.5 5.1c0-2.1.4-3.7 1.3-4.8.9-1.1 2.2-1.7 3.8-1.7.9 0 1.7.2 2.3.5s1.2.8 1.6 1.3c.4.6.7 1.3.9 2.1.2.8.3 1.7.3 2.7 0 2.1-.4 3.7-1.3 4.8-.9 1.1-2.2 1.7-3.8 1.7-.9 0-1.6-.2-2.3-.5-.6-.3-1.2-.8-1.6-1.3s-.7-1.3-.9-2.1-.3-1.7-.3-2.7zm1.6 0c0 .7.1 1.4.2 2 .1.6.4 1.2.6 1.6s.7.9 1.1 1.1 1 .4 1.6.4c1.1 0 2-.4 2.6-1.3.6-.8 1-2.2 1-3.9 0-.7-.1-1.3-.2-2-.1-.6-.4-1.2-.7-1.7s-.7-.8-1.1-1.1c-.4-.3-1-.4-1.6-.4-1.1 0-2 .4-2.6 1.3-.6 1-.9 2.3-.9 4zm18.8-3.4c0 .3 0 .6-.1.9s-.2.6-.4.9-.4.5-.7.6-.7.3-1.1.4v.1c.4.1.7.2 1 .4.3.2.6.4.9.7s.5.6.6.9.2.8.2 1.3c0 .7-.1 1.2-.4 1.7s-.6.9-1.1 1.2-.9.5-1.5.7c-.6.1-1.1.2-1.7.2h-1.6c-.3 0-.6 0-.9-.1s-.6-.1-.8-.1V83c.4-.1 1-.1 1.6-.2.6 0 1.2-.1 1.9-.1.5 0 .9 0 1.4.1s.9.2 1.3.4.7.5 1 .9.4 1 .4 1.6zm-5.1 2.5h.7c.3 0 .5 0 .7-.1.3-.1.6-.2.8-.3.3-.1.5-.2.7-.4.2-.2.4-.4.5-.7.1-.2.2-.5.2-.8 0-.4-.1-.7-.2-.9-.1-.2-.3-.4-.6-.6s-.5-.3-.9-.3c-.3-.1-.7-.1-1-.1h-1.1c-.3 0-.6 0-.7.1v4h.9v.1zm1 6.1c.4 0 .8 0 1.1-.1.4-.1.7-.2 1-.4.3-.2.5-.4.7-.7.2-.3.2-.6.2-1 0-.5-.1-.9-.3-1.3s-.5-.6-.8-.8c-.3-.2-.7-.3-1.1-.3-.4-.1-.8-.1-1.2-.1h-1.6v4.7c.1 0 .2 0 .4.1s.3 0 .5 0h.6c.2 0 .3-.1.5-.1zm9.4-4.7h-.8v5.8h-1.5V82.8h1.5v5.9l.8-.3 4.2-5.6h1.7l-4.2 5.4-.8.6.9.7 4.6 5.9h-1.9l-4.5-5.8zm14.6 2.4h-4.6l-1.3 3.5H617l4.8-12.8h.7l4.8 12.8h-1.6l-1.4-3.5zm-4.1-1.4h3.7l-1.4-3.8-.4-1.9-.4 1.9-1.5 3.8zm380.6 4.3c-.4.3-.8.5-1.4.6-.6.1-1.1.2-1.8.2-.8 0-1.5-.1-2.1-.4-.7-.3-1.2-.7-1.7-1.2s-.9-1.2-1.2-2-.4-1.8-.4-2.9c0-1.2.2-2.2.5-3s.7-1.5 1.3-2 1.1-.9 1.8-1.1 1.3-.4 2-.4 1.3 0 1.8.1.8.2 1.2.3l-.4 1.3c-.6-.3-1.4-.4-2.5-.4-.5 0-1 .1-1.5.3s-.9.5-1.3.9-.7.9-.9 1.6-.3 1.5-.3 2.4.1 1.6.3 2.3.5 1.2.9 1.6.8.8 1.3 1 1.1.3 1.7.3c.5 0 1-.1 1.4-.2s.7-.2 1-.4l.3 1.1zm2.2-12.1h6.8v1.3h-5.3V88c.2 0 .5-.1.8-.1s.6-.1.9-.1c.6 0 1.2.1 1.7.2.6.1 1 .3 1.5.6s.8.7 1 1.1.4 1.1.4 1.8-.1 1.3-.4 1.9-.6.9-1 1.3c-.4.3-.9.6-1.5.7-.6.2-1.1.2-1.8.2h-1.5c-.3 0-.6 0-.8-.1s-.5-.1-.7-.1V82.8h-.1zm3.2 11.5c.4 0 .7-.1 1.1-.2.3-.1.7-.3.9-.5s.5-.5.6-.8c.2-.3.2-.7.2-1.1 0-.6-.1-1-.3-1.3s-.4-.6-.7-.8c-.3-.2-.6-.3-1-.4s-.8-.1-1.2-.1h-1.5v5c.1 0 .2 0 .3.1s.3 0 .5 0h.5c.3.1.5.1.6.1zm14.4-7.4l.1-1.4h-.1l-.8 1.5-6.1 8.5h-.9V82.8h1.5v8.6l-.1 1.4h.1l.8-1.5 6.1-8.6h.9v12.6h-1.5v-8.4zm12.6 8c-.4.3-.8.5-1.4.6s-1.1.2-1.8.2c-.8 0-1.5-.1-2.1-.4-.7-.3-1.2-.7-1.7-1.2s-.9-1.2-1.2-2-.4-1.8-.4-2.9c0-1.2.2-2.2.5-3s.7-1.5 1.3-2 1.1-.9 1.8-1.1 1.3-.4 2-.4 1.3 0 1.8.1.8.2 1.2.3l-.4 1.3c-.6-.3-1.4-.4-2.5-.4-.5 0-1 .1-1.5.3s-.9.5-1.3.9-.7.9-.9 1.6c-.2.7-.3 1.5-.3 2.4s.1 1.6.3 2.3.5 1.2.9 1.6.8.8 1.3 1 1.1.3 1.7.3c.5 0 1-.1 1.4-.2s.7-.2 1-.4l.3 1.1zm6.5-5.8c0-2.1.4-3.7 1.3-4.8.9-1.1 2.2-1.7 3.8-1.7.9 0 1.7.2 2.3.5s1.2.8 1.6 1.3c.4.6.7 1.3.9 2.1.2.8.3 1.7.3 2.7 0 2.1-.4 3.7-1.3 4.8-.9 1.1-2.2 1.7-3.8 1.7-.9 0-1.6-.2-2.3-.5-.6-.3-1.2-.8-1.6-1.3s-.7-1.3-.9-2.1c-.2-.8-.3-1.7-.3-2.7zm1.6 0c0 .7.1 1.4.2 2s.4 1.2.6 1.6.7.9 1.1 1.1 1 .4 1.6.4c1.1 0 2-.4 2.6-1.3.6-.8 1-2.2 1-3.9 0-.7-.1-1.3-.2-2-.1-.6-.4-1.2-.7-1.7-.3-.5-.7-.8-1.1-1.1-.4-.3-1-.4-1.6-.4-1.1 0-2 .4-2.6 1.3s-.9 2.3-.9 4zm16 4.9c-.2 0-.4.1-.7.1h-.8c-.6 0-1.1-.1-1.6-.3s-.9-.5-1.3-.9-.7-.9-.9-1.6-.3-1.4-.3-2.2c0-.8.1-1.5.3-2.2.2-.6.5-1.2.9-1.6s.9-.8 1.4-1 1.1-.4 1.8-.4h.6c.3 0 .4 0 .6.1v-1.6h1.5V84c.2-.1.5-.1.8-.1h.7c.6 0 1.1.1 1.6.3s.9.5 1.3.9.7.9.9 1.6c.2.6.3 1.4.3 2.2 0 .8-.1 1.6-.3 2.2-.2.6-.5 1.2-.9 1.6s-.9.8-1.4 1-1.1.3-1.7.3h-.6c-.3 0-.5 0-.6-.1v1.8h-1.5V94h-.1zm-1.2-1.1h.8c.1 0 .2 0 .3-.1v-7.5c-.1 0-.3 0-.5-.1s-.4 0-.6 0c-.4 0-.8.1-1.1.2-.4.2-.7.4-.9.7-.3.3-.5.7-.6 1.2-.2.5-.2 1.1-.2 1.7s.1 1.1.2 1.6.3.9.6 1.2c.2.3.5.6.9.7.3.3.6.4 1.1.4zm3.9-7.7h-.7c-.3 0-.5 0-.6.1v7.5h1.1c.4 0 .8-.1 1.1-.2.4-.2.7-.4.9-.7.3-.3.5-.7.6-1.2s.2-1.1.2-1.7-.1-1.1-.2-1.5c-.1-.5-.3-.9-.5-1.2s-.5-.6-.9-.8c-.2-.2-.6-.3-1-.3zm16.6 12.6h-1l-.3-2.3h-8.8l-.3 2.3h-1v-3.7h1.3c.1-.1.2-.4.4-.9s.4-1.2.6-2.1.4-2 .5-3.4c.2-1.4.2-3 .2-4.9h6.7v11.3h1.6v3.7h.1zm-3.2-3.7v-9.9h-3.8c0 1.3-.1 2.5-.2 3.6s-.2 2-.4 2.8-.3 1.5-.5 2.1-.4 1.1-.6 1.5l5.5-.1zm-514-25.8c-.4.3-.8.5-1.4.6-.6.1-1.1.2-1.8.2-.8 0-1.5-.1-2.1-.4-.7-.3-1.2-.7-1.7-1.2s-.9-1.2-1.2-2-.4-1.8-.4-2.9c0-1.2.2-2.2.5-3s.7-1.5 1.3-2 1.1-.9 1.8-1.1 1.3-.4 2-.4 1.3 0 1.8.1.8.2 1.2.3l-.4 1.3c-.6-.3-1.4-.4-2.5-.4-.5 0-1 .1-1.5.3s-.9.5-1.3.9-.7.9-.9 1.6c-.2.7-.3 1.5-.3 2.4s.1 1.6.3 2.3.5 1.2.9 1.6.8.8 1.3 1 1.1.3 1.7.3c.5 0 1-.1 1.4-.2s.7-.2 1-.4l.3 1.1zm2.2-12.1h6.8v1.3h-5.3v3.8c.2 0 .5-.1.8-.1s.6-.1.9-.1c.6 0 1.2.1 1.7.2.6.1 1 .3 1.5.6s.8.7 1 1.1.4 1.1.4 1.8-.1 1.3-.4 1.9-.6.9-1 1.3c-.4.3-.9.6-1.5.7-.6.2-1.1.2-1.8.2h-1.5c-.3 0-.6 0-.8-.1s-.5-.1-.7-.1V56.2h-.1zm3.2 11.5c.4 0 .7-.1 1.1-.2.3-.1.7-.3.9-.5s.5-.5.6-.8c.2-.3.2-.7.2-1.1 0-.6-.1-1-.3-1.3s-.4-.6-.7-.8-.6-.3-1-.4c-.4-.1-.8-.1-1.2-.1h-1.5v5c.1 0 .2 0 .3.1s.3 0 .5 0h.5c.3.1.5.1.6.1zm14.4-7.4l.1-1.4h-.1l-.8 1.5-6.1 8.5h-.9V56.2h1.5v8.6l-.1 1.4h.1l.8-1.5 6.1-8.6h.9v12.6h-1.5v-8.4zm12.6 8c-.4.3-.8.5-1.4.6-.6.1-1.1.2-1.8.2-.8 0-1.5-.1-2.1-.4-.7-.3-1.2-.7-1.7-1.2s-.9-1.2-1.2-2-.4-1.8-.4-2.9c0-1.2.2-2.2.5-3s.7-1.5 1.3-2 1.1-.9 1.8-1.1 1.3-.4 2-.4 1.3 0 1.8.1.8.2 1.2.3l-.4 1.3c-.6-.3-1.4-.4-2.5-.4-.5 0-1 .1-1.5.3s-.9.5-1.3.9-.7.9-.9 1.6c-.2.7-.3 1.5-.3 2.4s.1 1.6.3 2.3.5 1.2.9 1.6.8.8 1.3 1 1.1.3 1.7.3c.5 0 1-.1 1.4-.2s.7-.2 1-.4l.3 1.1zM501 209.4h-5.8v11.3h-1.5v-12.6h8.8v12.6H501v-11.3zm4 6.8c0-1.5.3-2.7 1-3.5s1.7-1.2 2.9-1.2c.7 0 1.3.1 1.8.3s.9.5 1.2 1 .6.9.7 1.5.2 1.2.2 1.9c0 1.5-.3 2.7-1 3.5s-1.7 1.2-2.9 1.2c-.7 0-1.3-.1-1.8-.3s-.9-.5-1.2-1-.6-.9-.7-1.5-.2-1.2-.2-1.9zm1.4 0c0 .5 0 .9.1 1.3s.2.8.4 1.1.4.6.8.8c.3.2.7.3 1.1.3 1.6 0 2.4-1.1 2.4-3.5 0-.5 0-.9-.1-1.3s-.2-.8-.4-1.1-.4-.6-.8-.7c-.3-.2-.7-.3-1.1-.3-1.5-.1-2.4 1.1-2.4 3.4zm16.7 6.8h-1l-.3-2.3H515l-.3 2.3h-1v-3.5h1.1c.1-.1.2-.4.4-.7s.3-.8.5-1.4c.2-.6.3-1.4.4-2.3.1-.9.2-2 .2-3.3h5.4v7.7h1.3l.1 3.5zm-2.8-3.6V213h-2.7c0 .5-.1 1.1-.1 1.6-.1.6-.1 1.2-.2 1.8s-.2 1.2-.4 1.7-.3 1-.5 1.4h3.9v-.1zm10.3-6.4h-2.8v7.7h-1.4V213h-2.8v-1.3h7.1l-.1 1.3zm1.4-1.3c.4 0 .9-.1 1.3-.1s1-.1 1.7-.1c1.2 0 2 .2 2.6.5.5.4.8.9.8 1.7 0 .4-.1.8-.4 1.2s-.7.7-1.2.9v.1c.7.1 1.2.4 1.5.7.3.4.4.8.4 1.4 0 .9-.3 1.6-1 2s-1.7.6-3 .6h-1.4c-.4 0-.9-.1-1.3-.1v-8.8zm3.2 3.8c.2 0 .4 0 .6-.1s.4-.2.5-.3c.2-.1.3-.3.4-.4.1-.2.2-.4.2-.5 0-.5-.1-.8-.4-1s-.8-.3-1.5-.3h-1.5v2.6h1.7zm-1.7 4c.2 0 .4 0 .7.1s.5 0 .8 0c.8 0 1.4-.1 1.8-.3.4-.2.6-.6.6-1.2 0-.4-.2-.8-.5-1.1s-.9-.4-1.8-.4h-1.6v2.9zm14.1.5c-.4.3-.8.5-1.4.7s-1.1.3-1.7.3c-.7 0-1.3-.1-1.8-.3s-.9-.5-1.2-1-.6-.9-.7-1.5-.2-1.2-.2-1.9c0-1.5.3-2.7 1-3.5s1.7-1.2 2.9-1.2c.4 0 .8 0 1.2.1s.8.3 1.1.5.6.6.8 1.1.3 1.1.3 1.8c0 .4 0 .8-.1 1.3H542c0 .5.1 1 .2 1.4s.3.8.5 1c.2.3.5.5.9.6s.8.2 1.3.2c.4 0 .8-.1 1.2-.2.4-.1.7-.3.9-.5l.6 1.1zm-3.1-7.3c-.7 0-1.3.2-1.7.6-.4.4-.7 1-.8 1.9h4.5c0-.9-.2-1.6-.5-1.9-.4-.4-.9-.6-1.5-.6zm5.6-1h1l.3 1.1h.1c.3-.4.6-.7 1.1-1s.9-.3 1.5-.3c1.2 0 2.1.4 2.7 1.1.6.7.9 1.9.9 3.5 0 .8-.1 1.4-.3 2s-.5 1.1-.8 1.5c-.4.4-.8.7-1.3 1s-1.1.3-1.7.3c-.4 0-.8 0-1.1-.1s-.5-.1-.8-.3v3.7h-1.4v-12.5h-.2zm3.7 1c-.6 0-1.1.2-1.4.5-.4.3-.6.8-.7 1.5v4.5c.2.2.5.3.7.4.3.1.6.1 1.1.1.8 0 1.5-.3 2-.9.5-.6.7-1.5.7-2.7 0-.5 0-.9-.1-1.3s-.2-.7-.4-1-.4-.5-.7-.7-.8-.4-1.2-.4zm9 4l-2.7 4h-1.7l2.8-4.1.6-.5-.9-.7-2.3-3.7h1.5l2.5 3.9h.9v-3.9h1.4v4.1l.8-.3 2.5-3.8h1.5l-2.4 3.7-.7.6.9.7 2.7 4.1h-1.7l-2.6-4.1h-.9v4.1h-1.4v-4.2l-.8.1zm16.9 6.3h-1l-.3-2.3h-6.8l-.3 2.3h-1v-3.5h1.1c.1-.1.2-.4.4-.7s.3-.8.5-1.4c.2-.6.3-1.4.4-2.3.1-.9.2-2 .2-3.3h5.4v7.7h1.3l.1 3.5zm-2.8-3.6V213h-2.7c0 .5-.1 1.1-.1 1.6-.1.6-.1 1.2-.2 1.8s-.2 1.2-.4 1.7-.3 1-.5 1.4h3.9v-.1zm4.4-7c.5-.3 1-.5 1.6-.6s1.2-.2 1.9-.2c.6 0 1.1.1 1.5.3s.7.4.9.7.3.6.4.9c.1.3.1.6.1 1 0 .7 0 1.4-.1 2.1 0 .7-.1 1.3-.1 1.9 0 .4 0 .9.1 1.3 0 .4.1.8.2 1.1h-1.1l-.4-1.3h-.1c-.1.2-.2.3-.4.5s-.4.3-.6.4c-.2.1-.5.2-.8.3s-.6.1-1 .1-.7-.1-1.1-.2c-.3-.1-.6-.3-.9-.5-.2-.2-.4-.5-.6-.8-.1-.3-.2-.7-.2-1.1 0-.5.1-1 .3-1.3s.5-.6.9-.8.9-.4 1.4-.5 1.1-.1 1.8-.1h1c0-.4.1-.7.1-1 0-.7-.1-1.1-.4-1.4-.3-.3-.7-.4-1.4-.4h-.7c-.3 0-.5.1-.7.1-.2.1-.5.1-.7.2l-.6.3-.3-1zm2.6 7.2c.3 0 .6 0 .9-.1s.5-.2.7-.3.3-.3.5-.5c.1-.2.2-.3.3-.5v-1.5h-1c-.4 0-.7 0-1.1.1-.4 0-.7.1-.9.2-.3.1-.5.3-.6.5-.2.2-.2.4-.2.7 0 .4.1.8.4 1s.5.4 1 .4zm13.1.4c-.4.3-.8.5-1.4.7s-1.1.3-1.7.3c-.7 0-1.3-.1-1.8-.3s-.9-.5-1.2-1-.6-.9-.7-1.5-.2-1.2-.2-1.9c0-1.5.3-2.7 1-3.5s1.7-1.2 2.9-1.2c.4 0 .8 0 1.2.1s.8.3 1.1.5.6.6.8 1.1.3 1.1.3 1.8c0 .4 0 .8-.1 1.3h-5.8c0 .5.1 1 .2 1.4s.3.8.5 1c.2.3.5.5.9.6s.8.2 1.3.2c.4 0 .8-.1 1.2-.2.4-.1.7-.3.9-.5l.6 1.1zm-3.1-7.3c-.7 0-1.3.2-1.7.6-.4.4-.7 1-.8 1.9h4.5c0-.9-.2-1.6-.5-1.9-.4-.4-.9-.6-1.5-.6zm11.4.3h-2.8v7.7H601V213h-2.8v-1.3h7.1v1.3zm8.5 3.6h-.8v4.1h-1.4v-9h1.4v4.1l.8-.3 2.9-3.8h1.6l-2.8 3.6-.8.6.9.7 3 4.1h-1.8l-3-4.1zm5.8-.4c0-1.5.3-2.7 1-3.5s1.7-1.2 2.9-1.2c.7 0 1.3.1 1.8.3s.9.5 1.2 1 .6.9.7 1.5.2 1.2.2 1.9c0 1.5-.3 2.7-1 3.5s-1.7 1.2-2.9 1.2c-.7 0-1.3-.1-1.8-.3s-.9-.5-1.2-1-.6-.9-.7-1.5-.2-1.2-.2-1.9zm1.5 0c0 .5 0 .9.1 1.3s.2.8.4 1.1.4.6.8.8c.3.2.7.3 1.1.3 1.6 0 2.4-1.1 2.4-3.5 0-.5 0-.9-.1-1.3s-.2-.8-.4-1.1-.4-.6-.8-.7c-.3-.2-.7-.3-1.1-.3-1.6-.1-2.4 1.1-2.4 3.4zm16.6 6.8h-1l-.3-2.3h-6.8l-.3 2.3h-1v-3.5h1.1c.1-.1.2-.4.4-.7s.3-.8.5-1.4c.2-.6.3-1.4.4-2.3.1-.9.2-2 .2-3.3h5.4v7.7h1.3l.1 3.5zm-2.7-3.6V213h-2.7c0 .5-.1 1.1-.1 1.6-.1.6-.1 1.2-.2 1.8s-.2 1.2-.4 1.7-.3 1-.5 1.4h3.9v-.1zm6-4.3c.3 0 .6-.1.8-.1h.8c.6 0 1.1.1 1.5.2.4.1.8.3 1 .6s.4.5.5.9.1.7.1 1.1c0 1.1-.3 1.9-.9 2.4s-1.6.7-2.9.7c-.8 0-1.6 0-2.4-.1v-9h1.4v3.3h.1zm0 4.3c.4.1.9.1 1.3.1.8 0 1.3-.1 1.6-.4s.4-.7.4-1.3c0-.5-.1-.9-.4-1.2s-.8-.5-1.5-.5h-.7c-.3 0-.5 0-.7.1v3.2zm6.2-7.7h1.4v9h-1.4v-9z"/><path class="st0" d="M1035.6 231.9l.1 25"/><path d="M1022.6 208.1v4.2c0 1.6.7 2.5 2.2 2.5.6 0 1.1-.1 1.6-.2s.9-.3 1.2-.6v-5.8h1.5v12.6h-1.5v-5.4c-.3.2-.7.4-1.3.5-.5.2-1.1.3-1.8.3-.5 0-1-.1-1.4-.2-.4-.1-.8-.3-1.1-.6s-.5-.6-.7-1.1-.3-1-.3-1.7v-4.4h1.6v-.1zm16 11.9c-.4.3-.8.5-1.4.7s-1.1.3-1.7.3c-.7 0-1.3-.1-1.8-.3s-.9-.5-1.2-1-.6-.9-.7-1.5-.2-1.2-.2-1.9c0-1.5.3-2.7 1-3.5s1.7-1.2 2.9-1.2c.4 0 .8 0 1.2.1.4.1.8.3 1.1.5s.6.6.8 1.1.3 1.1.3 1.8c0 .4 0 .8-.1 1.3h-5.8c0 .5.1 1 .2 1.4s.3.8.5 1c.2.3.5.5.9.6s.8.2 1.3.2c.4 0 .8-.1 1.2-.2.4-.1.7-.3.9-.5l.6 1.1zm-3.1-7.3c-.7 0-1.3.2-1.7.6-.4.4-.7 1-.8 1.9h4.5c0-.9-.2-1.6-.5-1.9-.3-.4-.8-.6-1.5-.6zm8 3.9h-.8v4.1h-1.4v-9h1.4v4.1l.8-.3 2.9-3.8h1.6l-2.8 3.6-.8.6.9.7 3 4.1h-1.8l-3-4.1zm-314.3-127h-.8v5.8h-1.5V82.8h1.5v5.9l.8-.3 4.2-5.6h1.7l-4.2 5.4-.8.6.9.7 4.6 5.9h-1.9l-4.5-5.8zm8 1.3c0-1.5.3-2.7 1-3.5s1.7-1.2 2.9-1.2c.7 0 1.3.1 1.8.3s.9.5 1.2 1 .6.9.7 1.5.2 1.2.2 1.9c0 1.5-.3 2.7-1 3.5s-1.7 1.2-2.9 1.2c-.7 0-1.3-.1-1.8-.3s-.9-.5-1.2-1-.6-.9-.7-1.5-.2-1.2-.2-1.9zm1.5 0c0 .5 0 .9.1 1.3s.2.8.4 1.1.4.6.8.8c.3.2.7.3 1.1.3 1.6 0 2.4-1.1 2.4-3.5 0-.5 0-.9-.1-1.3s-.2-.8-.4-1.1-.4-.6-.8-.7c-.3-.2-.7-.3-1.1-.3-1.6 0-2.4 1.1-2.4 3.4zm16.6 6.8h-1l-.3-2.3h-6.8l-.3 2.3h-1v-3.5h1.1c.1-.1.2-.4.4-.7.2-.3.3-.8.5-1.4s.3-1.4.4-2.3c.1-.9.2-2 .2-3.3h5.4v7.7h1.3l.1 3.5zm-2.7-3.5v-6.5h-2.7c0 .5-.1 1.1-.1 1.6-.1.6-.1 1.2-.2 1.8s-.2 1.2-.4 1.7-.3 1-.5 1.4h3.9zm6-4.3c.3 0 .6-.1.8-.1h.8c.6 0 1.1.1 1.5.2s.8.3 1 .6.4.5.5.9.1.7.1 1.1c0 1.1-.3 1.9-.9 2.4s-1.6.7-2.9.7c-.8 0-1.6 0-2.4-.1v-9h1.4v3.3h.1zm0 4.3c.4.1.9.1 1.3.1.8 0 1.3-.1 1.6-.4s.4-.7.4-1.3c0-.5-.1-.9-.4-1.2s-.8-.5-1.5-.5h-.7c-.3 0-.5 0-.7.1v3.2zm6.2-7.8h1.4v9h-1.4v-9zm17 11.3h-1l-.3-2.3h-6.8l-.3 2.3h-1v-3.5h1.1c.1-.1.2-.4.4-.7.2-.3.3-.8.5-1.4s.3-1.4.4-2.3c.1-.9.2-2 .2-3.3h5.4v7.7h1.3l.1 3.5zm-2.8-3.5v-6.5h-2.7c0 .5-.1 1.1-.1 1.6-.1.6-.1 1.2-.2 1.8s-.2 1.2-.4 1.7-.3 1-.5 1.4h3.9zm9.4-6.5h-2.6c0 .5-.1 1-.1 1.6s-.1 1.2-.2 1.8-.2 1.1-.3 1.7-.3 1-.5 1.4-.4.7-.7 1-.6.4-1 .4h-.6c-.2 0-.3-.1-.4-.1l.2-1.2c.1 0 .3.1.5.1s.5-.1.6-.3c.2-.2.4-.6.5-1.2s.3-1.4.4-2.4c.1-1 .2-2.3.2-3.9h5.4v9h-1.4v-7.9zm8.7 4l-1.4.2-2.4 3.5h-1.7l2.2-3.1.7-.7c-.6-.1-1.2-.3-1.6-.8-.4-.4-.7-1-.7-1.7 0-.5.1-1 .3-1.4s.5-.7.8-1 .8-.4 1.2-.5c.5-.1 1-.2 1.6-.2.4 0 .9 0 1.2.1.4.1.8.1 1.1.2v8.9H797v-3.5h.1zm0-4c-.2-.1-.3-.1-.5-.1h-.5c-.8 0-1.4.1-1.8.4-.4.3-.6.7-.6 1.3 0 .5.2 1 .6 1.3.4.3 1 .4 1.7.4h1.1v-3.3zm15 7.1c-.4.3-.8.5-1.3.6s-1 .2-1.5.2c-.7 0-1.3-.1-1.8-.3s-.9-.5-1.2-1c-.3-.4-.5-.9-.7-1.5-.1-.6-.2-1.2-.2-1.9 0-1.5.3-2.7 1-3.5s1.6-1.2 2.9-1.2c.6 0 1.1 0 1.5.1s.8.2 1.1.4l-.4 1.2c-.3-.2-.6-.3-.9-.4s-.7-.1-1.1-.1c-1.7 0-2.6 1.2-2.6 3.5 0 .5 0 .9.1 1.3s.2.8.5 1.1.5.6.8.8c.3.2.8.3 1.3.3.4 0 .8-.1 1.2-.2.3-.1.6-.3.8-.5l.5 1.1zm7.4-7.1h-4v7.7h-1.4v-9h6.9v9h-1.4l-.1-7.7zm9.8 2.4l.1-1.1h-.1l-.7 1.2-4.1 5.3h-.8v-9h1.4V92l-.1 1.1h.1l.7-1.1 4.1-5.4h.9v9h-1.4v-5.5h-.1zm10.4 4.7c-.4.3-.8.5-1.3.6s-1 .2-1.5.2c-.7 0-1.3-.1-1.8-.3s-.9-.5-1.2-1c-.3-.4-.5-.9-.7-1.5-.1-.6-.2-1.2-.2-1.9 0-1.5.3-2.7 1-3.5s1.6-1.2 2.9-1.2c.6 0 1.1 0 1.5.1s.8.2 1.1.4l-.4 1.2c-.3-.2-.6-.3-.9-.4s-.7-.1-1.1-.1c-1.7 0-2.6 1.2-2.6 3.5 0 .5 0 .9.1 1.3s.2.8.5 1.1.5.6.8.8c.3.2.8.3 1.3.3.4 0 .8-.1 1.2-.2.3-.1.6-.3.8-.5l.5 1.1zm1.8-7.7c.5-.3 1-.5 1.6-.6s1.2-.2 1.9-.2c.6 0 1.1.1 1.5.3.4.2.7.4.9.7s.3.6.4.9c.1.3.1.6.1 1 0 .7 0 1.4-.1 2.1 0 .7-.1 1.3-.1 1.9 0 .4 0 .9.1 1.3 0 .4.1.8.2 1.1h-1.1l-.4-1.3h-.1c-.1.2-.2.3-.4.5s-.4.3-.6.4c-.2.1-.5.2-.8.3s-.6.1-1 .1-.7-.1-1.1-.2c-.3-.1-.6-.3-.9-.5-.2-.2-.4-.5-.6-.8-.1-.3-.2-.7-.2-1.1 0-.5.1-1 .3-1.3s.5-.6.9-.8.9-.4 1.4-.5 1.1-.1 1.8-.1h1c0-.4.1-.7.1-1 0-.7-.1-1.1-.4-1.4-.3-.3-.7-.4-1.4-.4h-.7c-.3 0-.5.1-.7.1-.2.1-.5.1-.7.2l-.6.3-.3-1zm2.6 7.2c.3 0 .6 0 .9-.1s.5-.2.7-.3c.2-.1.3-.3.5-.5.1-.2.2-.3.3-.5v-1.5h-1c-.4 0-.7 0-1.1.1-.4 0-.7.1-.9.2-.3.1-.5.3-.6.5-.2.2-.2.4-.2.7 0 .4.1.8.4 1s.5.4 1 .4zm12-2.8H852v4h-1.4v-9h1.4v3.8h4.1v-3.8h1.4v9h-1.4v-4zm9.8-1.4l.1-1.1h-.1l-.7 1.2-4.1 5.3h-.8v-9h1.4V92l-.1 1.1h.1l.7-1.1 4.1-5.4h.9v9H866v-5.5h-.1zm8.7 1.6l-1.4.2-2.4 3.5h-1.7l2.2-3.1.7-.7c-.6-.1-1.2-.3-1.6-.8-.4-.4-.7-1-.7-1.7 0-.5.1-1 .3-1.4s.5-.7.8-1 .8-.4 1.2-.5c.5-.1 1-.2 1.6-.2.4 0 .9 0 1.2.1.4.1.8.1 1.1.2v8.9h-1.4v-3.5h.1zm0-4c-.2-.1-.3-.1-.5-.1h-.5c-.8 0-1.4.1-1.8.4-.4.3-.6.7-.6 1.3 0 .5.2 1 .6 1.3.4.3 1 .4 1.7.4h1.1v-3.3zM282.7 219.4l.3.9c.1.3.1.6 0 1s-.2.6-.4.9c-.2.3-.4.5-.8.8v.1c.3-.1.7-.2 1.1-.1s.8.1 1.1.2c.3.1.7.3 1 .5s.6.6.8 1c.3.6.5 1.1.4 1.7 0 .5-.1 1.1-.4 1.5-.2.5-.6.9-1 1.3s-.9.7-1.4 1l-.6.3c-.2.1-.5.3-.8.4-.3.1-.5.2-.8.4-.3.1-.5.2-.8.3l-5.8-10.9c.4-.3.8-.6 1.3-.9.5-.3 1.1-.6 1.7-1 .4-.2.9-.4 1.3-.6.5-.2.9-.2 1.4-.2s.9.1 1.3.3c.5.2.8.6 1.1 1.1zm-3.4 4.7c.2-.1.4-.2.6-.4.3-.1.5-.3.6-.4l.6-.6c.2-.2.3-.4.4-.7s.1-.5.1-.8-.1-.5-.2-.8c-.2-.4-.4-.6-.6-.7-.2-.1-.5-.2-.8-.2s-.6 0-.9.1-.6.2-.9.4c-.4.2-.7.4-.9.5-.3.2-.5.3-.6.4l1.9 3.5.7-.3zm3.8 4.9l.9-.6c.3-.3.5-.5.6-.8.2-.3.2-.6.2-1 0-.3-.1-.7-.3-1-.2-.4-.5-.8-.9-1-.3-.2-.7-.3-1.1-.3s-.7.1-1.1.2c-.4.1-.7.3-1.1.5l-1.4.7 2.2 4.1c.1 0 .2-.1.3-.1s.3-.1.5-.2.3-.2.5-.2c.4-.2.6-.3.7-.3zm5.3-7.9c.2-.2.5-.3.7-.5.2-.1.4-.3.7-.4.5-.3 1-.5 1.5-.5.4-.1.8-.1 1.2 0s.6.3.9.5c.2.2.5.5.6.9.5 1 .6 1.8.3 2.5s-1 1.4-2.2 2c-.7.4-1.4.7-2.2 1l-4.3-7.9 1.3-.7 1.5 3.1zm2 3.8c.4-.1.8-.3 1.2-.5.7-.4 1.1-.7 1.2-1.1.1-.4.1-.8-.2-1.3-.2-.4-.5-.7-.9-.8s-.9 0-1.6.3l-.6.3c-.2.1-.4.3-.5.4l1.4 2.7zm1.9-9.8l1.3-.7 4.3 7.9-1.3.7-4.3-7.9zm16 4.2l-.9.5-1.3-1.9-6 3.2.8 2.1-.9.5-1.7-3.1.9-.5v-.8c0-.4-.1-.9-.3-1.5-.2-.6-.4-1.4-.7-2.2-.3-.9-.8-1.9-1.4-3l4.8-2.6 3.7 6.8 1.2-.6 1.8 3.1zm-4.1-1.8l-3.1-5.7-2.4 1.3c.2.5.4 1 .7 1.5.2.6.4 1.1.6 1.7.2.6.3 1.1.5 1.7.1.5.2 1 .2 1.5l3.5-2zm.5-8.3c.3-.5.6-.9 1.1-1.3.5-.4 1-.8 1.6-1.1.5-.3 1-.5 1.4-.5s.8 0 1.1.2c.3.1.6.3.8.6.2.3.4.5.5.8.3.6.7 1.3.9 1.9.3.6.6 1.2.9 1.7.2.4.4.8.6 1.1s.4.6.7.9l-.9.5-.9-.9h-.1c0 .2-.1.4-.1.6-.1.2-.2.4-.3.7-.1.2-.3.4-.5.6-.2.2-.5.4-.8.6-.3.2-.7.3-1 .3-.4.1-.7 0-1 0-.3-.1-.6-.2-.9-.4s-.5-.5-.7-.8c-.3-.5-.4-.9-.3-1.3 0-.4.2-.8.4-1.2.2-.4.6-.7 1-1.1s.9-.7 1.5-1c.1-.1.3-.2.4-.2s.3-.1.5-.2c-.1-.3-.3-.6-.4-.9-.3-.6-.6-.9-1-1s-.8 0-1.5.3l-.6.3c-.2.1-.4.3-.6.5s-.4.3-.5.5-.3.3-.4.5l-.9-.7zm5.7 5.2c.3-.2.5-.3.7-.5s.3-.4.4-.6c.1-.2.2-.4.2-.6v-.6l-.7-1.3c-.1.1-.3.1-.5.2s-.3.2-.5.2l-.9.6c-.3.2-.5.4-.7.6-.2.2-.3.5-.3.7 0 .3 0 .5.1.8.2.4.5.6.9.7.5 0 .9 0 1.3-.2zm2.8-10.5l1.2 2.2c.2.3.3.5.5.7s.3.4.5.5.4.2.6.2.5-.1.8-.2c.5-.3.8-.5 1.1-.8.3-.3.4-.5.5-.7l-1.9-3.5 1.3-.7 4.3 7.9-1.3.7-1.8-3.3c-.1.2-.3.4-.6.7-.3.3-.7.6-1.3.9-.4.2-.8.4-1.1.4-.3.1-.7.1-1 0s-.6-.3-.9-.6-.6-.7-.9-1.2l-1.3-2.4 1.3-.8zm7.2-3.1c.3-.5.6-.9 1.1-1.3.5-.4 1-.8 1.6-1.1.5-.3 1-.5 1.4-.5s.8 0 1.1.2c.3.1.6.3.8.6.2.3.4.5.5.8.3.6.7 1.3.9 1.9.3.6.6 1.2.9 1.7.2.4.4.8.6 1.1s.4.6.7.9l-.9.5-.9-.9h-.1c0 .2-.1.4-.1.6s-.2.4-.3.7c-.1.2-.3.4-.5.6-.2.2-.5.4-.8.6-.3.2-.7.3-1 .3-.3.1-.7 0-1 0-.3-.1-.6-.2-.9-.4s-.5-.5-.7-.8c-.3-.5-.4-.9-.3-1.3s.2-.8.4-1.2c.2-.4.6-.7 1-1.1.4-.3.9-.7 1.5-1 .1-.1.3-.2.4-.2.1-.1.3-.1.4-.2-.1-.3-.3-.6-.4-.9-.3-.6-.6-.9-1-1s-.8 0-1.5.3l-.6.3c-.2.1-.4.3-.6.5s-.4.3-.5.5-.3.3-.4.5l-.8-.7zm5.7 5.2c.3-.2.5-.3.7-.5s.3-.4.4-.6c.1-.2.2-.4.2-.6v-.6l-.7-1.3c-.2.1-.3.1-.5.2s-.3.2-.5.2l-.9.6c-.3.2-.5.4-.7.6-.2.2-.3.5-.3.7 0 .3 0 .5.1.8.2.4.5.6.9.7.4.1.8 0 1.3-.2zm10.5-9l-.7.4 1.9 3.6-1.3.7-4.3-7.9 1.3-.7 1.9 3.6.6-.6.7-4.7 1.4-.7-.7 4.5-.4.9 1.2.2 4.6 2.2-1.6.8-4.6-2.3zm5-3.2c-.7-1.3-1-2.5-.8-3.6.2-1 .9-1.9 2-2.5.6-.3 1.2-.5 1.7-.5s1.1 0 1.5.3c.5.2.9.5 1.3 1 .4.4.8 1 1.1 1.6.7 1.3 1 2.5.8 3.6-.2 1-.9 1.9-2 2.5-.6.3-1.2.5-1.7.5s-1.1 0-1.5-.3c-.5-.2-.9-.5-1.3-1-.4-.4-.8-1-1.1-1.6zm1.3-.7c.2.4.5.8.7 1.1.3.3.6.6.9.8s.7.3 1 .3c.4 0 .7-.1 1.1-.3 1.4-.8 1.6-2.2.5-4.2-.2-.4-.5-.8-.7-1.1s-.6-.6-.9-.8-.7-.3-1-.3c-.4 0-.7.1-1.1.3-1.4.8-1.6 2.2-.5 4.2zm17.8-1.9l-.9.5-1.3-1.9-6 3.2.8 2.1-.9.5-1.7-3.1.9-.5v-.8c0-.4-.1-.9-.3-1.5-.2-.6-.4-1.4-.7-2.2-.3-.9-.8-1.9-1.4-3l4.8-2.6 3.7 6.8 1.2-.6 1.8 3.1zm-4.1-1.8l-3.1-5.7-2.4 1.3c.2.5.4 1 .7 1.5.2.6.4 1.1.6 1.7.2.6.3 1.1.5 1.7.1.5.2 1 .2 1.5l3.5-2zm2.1-4.7c-.7-1.3-1-2.5-.8-3.6.2-1 .9-1.9 2-2.5.6-.3 1.2-.5 1.7-.5s1.1 0 1.5.3c.5.2.9.5 1.3 1 .4.4.8 1 1.1 1.6.7 1.3 1 2.5.8 3.6-.2 1-.9 1.9-2 2.5-.6.3-1.2.5-1.7.5s-1.1 0-1.5-.3c-.5-.2-.9-.5-1.3-1s-.8-1-1.1-1.6zm1.3-.7c.2.4.5.8.7 1.1.3.3.6.6.9.8s.7.3 1 .3c.4 0 .7-.1 1.1-.3 1.4-.8 1.6-2.2.5-4.2-.2-.4-.5-.8-.7-1.1-.3-.3-.6-.6-.9-.8s-.7-.3-1-.3-.7.1-1.1.3c-1.4.7-1.6 2.1-.5 4.2zm5.5-8.1c.4-.2.7-.5 1.1-.7s.9-.5 1.5-.9c1-.6 1.9-.8 2.5-.7s1.1.4 1.5 1.1c.2.4.3.8.3 1.3s-.2.9-.7 1.4v.1c.7-.2 1.2-.2 1.7-.1.4.2.8.5 1.1 1.1.4.8.5 1.6.1 2.3s-1.2 1.3-2.4 2c-.4.2-.9.4-1.3.6s-.8.4-1.2.5l-4.2-8zm4.6 1.8c.2-.1.4-.2.5-.4s.3-.3.3-.5c.1-.2.1-.4.1-.6 0-.2 0-.4-.1-.6-.2-.4-.5-.6-.8-.7-.3 0-.8.1-1.5.5-.3.2-.6.3-.8.4-.2.1-.4.2-.5.3l1.2 2.3 1.6-.7zm.3 4.4l.6-.3c.2-.1.4-.2.7-.4.7-.4 1.2-.8 1.4-1.2.2-.4.2-.8 0-1.3-.2-.4-.5-.6-.9-.7-.4-.1-1 .1-1.7.5l-1.4.7 1.3 2.7zm-105.1 4.7l-.6-1.1.2-.1c.1-.1.2-.1.3-.2.1-.1.3-.2.4-.2.1-.1.3-.2.4-.2.1-.1.2-.2.3-.2.2-.2.5-.4.7-.6.2-.2.3-.5.4-.7.1-.3.1-.5.1-.8s-.1-.5-.2-.8c-.2-.3-.4-.6-.6-.8s-.5-.3-.8-.3-.6 0-.9.1-.6.2-.9.4c-.6.3-1 .6-1.4.9-.4.3-.6.6-.8.8l-.9-.9c.1-.2.5-.6.9-1 .5-.4 1.1-.8 1.7-1.2.4-.2.9-.4 1.3-.5.5-.1.9-.2 1.3-.2s.8.2 1.2.4c.4.2.7.6 1 1.1s.4 1.1.3 1.8-.4 1.3-1 1.9v.1c.8-.3 1.5-.3 2.2-.1s1.2.7 1.6 1.5c.3.6.5 1.2.5 1.8s-.1 1.1-.3 1.6c-.2.5-.6.9-1 1.3s-.9.8-1.4 1c-.7.4-1.3.7-1.8.8-.5.2-.9.3-1.3.3l-.3-1.4c.3 0 .7-.1 1.2-.3s1-.4 1.7-.7c.3-.2.6-.4.9-.7s.5-.5.6-.9c.1-.3.2-.7.2-1s-.1-.7-.3-1.1c-.4-.7-.9-1-1.5-1.1s-1.3.1-2.1.5c-.1.1-.3.1-.4.2-.1.1-.2.1-.3.2l-.6.4zm6.3-6.2c.3-.5.6-.9 1.1-1.3.5-.4 1-.8 1.6-1.1.5-.3 1-.5 1.4-.5s.8 0 1.1.2c.3.1.6.3.8.6.2.3.4.5.6.8.3.6.7 1.3 1 1.9.3.6.6 1.2.9 1.7.2.4.4.8.7 1.1.2.3.5.6.7.9l-.9.5-.9-.9h-.1c0 .2-.1.4-.1.6-.1.2-.2.4-.3.7-.1.2-.3.4-.5.7-.2.2-.5.4-.8.6-.3.2-.7.3-1 .4-.3.1-.7 0-1 0-.3-.1-.6-.2-.9-.4s-.5-.5-.7-.8c-.3-.5-.4-.9-.4-1.3s.2-.8.4-1.2c.2-.4.6-.7 1-1.1.4-.3.9-.7 1.5-1 .1-.1.3-.2.4-.2.1-.1.3-.1.4-.2-.1-.3-.3-.6-.4-.9-.3-.6-.7-.9-1-1-.4-.1-.8 0-1.5.3-.2.1-.4.2-.6.4-.2.1-.4.3-.6.5s-.4.3-.5.5c-.2.2-.3.3-.4.5l-1-1zm5.7 5.1c.3-.2.5-.3.7-.6.2-.2.3-.4.4-.6.1-.2.2-.4.2-.6v-.6l-.7-1.3c-.1.1-.3.1-.5.2s-.3.2-.5.2l-.9.6c-.3.2-.5.4-.7.7-.2.2-.3.5-.3.7s0 .5.1.8c.2.4.5.6.9.7.5.1.9.1 1.3-.2zm6.3-6.7l-.7.4 1.9 3.6-1.3.7-4.3-7.9 1.3-.7 2 3.6.6-.6.7-4.7 1.4-.8-.7 4.5-.4.9 1.2.2 4.6 2.1-1.6.9-4.7-2.2zm3.4-6.8c.3-.5.6-.9 1.1-1.3.5-.4 1-.8 1.6-1.1.5-.3 1-.5 1.4-.5s.8 0 1.1.2.6.3.8.6c.2.3.4.5.6.8.3.6.7 1.3 1 1.9.3.6.6 1.2.9 1.7.2.4.4.8.7 1.1.2.3.5.6.7.9l-.9.5-.9-.9h-.1c0 .2-.1.4-.1.6-.1.2-.2.4-.3.7-.1.2-.3.4-.5.7-.2.2-.5.4-.8.6-.3.2-.7.3-1 .4-.3.1-.7 0-1 0-.3-.1-.6-.2-.9-.4s-.5-.5-.7-.8c-.3-.5-.4-.9-.4-1.3s.2-.8.4-1.2c.2-.4.6-.7 1-1.1.4-.3.9-.7 1.5-1 .1-.1.3-.2.4-.2s.3-.1.4-.2c-.1-.3-.3-.6-.4-.9-.3-.6-.7-.9-1-1-.4-.1-.8 0-1.5.3-.2.1-.4.2-.6.4-.2.1-.4.3-.6.5s-.4.3-.5.5c-.2.2-.3.3-.4.5l-1-1zm5.7 5.1c.3-.2.5-.3.7-.6.2-.2.3-.4.4-.6.1-.2.2-.4.2-.6v-.6l-.7-1.3c-.1.1-.3.1-.5.2s-.3.2-.5.2l-.9.6c-.3.2-.5.4-.7.7-.2.2-.3.5-.3.7 0 .3 0 .5.1.8.2.4.5.6.9.7.5.1.9.1 1.3-.2zm5.1-6l-.6-1 1.1-.6c.2-.1.4-.2.5-.4.2-.2.3-.3.4-.5s.1-.4.1-.6c0-.2 0-.4-.1-.6-.2-.4-.5-.6-.9-.6s-.8.1-1.4.4c-.4.2-.8.5-1 .8-.3.3-.5.6-.6.8l-.9-.8c.2-.4.5-.7.9-1.1.4-.4.8-.7 1.4-1 1.7-1 3-.8 3.7.5.2.4.3.8.2 1.3 0 .5-.2.9-.6 1.3v.1c.7-.2 1.2-.2 1.7 0 .4.2.8.6 1.1 1.1.2.3.3.7.3 1 0 .4-.1.7-.2 1.1-.2.4-.4.7-.8 1.1-.4.3-.8.7-1.3 1s-1 .5-1.4.6-.8.2-1.1.2l-.2-1.2c.3 0 .7-.1 1-.2.4-.1.8-.3 1.2-.5.6-.4 1.1-.7 1.3-1.1.2-.4.2-.8 0-1.3-.2-.4-.5-.6-1-.6-.4 0-1 .1-1.7.5l-1.1.3zm12.4-6.9l-.7.4 1.9 3.6-1.3.7-4.3-7.9 1.3-.7 2 3.6.6-.6.7-4.7 1.4-.8-.7 4.5-.4.9 1.2.2 4.6 2.1-1.6.9-4.7-2.2zm4.9-3.1c-.7-1.3-1-2.5-.8-3.6.2-1 .9-1.9 2-2.5.6-.3 1.2-.5 1.7-.6.5 0 1.1 0 1.5.3.5.2.9.5 1.3 1 .4.4.8 1 1.1 1.6.7 1.3 1 2.5.8 3.6-.2 1-.9 1.9-2 2.5-.6.3-1.2.5-1.7.5s-1.1 0-1.5-.3c-.5-.2-.9-.5-1.3-1-.4-.4-.7-.9-1.1-1.5zm1.3-.8c.2.4.5.8.8 1.1s.6.6.9.8.7.3 1 .3c.4 0 .7-.1 1.1-.3 1.4-.8 1.6-2.2.5-4.2-.2-.4-.5-.8-.8-1.1s-.6-.6-.9-.8-.7-.3-1-.3c-.4 0-.7.1-1.1.3-1.4.8-1.6 2.2-.5 4.2zm17.9-2l-.9.5-1.3-1.9-5.9 3.2.9 2.1-.9.5-1.7-3.1.9-.5v-.8c0-.4-.1-.9-.3-1.5-.2-.6-.4-1.4-.8-2.2-.3-.9-.8-1.9-1.4-3l4.8-2.6 3.7 6.8 1.2-.6 1.7 3.1zm-4.1-1.8l-3.1-5.7-2.4 1.3c.2.5.4 1 .7 1.5.2.6.4 1.1.6 1.7.2.6.3 1.1.5 1.7s.2 1 .2 1.5l3.5-2zm1.9-4.7c-.7-1.3-1-2.5-.8-3.6.2-1 .9-1.9 2-2.5.6-.3 1.2-.5 1.7-.6.5 0 1.1 0 1.5.3.5.2.9.5 1.3 1 .4.4.8 1 1.1 1.6.7 1.3 1 2.5.8 3.6-.2 1-.9 1.9-2 2.5-.6.3-1.2.5-1.7.5s-1.1 0-1.5-.3-.9-.5-1.3-1c-.3-.4-.7-.9-1.1-1.5zm1.3-.8c.2.4.5.8.8 1.1s.6.6.9.8.7.3 1 .3c.4 0 .7-.1 1.1-.3 1.4-.8 1.6-2.2.5-4.2-.2-.4-.5-.8-.8-1.1s-.6-.6-.9-.8-.7-.3-1-.3c-.4 0-.7.1-1.1.3-1.4.8-1.6 2.2-.5 4.2zm5.5-8c.4-.2.7-.5 1.1-.7.4-.3.9-.5 1.5-.9 1-.6 1.9-.8 2.5-.7s1.1.4 1.5 1.1c.2.4.3.8.3 1.3s-.2.9-.6 1.4v.1c.7-.2 1.2-.2 1.7-.1.4.2.8.5 1.1 1.1.4.8.5 1.6.1 2.3s-1.2 1.4-2.4 2c-.4.2-.9.5-1.3.6-.4.2-.8.4-1.2.5l-4.3-8zm4.6 1.7c.2-.1.4-.2.5-.4s.3-.3.3-.5c.1-.2.1-.4.1-.6 0-.2 0-.4-.1-.6-.2-.4-.5-.6-.9-.7-.3 0-.8.1-1.5.5-.3.2-.6.3-.8.5-.2.1-.4.2-.5.3l1.3 2.3 1.6-.8zm.4 4.4l.6-.3c.2-.1.4-.2.7-.4.7-.4 1.2-.8 1.4-1.2.2-.4.2-.8 0-1.3-.2-.4-.5-.6-.9-.7-.4-.1-1 .1-1.7.5l-1.4.8 1.3 2.6zm412 19.5l-.8-.2-1.4 5.7-1.4-.4 3-12.2 1.5.4-1.4 5.7.8-.1 5.5-4.4 1.7.4-5.4 4.3-.9.4.7.9 3.1 6.8-1.8-.5-3.2-6.8zm7.5 3.2c.4-1.5 1-2.5 1.8-3.2.9-.6 1.9-.8 3.1-.5.7.2 1.2.4 1.6.7s.8.7 1 1.2.3 1 .3 1.6-.1 1.2-.2 1.9c-.4 1.5-1 2.5-1.8 3.2-.9.6-1.9.8-3.1.5-.7-.2-1.2-.4-1.6-.7s-.8-.7-1-1.2-.3-1-.3-1.6 0-1.2.2-1.9zm1.4.4c-.1.4-.2.9-.2 1.3s0 .8.2 1.2c.1.4.3.7.6.9.3.3.6.4 1 .5 1.6.4 2.6-.5 3.2-2.8.1-.5.2-.9.2-1.3s0-.8-.1-1.2-.3-.7-.6-.9c-.3-.3-.6-.4-1-.5-1.6-.4-2.7.5-3.3 2.8zm14.5 10.6l-.9-.2.3-2.3-6.6-1.6-.8 2.2-.9-.2.9-3.4 1 .3c.1-.1.3-.3.5-.6s.5-.7.8-1.3.6-1.3.9-2.1c.3-.9.7-1.9 1-3.1l5.3 1.3-1.9 7.5 1.3.3-.9 3.2zm-1.8-4.1l1.6-6.3-2.6-.7c-.1.5-.3 1-.5 1.6s-.4 1.1-.7 1.7-.5 1.1-.8 1.5-.6.9-.9 1.2l3.9 1zm6.9-2.8c.3 0 .6.1.8.1.3 0 .5.1.7.2.6.1 1.1.3 1.4.6.4.2.7.5.8.8.2.3.3.6.3 1 0 .3 0 .7-.1 1.1-.3 1.1-.7 1.8-1.4 2.1s-1.7.3-3 0c-.7-.2-1.5-.4-2.3-.7l2.2-8.7 1.4.3-.8 3.2zm-1.1 4.2c.4.2.8.3 1.2.4.7.2 1.3.2 1.6 0 .4-.2.6-.6.7-1.1.1-.5.1-.9-.1-1.3s-.7-.6-1.4-.8c-.2-.1-.4-.1-.7-.1s-.5-.1-.7-.1l-.6 3zm7.9-6l1.4.3-2.2 8.7-1.4-.3 2.2-8.7zm13.3 7.1l.3-1.1h-.1l-1 .9-5.2 4.2-.8-.2 2.2-8.7 1.4.3-1.3 5.3-.3 1h.1l.9-.9 5.2-4.3.8.2-2.2 8.7-1.4-.3 1.4-5.1zm4.7 2.4l.3-1.1 1.2.3c.2.1.4.1.6.1.2 0 .4-.1.6-.2.2-.1.4-.2.5-.3s.2-.3.3-.5c.1-.4 0-.8-.2-1.1-.3-.3-.7-.5-1.3-.6-.5-.1-.9-.1-1.3-.1s-.7.1-1 .2l-.1-1.2c.4-.1.8-.2 1.4-.2.5 0 1.1 0 1.7.2 1.9.5 2.7 1.4 2.4 2.9-.1.4-.3.8-.7 1.1s-.8.5-1.3.6v.1c.7.3 1.1.7 1.3 1.1.2.4.2.9.1 1.5-.1.4-.3.7-.5 1s-.5.5-.9.7-.8.2-1.3.3c-.5 0-1 0-1.6-.2-.6-.1-1.1-.3-1.4-.5-.4-.2-.7-.4-1-.6l.7-1.1c.2.2.5.4.9.6.4.2.8.3 1.2.4.7.2 1.3.2 1.7 0s.7-.5.8-1c.1-.4 0-.8-.3-1.1s-.8-.6-1.6-.8l-1.2-.5zm15.5 1.9l.1 1.7h.1l.7-1.5 3.9-5.8 1.5.4-5.1 7.2c-.5.8-1 1.4-1.3 1.9-.4.5-.7.9-1.1 1.2-.3.3-.7.5-1 .5-.3.1-.7.1-1.1 0-.4-.1-.7-.2-.9-.3s-.4-.3-.6-.4l.7-1.1c.2.2.4.3.6.4.2.1.4.1.5.2.3.1.6 0 .9-.3s.6-.7.9-1.3l-2.3-10.2 1.7.4 1.8 7zm14.6-1.9l-5.6-1.4-2.7 10.9-1.5-.4 3-12.2 8.5 2.1-3 12.2-1.4-.4 2.7-10.8zm10.9 16.7l-1-.2.3-2.3-8.6-2.1-.8 2.2-1-.3.9-3.5 1.2.3c.1-.1.3-.4.6-.8s.7-1.1 1.1-1.9c.4-.8.8-1.9 1.3-3.2s.9-2.8 1.4-4.7l6.5 1.6-2.7 10.9 1.6.4-.8 3.6zm-2.2-4.3l2.4-9.6-3.7-.9c-.4 1.3-.7 2.4-1.1 3.4s-.7 1.9-1 2.6-.7 1.4-1 1.9-.6 1-.9 1.3l5.3 1.3zM59.1 423.5h-5.8v11.3h-1.5v-12.6h8.8v12.6h-1.5v-11.3zm4.5-1.2c.5-.1.9-.2 1.5-.2s1-.1 1.6-.1 1.1.1 1.7.2 1.1.3 1.6.6.8.7 1.1 1.2.4 1.1.4 1.9-.1 1.4-.4 1.9-.6 1-1.1 1.3-1 .6-1.6.7-1.2.2-1.8.2h-1.4v4.8h-1.5l-.1-12.5zm3.1 1h-.9c-.3 0-.5 0-.7.1v5.2h1.4c.4 0 .8 0 1.2-.1.4-.1.8-.2 1.1-.4.3-.2.6-.5.8-.9.2-.4.3-.8.3-1.4 0-.5-.1-.9-.3-1.2s-.4-.6-.7-.8-.6-.3-1-.4c-.4-.1-.8-.1-1.2-.1zm6.5 5.1c0-2.1.4-3.7 1.3-4.8.9-1.1 2.2-1.7 3.8-1.7.9 0 1.7.2 2.3.5s1.2.8 1.6 1.3c.4.6.7 1.3.9 2.1.2.8.3 1.7.3 2.7 0 2.1-.4 3.7-1.3 4.8-.9 1.1-2.2 1.7-3.8 1.7-.9 0-1.6-.2-2.3-.5-.6-.3-1.2-.8-1.6-1.3s-.7-1.3-.9-2.1c-.2-.8-.3-1.7-.3-2.7zm1.6 0c0 .7.1 1.4.2 2s.4 1.2.6 1.6.7.9 1.1 1.1 1 .4 1.6.4c1.1 0 2-.4 2.6-1.3.6-.8 1-2.2 1-3.9 0-.7-.1-1.3-.2-2-.1-.6-.4-1.2-.7-1.7-.3-.5-.7-.8-1.1-1.1-.4-.3-1-.4-1.6-.4-1.1 0-2 .4-2.6 1.3-.6 1-.9 2.3-.9 4zm18.9-2.2l.1-1.4h-.1l-.8 1.5-6.1 8.5H86v-12.6h1.5v8.6l-.1 1.4h.1l.8-1.5 6.1-8.6h.9v12.6h-1.5v-8.5h-.1zm5.6 2.6v-1.3h2.1c.3-.1.6-.1.9-.3.3-.1.5-.3.7-.4.2-.2.4-.4.5-.6s.2-.5.2-.8c0-.4-.1-.7-.2-1s-.3-.5-.5-.6c-.2-.2-.5-.3-.8-.3-.3-.1-.6-.1-1-.1-.6 0-1.2 0-1.7.1s-.8.2-1.1.3l-.4-1.2c.2-.1.7-.3 1.3-.4.6-.1 1.3-.2 2.1-.2.5 0 1 .1 1.4.2.5.1.9.3 1.2.5s.7.6.9 1c.2.4.3.9.3 1.5s-.2 1.2-.6 1.7-1 .9-1.8 1.2v.1c.8.1 1.5.4 2 1 .5.5.7 1.2.7 2.1 0 .7-.1 1.3-.4 1.8s-.6.9-1.1 1.2-.9.6-1.5.7c-.6.2-1.1.2-1.7.2-.8 0-1.4 0-2-.1s-.9-.2-1.3-.3l.4-1.3c.3.1.7.2 1.2.3.5.1 1.1.1 1.8.1.4 0 .7-.1 1.1-.2s.7-.3 1-.5.5-.5.7-.8.3-.7.3-1.1c0-.8-.3-1.3-.8-1.7-.5-.4-1.2-.6-2.1-.6h-1.8v-.2zm16.3-3.8c0 .3 0 .6-.1.9s-.2.6-.4.9-.4.5-.7.6-.7.3-1.1.4v.1c.4.1.7.2 1 .4.3.2.6.4.9.7s.5.6.6.9.2.8.2 1.3c0 .7-.1 1.2-.4 1.7s-.6.9-1.1 1.2-.9.5-1.5.7c-.6.1-1.1.2-1.7.2h-1.6c-.3 0-.6 0-.9-.1s-.6-.1-.8-.1v-12.3c.4-.1 1-.1 1.6-.2.6 0 1.2-.1 1.9-.1.5 0 .9 0 1.4.1s.9.2 1.3.4.7.5 1 .9.4.8.4 1.4zm-5.1 2.5h.7c.3 0 .5 0 .7-.1.3-.1.6-.2.8-.3.3-.1.5-.2.7-.4.2-.2.4-.4.5-.7.1-.2.2-.5.2-.8 0-.4-.1-.7-.2-.9-.1-.2-.3-.4-.6-.6-.3-.2-.5-.3-.9-.3-.3-.1-.7-.1-1-.1h-1.1c-.3 0-.6 0-.7.1v4l.9.1zm.9 6.1c.4 0 .8 0 1.1-.1.4-.1.7-.2 1-.4.3-.2.5-.4.7-.7.2-.3.2-.6.2-1 0-.5-.1-.9-.3-1.3-.2-.4-.5-.6-.8-.8-.3-.2-.7-.3-1.1-.3-.4-.1-.8-.1-1.2-.1h-1.6v4.7c.1 0 .2 0 .4.1s.3 0 .5 0h.6c.2 0 .4-.1.5-.1zm6.6-5.2c0-2.1.4-3.7 1.3-4.8.9-1.1 2.2-1.7 3.8-1.7.9 0 1.7.2 2.3.5s1.2.8 1.6 1.3c.4.6.7 1.3.9 2.1.2.8.3 1.7.3 2.7 0 2.1-.4 3.7-1.3 4.8-.9 1.1-2.2 1.7-3.8 1.7-.9 0-1.6-.2-2.3-.5-.6-.3-1.2-.8-1.6-1.3s-.7-1.3-.9-2.1-.3-1.7-.3-2.7zm1.6 0c0 .7.1 1.4.2 2s.4 1.2.6 1.6.7.9 1.1 1.1 1 .4 1.6.4c1.1 0 2-.4 2.6-1.3.6-.8 1-2.2 1-3.9 0-.7-.1-1.3-.2-2-.1-.6-.4-1.2-.7-1.7-.3-.5-.7-.8-1.1-1.1-.4-.3-1-.4-1.6-.4-1.1 0-2 .4-2.6 1.3-.6 1-.9 2.3-.9 4zm21.3 8.7h-1l-.3-2.3h-8.8l-.3 2.3h-1v-3.7h1.3c.1-.1.2-.4.4-.9s.4-1.2.6-2.1c.2-.9.4-2 .5-3.4.2-1.4.2-3 .2-4.9h6.7v11.3h1.6v3.7h.1zm-3.2-3.7v-9.9h-3.8c0 1.3-.1 2.5-.2 3.6s-.2 2-.4 2.8-.3 1.5-.5 2.1-.4 1.1-.6 1.5h5.5v-.1zm12.9-7.2l.1-1.4h-.1l-.8 1.5-6.1 8.5h-.9v-12.6h1.5v8.6l-.1 1.4h.1l.8-1.5 6.1-8.6h.9v12.6h-1.5v-8.5zm12.7-2.7h-3.9v11.3h-1.5v-11.3H154v-1.3h9.3v1.3zm1.8-1.4h6.9v1.3h-5.4v4.1h4.9v1.3h-4.9v4.5h5.5v1.3h-7v-12.5zm16.4 1.4h-3.8c-.1 2.4-.3 4.4-.5 6s-.5 2.8-.9 3.7c-.3.6-.6 1-.9 1.3-.4.3-.7.4-1.2.4h-.6c-.2 0-.3-.1-.4-.1l.2-1.3c.1 0 .2.1.4.1s.4-.1.6-.2c.2-.1.4-.4.6-.7.2-.3.3-.8.5-1.3s.3-1.2.4-2.1c.1-.8.2-1.8.3-3 .1-1.1.1-2.5.2-4h6.7v12.6h-1.5v-11.4h-.1zm4.5-1.4h1.5v4.9h1.8c.6 0 1.1.1 1.7.2.5.1 1 .3 1.5.6s.8.7 1 1.2.4 1.1.4 1.8-.1 1.3-.4 1.9-.6 1-1 1.3-1 .6-1.6.8c-.6.2-1.2.3-1.9.3h-1.4c-.3 0-.5 0-.8-.1s-.5-.1-.7-.1l-.1-12.8zm3.2 11.5c.4 0 .8-.1 1.2-.2s.7-.3 1-.5.5-.5.7-.9.2-.8.2-1.2c0-.5-.1-.9-.3-1.3s-.4-.6-.7-.8-.6-.3-1-.4-.8-.1-1.2-.1h-.9c-.2 0-.3 0-.4.1-.1 0-.2 0-.3.1v5.1c.2 0 .4.1.7.1h1zm325.8 3.5h-1l-.3-2.3h-8.8l-.3 2.3h-1v-3.7h1.3c.1-.1.2-.4.4-.9s.4-1.2.6-2.1.4-2 .5-3.4c.2-1.4.2-3 .2-4.9h6.7v11.3h1.6l.1 3.7zm-3.1-3.7v-9.9h-3.8c0 1.3-.1 2.5-.2 3.6s-.2 2-.4 2.8-.3 1.5-.5 2.1-.4 1.1-.6 1.5h5.5v-.1zm12.9-7.2l.1-1.4h-.1l-.8 1.5-6.1 8.5h-.9v-12.6h1.5v8.6l-.1 1.4h.1l.8-1.5 6.1-8.6h.9v12.6h-1.5v-8.5zm12.6 8c-.4.3-.8.5-1.4.6-.6.1-1.1.2-1.8.2-.8 0-1.5-.1-2.1-.4-.7-.3-1.2-.7-1.7-1.2s-.9-1.2-1.2-2-.4-1.8-.4-2.9c0-1.2.2-2.2.5-3s.7-1.5 1.3-2 1.1-.9 1.8-1.1 1.3-.4 2-.4 1.3 0 1.8.1.8.2 1.2.3l-.4 1.3c-.6-.3-1.4-.4-2.5-.4-.5 0-1 .1-1.5.3s-.9.5-1.3.9-.7.9-.9 1.6-.3 1.5-.3 2.4.1 1.6.3 2.3c.2.6.5 1.2.9 1.6s.8.8 1.3 1 1.1.3 1.7.3c.5 0 1-.1 1.4-.2s.7-.2 1-.4l.3 1.1zm10.3-10.7h-3.9v11.3h-1.5v-11.3h-3.9v-1.3h9.3v1.3zm1.9-1.2c.5-.1.9-.2 1.5-.2s1-.1 1.6-.1 1.1.1 1.7.2c.6.1 1.1.3 1.6.6s.8.7 1.1 1.2.4 1.1.4 1.9-.1 1.4-.4 1.9c-.3.5-.6 1-1.1 1.3s-1 .6-1.6.7-1.2.2-1.8.2h-1.4v4.8h-1.5l-.1-12.5zm3.1 1h-.9c-.3 0-.5 0-.7.1v5.2h1.4c.4 0 .8 0 1.2-.1s.8-.2 1.1-.4c.3-.2.6-.5.8-.9s.3-.8.3-1.4c0-.5-.1-.9-.3-1.2s-.4-.6-.7-.8-.6-.3-1-.4c-.5-.1-.8-.1-1.2-.1zm14.7 2.9l.1-1.4h-.1l-.8 1.5-6.1 8.5h-.9v-12.6h1.5v8.6l-.1 1.4h.1l.8-1.5 6.1-8.6h.9v12.6h-1.5v-8.5zm4.5-4.1h6.8v1.3h-5.3v3.8c.2 0 .5-.1.8-.1s.6-.1.9-.1c.6 0 1.2.1 1.7.2.6.1 1 .3 1.5.6s.8.7 1 1.1.4 1.1.4 1.8-.1 1.3-.4 1.9-.6.9-1 1.3c-.4.3-.9.6-1.5.7-.6.2-1.1.2-1.8.2h-1.5c-.3 0-.6 0-.8-.1s-.5-.1-.7-.1v-12.5h-.1zm3.3 11.5c.4 0 .7-.1 1.1-.2.3-.1.7-.3.9-.5s.5-.5.6-.8c.2-.3.2-.7.2-1.1 0-.6-.1-1-.3-1.3s-.4-.6-.7-.8c-.3-.2-.6-.3-1-.4s-.8-.1-1.2-.1h-1.5v5c.1 0 .2 0 .3.1s.3 0 .5 0h.5c.3.1.4.1.6.1zm6.6-11.5h1.5v4.9h1.8c.6 0 1.1.1 1.7.2.5.1 1 .3 1.5.6s.8.7 1 1.2.4 1.1.4 1.8-.1 1.3-.4 1.9-.6 1-1 1.3-1 .6-1.6.8c-.6.2-1.2.3-1.9.3h-1.4c-.3 0-.5 0-.8-.1s-.5-.1-.7-.1v-12.8h-.1zm3.1 11.5c.4 0 .8-.1 1.2-.2s.7-.3 1-.5.5-.5.7-.9.2-.8.2-1.2c0-.5-.1-.9-.3-1.3s-.4-.6-.7-.8-.6-.3-1-.4-.8-.1-1.2-.1h-.9c-.2 0-.3 0-.4.1-.1 0-.2 0-.3.1v5.1c.2 0 .4.1.7.1h1zm8.4-6h2.2c.1-1.8.6-3.2 1.4-4.2.8-1 2-1.5 3.5-1.5.9 0 1.6.2 2.3.5.6.3 1.1.8 1.5 1.3.4.6.7 1.3.8 2.1.2.8.3 1.7.3 2.7 0 2.1-.4 3.7-1.2 4.8-.8 1.1-2 1.7-3.7 1.7-.8 0-1.5-.1-2.2-.4-.6-.3-1.1-.7-1.5-1.2s-.7-1.2-.9-1.9-.3-1.6-.4-2.5h-2.2v5.8h-1.5v-12.6h1.5v5.4h.1zm3.8.8c0 .7.1 1.4.2 2 .1.6.3 1.2.6 1.6s.6.9 1 1.1 1 .4 1.6.4c1.1 0 1.9-.4 2.5-1.3.5-.8.8-2.1.8-3.9 0-.7-.1-1.3-.2-2-.1-.6-.3-1.2-.5-1.7-.3-.5-.6-.8-1-1.1-.4-.3-.9-.4-1.6-.4-1.1 0-2 .4-2.5 1.3-.6 1-.9 2.3-.9 4zm18.9-4.9h-3.9v11.3h-1.5v-11.3h-3.9v-1.3h9.3v1.3zm1.4 4.9c0-2.1.4-3.7 1.3-4.8.9-1.1 2.2-1.7 3.8-1.7.9 0 1.7.2 2.3.5s1.2.8 1.6 1.3c.4.6.7 1.3.9 2.1.2.8.3 1.7.3 2.7 0 2.1-.4 3.7-1.3 4.8-.9 1.1-2.2 1.7-3.8 1.7-.9 0-1.6-.2-2.3-.5-.6-.3-1.2-.8-1.6-1.3s-.7-1.3-.9-2.1-.3-1.7-.3-2.7zm1.5 0c0 .7.1 1.4.2 2 .1.6.4 1.2.6 1.6s.7.9 1.1 1.1 1 .4 1.6.4c1.1 0 2-.4 2.6-1.3.6-.8 1-2.2 1-3.9 0-.7-.1-1.3-.2-2-.1-.6-.4-1.2-.7-1.7s-.7-.8-1.1-1.1c-.4-.3-1-.4-1.6-.4-1.1 0-2 .4-2.6 1.3-.5 1-.9 2.3-.9 4zm11.3-6.1c.5-.1.9-.2 1.5-.2s1-.1 1.6-.1 1.1.1 1.7.2c.6.1 1.1.3 1.6.6s.8.7 1.1 1.2.4 1.1.4 1.9-.1 1.4-.4 1.9c-.3.5-.6 1-1.1 1.3s-1 .6-1.6.7-1.2.2-1.8.2h-1.4v4.8h-1.5l-.1-12.5zm3.1 1h-.9c-.3 0-.5 0-.7.1v5.2h1.4c.4 0 .8 0 1.2-.1s.8-.2 1.1-.4c.3-.2.6-.5.8-.9s.3-.8.3-1.4c0-.5-.1-.9-.3-1.2s-.4-.6-.7-.8-.6-.3-1-.4c-.5-.1-.9-.1-1.2-.1z"/><path class="st0" d="M633.3 134.1H511.1c-20.9 0-37.8-18.2-37.8-40.5 0-18.2 11.3-34.1 27.6-39C503.8 41.4 515 32 527.7 32c2.5 0 5 .4 7.4 1.1 10.9-18.4 29.6-29.4 50-29.4 15.7 0 30.5 6.5 41.6 18.4C637 33 643.1 47.5 644 63.1c6.2 2.3 11.8 6.4 15.8 11.8 4.9 6.5 7.5 14.6 7.5 22.8.1 10.2-3.7 19.7-10.6 26.7-6.3 6.2-14.6 9.7-23.4 9.7zm273.6 264.8H688.2"/><path class="st1" d="M913.2 398.9l-9.5-10 2.9 9.8-3.5 9.6z"/><path class="st0" d="M460.6 398.9H242"/><path class="st1" d="M466.9 398.9l-9.4-10 2.8 9.8-3.5 9.6z"/><path d="M755.9 379.2l.5 1.6h.1l.4-1.7 2.4-6.6h1.5l-3.2 8.2c-.3.9-.6 1.6-.9 2.1s-.5 1-.7 1.4c-.3.4-.5.6-.8.8-.3.2-.6.2-1.1.2-.4 0-.7 0-.9-.1s-.5-.2-.7-.3l.5-1.2c.2.1.5.2.7.3.2 0 .4.1.6.1.3 0 .6-.2.8-.5s.4-.9.6-1.5l-4.7-9.3h1.7l3.2 6.5zm13.7-5.3h-5.8v11.3h-1.5v-12.6h8.8v12.6h-1.5v-11.3zm14.6 13.6h-1l-.3-2.3H774l-.3 2.3h-1v-3.7h1.3c.1-.1.2-.4.4-.9s.4-1.2.6-2.1c.2-.9.4-2 .5-3.4.2-1.4.2-3 .2-4.9h6.7v11.3h1.6v3.7h.2zm-3.2-3.7v-9.9h-3.8c0 1.3-.1 2.5-.2 3.6s-.2 2-.4 2.8c-.1.8-.3 1.5-.5 2.1s-.4 1.1-.6 1.5h5.5v-.1zm9.9-7.6c.4 0 .9-.1 1.3-.1s1-.1 1.7-.1c1.2 0 2 .2 2.6.5.5.4.8.9.8 1.7 0 .4-.1.8-.4 1.2-.2.4-.7.7-1.2.9v.1c.7.1 1.2.4 1.5.7.3.4.4.8.4 1.4 0 .9-.3 1.6-1 2s-1.7.6-3 .6h-1.4c-.4 0-.9-.1-1.3-.1v-8.8zm3.2 3.7c.2 0 .4 0 .6-.1s.4-.2.5-.3c.2-.1.3-.3.4-.4.1-.2.2-.4.2-.5 0-.5-.1-.8-.4-1s-.8-.3-1.5-.3h-1.5v2.6h1.7zm-1.8 4c.2 0 .4 0 .7.1s.5 0 .8 0c.8 0 1.4-.1 1.8-.3.4-.2.6-.6.6-1.2 0-.4-.2-.8-.5-1.1-.3-.3-.9-.4-1.8-.4h-1.6v2.9zm20.5.7c-.4.3-.8.5-1.4.6s-1.1.2-1.8.2c-.8 0-1.5-.1-2.1-.4-.7-.3-1.2-.7-1.7-1.2s-.9-1.2-1.2-2-.4-1.8-.4-2.9c0-1.2.2-2.2.5-3s.7-1.5 1.3-2 1.1-.9 1.8-1.1 1.3-.4 2-.4 1.3 0 1.8.1.8.2 1.2.3l-.4 1.3c-.6-.3-1.4-.4-2.5-.4-.5 0-1 .1-1.5.3s-.9.5-1.3.9-.7.9-.9 1.6-.3 1.5-.3 2.4.1 1.6.3 2.3c.2.6.5 1.2.9 1.6s.8.8 1.3 1 1.1.3 1.7.3c.5 0 1-.1 1.4-.2s.7-.2 1-.4l.3 1.1zm2.3-12.1h6.8v1.3h-5.3v3.8c.2 0 .5-.1.8-.1s.6-.1.9-.1c.6 0 1.2.1 1.7.2.6.1 1 .3 1.5.6s.8.7 1 1.1.4 1.1.4 1.8-.1 1.3-.4 1.9-.6.9-1 1.3c-.4.3-.9.6-1.5.7s-1.1.2-1.8.2h-1.5c-.3 0-.6-.1-.8-.1s-.5-.1-.7-.1v-12.5h-.1zm3.2 11.5c.4 0 .7-.1 1.1-.2.3-.1.7-.3.9-.5s.5-.5.6-.8c.2-.3.2-.7.2-1.1 0-.6-.1-1-.3-1.3s-.4-.6-.7-.8c-.3-.2-.6-.3-1-.4s-.8-.1-1.2-.1h-1.5v5c.1 0 .2 0 .3.1s.3 0 .5 0h.5c.3.1.5.1.6.1zm14.4-7.4l.1-1.4h-.1l-.8 1.5-6.1 8.5h-.8v-12.6h1.5v8.6l-.1 1.4h.1l.8-1.5 6.1-8.6h.9v12.6h-1.5l-.1-8.5zm12.6 8c-.4.3-.8.5-1.4.6s-1.1.2-1.8.2c-.8 0-1.5-.1-2.1-.4-.7-.3-1.2-.7-1.7-1.2s-.9-1.2-1.2-2-.4-1.8-.4-2.9c0-1.2.2-2.2.5-3s.7-1.5 1.3-2 1.1-.9 1.8-1.1 1.3-.4 2-.4 1.3 0 1.8.1.8.2 1.2.3l-.4 1.3c-.6-.3-1.4-.4-2.5-.4-.5 0-1 .1-1.5.3s-.9.5-1.3.9-.7.9-.9 1.6-.3 1.5-.3 2.4.1 1.6.3 2.3c.2.6.5 1.2.9 1.6s.8.8 1.3 1 1.1.3 1.7.3c.5 0 1-.1 1.4-.2s.7-.2 1-.4l.3 1.1zm-542.2-5.4l.5 1.6h.1l.4-1.7 2.4-6.6h1.5l-3.2 8.2c-.3.9-.6 1.6-.9 2.1s-.5 1-.7 1.4c-.3.4-.5.6-.8.8-.3.2-.6.2-1.1.2-.4 0-.7 0-.9-.1s-.5-.2-.7-.3l.5-1.2c.2.1.5.2.7.3.2 0 .4.1.6.1.3 0 .6-.2.8-.5.2-.3.4-.8.6-1.5l-4.7-9.3h1.7l3.2 6.5zm13.7-5.3H311v11.3h-1.5v-12.6h8.8v12.6h-1.5v-11.3zm14.6 13.6h-1l-.3-2.3h-8.8l-.3 2.3h-1v-3.7h1.3c.1-.1.2-.4.4-.9s.4-1.2.6-2.1.4-2 .5-3.4c.2-1.4.2-3 .2-4.9h6.7v11.3h1.6l.1 3.7zm-3.2-3.7v-9.9h-3.8c0 1.3-.1 2.5-.2 3.6s-.2 2-.4 2.8-.3 1.5-.5 2.1-.4 1.1-.6 1.5h5.5v-.1zm9.9-7.6c.4 0 .9-.1 1.3-.1s1-.1 1.7-.1c1.2 0 2 .2 2.6.5.5.4.8.9.8 1.7 0 .4-.1.8-.4 1.2-.2.4-.7.7-1.2.9v.1c.7.1 1.2.4 1.5.7.3.4.4.8.4 1.4 0 .9-.3 1.6-1 2s-1.7.6-3 .6h-1.4c-.4 0-.9-.1-1.3-.1v-8.8zm3.2 3.7c.2 0 .4 0 .6-.1s.4-.2.5-.3c.2-.1.3-.3.4-.4.1-.2.2-.4.2-.5 0-.5-.1-.8-.4-1s-.8-.3-1.5-.3h-1.5v2.6h1.7zm-1.8 4c.2 0 .4 0 .7.1s.5 0 .8 0c.8 0 1.4-.1 1.8-.3.4-.2.6-.6.6-1.2 0-.4-.2-.8-.5-1.1-.3-.3-.9-.4-1.8-.4h-1.6v2.9zm20.6.7c-.4.3-.8.5-1.4.6s-1.1.2-1.8.2c-.8 0-1.5-.1-2.1-.4-.7-.3-1.2-.7-1.7-1.2s-.9-1.2-1.2-2-.4-1.8-.4-2.9c0-1.2.2-2.2.5-3s.7-1.5 1.3-2 1.1-.9 1.8-1.1 1.3-.4 2-.4 1.3 0 1.8.1.8.2 1.2.3l-.4 1.3c-.6-.3-1.4-.4-2.5-.4-.5 0-1 .1-1.5.3s-.9.5-1.3.9-.7.9-.9 1.6c-.2.7-.3 1.5-.3 2.4s.1 1.6.3 2.3c.2.6.5 1.2.9 1.6s.8.8 1.3 1 1.1.3 1.7.3c.5 0 1-.1 1.4-.2s.7-.2 1-.4l.3 1.1zm2.2-12.1h6.8v1.3h-5.3v3.8c.2 0 .5-.1.8-.1s.6-.1.9-.1c.6 0 1.2.1 1.7.2.6.1 1 .3 1.5.6s.8.7 1 1.1.4 1.1.4 1.8-.1 1.3-.4 1.9-.6.9-1 1.3c-.4.3-.9.6-1.5.7-.6.2-1.1.2-1.8.2h-1.5c-.3 0-.6 0-.8-.1s-.5-.1-.7-.1v-12.5h-.1zm3.2 11.5c.4 0 .7-.1 1.1-.2.3-.1.7-.3.9-.5s.5-.5.6-.8c.2-.3.2-.7.2-1.1 0-.6-.1-1-.3-1.3-.2-.3-.4-.6-.7-.8-.3-.2-.6-.3-1-.4s-.8-.1-1.2-.1h-1.5v5c.1 0 .2 0 .3.1s.3 0 .5 0h.5c.3.1.5.1.6.1zm14.4-7.4l.1-1.4h-.1l-.8 1.5-6.1 8.5h-.9v-12.6h1.5v8.6l-.1 1.4h.1l.8-1.5 6.1-8.6h.9v12.6h-1.5v-8.5zm12.6 8c-.4.3-.8.5-1.4.6s-1.1.2-1.8.2c-.8 0-1.5-.1-2.1-.4-.7-.3-1.2-.7-1.7-1.2s-.9-1.2-1.2-2-.4-1.8-.4-2.9c0-1.2.2-2.2.5-3s.7-1.5 1.3-2 1.1-.9 1.8-1.1 1.3-.4 2-.4 1.3 0 1.8.1.8.2 1.2.3l-.4 1.3c-.6-.3-1.4-.4-2.5-.4-.5 0-1 .1-1.5.3s-.9.5-1.3.9-.7.9-.9 1.6c-.2.7-.3 1.5-.3 2.4s.1 1.6.3 2.3c.2.6.5 1.2.9 1.6s.8.8 1.3 1 1.1.3 1.7.3c.5 0 1-.1 1.4-.2s.7-.2 1-.4l.3 1.1z"/><path class="st0" d="M1080.4 112.4h-94.9c-8.9-.1-16.1-8.3-16-18.4 0-8.8 5.7-16.4 13.4-17.9.2-10.9 8-19.7 17.7-19.7 2.4 0 4.8.6 7 1.7 3.6-15.1 17.4-24 30.7-19.8 8.7 2.7 15.5 10.5 17.7 20.4 8.7-5 19.3-1.2 23.8 8.6 1.2 2.7 1.9 5.6 2 8.7 8.9.8 15.5 9.6 14.8 19.6-.9 9.5-7.8 16.8-16.2 16.8z"/><g transform="translate(-90 -20)"><path d="M577.4 41.2h22.1c4.5 0 6.1.5 7.8 1.4 1.6.9 3 2.2 3.8 3.8.9 1.6 1.3 3.3 1.3 7.8v22.1c0 4.5-.5 6.1-1.3 7.8-.9 1.6-2.2 3-3.8 3.8-1.6.9-3.3 1.3-7.8 1.3h-22.1c-4.5 0-6.1-.5-7.8-1.3-1.6-.9-3-2.2-3.8-3.8-.9-1.6-1.4-3.3-1.4-7.8V54.1c0-4.5.5-6.1 1.4-7.8.9-1.6 2.2-3 3.8-3.8 1.7-.8 3.3-1.3 7.8-1.3z" fill="#eae60e" id="a"/></g><g transform="translate(-90 -20)"><path class="st3" d="M600.4 50.9c1.3 0 2.3 1 2.3 2.3v5.7h4.8v-5.7c0-3.9-3.2-7.1-7-7.1h-5.7v4.8h5.6z" id="M"/></g><g transform="translate(-90 -20)"><path class="st3" d="M602.7 77.2c0 1.3-1 2.3-2.3 2.3h-5.7v4.8h5.7c3.9 0 7-3.1 7-7v-5.7h-4.8l.1 5.6z" id="N"/></g><g transform="translate(-90 -20)"><path class="st3" d="M574.2 53.2c0-1.3 1-2.3 2.3-2.3h5.7v-4.8h-5.7c-3.9 0-7 3.2-7 7.1v5.7h4.8l-.1-5.7z" id="O"/></g><g transform="translate(-90 -20)"><path class="st3" d="M576.5 79.5c-1.3 0-2.3-1-2.3-2.3v-5.7h-4.8v5.7c0 3.9 3.2 7 7 7h5.7v-4.8l-5.6.1z" id="P"/></g><g transform="translate(-90 -20)"><path class="st3" d="M585.7 76.6l-10.2-10.2 3.4-3.4 6.8 6.8L598 57.5l3.4 3.4-15.7 15.7z" id="Q"/></g><path class="st4" d="M475.7 392.4h125"/><path class="st5" d="M606.9 355.2v-51L549.4 279l-57.6 25.2v88.2h108.9"/><path class="st5" d="M503.3 321h92.1v71.4h-92.1zm-2.3-12.6h96.7V321H501z"/><path fill="#fff" stroke="#05b" stroke-width="2" stroke-linecap="round" stroke-linejoin="round" stroke-miterlimit="10" d="M482.6 352.5h40v40h-40z"/><path class="st5" d="M482.6 358.3h40"/><path fill="#fff" stroke="#05b" stroke-linejoin="round" stroke-miterlimit="10" d="M497.9 353.6h9.4v7.1h-9.4z"/><path class="st5" d="M505.7 315.8h4.6m78.2 0h4.6m-80.5 0h2.3m-9.2 12.6h87.4m-87.4 6.3h87.4m23-34.8l-66.7-29.3-66.8 29.3v8.4l66.8-29.3 66.7 29.3zm-117.7-8v10.5m19.9-19.2v10.5m18.4-18.9v10.5m62.2 6.3v10.5m-18.4-18.9v10.5M562 274.8v10.5m-56.1 49.3h87.4m-87.4 6.3h87.4"/><path class="st4" d="M40.2 394.3h171.3"/><path class="st8" d="M110.6 376.5h97.2v17.7h-97.2z"/><path class="st9" d="M46.6 329.5h108.9M110.6 381h97.2"/><path class="st8" d="M46.6 393.3v-66.4h108.9v49.6m28.5 0h-20.2v-26.4c0-1.1.9-2 2-2H182c1.1 0 2 .9 2 2v26.4zm18.3 0h-11v-29.9c0-1.1.9-2 2-2h7c1.1 0 2 .9 2 2v29.9z"/><path class="st5" d="M164.7 352.6h18.4m8.2 0h11m-11 8.9h11m-11 8.8h11m-38.5-8.8H184m-20.2 8.8H184"/><path fill="none" stroke="#05b" stroke-linecap="round" stroke-linejoin="round" d="M115.8 326.9v-14.2l53.5-17.7v53.2"/><path class="st5" d="M121.8 317.1h10.4v3.5h-10.4zm15.6 0h10.4v3.5h-10.4zm15.5 0h10.4v3.5h-10.4zm2.6 10.7h7.8v3.5h-7.8zm0 10.6h7.8v3.5h-7.8z"/><path class="st8" d="M77.7 326.9L74 264.8h-8.3l-3.8 62.1m41.8 0l-3.8-58.5h-8.3l-3.8 58.5"/><path class="st9" d="M65.7 272.8h8.6m17.3 0h8.6M64.9 287h9.4m-10.4 7.1H76m-12.1 12.4H76M91.6 287h8.6m-10.4 7.1h12.1m-12.1 12.4h12.1"/><path class="st5" d="M143.4 256.8c-1 0-1.9.2-2.7.7 0-.2.1-.4.1-.7 0-2.9-2.3-5.3-5.2-5.3 0-2.9-2.3-5.3-5.2-5.3-2.4 0-4.4 1.7-5 4-1.9-3.4-5.6-5.7-9.7-5.7-6.2 0-11.2 5.2-11.2 11.5v.1c-1.2-.7-2.5-1.1-4-1-3.7.3-6.4 3.7-6.4 7.5v4.9h3.5v-1.8c0-2 1.5-3.5 3.5-3.5h48.2c-.4-3-2.9-5.4-5.9-5.4z"/><path d="M45.3 394.6l-7.5 4.3m40.4-4.3l-7.4 4.3m40.4-4.3l-7.4 4.3m40.4-4.3l-7.5 4.3m-75-4.3l-7.4 4.3m40.4-4.3l-7.4 4.3m40.4-4.3l-7.5 4.3m40.5-4.3l-7.5 4.3m24-4.3l-7.5 4.3m24-4.3l-7.5 4.3m24-4.3l-7.5 4.3" stroke-linejoin="round" fill="none" stroke="#05b"/><path class="st8" d="M178.5 348.2v-8.9c0-2.9 2.5-5.3 5.5-5.3h7.3c3 0 5.5 2.4 5.5 5.3v5.3"/><path class="st5" d="M52.7 339.4h27.6v11.3H52.7zm34.5 0h27.6v11.3H87.2zm34.6 0h27.6v11.3h-27.6zm-60.5 0v11.3m10.4-11.3v11.3m24.2-11.3v11.3m10.4-11.3v11.3m24.1-11.3v11.3m10.4-11.3v11.3"/><path class="st8" d="M645.6 355.2h-42.5c-1.4 0-2.5 1.1-2.5 2.5v38.7c0 1.4 1.1 2.5 2.5 2.5h45v-41.2c0-1.4-1.1-2.5-2.5-2.5zm27.5 43.7h-25v-32.5h17.1c1.8 0 3.4 1 4.3 2.6 4 7.3 6.1 15.6 6.1 23.9v3.5c0 1.4-1.1 2.5-2.5 2.5z"/><circle class="st12" cx="616.9" cy="398.9" r="7.5"/><circle class="st12" cx="661.9" cy="398.9" r="7.5"/><circle class="st13" cx="661.9" cy="398.9" r="2.5"/><circle class="st13" cx="616.9" cy="398.9" r="2.5"/><path class="st5" d="M673.7 380.8h-15c-.7 0-1.2-.6-1.2-1.2V372c0-.7.6-1.2 1.2-1.2h12.5"/><path class="st14" d="M605.1 359.5h38.7"/><path class="st9" d="M487.1 370.2h2.9v2.9h-2.9z"/><path class="st9" d="M488.3 371.4h.5v.5h-.5zm6.4-1.2h2.9v2.9h-2.9z"/><path class="st9" d="M495.9 371.4h.5v.5h-.5zm-8.8 6.4h2.9v2.9h-2.9z"/><path class="st9" d="M488.3 379h.5v.5h-.5z"/><path class="st5" d="M491.9 369.7v1m-3.8 3.8v1m3.8.9v1m0 1.4v.9m1.9-.9v.9m-1 0v1m1-1v1m-1-5.2v.9m4.8 3.3v1m0-2.9v1m-2.9-1.9v1.9m1.9-1.9v.9m-.9-.9v.9m-1.9-3.3v1m-2.9-1v1m1-1v1m.9-2v2m4.8 0v1.4m-4.8.5v1.4m0-8.1v.9m0 1v.9m-.9-1.9v1.9m-3.4 2.4h1.9m5.3-.9h2.4m-2.9 4.3h1.9"/><path class="st1" d="M567.7 354.7c.6 0 1 .4 1 1v34.6c0 .6-.4 1-1 1h-34.9c-.6 0-1-.4-1-1v-34.6c0-.6.4-1 1-1h34.9m0-2h-34.9c-1.7 0-3 1.3-3 3v34.6c0 1.7 1.3 3 3 3h34.9c1.7 0 3-1.3 3-3v-34.6c0-1.6-1.3-3-3-3z"/><path class="st15" d="M539 362h6.8v6.8H539z"/><path class="st15" d="M541.8 364.8h1.1v1.1h-1.1zm13-2.8h6.8v6.8h-6.8z"/><path class="st15" d="M557.6 364.8h1.1v1.1h-1.1zM539 377.7h6.8v6.8H539z"/><path class="st15" d="M541.8 380.5h1.1v1.1h-1.1z"/><path class="st4" d="M549.2 360.8v2.3m-7.9 7.9v2.2m7.9 2.3v2.2m0 3.4v2.2m4.5-2.2v2.2m-2.3 0v2.3m2.3-2.3v2.3m-2.3-12.4v2.3m10.1 7.8v2.3m0-6.8v2.3m-5.6-4.5v4.5m3.4-4.5v2.2m-2.3-2.2v2.2m-3.3-7.8v2.2m-6.8-2.2v2.2m2.3-2.2v2.2m2.2-3.4v3.4m10.1 0v3.4m-10.1 1.1v3.4m0-18v2.2m0 2.3v2.2m-2.2-4.5v4.5M539 371v4.5m3.4-1.2h5.6m9-2.2h5.7m-7.9 10.1h5.6"/><path class="st8" d="M937.1 395.1h190.3v7.1H937.1z"/><path class="st9" d="M937.1 401.3H1128"/><path class="st14" d="M1004.4 314.5v-8.6c0-1.6 1.3-2.9 2.9-2.9 1.6 0 2.9 1.3 2.9 2.9v8.6-5.7h-5.7m-14.5 5.7v-8.6c0-1.6 1.3-2.9 2.9-2.9 1.6 0 2.9 1.3 2.9 2.9v8.6M1059 303v8.6c0 1.6 1.3 2.9 2.9 2.9h2.9V303"/><path class="st14" d="M984.3 314.5v-8.6c0-1.6 1.3-2.9 2.9-2.9 1.6 0 2.9 1.3 2.9 2.9v8.6m40.2 0v-8.6c0-1.6 1.3-2.9 2.9-2.9 1.6 0 2.9 1.3 2.9 2.9v8.6-5.7h-5.7m-11.6 5.7V303h5.7m20.1 8.6c0 1.6 1.3 2.9 2.9 2.9 1.6 0 2.9-1.3 2.9-2.9 0-1.6-1.3-2.9-2.9-2.9 1.6 0 2.9-1.3 2.9-2.9 0-1.6-1.3-2.9-2.9-2.9-1.6 0-2.9 1.3-2.9 2.9m28.8-2.8v11.5-5.8h5.7V303v11.5"/><path class="st8" d="M1123.8 336.5v58.6H940.1v-58.6m172.7-34.4h14.6v21.6H936.5v-21.6h14.9"/><path class="st5" d="M998.6 349.2h115.2v45H998.6z"/><path class="st5" d="M998.6 372.9h36v2h-36zm0 14.1h39.6v7.2h-39.6zm36-12.1l1.8 12.1m26.1-34.2H1050c-.6 0-1-.4-1-1v-2.6h14.4v2.6c.1.6-.4 1-.9 1zm-32.5 0h-12.4c-.6 0-1-.4-1-1v-2.6h14.4v2.6c0 .6-.4 1-1 1zm64.9 0h-12.4c-.6 0-1-.4-1-1v-2.6h14.4v2.6c0 .6-.5 1-1 1zm-51.3 9h28.8v32.4h-28.8zm32.5 18h7.2v3.6h-7.2zm1.8-3.6h3.6v3.6h-3.6z"/><path class="st5" d="M1047.2 365.4h9v23.4h-9zm12.7 0h9v23.4h-9zm12.6 18h14.4v10.8h-14.4zm21.6 0h19.8v10.8h-19.8z"/><path class="st5" d="M1092.3 381.6h21.6v1.8h-21.6zm-5.4-16.2h14.4v9h-14.4z"/><circle class="st5" cx="1095.9" cy="367.2" r="1.8"/><path class="st5" d="M1086.9 372.6l3.6-3.6 7.2 5.4"/><path class="st8" d="M1112.8 296.1v5.6m-161.4.4v-6m-2.3 0c56-2.6 110.4-2.6 166.4 0"/><path class="st5" d="M954.4 349.2h30.7v45.9h-30.7z"/><path class="st9" d="M969.8 349.2v45.9"/><path class="st4" d="M971.8 331.9c0 2.6-4.5 4.7-10 4.7s-10-2.1-10-4.7"/><path class="st4" d="M951.9 331.9c0 2.6-4.5 4.7-10 4.7s-10-2.1-10-4.7m179.3 0c0 2.6-4.5 4.7-10 4.7s-10-2.1-10-4.7"/><path class="st4" d="M1131.1 331.9c0 2.6-4.5 4.7-10 4.7s-10-2.1-10-4.7m-119.4 0c0 2.6-4.5 4.7-10 4.7s-10-2.1-10-4.7m40 0c0 2.6-4.5 4.7-10 4.7s-10-2.1-10-4.7"/><path class="st4" d="M1031.6 331.9c0 2.6-4.5 4.7-10 4.7s-10-2.1-10-4.7"/><path class="st4" d="M1051.5 331.9c0 2.6-4.5 4.7-10 4.7s-10-2.1-10-4.7"/><path class="st4" d="M1071.4 331.9c0 2.6-4.5 4.7-10 4.7s-10-2.1-10-4.7"/><path class="st4" d="M1091.3 331.9c0 2.6-4.5 4.7-10 4.7s-10-2.1-10-4.7"/><path class="st8" d="M1131.1 331.9l-5-7H937l-5 7m39.8 0l2.5-5.9m-22.4 5.9l2.5-5.9m37.3 5.9l2.5-5.9m97.1 5.9l-2.5-5.9m22.4 5.9l-2.5-5.9m-37.3 5.9l-2.5-5.9m-57.2 5.9l2.4-5.9m37.4 5.9l-2.5-5.9m-17.4 5.9V326"/><path class="st4" d="M998.1 349.5h116.3"/></svg>