<svg xmlns="http://www.w3.org/2000/svg" xmlns:xlink="http://www.w3.org/1999/xlink"><defs><style>.cls-1,.cls-2,.cls-3{fill:none;stroke:#d94700;stroke-linecap:round;stroke-linejoin:round;}.cls-1{stroke-width:2px;}.cls-3{stroke-width:3px;}</style><style>.cls-1,.cls-2{fill:none;stroke:#d94700;stroke-linecap:round;stroke-linejoin:round;}.cls-1{stroke-width:2px;}</style><style>.cls-1,.cls-2{fill:none;stroke:#d94700;stroke-linecap:round;stroke-linejoin:round;}.cls-1{stroke-width:2px;}</style><style>.cls-1,.cls-2{fill:none;stroke:#d94700;stroke-linecap:round;stroke-linejoin:round;}.cls-1{stroke-width:2px;}</style><style>.cls-1,.cls-2,.cls-3{fill:none;stroke:#d94700;stroke-linejoin:round;}.cls-1,.cls-2{stroke-linecap:round;}.cls-1,.cls-3{stroke-width:2px;}</style><style>.cls-1,.cls-2{fill:none;}.cls-1,.cls-2,.cls-3{stroke:#d94700;stroke-linecap:round;stroke-linejoin:round;}.cls-1,.cls-3{stroke-width:2px;}.cls-3{fill:#fff;}</style><style>.cls-1,.cls-2,.cls-3{fill:none;stroke:#d94700;}.cls-1,.cls-3{stroke-width:2px;}.cls-3{stroke-linecap:round;}</style><style>.cls-1,.cls-2{fill:none;stroke:#d94700;}.cls-1{stroke-linejoin:round;stroke-width:2px;}</style><style>.cls-1,.cls-2{fill:none;stroke:#d94700;stroke-linecap:round;stroke-linejoin:round;}.cls-1{stroke-width:2px;}</style><style>.cls-1,.cls-2{fill:none;stroke:#d94700;stroke-linecap:round;stroke-linejoin:round;}.cls-1{stroke-width:2px;}</style><style>.cls-1,.cls-2{fill:none;stroke:#d94700;stroke-linecap:round;stroke-linejoin:round;}.cls-1{stroke-width:2px;}</style></defs><symbol id="icon-appstore" viewBox="0 0 56 20">
<style type="text/css">
	.st0{fill:#FFFFFF;}
	.st1{fill:#5BC8F3;}
	.st2{fill:url(#SVGID_1_);}
	.st3{fill:url(#SVGID_2_);}
	.st4{fill:url(#SVGID_3_);}
</style>
<path d="M54,20H2c-1.1,0-2-0.9-2-2V2c0-1.1,0.9-2,2-2h52c1.1,0,2,0.9,2,2v16C56,19.1,55.1,20,54,20z"/>
<path class="st0" d="M12.6,12.2c0,0-0.2,0.7-0.7,1.5c-0.4,0.6-0.9,1.3-1.6,1.3c-0.7,0-0.9-0.4-1.7-0.4c-0.8,0-1,0.4-1.7,0.4
	c-0.7,0-1.2-0.7-1.6-1.3C4.4,12.3,3.7,10,4.6,8.4c0.4-0.8,1.3-1.3,2.1-1.3c0.7,0,1.3,0.5,1.7,0.5c0.4,0,1.2-0.6,2-0.5
	c0.3,0,1.3,0.1,1.9,1c0,0-1.1,0.7-1.1,2C11.2,11.7,12.6,12.2,12.6,12.2z M9.9,6.3c0.4-0.4,0.6-1,0.5-1.7C9.9,4.6,9.3,5,8.9,5.4
	C8.6,5.8,8.3,6.4,8.4,7C9,7,9.6,6.7,9.9,6.3z M20.1,14.9h1L18.9,9h-1l-2.1,5.9h1l0.5-1.6h2.2L20.1,14.9z M18.4,10L18.4,10l0.9,2.6
	h-1.8L18.4,10z M23.8,10.6c-0.6,0-1.1,0.3-1.4,0.8h0v-0.7h-0.9v5.7h0.9v-2.1h0c0.3,0.5,0.7,0.8,1.4,0.8c1.1,0,1.8-0.9,1.8-2.2
	C25.7,11.5,24.9,10.6,23.8,10.6z M23.6,14.2c-0.7,0-1.1-0.6-1.1-1.4c0-0.9,0.5-1.4,1.1-1.4c0.7,0,1.1,0.6,1.1,1.4
	C24.7,13.7,24.3,14.2,23.6,14.2z M28.6,10.6c-0.6,0-1.1,0.3-1.4,0.8h0v-0.7h-0.9v5.7h0.9v-2.1h0c0.3,0.5,0.7,0.8,1.4,0.8
	c1.1,0,1.8-0.9,1.8-2.2C30.4,11.5,29.7,10.6,28.6,10.6z M28.3,14.2c-0.7,0-1.1-0.6-1.1-1.4c0-0.9,0.5-1.4,1.1-1.4
	c0.7,0,1.1,0.6,1.1,1.4C29.5,13.7,29,14.2,28.3,14.2z M32.6,13.3c0.1,1.1,0.9,1.7,2.2,1.7c1.4,0,2.3-0.7,2.3-1.8
	c0-0.9-0.5-1.3-1.7-1.6l-0.6-0.2c-0.8-0.2-1.1-0.4-1.1-0.9c0-0.5,0.5-0.9,1.2-0.9s1.2,0.4,1.3,0.9H37c0-1-0.9-1.7-2.1-1.7
	c-1.3,0-2.1,0.7-2.1,1.7c0,0.8,0.5,1.3,1.6,1.6l0.8,0.2c0.8,0.2,1.1,0.5,1.1,0.9c0,0.5-0.5,0.9-1.3,0.9c-0.8,0-1.3-0.4-1.4-1H32.6z
	 M38.2,9.6v1h-0.6v0.7h0.6v2.5c0,0.8,0.3,1.2,1.2,1.2c0.2,0,0.4,0,0.5,0v-0.7c-0.1,0-0.2,0-0.3,0c-0.4,0-0.5-0.2-0.5-0.5v-2.4h0.8
	v-0.7H39v-1H38.2z M42.4,15c1.3,0,2-0.8,2-2.2c0-1.4-0.8-2.2-2-2.2c-1.2,0-2,0.9-2,2.2C40.3,14.1,41.1,15,42.4,15z M42.4,14.3
	c-0.7,0-1.1-0.5-1.1-1.5c0-0.9,0.4-1.5,1.1-1.5s1.1,0.5,1.1,1.5C43.5,13.7,43.1,14.3,42.4,14.3z M45.1,14.9H46v-2.6
	c0-0.6,0.4-1,0.9-1c0.2,0,0.3,0,0.4,0.1v-0.8c-0.1,0-0.2,0-0.3,0c-0.5,0-0.9,0.3-1,0.8h0v-0.7h-0.8V14.9z M50.6,13.7
	c-0.1,0.4-0.5,0.6-1,0.6c-0.7,0-1.2-0.5-1.2-1.2V13h3v-0.3c0-1.3-0.7-2.1-1.9-2.1c-1.2,0-2,0.9-2,2.2c0,1.3,0.8,2.2,2,2.2
	c1,0,1.7-0.5,1.9-1.3H50.6z M49.5,11.3c0.6,0,1,0.4,1.1,1.1h-2.1C48.5,11.7,48.9,11.3,49.5,11.3z M16.9,6.2h0.4
	c0.4,0,0.6,0.2,0.6,0.5c0,0.3-0.2,0.5-0.6,0.5s-0.6-0.2-0.6-0.4h-0.4c0,0.5,0.4,0.8,1.1,0.8c0.6,0,1.1-0.4,1.1-0.8
	c0-0.4-0.3-0.6-0.6-0.7v0c0.3-0.1,0.5-0.3,0.5-0.6c0-0.4-0.4-0.8-1-0.8c-0.6,0-1,0.3-1,0.8h0.4c0-0.3,0.2-0.4,0.6-0.4
	c0.3,0,0.5,0.2,0.5,0.4c0,0.3-0.2,0.5-0.5,0.5h-0.4V6.2z M19.6,7.5c0.3,0,0.5-0.1,0.6-0.3h0v0.3h0.4V6c0-0.5-0.3-0.7-0.8-0.7
	c-0.5,0-0.8,0.2-0.9,0.6h0.4c0-0.2,0.2-0.2,0.4-0.2c0.3,0,0.4,0.1,0.4,0.4v0.2l-0.6,0c-0.5,0-0.8,0.3-0.8,0.6
	C18.8,7.2,19.1,7.5,19.6,7.5z M19.7,7.1c-0.2,0-0.4-0.1-0.4-0.3c0-0.2,0.1-0.3,0.4-0.3l0.5,0v0.2C20.2,6.9,20,7.1,19.7,7.1z
	 M22.7,5.7V5.3h-1.4v2.1h0.4V5.7H22.7z M24.4,5.3c-0.3,0-0.5,0.1-0.7,0.4h0V5.3h-0.4v2.8h0.4v-1h0c0.1,0.2,0.4,0.4,0.7,0.4
	c0.5,0,0.9-0.4,0.9-1.1C25.3,5.7,25,5.3,24.4,5.3z M24.3,7.1c-0.4,0-0.6-0.3-0.6-0.7c0-0.4,0.2-0.7,0.6-0.7c0.4,0,0.6,0.3,0.6,0.7
	C24.9,6.8,24.7,7.1,24.3,7.1z M26,8.2c0.4,0,0.6-0.2,0.8-0.7l0.8-2.2h-0.4L26.7,7h0l-0.5-1.7h-0.5l0.8,2.1l0,0.1
	c-0.1,0.2-0.2,0.3-0.4,0.3c0,0-0.1,0-0.1,0v0.4C25.9,8.2,26,8.2,26,8.2z M28.9,7.5c0.5,0,0.9-0.3,0.9-0.7c0-0.2-0.1-0.4-0.4-0.5v0
	c0.2,0,0.3-0.2,0.3-0.4c0-0.4-0.3-0.6-0.8-0.6c-0.5,0-0.8,0.2-0.8,0.6h0.4c0-0.2,0.2-0.3,0.4-0.3c0.3,0,0.4,0.1,0.4,0.3
	c0,0.2-0.1,0.3-0.4,0.3h-0.3v0.3h0.3c0.3,0,0.5,0.1,0.5,0.3c0,0.2-0.2,0.3-0.5,0.3c-0.2,0-0.4-0.1-0.5-0.3H28
	C28,7.3,28.4,7.5,28.9,7.5z M30.8,7.4l1-1.5h0v1.5h0.4V5.3h-0.4l-1,1.5h0V5.3h-0.4v2.1H30.8z M34.5,5.3h-1.8v0.4h0.7v1.8h0.4V5.7
	h0.7V5.3z M36.4,6.9c-0.1,0.2-0.3,0.3-0.5,0.3c-0.3,0-0.6-0.2-0.6-0.6v0h1.5V6.3c0-0.7-0.4-1.1-1-1.1c-0.6,0-1,0.4-1,1.1
	c0,0.7,0.4,1.1,1,1.1c0.5,0,0.8-0.2,0.9-0.6H36.4z M35.9,5.6c0.3,0,0.5,0.2,0.5,0.6h-1.1C35.3,5.8,35.5,5.6,35.9,5.6z M38.6,7.4h1
	c0.5,0,0.7-0.2,0.7-0.6c0-0.3-0.2-0.5-0.5-0.5v0c0.2,0,0.4-0.2,0.4-0.5c0-0.3-0.2-0.5-0.7-0.5h-1V7.4z M39.5,5.6
	c0.2,0,0.3,0.1,0.3,0.3c0,0.2-0.1,0.3-0.4,0.3H39V5.6H39.5z M39.4,6.5c0.3,0,0.4,0.1,0.4,0.3c0,0.2-0.1,0.3-0.4,0.3H39V6.5H39.4z"/>
</symbol><symbol id="icon-bicycle" viewBox="0 0 48 48"><title>ico_48x48</title><circle class="cls-1" cx="10" cy="33" r="9"/><circle class="cls-2" cx="10" cy="33" r="5.5"/><circle class="cls-1" cx="38" cy="33" r="9"/><circle class="cls-2" cx="38" cy="33" r="5.5"/><polygon class="cls-1" points="16 16 10 33 23 33 29 16 16 16"/><path class="cls-1" d="M38,33,31,6h6a2,2,0,0,1,2,2h0a2,2,0,0,1-2,2H36"/><path class="cls-1" d="M33,16H14.39a5,5,0,0,1-4.65-3.14L9,11"/><line class="cls-3" x1="6.5" y1="10.5" x2="12.5" y2="10.5"/></symbol><symbol id="icon-camera" viewBox="0 0 48 48"><title>ico_48x48</title><rect class="cls-1" x="4" y="13" width="40" height="32" rx="4"/><circle class="cls-1" cx="24" cy="29" r="12"/><circle class="cls-2" cx="24" cy="29" r="8.5"/><rect class="cls-1" x="16" y="3" width="16" height="7" rx="2"/><circle class="cls-2" cx="9.5" cy="18.5" r="2"/><rect class="cls-1" x="19" y="10" width="10" height="3"/></symbol><symbol id="icon-coat" viewBox="0 0 48 48"><title>ico_48x48</title><rect class="cls-1" x="14" y="3" width="20" height="13" rx="6.5"/><path class="cls-2" d="M24,15.5,21.82,13A5.31,5.31,0,0,1,20.5,9.5h0a2,2,0,0,1,2-2h3a2,2,0,0,1,2,2h0A5.31,5.31,0,0,1,26.18,13Z"/><line class="cls-2" x1="13.5" y1="39.5" x2="13.5" y2="20.5"/><line class="cls-2" x1="34.5" y1="39.5" x2="34.5" y2="20.5"/><line class="cls-1" x1="24" y1="17" x2="24" y2="45"/><path class="cls-1" d="M35,11h0a8.78,8.78,0,0,1,6,8.32V37a2,2,0,0,1-2,2H35v3.34a2,2,0,0,1-1.66,2,64.25,64.25,0,0,1-18.68,0,2,2,0,0,1-1.66-2V39H9a2,2,0,0,1-2-2V19.32A8.78,8.78,0,0,1,13,11h0"/></symbol><symbol id="icon-google-play" viewBox="0 0 56 20"><linearGradient gradientUnits="userSpaceOnUse" x1="-76" y1="0" x2="-76.707" y2=".707"><stop offset="0" stop-color="#ee4447"/><stop offset="1" stop-color="#c5166c"/></linearGradient><path d="M54 20H2c-1.1 0-2-.9-2-2V2C0 .9.9 0 2 0h52c1.1 0 2 .9 2 2v16c0 1.1-.9 2-2 2z"/><path d="M16.9 6.2h.4c.4 0 .6.2.6.5s-.2.5-.6.5-.6-.2-.6-.4h-.4c0 .5.4.8 1.1.8.6 0 1.1-.4 1.1-.8s-.3-.6-.6-.7c.3-.1.5-.3.5-.6 0-.4-.4-.8-1-.8s-1 .3-1 .8h.4c0-.3.2-.4.6-.4.3 0 .5.2.5.4a.47.47 0 0 1-.5.5H17v.2zm2.7 1.3c.3 0 .5-.1.6-.3v.3h.4V6c0-.5-.3-.7-.8-.7s-.8.2-.9.6h.4c0-.2.2-.2.4-.2.3 0 .4.1.4.4v.2h-.6c-.5 0-.8.3-.8.6.1.3.4.6.9.6zm.1-.4c-.2 0-.4-.1-.4-.3s.1-.3.4-.3h.5v.2c0 .2-.2.4-.5.4zm3-1.4v-.4h-1.4v2.1h.4V5.7h1zm1.7-.4c-.3 0-.5.1-.7.4v-.4h-.4v2.8h.4v-1c.1.2.4.4.7.4.5 0 .9-.4.9-1.1s-.3-1.1-.9-1.1zm-.1 1.8c-.4 0-.6-.3-.6-.7s.2-.7.6-.7.6.3.6.7-.2.7-.6.7zM26 8.2c.4 0 .6-.2.8-.7l.8-2.2h-.4L26.7 7l-.5-1.7h-.5l.8 2.1v.1c-.1.2-.2.3-.4.3H26v.4c-.1 0 0 0 0 0zm2.9-.7c.5 0 .9-.3.9-.7 0-.2-.1-.4-.4-.5.2 0 .3-.2.3-.4 0-.4-.3-.6-.8-.6s-.8.2-.8.6h.4c0-.2.2-.3.4-.3.3 0 .4.1.4.3s-.1.3-.4.3h-.3v.3h.3c.3 0 .5.1.5.3s-.2.3-.5.3a.55.55 0 0 1-.5-.3H28c0 .5.4.7.9.7zm1.9-.1l1-1.5v1.5h.4V5.3h-.4l-1 1.5V5.3h-.4v2.1h.4zm3.7-2.1h-1.8v.4h.7v1.8h.4V5.7h.7v-.4zm1.9 1.6a.55.55 0 0 1-.5.3c-.3 0-.6-.2-.6-.6h1.5v-.3c0-.7-.4-1.1-1-1.1s-1 .4-1 1.1.4 1.1 1 1.1c.5 0 .8-.2.9-.6h-.3zm-.5-1.3c.3 0 .5.2.5.6h-1.1c0-.4.2-.6.6-.6zm2.7 1.8h1c.5 0 .7-.2.7-.6a.47.47 0 0 0-.5-.5c.2 0 .4-.2.4-.5s-.2-.5-.7-.5h-1v2.1zm.9-1.8c.2 0 .3.1.3.3s-.1.3-.4.3H39v-.6h.5zm-.1.9c.3 0 .4.1.4.3s-.1.3-.4.3H39v-.6h.4zm-12.1 5c-1 0-1.8.7-1.8 1.8a1.79 1.79 0 0 0 1.8 1.8c1 0 1.8-.7 1.8-1.8-.1-1.1-.9-1.8-1.8-1.8zm0 2.8c-.5 0-1-.4-1-1.1 0-.6.5-1.1 1-1.1s1 .4 1 1.1c0 .6-.5 1.1-1 1.1zm-3.9-2.8c-1 0-1.8.7-1.8 1.8a1.79 1.79 0 0 0 1.8 1.8c1 0 1.8-.7 1.8-1.8s-.8-1.8-1.8-1.8zm0 2.8c-.5 0-1-.4-1-1.1 0-.6.5-1.1 1-1.1s1 .4 1 1.1c0 .6-.5 1.1-1 1.1zM18.8 12v.7h1.8c-.1.4-.2.7-.4.9-.3.3-.7.5-1.4.5-1.1 0-2-.9-2-2s.9-2 2-2c.6 0 1 .2 1.3.5l.5-.5c-.4-.4-1-.8-1.9-.8-1.5 0-2.8 1.2-2.8 2.7s1.3 2.7 2.8 2.7c.8 0 1.4-.3 1.9-.8s.6-1.2.6-1.8v-.5h-2.4zm18.8.6a1.57 1.57 0 0 0-1.5-1.1c-.9 0-1.7.7-1.7 1.8 0 1 .7 1.8 1.8 1.8.8 0 1.3-.5 1.5-.8l-.7-.5c-.2.3-.5.5-.9.5s-.7-.2-.9-.5l2.4-1v-.2zm-2.4.6c0-.7.5-1 .9-1 .3 0 .6.2.7.4l-1.6.6zm-1.9 1.7h.8V9.7h-.8v5.2zM32 11.8c-.2-.2-.5-.4-1-.4-.9 0-1.7.8-1.7 1.8S30.1 15 31 15c.4 0 .8-.2.9-.4v.3c0 .7-.4 1-.9 1s-.8-.3-.9-.6l-.7.3c.2.5.7 1 1.6 1s1.7-.5 1.7-1.8v-3.2H32v.2zm-.9 2.5c-.5 0-1-.4-1-1.1 0-.6.4-1.1 1-1.1.5 0 .9.5.9 1.1.1.6-.4 1.1-.9 1.1zm10.1-4.6h-1.9v5.2h.8v-2h1.1c.9 0 1.7-.6 1.7-1.6s-.8-1.6-1.7-1.6zm.1 2.5h-1.1v-1.8h1.1c.6 0 .9.5.9.9s-.4.9-.9.9zm4.7-.8c-.6 0-1.1.2-1.4.8l.7.3c.1-.3.4-.4.7-.4.4 0 .8.2.8.7v.1c-.1-.1-.4-.2-.8-.2-.7 0-1.5.4-1.5 1.2 0 .7.6 1.1 1.3 1.1.5 0 .8-.2 1-.5v.4h.7v-2c.1-.9-.6-1.5-1.5-1.5zm-.1 2.9c-.3 0-.6-.1-.6-.4 0-.4.4-.6.8-.6.3 0 .5.1.7.2 0 .4-.4.8-.9.8zm4.4-2.7l-.9 2.2-.9-2.2h-.8l1.4 3.1-.8 1.7h.8l2.1-4.9h-.9zm-6.9 3.3h.8V9.7h-.8v5.2z" fill="#fff"/><path d="M4.3 4.8c-.1.2-.2.4-.2.6v9.2c0 .3.1.5.2.6l5.1-5.1v-.2L4.3 4.8z" fill="#5bc8f3"/><linearGradient id="B" gradientUnits="userSpaceOnUse" x1="12.896" y1="10" x2="2.867" y2="10"><stop offset="0" stop-color="#ffdf00"/><stop offset=".409" stop-color="#fbbc0e"/><stop offset=".775" stop-color="#f9a418"/><stop offset="1" stop-color="#f89b1c"/></linearGradient><path d="M11.2 11.8l-1.7-1.7v-.2l1.7-1.7 2 1.2c.6.3.6.9 0 1.2l-2 1.2z" fill="url(#B)"/><linearGradient id="C" gradientUnits="userSpaceOnUse" x1="10.293" y1="10.951" x2=".861" y2="20.384"><stop offset="0" stop-color="#ee4447"/><stop offset="1" stop-color="#c5166c"/></linearGradient><path d="M11.2 11.8L9.5 10l-5.2 5.2c.2.2.5.2.9 0l6-3.4" fill="url(#C)"/><linearGradient id="D" gradientUnits="userSpaceOnUse" x1=".819" y1="-.426" x2="8.52" y2="7.276"><stop offset="0" stop-color="#269e6f"/><stop offset=".051" stop-color="#2ba06f"/><stop offset=".466" stop-color="#53b26b"/><stop offset=".797" stop-color="#6bbd69"/><stop offset="1" stop-color="#74c168"/></linearGradient><path d="M11.2 8.2l-6-3.4c-.4-.2-.7-.2-.9 0L9.5 10l1.7-1.8z" fill="url(#D)"/></symbol><symbol id="icon-milk" viewBox="0 0 48 48"><title>ico_48x48</title><path class="cls-1" d="M35,9V5a2,2,0,0,0-2-2H15a2,2,0,0,0-2,2V9L9,16.5V43a2,2,0,0,0,2,2H37a2,2,0,0,0,2-2V16.5Z"/><line class="cls-2" x1="9.5" y1="16.5" x2="38.5" y2="16.5"/><line class="cls-2" x1="13.5" y1="9.5" x2="34.5" y2="9.5"/><polyline class="cls-2" points="34.5 9.5 31.5 16.5 31.5 44.5"/></symbol><symbol id="icon-parfum" viewBox="0 0 48 48"><title>ico_48x48</title><path class="cls-1" d="M17,17V14a2,2,0,0,1,2-2H29a2,2,0,0,1,2,2v3"/><rect class="cls-1" x="21" y="3" width="6" height="9"/><circle class="cls-1" cx="38" cy="7" r="6"/><line class="cls-1" x1="18" y1="7" x2="21" y2="7"/><line class="cls-1" x1="27" y1="7" x2="32" y2="7"/><line class="cls-2" x1="10.5" y1="22.5" x2="37.5" y2="22.5"/><path class="cls-3" d="M7,32a17,17,0,0,0,6.06,13H34.94A17,17,0,0,0,32,17H16A17,17,0,0,0,7,32Z"/></symbol><symbol id="icon-pills" viewBox="0 0 48 48"><title>ico_48x48</title><rect class="cls-1" x="0.79" y="12.1" width="42.43" height="19.8" rx="9.9" transform="translate(-9.11 22) rotate(-45)"/><line class="cls-1" x1="15.5" y1="15.5" x2="26.5" y2="26.5"/><line class="cls-2" x1="10.5" y1="19.5" x2="19.5" y2="19.5"/><line class="cls-2" x1="6.5" y1="23.5" x2="23.5" y2="23.5"/><line class="cls-2" x1="4.5" y1="27.5" x2="23.5" y2="27.5"/><line class="cls-2" x1="4.5" y1="31.5" x2="23.5" y2="31.5"/><line class="cls-2" x1="5.5" y1="35.5" x2="24.5" y2="35.5"/><path class="cls-2" d="M25.5,10.43a6.37,6.37,0,0,1,9,0"/><circle class="cls-3" cx="33" cy="33" r="11"/><line class="cls-1" x1="28" y1="38" x2="38" y2="28"/></symbol><symbol id="icon-shoes" viewBox="0 0 48 48"><title>ico_48x48</title><path class="cls-1" d="M29.8,14.41l1,3A5.2,5.2,0,0,0,35.75,21h0a5.18,5.18,0,0,0,4.67-2.92L42,14.78a1,1,0,0,1,1.79.07h0a36.79,36.79,0,0,1,3.18,15V36h0a6.75,6.75,0,0,1-5.61,3l-25.2,0A27.35,27.35,0,0,1,6,37H6a8,8,0,0,1-5-7.43H1A5.58,5.58,0,0,1,6.58,24h0a6,6,0,0,0,2.69-.64l1.47-.73a49.91,49.91,0,0,0,13-9.37L24,13a3.51,3.51,0,0,1,2.49-1h0A3.52,3.52,0,0,1,29.8,14.41Z"/><path class="cls-2" d="M1.5,32.5,5.19,33a63.28,63.28,0,0,0,20.55-.45h0A62.89,62.89,0,0,1,37.36,31.5H47"/><line class="cls-3" x1="24" y1="18" x2="22" y2="15.33"/><line class="cls-3" x1="21" y1="21" x2="19" y2="18.33"/><line class="cls-3" x1="17" y1="23" x2="15.5" y2="20.75"/></symbol><symbol id="icon-textile" viewBox="0 0 48 48"><title>ico_48x48</title><path class="cls-1" d="M38,26l8-7L38.81,7.32a4,4,0,0,0-2.3-1.75l-7.72-2.2a5,5,0,0,1-9.58,0l-7.72,2.2a4,4,0,0,0-2.3,1.75L2,19l8,7V44a1,1,0,0,0,1,1H37a1,1,0,0,0,1-1Z"/><line class="cls-2" x1="10.5" y1="6.5" x2="10.5" y2="26.5"/><line class="cls-2" x1="37.5" y1="6" x2="37.5" y2="26"/></symbol><symbol id="icon-tire" viewBox="0 0 48 48"><title>ico_48x48</title><path class="cls-1" d="M16,44H32"/><path class="cls-1" d="M32,4H16"/><ellipse class="cls-1" cx="32" cy="24" rx="8" ry="14"/><path class="cls-1" d="M25,17.22A22.5,22.5,0,0,1,26,24a22.5,22.5,0,0,1-1,6.78"/><path class="cls-1" d="M32,4c7.18,0,13,8.4,13,20S39.18,44,32,44"/><path class="cls-1" d="M16,4C8.82,4,3,12.4,3,24S8.82,44,16,44"/><polyline class="cls-2" points="7.05 39.23 8.5 38.5 10.5 39.5 12.5 38.5 14.5 39.5 16.5 38.5 18.5 39.5 20.5 38.5"/><polyline class="cls-2" points="5.26 33.12 6.5 32.5 8.5 33.5 10.5 32.5 12.5 33.5 14.5 32.5 16.5 33.5 18.5 32.5"/><polyline class="cls-2" points="4.5 20.5 6.5 21.5 8.5 20.5 10.5 21.5 12.5 20.5 14.5 21.5 16.5 20.5"/><polyline class="cls-2" points="4.5 26.5 6.5 27.5 8.5 26.5 10.5 27.5 12.5 26.5 14.5 27.5 16.5 26.5"/><polyline class="cls-2" points="18.5 14.5 16.5 15.5 14.5 14.5 12.5 15.5 10.5 14.5 8.5 15.5 6.5 14.5 4.5 15.5"/><polyline class="cls-2" points="7.5 8.5 9.7 9.5 11.9 8.5 14.1 9.5 16.3 8.5 18.5 9.5 20.5 8.5"/></symbol><symbol id="icon-tobacco" viewBox="0 0 48 48"><title>ico_48x48</title><path class="cls-1" d="M39,16H35.73a2,2,0,0,0-2,1.72L33,23H15l-.75-5.28a2,2,0,0,0-2-1.72H9V43a3,3,0,0,0,3,3H36a3,3,0,0,0,3-3Z"/><line class="cls-2" x1="13.5" y1="28.5" x2="21.5" y2="28.5"/><line class="cls-2" x1="21.5" y1="15.5" x2="38.5" y2="15.5"/><line class="cls-2" x1="14.5" y1="13.5" x2="17.5" y2="13.5"/><line class="cls-2" x1="18.5" y1="11.5" x2="21.5" y2="11.5"/><line class="cls-2" x1="13.5" y1="31.5" x2="19.5" y2="31.5"/><path class="cls-1" d="M14,17V8.83c0-1.11-4-1.11-4,0V16"/><path class="cls-1" d="M18,23V6.09C18,5,14,5,14,6.09V17"/><path class="cls-1" d="M26,23V8.83c0-1.11-4-1.11-4,0V23"/><path class="cls-1" d="M30,23V8.83c0-1.11-4-1.11-4,0V23"/><path class="cls-1" d="M34,17V8.83c0-1.11-4-1.11-4,0V23"/><path class="cls-1" d="M38,16V8.83c0-1.11-4-1.11-4,0V17"/><path class="cls-1" d="M22,23V3.09C22,2,18,2,18,3.09V23"/></symbol><symbol id="icon-wheelchair" viewBox="0 0 48 48"><title>ico_48x48</title><circle class="cls-1" cx="14.83" cy="32.83" r="12"/><circle class="cls-2" cx="14.83" cy="32.83" r="8.5"/><path class="cls-1" d="M9,3.25h3a1,1,0,0,1,1,1l2,16.5"/><path class="cls-2" d="M15,16.5H30.16a.93.93,0,0,1,.84,1v2"/><path class="cls-1" d="M23,23.5H40a2,2,0,0,1,2,2v5H27"/><line class="cls-1" x1="40.03" y1="31" x2="40" y2="37"/><circle class="cls-1" cx="36.85" cy="40.35" r="4.5"/><circle class="cls-2" cx="36.85" cy="40.35" r="1.5"/></symbol></svg>