<svg id="Layer_1" data-name="Layer 1" xmlns="http://www.w3.org/2000/svg" viewBox="0 0 48 48"><defs><style>.cls-1,.cls-2{fill:none;stroke:#d94700;stroke-linecap:round;stroke-linejoin:round;}.cls-1{stroke-width:2px;}</style></defs><title>ico_48x48</title><rect class="cls-1" x="14" y="3" width="20" height="13" rx="6.5"/><path class="cls-2" d="M24,15.5,21.82,13A5.31,5.31,0,0,1,20.5,9.5h0a2,2,0,0,1,2-2h3a2,2,0,0,1,2,2h0A5.31,5.31,0,0,1,26.18,13Z"/><line class="cls-2" x1="13.5" y1="39.5" x2="13.5" y2="20.5"/><line class="cls-2" x1="34.5" y1="39.5" x2="34.5" y2="20.5"/><line class="cls-1" x1="24" y1="17" x2="24" y2="45"/><path class="cls-1" d="M35,11h0a8.78,8.78,0,0,1,6,8.32V37a2,2,0,0,1-2,2H35v3.34a2,2,0,0,1-1.66,2,64.25,64.25,0,0,1-18.68,0,2,2,0,0,1-1.66-2V39H9a2,2,0,0,1-2-2V19.32A8.78,8.78,0,0,1,13,11h0"/></svg>