<svg id="Layer_1" data-name="Layer 1" xmlns="http://www.w3.org/2000/svg" viewBox="0 0 48 48"><defs><style>.cls-1,.cls-2,.cls-3{fill:none;stroke:#d94700;stroke-linejoin:round;}.cls-1,.cls-2{stroke-linecap:round;}.cls-1,.cls-3{stroke-width:2px;}</style></defs><title>ico_48x48</title><path class="cls-1" d="M17,17V14a2,2,0,0,1,2-2H29a2,2,0,0,1,2,2v3"/><rect class="cls-1" x="21" y="3" width="6" height="9"/><circle class="cls-1" cx="38" cy="7" r="6"/><line class="cls-1" x1="18" y1="7" x2="21" y2="7"/><line class="cls-1" x1="27" y1="7" x2="32" y2="7"/><line class="cls-2" x1="10.5" y1="22.5" x2="37.5" y2="22.5"/><path class="cls-3" d="M7,32a17,17,0,0,0,6.06,13H34.94A17,17,0,0,0,32,17H16A17,17,0,0,0,7,32Z"/></svg>