<svg id="Layer_1" data-name="Layer 1" xmlns="http://www.w3.org/2000/svg" viewBox="0 0 48 48"><defs><style>.cls-1,.cls-2{fill:none;stroke:#d94700;stroke-linecap:round;stroke-linejoin:round;}.cls-1{stroke-width:2px;}</style></defs><title>ico_48x48</title><path class="cls-1" d="M39,16H35.73a2,2,0,0,0-2,1.72L33,23H15l-.75-5.28a2,2,0,0,0-2-1.72H9V43a3,3,0,0,0,3,3H36a3,3,0,0,0,3-3Z"/><line class="cls-2" x1="13.5" y1="28.5" x2="21.5" y2="28.5"/><line class="cls-2" x1="21.5" y1="15.5" x2="38.5" y2="15.5"/><line class="cls-2" x1="14.5" y1="13.5" x2="17.5" y2="13.5"/><line class="cls-2" x1="18.5" y1="11.5" x2="21.5" y2="11.5"/><line class="cls-2" x1="13.5" y1="31.5" x2="19.5" y2="31.5"/><path class="cls-1" d="M14,17V8.83c0-1.11-4-1.11-4,0V16"/><path class="cls-1" d="M18,23V6.09C18,5,14,5,14,6.09V17"/><path class="cls-1" d="M26,23V8.83c0-1.11-4-1.11-4,0V23"/><path class="cls-1" d="M30,23V8.83c0-1.11-4-1.11-4,0V23"/><path class="cls-1" d="M34,17V8.83c0-1.11-4-1.11-4,0V23"/><path class="cls-1" d="M38,16V8.83c0-1.11-4-1.11-4,0V17"/><path class="cls-1" d="M22,23V3.09C22,2,18,2,18,3.09V23"/></svg>