<svg id="Layer_1" data-name="Layer 1" xmlns="http://www.w3.org/2000/svg" viewBox="0 0 48 48"><defs><style>.cls-1,.cls-2{fill:none;stroke:#d94700;stroke-linecap:round;stroke-linejoin:round;}.cls-1{stroke-width:2px;}</style></defs><title>ico_48x48</title><path class="cls-1" d="M16,44H32"/><path class="cls-1" d="M32,4H16"/><ellipse class="cls-1" cx="32" cy="24" rx="8" ry="14"/><path class="cls-1" d="M25,17.22A22.5,22.5,0,0,1,26,24a22.5,22.5,0,0,1-1,6.78"/><path class="cls-1" d="M32,4c7.18,0,13,8.4,13,20S39.18,44,32,44"/><path class="cls-1" d="M16,4C8.82,4,3,12.4,3,24S8.82,44,16,44"/><polyline class="cls-2" points="7.05 39.23 8.5 38.5 10.5 39.5 12.5 38.5 14.5 39.5 16.5 38.5 18.5 39.5 20.5 38.5"/><polyline class="cls-2" points="5.26 33.12 6.5 32.5 8.5 33.5 10.5 32.5 12.5 33.5 14.5 32.5 16.5 33.5 18.5 32.5"/><polyline class="cls-2" points="4.5 20.5 6.5 21.5 8.5 20.5 10.5 21.5 12.5 20.5 14.5 21.5 16.5 20.5"/><polyline class="cls-2" points="4.5 26.5 6.5 27.5 8.5 26.5 10.5 27.5 12.5 26.5 14.5 27.5 16.5 26.5"/><polyline class="cls-2" points="18.5 14.5 16.5 15.5 14.5 14.5 12.5 15.5 10.5 14.5 8.5 15.5 6.5 14.5 4.5 15.5"/><polyline class="cls-2" points="7.5 8.5 9.7 9.5 11.9 8.5 14.1 9.5 16.3 8.5 18.5 9.5 20.5 8.5"/></svg>