<svg id="Layer_1" data-name="Layer 1" xmlns="http://www.w3.org/2000/svg" viewBox="0 0 48 48"><defs><style>.cls-1,.cls-2,.cls-3{fill:none;stroke:#d94700;}.cls-1,.cls-3{stroke-width:2px;}.cls-3{stroke-linecap:round;}</style></defs><title>ico_48x48</title><path class="cls-1" d="M29.8,14.41l1,3A5.2,5.2,0,0,0,35.75,21h0a5.18,5.18,0,0,0,4.67-2.92L42,14.78a1,1,0,0,1,1.79.07h0a36.79,36.79,0,0,1,3.18,15V36h0a6.75,6.75,0,0,1-5.61,3l-25.2,0A27.35,27.35,0,0,1,6,37H6a8,8,0,0,1-5-7.43H1A5.58,5.58,0,0,1,6.58,24h0a6,6,0,0,0,2.69-.64l1.47-.73a49.91,49.91,0,0,0,13-9.37L24,13a3.51,3.51,0,0,1,2.49-1h0A3.52,3.52,0,0,1,29.8,14.41Z"/><path class="cls-2" d="M1.5,32.5,5.19,33a63.28,63.28,0,0,0,20.55-.45h0A62.89,62.89,0,0,1,37.36,31.5H47"/><line class="cls-3" x1="24" y1="18" x2="22" y2="15.33"/><line class="cls-3" x1="21" y1="21" x2="19" y2="18.33"/><line class="cls-3" x1="17" y1="23" x2="15.5" y2="20.75"/></svg>