<?xml version="1.0" encoding="utf-8"?>
<!-- Generator: Adobe Illustrator 23.0.1, SVG Export Plug-In . SVG Version: 6.00 Build 0)  -->
<svg version="1.1" id="Layer_1" xmlns="http://www.w3.org/2000/svg" xmlns:xlink="http://www.w3.org/1999/xlink" x="0px" y="0px"
	 viewBox="0 0 56 20" style="enable-background:new 0 0 56 20;" xml:space="preserve">
<style type="text/css">
	.st0{fill:#FFFFFF;}
	.st1{fill:#5BC8F3;}
	.st2{fill:url(#SVGID_1_);}
	.st3{fill:url(#SVGID_2_);}
	.st4{fill:url(#SVGID_3_);}
</style>
<path d="M54,20H2c-1.1,0-2-0.9-2-2V2c0-1.1,0.9-2,2-2h52c1.1,0,2,0.9,2,2v16C56,19.1,55.1,20,54,20z"/>
<path class="st0" d="M12.6,12.2c0,0-0.2,0.7-0.7,1.5c-0.4,0.6-0.9,1.3-1.6,1.3c-0.7,0-0.9-0.4-1.7-0.4c-0.8,0-1,0.4-1.7,0.4
	c-0.7,0-1.2-0.7-1.6-1.3C4.4,12.3,3.7,10,4.6,8.4c0.4-0.8,1.3-1.3,2.1-1.3c0.7,0,1.3,0.5,1.7,0.5c0.4,0,1.2-0.6,2-0.5
	c0.3,0,1.3,0.1,1.9,1c0,0-1.1,0.7-1.1,2C11.2,11.7,12.6,12.2,12.6,12.2z M9.9,6.3c0.4-0.4,0.6-1,0.5-1.7C9.9,4.6,9.3,5,8.9,5.4
	C8.6,5.8,8.3,6.4,8.4,7C9,7,9.6,6.7,9.9,6.3z M20.1,14.9h1L18.9,9h-1l-2.1,5.9h1l0.5-1.6h2.2L20.1,14.9z M18.4,10L18.4,10l0.9,2.6
	h-1.8L18.4,10z M23.8,10.6c-0.6,0-1.1,0.3-1.4,0.8h0v-0.7h-0.9v5.7h0.9v-2.1h0c0.3,0.5,0.7,0.8,1.4,0.8c1.1,0,1.8-0.9,1.8-2.2
	C25.7,11.5,24.9,10.6,23.8,10.6z M23.6,14.2c-0.7,0-1.1-0.6-1.1-1.4c0-0.9,0.5-1.4,1.1-1.4c0.7,0,1.1,0.6,1.1,1.4
	C24.7,13.7,24.3,14.2,23.6,14.2z M28.6,10.6c-0.6,0-1.1,0.3-1.4,0.8h0v-0.7h-0.9v5.7h0.9v-2.1h0c0.3,0.5,0.7,0.8,1.4,0.8
	c1.1,0,1.8-0.9,1.8-2.2C30.4,11.5,29.7,10.6,28.6,10.6z M28.3,14.2c-0.7,0-1.1-0.6-1.1-1.4c0-0.9,0.5-1.4,1.1-1.4
	c0.7,0,1.1,0.6,1.1,1.4C29.5,13.7,29,14.2,28.3,14.2z M32.6,13.3c0.1,1.1,0.9,1.7,2.2,1.7c1.4,0,2.3-0.7,2.3-1.8
	c0-0.9-0.5-1.3-1.7-1.6l-0.6-0.2c-0.8-0.2-1.1-0.4-1.1-0.9c0-0.5,0.5-0.9,1.2-0.9s1.2,0.4,1.3,0.9H37c0-1-0.9-1.7-2.1-1.7
	c-1.3,0-2.1,0.7-2.1,1.7c0,0.8,0.5,1.3,1.6,1.6l0.8,0.2c0.8,0.2,1.1,0.5,1.1,0.9c0,0.5-0.5,0.9-1.3,0.9c-0.8,0-1.3-0.4-1.4-1H32.6z
	 M38.2,9.6v1h-0.6v0.7h0.6v2.5c0,0.8,0.3,1.2,1.2,1.2c0.2,0,0.4,0,0.5,0v-0.7c-0.1,0-0.2,0-0.3,0c-0.4,0-0.5-0.2-0.5-0.5v-2.4h0.8
	v-0.7H39v-1H38.2z M42.4,15c1.3,0,2-0.8,2-2.2c0-1.4-0.8-2.2-2-2.2c-1.2,0-2,0.9-2,2.2C40.3,14.1,41.1,15,42.4,15z M42.4,14.3
	c-0.7,0-1.1-0.5-1.1-1.5c0-0.9,0.4-1.5,1.1-1.5s1.1,0.5,1.1,1.5C43.5,13.7,43.1,14.3,42.4,14.3z M45.1,14.9H46v-2.6
	c0-0.6,0.4-1,0.9-1c0.2,0,0.3,0,0.4,0.1v-0.8c-0.1,0-0.2,0-0.3,0c-0.5,0-0.9,0.3-1,0.8h0v-0.7h-0.8V14.9z M50.6,13.7
	c-0.1,0.4-0.5,0.6-1,0.6c-0.7,0-1.2-0.5-1.2-1.2V13h3v-0.3c0-1.3-0.7-2.1-1.9-2.1c-1.2,0-2,0.9-2,2.2c0,1.3,0.8,2.2,2,2.2
	c1,0,1.7-0.5,1.9-1.3H50.6z M49.5,11.3c0.6,0,1,0.4,1.1,1.1h-2.1C48.5,11.7,48.9,11.3,49.5,11.3z M16.9,6.2h0.4
	c0.4,0,0.6,0.2,0.6,0.5c0,0.3-0.2,0.5-0.6,0.5s-0.6-0.2-0.6-0.4h-0.4c0,0.5,0.4,0.8,1.1,0.8c0.6,0,1.1-0.4,1.1-0.8
	c0-0.4-0.3-0.6-0.6-0.7v0c0.3-0.1,0.5-0.3,0.5-0.6c0-0.4-0.4-0.8-1-0.8c-0.6,0-1,0.3-1,0.8h0.4c0-0.3,0.2-0.4,0.6-0.4
	c0.3,0,0.5,0.2,0.5,0.4c0,0.3-0.2,0.5-0.5,0.5h-0.4V6.2z M19.6,7.5c0.3,0,0.5-0.1,0.6-0.3h0v0.3h0.4V6c0-0.5-0.3-0.7-0.8-0.7
	c-0.5,0-0.8,0.2-0.9,0.6h0.4c0-0.2,0.2-0.2,0.4-0.2c0.3,0,0.4,0.1,0.4,0.4v0.2l-0.6,0c-0.5,0-0.8,0.3-0.8,0.6
	C18.8,7.2,19.1,7.5,19.6,7.5z M19.7,7.1c-0.2,0-0.4-0.1-0.4-0.3c0-0.2,0.1-0.3,0.4-0.3l0.5,0v0.2C20.2,6.9,20,7.1,19.7,7.1z
	 M22.7,5.7V5.3h-1.4v2.1h0.4V5.7H22.7z M24.4,5.3c-0.3,0-0.5,0.1-0.7,0.4h0V5.3h-0.4v2.8h0.4v-1h0c0.1,0.2,0.4,0.4,0.7,0.4
	c0.5,0,0.9-0.4,0.9-1.1C25.3,5.7,25,5.3,24.4,5.3z M24.3,7.1c-0.4,0-0.6-0.3-0.6-0.7c0-0.4,0.2-0.7,0.6-0.7c0.4,0,0.6,0.3,0.6,0.7
	C24.9,6.8,24.7,7.1,24.3,7.1z M26,8.2c0.4,0,0.6-0.2,0.8-0.7l0.8-2.2h-0.4L26.7,7h0l-0.5-1.7h-0.5l0.8,2.1l0,0.1
	c-0.1,0.2-0.2,0.3-0.4,0.3c0,0-0.1,0-0.1,0v0.4C25.9,8.2,26,8.2,26,8.2z M28.9,7.5c0.5,0,0.9-0.3,0.9-0.7c0-0.2-0.1-0.4-0.4-0.5v0
	c0.2,0,0.3-0.2,0.3-0.4c0-0.4-0.3-0.6-0.8-0.6c-0.5,0-0.8,0.2-0.8,0.6h0.4c0-0.2,0.2-0.3,0.4-0.3c0.3,0,0.4,0.1,0.4,0.3
	c0,0.2-0.1,0.3-0.4,0.3h-0.3v0.3h0.3c0.3,0,0.5,0.1,0.5,0.3c0,0.2-0.2,0.3-0.5,0.3c-0.2,0-0.4-0.1-0.5-0.3H28
	C28,7.3,28.4,7.5,28.9,7.5z M30.8,7.4l1-1.5h0v1.5h0.4V5.3h-0.4l-1,1.5h0V5.3h-0.4v2.1H30.8z M34.5,5.3h-1.8v0.4h0.7v1.8h0.4V5.7
	h0.7V5.3z M36.4,6.9c-0.1,0.2-0.3,0.3-0.5,0.3c-0.3,0-0.6-0.2-0.6-0.6v0h1.5V6.3c0-0.7-0.4-1.1-1-1.1c-0.6,0-1,0.4-1,1.1
	c0,0.7,0.4,1.1,1,1.1c0.5,0,0.8-0.2,0.9-0.6H36.4z M35.9,5.6c0.3,0,0.5,0.2,0.5,0.6h-1.1C35.3,5.8,35.5,5.6,35.9,5.6z M38.6,7.4h1
	c0.5,0,0.7-0.2,0.7-0.6c0-0.3-0.2-0.5-0.5-0.5v0c0.2,0,0.4-0.2,0.4-0.5c0-0.3-0.2-0.5-0.7-0.5h-1V7.4z M39.5,5.6
	c0.2,0,0.3,0.1,0.3,0.3c0,0.2-0.1,0.3-0.4,0.3H39V5.6H39.5z M39.4,6.5c0.3,0,0.4,0.1,0.4,0.3c0,0.2-0.1,0.3-0.4,0.3H39V6.5H39.4z"/>
</svg>
