<?xml version="1.0" encoding="utf-8"?>
<!-- Generator: Adobe Illustrator 24.1.1, SVG Export Plug-In . SVG Version: 6.00 Build 0)  -->
<svg version="1.1" id="Слой_1" xmlns="http://www.w3.org/2000/svg" xmlns:xlink="http://www.w3.org/1999/xlink" x="0px" y="0px"
	 viewBox="0 0 1145.8 472.3" style="enable-background:new 0 0 1145.8 472.3;" xml:space="preserve">
<style type="text/css">
	.st0{fill:none;stroke:#0055BB;stroke-width:2;stroke-linejoin:round;stroke-miterlimit:10;}
	.st1{fill:none;stroke:#0055BB;stroke-linejoin:round;stroke-miterlimit:10;}
	.st2{fill:#FFFFFF;stroke:#0055BB;stroke-width:2;}
	.st3{fill:none;stroke:#0055BB;stroke-width:2;}
	.st4{fill:none;stroke:#0055BB;}
	.st5{fill:none;stroke:#0055BB;stroke-width:2;stroke-linecap:round;stroke-miterlimit:10;}
	.st6{fill:#0055BB;}
	.st7{enable-background:new    ;}
	.st8{fill:#EAE60E;}
	.st9{fill:#63666A;}
	.st10{fill:none;stroke:#0055BB;stroke-linecap:round;}
	.st11{fill:none;stroke:#0055BB;stroke-width:2;stroke-linecap:round;}
	.st12{fill:none;stroke:#000000;stroke-linecap:round;}
	.st13{fill:none;}
	.st14{fill:none;stroke:#0055BB;stroke-width:1;stroke-miterlimit:4;}
	.st15{fill:none;stroke:#0055BB;stroke-miterlimit:10;}
	.st16{fill:none;stroke:#0055BB;stroke-width:2;stroke-miterlimit:10;}
	.st17{fill:#F2E7EB;}
</style>
<g>
	<line class="st0" x1="451.3" y1="427.8" x2="655.1" y2="427.8"/>
	<polygon class="st0" points="600.8,313.2 532.6,280.5 464.4,313.2 464.4,427.8 600.8,427.8 	"/>
	<polyline class="st0" points="587.2,401.6 587.2,335.1 478.1,335.1 478.1,427.8 587.2,427.8 	"/>
	<rect x="475.4" y="318.7" class="st0" width="114.5" height="16.4"/>
	<line class="st1" x1="480.8" y1="328.2" x2="486.3" y2="328.2"/>
	<line class="st1" x1="579" y1="328.2" x2="584.4" y2="328.2"/>
	<line class="st1" x1="489" y1="328.2" x2="491.7" y2="328.2"/>
	<line class="st1" x1="480.8" y1="344.6" x2="584.4" y2="344.6"/>
	<line class="st1" x1="480.8" y1="352.8" x2="584.4" y2="352.8"/>
	<circle class="st0" cx="532.6" cy="299.6" r="8.2"/>
	<line class="st1" x1="589.9" y1="399.1" x2="600.8" y2="399.1"/>
	<polygon class="st0" points="611.7,307.6 532.6,269.6 453.5,307.6 453.5,318.5 532.6,280.5 611.7,318.5 	"/>
	<line class="st1" x1="480.3" y1="442.8" x2="493.1" y2="429.9"/>
	<line class="st1" x1="479.4" y1="442.8" x2="493.1" y2="429.1"/>
	<line class="st1" x1="509.4" y1="442.8" x2="523.1" y2="429.1"/>
	<line class="st1" x1="539.4" y1="442.8" x2="553.1" y2="429.1"/>
	<line class="st1" x1="569.4" y1="442.8" x2="583.1" y2="429.1"/>
	<line class="st1" x1="599.4" y1="442.8" x2="613.1" y2="429.1"/>
	<line class="st1" x1="629.5" y1="442.8" x2="643.1" y2="429.1"/>
	<line class="st1" x1="474" y1="296.9" x2="474" y2="310.5"/>
	<line class="st1" x1="495.8" y1="286" x2="495.8" y2="299.6"/>
	<line class="st1" x1="517.6" y1="275.1" x2="517.6" y2="288.7"/>
	<line class="st1" x1="591.3" y1="296.9" x2="591.3" y2="310.5"/>
	<line class="st1" x1="569.4" y1="286" x2="569.4" y2="299.6"/>
	<line class="st1" x1="547.6" y1="275.1" x2="547.6" y2="288.7"/>
	<line class="st0" x1="481.1" y1="364.2" x2="584.7" y2="364.2"/>
	<line class="st1" x1="481.1" y1="361.1" x2="584.7" y2="361.1"/>
</g>
<g>
	<path class="st2" d="M492.8,402.6v-38.1c0-1.8,1.5-3.3,3.3-3.3h112.6c1.8,0,3.3,1.5,3.3,3.3v38.1H492.8L492.8,402.6z"/>
	<path class="st3" d="M617,417.5h53.8c1.4,0,2.5-1.1,2.5-2.5l0,0c0-1.4-1.1-2.5-2.5-2.5H617"/>
	<path class="st4" d="M664.2,404.5c-1.7,0-3.3-1.5-3.3-3.3s1.7-3.3,3.3-3.3V404.5z"/>
	<path class="st3" d="M617,419.2v-3.3v-39.7c0-1.8,1.5-3.3,3.3-3.3h21c2,0,7.9,11.1,8.8,16.6h18.2c1.8,0,3.3,1.5,3.3,3.3v19.9"/>
	<path class="st4" d="M624.5,412.6v-33.9c0-0.9,0.7-1.7,1.7-1.7h11.6l5,13.2v22.4"/>
	<line class="st4" x1="667.5" y1="392.7" x2="667.5" y2="410.9"/>
	<circle class="st2" cx="655.1" cy="417.5" r="9.9"/>
	<circle class="st4" cx="655.1" cy="417.5" r="4.1"/>
	<polyline class="st4" points="645.2,377 641,377 646,390.2 651.8,390.2 	"/>
	<path class="st3" d="M612.1,417.5H494.8c-1.1,0-2-0.9-2-2v-7.9H612L612.1,417.5L612.1,417.5z"/>
	<circle class="st2" cx="597.1" cy="417.5" r="9.9"/>
	<circle class="st4" cx="597.1" cy="417.5" r="4.1"/>
	<circle class="st2" cx="572.3" cy="417.5" r="9.9"/>
	<circle class="st4" cx="572.3" cy="417.5" r="4.1"/>
	<circle class="st2" cx="532.6" cy="417.5" r="9.9"/>
	<circle class="st4" cx="532.6" cy="417.5" r="4.1"/>
	<circle class="st2" cx="507.7" cy="417.5" r="9.9"/>
	<circle class="st4" cx="507.7" cy="417.5" r="4.1"/>
	<line class="st4" x1="498.6" y1="402.6" x2="498.6" y2="407.6"/>
	<line class="st4" x1="506.9" y1="402.6" x2="506.9" y2="407.6"/>
	<line class="st4" x1="515.2" y1="402.6" x2="515.2" y2="407.6"/>
	<line class="st4" x1="523.5" y1="402.6" x2="523.5" y2="407.6"/>
	<line class="st4" x1="531.7" y1="402.6" x2="531.7" y2="407.6"/>
	<line class="st4" x1="540" y1="402.6" x2="540" y2="407.6"/>
	<line class="st4" x1="548.3" y1="402.6" x2="548.3" y2="407.6"/>
	<line class="st4" x1="556.6" y1="402.6" x2="556.6" y2="407.6"/>
	<line class="st4" x1="564.9" y1="402.6" x2="564.9" y2="407.6"/>
	<line class="st4" x1="573.1" y1="402.6" x2="573.1" y2="407.6"/>
	<line class="st4" x1="581.4" y1="402.6" x2="581.4" y2="407.6"/>
	<line class="st4" x1="589.7" y1="402.6" x2="589.7" y2="407.6"/>
	<line class="st4" x1="598" y1="402.6" x2="598" y2="407.6"/>
	<line class="st4" x1="606.3" y1="402.6" x2="606.3" y2="407.6"/>
	<rect x="627.8" y="393.5" class="st4" width="5" height="3.3"/>
	<line class="st4" x1="649.3" y1="393.5" x2="646" y2="396.8"/>
	<line class="st4" x1="652.6" y1="393.5" x2="649.3" y2="396.8"/>
	<line class="st4" x1="655.9" y1="393.5" x2="652.6" y2="396.8"/>
	<line class="st4" x1="659.3" y1="393.5" x2="655.9" y2="396.8"/>
	<line class="st4" x1="640.2" y1="390.2" x2="627" y2="390.2"/>
	<line class="st4" x1="621.2" y1="376.1" x2="621.2" y2="381.1"/>
	<line class="st4" x1="621.2" y1="382.8" x2="621.2" y2="387.7"/>
	<line class="st4" x1="621.2" y1="389.4" x2="621.2" y2="394.4"/>
</g>
<g>
	<g>
		<line class="st5" x1="565.7" y1="173.9" x2="565.6" y2="200.9"/>
	</g>
	<polygon class="st6" points="576.1,179.7 565.7,176 555,179 565.7,168.9 	"/>
</g>
<g>
	<g>
		<line class="st5" x1="565.6" y1="237.5" x2="565.7" y2="264.6"/>
	</g>
	<polygon class="st6" points="565.9,269.6 555,259.4 565.7,262.4 576.1,258.8 	"/>
</g>
<g>
	<g>
		<line class="st5" x1="1054.4" y1="137.4" x2="1054.3" y2="204.3"/>
	</g>
	<polygon class="st6" points="1064.9,143.2 1054.5,139.5 1043.8,142.5 1054.7,132.4 	"/>
</g>
<g>
	<g>
		<line class="st5" x1="705.8" y1="114.4" x2="942" y2="114.6"/>
	</g>
	<polygon class="st6" points="699.1,115 708.6,103.5 706.2,114.3 710.5,124.5 	"/>
</g>
<g>
	<g>
		<line class="st5" x1="220.7" y1="299.2" x2="428.8" y2="187.2"/>
	</g>
	<polygon class="st6" points="420,180.1 428.4,187.4 430.8,198.1 434.6,183.8 	"/>
</g>
<g>
	<g>
		<line class="st5" x1="410.5" y1="148" x2="202.5" y2="259.9"/>
	</g>
	<polygon class="st6" points="211.2,267.2 202.8,259.7 200.4,249 196.6,263.4 	"/>
</g>
<g class="st7">
	<path d="M521.6,457.6h-5.8v11.3h-1.5v-12.6h8.8v12.6h-1.5V457.6z"/>
	<path d="M525.7,462.6c0-2.1,0.4-3.7,1.3-4.8s2.2-1.7,3.8-1.7c0.9,0,1.7,0.2,2.3,0.5s1.2,0.8,1.6,1.3c0.4,0.6,0.7,1.3,0.9,2.1
		s0.3,1.7,0.3,2.7c0,2.1-0.4,3.7-1.3,4.8s-2.2,1.7-3.8,1.7c-0.9,0-1.6-0.2-2.3-0.5c-0.6-0.3-1.2-0.8-1.6-1.3s-0.7-1.3-0.9-2.1
		C525.8,464.5,525.7,463.6,525.7,462.6z M527.2,462.6c0,0.7,0.1,1.4,0.2,2c0.1,0.6,0.4,1.2,0.6,1.6s0.7,0.9,1.1,1.1s1,0.4,1.6,0.4
		c1.1,0,2-0.4,2.6-1.3c0.6-0.8,1-2.2,1-3.9c0-0.7-0.1-1.3-0.2-2c-0.1-0.6-0.4-1.2-0.7-1.7s-0.7-0.8-1.1-1.1s-1-0.4-1.6-0.4
		c-1.1,0-2,0.4-2.6,1.3S527.2,460.8,527.2,462.6z"/>
	<path d="M546.6,468.4c-0.4,0.3-0.8,0.5-1.4,0.6c-0.6,0.1-1.1,0.2-1.8,0.2c-0.8,0-1.5-0.1-2.1-0.4s-1.2-0.7-1.7-1.2s-0.9-1.2-1.2-2
		s-0.4-1.8-0.4-2.9c0-1.2,0.2-2.2,0.5-3s0.7-1.5,1.3-2s1.1-0.9,1.8-1.1s1.3-0.4,2-0.4s1.3,0,1.8,0.1s0.8,0.2,1.2,0.3l-0.4,1.3
		c-0.6-0.3-1.4-0.4-2.5-0.4c-0.5,0-1,0.1-1.5,0.3s-0.9,0.5-1.3,0.9c-0.4,0.4-0.7,0.9-0.9,1.6s-0.3,1.5-0.3,2.4s0.1,1.6,0.3,2.3
		s0.5,1.2,0.9,1.6s0.8,0.8,1.3,1s1.1,0.3,1.7,0.3c0.5,0,1-0.1,1.4-0.2s0.7-0.2,1-0.4L546.6,468.4z"/>
	<path d="M556.9,457.6H553v11.3h-1.5v-11.3h-3.9v-1.3h9.3V457.6z"/>
	<path d="M564.8,465.4h-4.6l-1.3,3.5h-1.5l4.8-12.8h0.7l4.8,12.8h-1.6L564.8,465.4z M560.6,464.1h3.7l-1.4-3.8l-0.4-1.9l0,0
		l-0.4,1.9L560.6,464.1z"/>
	<path d="M576.9,459.2c0,0.3,0,0.6-0.1,0.9s-0.2,0.6-0.4,0.9s-0.4,0.5-0.7,0.6s-0.7,0.3-1.1,0.4v0.1c0.4,0.1,0.7,0.2,1,0.4
		s0.6,0.4,0.9,0.7s0.5,0.6,0.6,0.9s0.2,0.8,0.2,1.3c0,0.7-0.1,1.2-0.4,1.7s-0.6,0.9-1.1,1.2s-0.9,0.5-1.5,0.7
		c-0.6,0.1-1.1,0.2-1.7,0.2c-0.2,0-0.4,0-0.7,0s-0.6,0-0.9,0s-0.6,0-0.9-0.1s-0.6-0.1-0.8-0.1v-12.3c0.4-0.1,1-0.1,1.6-0.2
		s1.2-0.1,1.9-0.1c0.5,0,0.9,0,1.4,0.1s0.9,0.2,1.3,0.4c0.4,0.2,0.7,0.5,1,0.9S576.9,458.6,576.9,459.2z M571.7,461.7
		c0.2,0,0.4,0,0.7,0s0.5,0,0.7-0.1c0.3-0.1,0.6-0.2,0.8-0.3c0.3-0.1,0.5-0.2,0.7-0.4s0.4-0.4,0.5-0.7s0.2-0.5,0.2-0.8
		c0-0.4-0.1-0.7-0.2-0.9s-0.3-0.4-0.6-0.6s-0.5-0.3-0.9-0.3c-0.3-0.1-0.7-0.1-1-0.1c-0.4,0-0.8,0-1.1,0s-0.6,0-0.7,0.1v4
		L571.7,461.7L571.7,461.7z M572.7,467.8c0.4,0,0.8,0,1.1-0.1s0.7-0.2,1-0.4c0.3-0.2,0.5-0.4,0.7-0.7c0.2-0.3,0.2-0.6,0.2-1
		c0-0.5-0.1-0.9-0.3-1.3s-0.5-0.6-0.8-0.8c-0.3-0.2-0.7-0.3-1.1-0.3s-0.8-0.1-1.2-0.1h-1.6v4.7c0.1,0,0.2,0,0.4,0.1s0.3,0,0.5,0
		s0.4,0,0.6,0S572.6,467.8,572.7,467.8z"/>
	<path d="M579.8,468.9v-12.6h1.5v11.3h4.1v-11.3h1.5v11.3h4.1v-11.3h1.5v11.3h1.7v3.7h-1l-0.3-2.3h-13.1V468.9z"/>
	<path d="M604,460.4l0.1-1.4H604l-0.8,1.5l-6.1,8.5h-0.9v-12.6h1.5v8.6l-0.1,1.4h0.1l0.8-1.5l6.1-8.6h0.9v12.6H604V460.4z"/>
	<path d="M610.8,463.1H610v5.8h-1.5v-12.6h1.5v5.9l0.8-0.3l4.2-5.6h1.7l-4.2,5.4l-0.8,0.6l0.9,0.7l4.6,5.9h-1.9L610.8,463.1z"/>
</g>
<g class="st7">
	<path d="M1016.4,455.6c0.5-0.1,0.9-0.2,1.5-0.2s1-0.1,1.6-0.1s1.1,0.1,1.7,0.2s1.1,0.3,1.6,0.6s0.8,0.7,1.1,1.2
		c0.3,0.5,0.4,1.1,0.4,1.9s-0.1,1.4-0.4,1.9c-0.3,0.5-0.6,1-1.1,1.3s-1,0.6-1.6,0.7s-1.2,0.2-1.8,0.2c-0.1,0-0.2,0-0.3,0
		c-0.1,0-0.3,0-0.4,0s-0.3,0-0.4,0s-0.2,0-0.3,0v4.8h-1.5L1016.4,455.6L1016.4,455.6z M1019.4,456.6c-0.3,0-0.6,0-0.9,0
		s-0.5,0-0.7,0.1v5.2c0.1,0,0.2,0,0.3,0c0.1,0,0.3,0,0.4,0s0.3,0,0.4,0s0.2,0,0.3,0c0.4,0,0.8,0,1.2-0.1c0.4-0.1,0.8-0.2,1.1-0.4
		c0.3-0.2,0.6-0.5,0.8-0.9c0.2-0.4,0.3-0.8,0.3-1.4c0-0.5-0.1-0.9-0.3-1.2s-0.4-0.6-0.7-0.8s-0.6-0.3-1-0.4
		C1020.2,456.7,1019.8,456.6,1019.4,456.6z"/>
	<path d="M1025.9,461.8c0-2.1,0.4-3.7,1.3-4.8c0.9-1.1,2.2-1.7,3.8-1.7c0.9,0,1.7,0.2,2.3,0.5c0.6,0.3,1.2,0.8,1.6,1.3
		c0.4,0.6,0.7,1.3,0.9,2.1c0.2,0.8,0.3,1.7,0.3,2.7c0,2.1-0.4,3.7-1.3,4.8c-0.9,1.1-2.2,1.7-3.8,1.7c-0.9,0-1.6-0.2-2.3-0.5
		c-0.6-0.3-1.2-0.8-1.6-1.3s-0.7-1.3-0.9-2.1C1026,463.6,1025.9,462.7,1025.9,461.8z M1027.5,461.8c0,0.7,0.1,1.4,0.2,2
		s0.3,1.2,0.6,1.6s0.7,0.9,1.1,1.1s1,0.4,1.6,0.4c1.1,0,2-0.4,2.6-1.3c0.6-0.8,1-2.2,1-3.9c0-0.7-0.1-1.3-0.2-2
		c-0.1-0.6-0.4-1.2-0.7-1.7c-0.3-0.5-0.7-0.8-1.1-1.1c-0.4-0.3-1-0.4-1.6-0.4c-1.1,0-2,0.4-2.6,1.3
		C1027.8,458.7,1027.5,460,1027.5,461.8z"/>
	<path d="M1039.7,462.1v-1.3h0.3c0.1,0,0.2,0,0.4,0c0.2,0,0.3,0,0.5,0s0.3,0,0.5,0s0.3,0,0.4,0c0.3-0.1,0.6-0.1,0.9-0.3
		c0.3-0.1,0.5-0.3,0.7-0.4c0.2-0.2,0.4-0.4,0.5-0.6s0.2-0.5,0.2-0.8c0-0.4-0.1-0.7-0.2-1s-0.3-0.5-0.5-0.6s-0.5-0.3-0.8-0.3
		c-0.3-0.1-0.6-0.1-1-0.1c-0.6,0-1.2,0-1.7,0.1s-0.8,0.2-1.1,0.3l-0.4-1.2c0.2-0.1,0.7-0.3,1.3-0.4c0.6-0.1,1.3-0.2,2.1-0.2
		c0.5,0,1,0.1,1.4,0.2s0.9,0.3,1.2,0.5s0.7,0.6,0.9,1s0.3,0.9,0.3,1.5s-0.2,1.2-0.6,1.7s-1,0.9-1.8,1.2v0.1c0.8,0.1,1.5,0.4,2,1
		c0.5,0.5,0.7,1.2,0.7,2.1c0,0.7-0.1,1.3-0.4,1.8s-0.6,0.9-1.1,1.2c-0.4,0.3-0.9,0.6-1.5,0.7c-0.6,0.2-1.1,0.2-1.7,0.2
		c-0.8,0-1.4,0-2-0.1c-0.5-0.1-0.9-0.2-1.3-0.3l0.4-1.3c0.3,0.1,0.7,0.2,1.2,0.3c0.5,0.1,1.1,0.1,1.8,0.1c0.4,0,0.7-0.1,1.1-0.2
		s0.7-0.3,1-0.5s0.5-0.5,0.7-0.8s0.3-0.7,0.3-1.1c0-0.8-0.3-1.3-0.8-1.7c-0.5-0.4-1.2-0.6-2.1-0.6c-0.1,0-0.3,0-0.4,0s-0.3,0-0.4,0
		h-1V462.1z"/>
	<path d="M1056,462.3h-6v5.8h-1.5v-12.6h1.5v5.5h6v-5.5h1.5v12.6h-1.5V462.3z"/>
	<path d="M1068.3,459.5l0.1-1.4h-0.1l-0.8,1.5l-6.1,8.5h-0.9v-12.6h1.5v8.6l-0.1,1.4h0.1l0.8-1.5l6.1-8.6h0.9V468h-1.5V459.5z"/>
	<path d="M1083.2,470.4h-1l-0.3-2.3h-9v-12.6h1.5v11.3h5.7v-11.3h1.5v11.3h1.7L1083.2,470.4L1083.2,470.4z"/>
	<path d="M1091.2,464.6h-4.6l-1.3,3.5h-1.5l4.8-12.8h0.7l4.8,12.8h-1.6L1091.2,464.6z M1087,463.3h3.7l-1.4-3.8l-0.4-1.9l0,0
		l-0.4,1.9L1087,463.3z"/>
</g>
<g class="st7">
	<path d="M520.4,93l0.2-1.9h-0.1l-0.7,1.7l-3.3,5.7H516l-3.5-5.7l-0.7-1.7h-0.1L512,93v8.5h-1.4V88.8h1.1l3.9,6.5l0.6,1.4l0,0
		l0.6-1.4l3.8-6.4h1.2v12.6h-1.5V93H520.4z"/>
	<path d="M530.9,97.9h-4.6l-1.3,3.5h-1.5l4.8-12.8h0.7l4.8,12.8h-1.6L530.9,97.9z M526.7,96.6h3.7l-1.4-3.8l-0.4-1.9l0,0l-0.4,1.9
		L526.7,96.6z"/>
	<path d="M535.4,89c0.5-0.1,0.9-0.2,1.5-0.2s1-0.1,1.6-0.1s1.1,0.1,1.7,0.2c0.6,0.1,1.1,0.3,1.6,0.6s0.8,0.7,1.1,1.2
		s0.4,1.1,0.4,1.9s-0.1,1.4-0.4,1.9s-0.6,1-1.1,1.3s-1,0.6-1.6,0.7s-1.2,0.2-1.8,0.2c-0.1,0-0.2,0-0.3,0s-0.3,0-0.4,0s-0.3,0-0.4,0
		s-0.2,0-0.3,0v4.8h-1.5L535.4,89L535.4,89z M538.5,90c-0.3,0-0.6,0-0.9,0s-0.5,0-0.7,0.1v5.2c0.1,0,0.2,0,0.3,0s0.3,0,0.4,0
		s0.3,0,0.4,0s0.2,0,0.3,0c0.4,0,0.8,0,1.2-0.1s0.8-0.2,1.1-0.4c0.3-0.2,0.6-0.5,0.8-0.9s0.3-0.8,0.3-1.4c0-0.5-0.1-0.9-0.3-1.2
		s-0.4-0.6-0.7-0.8s-0.6-0.3-1-0.4S538.9,90,538.5,90z"/>
	<path d="M547.8,95.6H547v5.8h-1.5V88.8h1.5v5.9l0.8-0.3l4.2-5.6h1.7l-4.2,5.4l-0.8,0.6l0.9,0.7l4.6,5.9h-1.9L547.8,95.6z"/>
	<path d="M564.2,92.9l0.1-1.4h-0.1l-0.8,1.5l-6.1,8.5h-0.9V88.8h1.5v8.6l-0.1,1.4h0.1l0.8-1.5l6.1-8.6h0.9v12.6h-1.5V92.9z"/>
	<path d="M568.7,89c0.5-0.1,0.9-0.2,1.5-0.2s1-0.1,1.6-0.1s1.1,0.1,1.7,0.2c0.6,0.1,1.1,0.3,1.6,0.6s0.8,0.7,1.1,1.2
		s0.4,1.1,0.4,1.9s-0.1,1.4-0.4,1.9s-0.6,1-1.1,1.3s-1,0.6-1.6,0.7s-1.2,0.2-1.8,0.2c-0.1,0-0.2,0-0.3,0s-0.3,0-0.4,0s-0.3,0-0.4,0
		s-0.2,0-0.3,0v4.8h-1.5L568.7,89L568.7,89z M571.8,90c-0.3,0-0.6,0-0.9,0s-0.5,0-0.7,0.1v5.2c0.1,0,0.2,0,0.3,0s0.3,0,0.4,0
		s0.3,0,0.4,0s0.2,0,0.3,0c0.4,0,0.8,0,1.2-0.1s0.8-0.2,1.1-0.4c0.3-0.2,0.6-0.5,0.8-0.9s0.3-0.8,0.3-1.4c0-0.5-0.1-0.9-0.3-1.2
		s-0.4-0.6-0.7-0.8s-0.6-0.3-1-0.4S572.2,90,571.8,90z"/>
	<path d="M578.3,95.1c0-2.1,0.4-3.7,1.3-4.8s2.2-1.7,3.8-1.7c0.9,0,1.7,0.2,2.3,0.5s1.2,0.8,1.6,1.3c0.4,0.6,0.7,1.3,0.9,2.1
		s0.3,1.7,0.3,2.7c0,2.1-0.4,3.7-1.3,4.8s-2.2,1.7-3.8,1.7c-0.9,0-1.6-0.2-2.3-0.5c-0.6-0.3-1.2-0.8-1.6-1.3s-0.7-1.3-0.9-2.1
		S578.3,96.1,578.3,95.1z M579.9,95.1c0,0.7,0.1,1.4,0.2,2c0.1,0.6,0.3,1.2,0.6,1.6s0.7,0.9,1.1,1.1s1,0.4,1.6,0.4
		c1.1,0,2-0.4,2.6-1.3c0.6-0.8,1-2.2,1-3.9c0-0.7-0.1-1.3-0.2-2c-0.1-0.6-0.4-1.2-0.7-1.7s-0.7-0.8-1.1-1.1s-1-0.4-1.6-0.4
		c-1.1,0-2,0.4-2.6,1.3S579.9,93.4,579.9,95.1z"/>
	<path d="M598.7,91.7c0,0.3,0,0.6-0.1,0.9s-0.2,0.6-0.4,0.9s-0.4,0.5-0.7,0.6s-0.7,0.3-1.1,0.4v0.1c0.4,0.1,0.7,0.2,1,0.4
		s0.6,0.4,0.9,0.7s0.5,0.6,0.6,0.9s0.2,0.8,0.2,1.3c0,0.7-0.1,1.2-0.4,1.7s-0.6,0.9-1.1,1.2s-0.9,0.5-1.5,0.7
		c-0.6,0.1-1.1,0.2-1.7,0.2c-0.2,0-0.4,0-0.7,0s-0.6,0-0.9,0s-0.6,0-0.9-0.1s-0.6-0.1-0.8-0.1V89c0.4-0.1,1-0.1,1.6-0.2
		s1.2-0.1,1.9-0.1c0.5,0,0.9,0,1.4,0.1s0.9,0.2,1.3,0.4c0.4,0.2,0.7,0.5,1,0.9S598.7,91.1,598.7,91.7z M593.5,94.2
		c0.2,0,0.4,0,0.7,0s0.5,0,0.7-0.1c0.3-0.1,0.6-0.2,0.8-0.3c0.3-0.1,0.5-0.2,0.7-0.4s0.4-0.4,0.5-0.7s0.2-0.5,0.2-0.8
		c0-0.4-0.1-0.7-0.2-0.9s-0.4-0.4-0.6-0.6c-0.3-0.2-0.5-0.3-0.9-0.3c-0.3-0.1-0.7-0.1-1-0.1c-0.4,0-0.8,0-1.1,0s-0.6,0-0.7,0.1v4
		h0.9V94.2z M594.5,100.3c0.4,0,0.8,0,1.1-0.1s0.7-0.2,1-0.4c0.3-0.2,0.5-0.4,0.7-0.7c0.2-0.3,0.2-0.6,0.2-1c0-0.5-0.1-0.9-0.3-1.3
		s-0.5-0.6-0.8-0.8c-0.3-0.2-0.7-0.3-1.1-0.3s-0.8-0.1-1.2-0.1h-1.5v4.7c0.1,0,0.2,0,0.4,0.1s0.3,0,0.5,0s0.4,0,0.6,0
		S594.4,100.3,594.5,100.3z"/>
	<path d="M604,95.6h-0.8v5.8h-1.6V88.8h1.5v5.9l0.8-0.3l4.2-5.6h1.7l-4.2,5.4l-0.8,0.6l0.9,0.7l4.6,5.9h-1.7L604,95.6z"/>
	<path d="M618.6,97.9H614l-1.3,3.5h-1.5l4.8-12.8h0.7l4.8,12.8h-1.6L618.6,97.9z M614.4,96.6h3.7l-1.4-3.8l-0.4-1.9l0,0l-0.4,1.9
		L614.4,96.6z"/>
</g>
<g class="st7">
	<path d="M1021.1,100.9c-0.4,0.3-0.8,0.5-1.4,0.6s-1.1,0.2-1.8,0.2c-0.8,0-1.5-0.1-2.1-0.4c-0.7-0.3-1.2-0.7-1.7-1.2s-0.9-1.2-1.2-2
		s-0.4-1.8-0.4-2.9c0-1.2,0.2-2.2,0.5-3s0.7-1.5,1.3-2s1.1-0.9,1.8-1.1s1.3-0.4,2-0.4s1.3,0,1.8,0.1s0.8,0.2,1.2,0.3l-0.4,1.3
		c-0.6-0.3-1.4-0.4-2.5-0.4c-0.5,0-1,0.1-1.5,0.3s-0.9,0.5-1.3,0.9s-0.7,0.9-0.9,1.6c-0.2,0.7-0.3,1.5-0.3,2.4s0.1,1.6,0.3,2.3
		s0.5,1.2,0.9,1.6s0.8,0.8,1.3,1s1.1,0.3,1.7,0.3c0.5,0,1-0.1,1.4-0.2s0.7-0.2,1-0.4L1021.1,100.9z"/>
	<path d="M1023.4,88.8h6.8v1.3h-5.3v3.8c0.2,0,0.5-0.1,0.8-0.1s0.6-0.1,0.9-0.1c0.6,0,1.2,0.1,1.7,0.2c0.6,0.1,1,0.3,1.5,0.6
		s0.8,0.7,1,1.1s0.4,1.1,0.4,1.8c0,0.7-0.1,1.3-0.4,1.9s-0.6,0.9-1,1.3c-0.4,0.3-0.9,0.6-1.5,0.7c-0.6,0.2-1.1,0.2-1.8,0.2
		c-0.2,0-0.4,0-0.7,0s-0.5,0-0.8,0s-0.6,0-0.8-0.1s-0.5-0.1-0.7-0.1L1023.4,88.8L1023.4,88.8z M1026.6,100.3c0.4,0,0.7-0.1,1.1-0.2
		c0.3-0.1,0.7-0.3,0.9-0.5s0.5-0.5,0.6-0.8s0.2-0.7,0.2-1.1c0-0.6-0.1-1-0.3-1.3c-0.2-0.3-0.4-0.6-0.7-0.8c-0.3-0.2-0.6-0.3-1-0.4
		s-0.8-0.1-1.2-0.1c-0.1,0-0.2,0-0.4,0s-0.3,0-0.4,0s-0.3,0-0.4,0s-0.2,0-0.3,0v5c0.1,0,0.2,0,0.3,0.1s0.3,0,0.5,0s0.3,0,0.5,0
		C1026.3,100.3,1026.5,100.3,1026.6,100.3z"/>
	<path d="M1041,92.9l0.1-1.4h-0.1l-0.8,1.5l-6.1,8.5h-0.9V88.8h1.5v8.6l-0.1,1.4h0.1l0.8-1.5l6.1-8.6h0.9v12.6h-1.5V92.9z"/>
	<path d="M1053.6,100.9c-0.4,0.3-0.8,0.5-1.4,0.6s-1.1,0.2-1.8,0.2c-0.8,0-1.5-0.1-2.1-0.4c-0.7-0.3-1.2-0.7-1.7-1.2s-0.9-1.2-1.2-2
		s-0.4-1.8-0.4-2.9c0-1.2,0.2-2.2,0.5-3s0.7-1.5,1.3-2s1.1-0.9,1.8-1.1s1.3-0.4,2-0.4s1.3,0,1.8,0.1s0.8,0.2,1.2,0.3l-0.4,1.3
		c-0.6-0.3-1.4-0.4-2.5-0.4c-0.5,0-1,0.1-1.5,0.3s-0.9,0.5-1.3,0.9s-0.7,0.9-0.9,1.6c-0.2,0.7-0.3,1.5-0.3,2.4s0.1,1.6,0.3,2.3
		s0.5,1.2,0.9,1.6s0.8,0.8,1.3,1s1.1,0.3,1.7,0.3c0.5,0,1-0.1,1.4-0.2s0.7-0.2,1-0.4L1053.6,100.9z"/>
	<path d="M1060.1,95.1c0-2.1,0.4-3.7,1.3-4.8c0.9-1.1,2.2-1.7,3.8-1.7c0.9,0,1.7,0.2,2.3,0.5c0.6,0.3,1.2,0.8,1.6,1.3
		c0.4,0.6,0.7,1.3,0.9,2.1c0.2,0.8,0.3,1.7,0.3,2.7c0,2.1-0.4,3.7-1.3,4.8c-0.9,1.1-2.2,1.7-3.8,1.7c-0.9,0-1.6-0.2-2.3-0.5
		c-0.6-0.3-1.2-0.8-1.6-1.3s-0.7-1.3-0.9-2.1S1060.1,96.1,1060.1,95.1z M1061.7,95.1c0,0.7,0.1,1.4,0.2,2s0.4,1.2,0.6,1.6
		s0.7,0.9,1.1,1.1s1,0.4,1.6,0.4c1.1,0,2-0.4,2.6-1.3c0.6-0.8,1-2.2,1-3.9c0-0.7-0.1-1.3-0.2-2c-0.1-0.6-0.4-1.2-0.7-1.7
		c-0.3-0.5-0.7-0.8-1.1-1.1c-0.4-0.3-1-0.4-1.6-0.4c-1.1,0-2,0.4-2.6,1.3C1062,92.1,1061.7,93.4,1061.7,95.1z"/>
	<path d="M1077.7,100c-0.2,0-0.4,0.1-0.7,0.1s-0.5,0-0.8,0c-0.6,0-1.1-0.1-1.6-0.3s-0.9-0.5-1.3-0.9s-0.7-0.9-0.9-1.6
		s-0.3-1.4-0.3-2.2c0-0.8,0.1-1.5,0.3-2.2c0.2-0.6,0.5-1.2,0.9-1.6s0.9-0.8,1.4-1s1.1-0.4,1.8-0.4c0.2,0,0.3,0,0.6,0s0.4,0,0.6,0.1
		v-1.6h1.5V90c0.2-0.1,0.5-0.1,0.8-0.1s0.5,0,0.7,0c0.6,0,1.1,0.1,1.6,0.3s0.9,0.5,1.3,0.9s0.7,0.9,0.9,1.6c0.2,0.6,0.3,1.4,0.3,2.2
		c0,0.8-0.1,1.6-0.3,2.2c-0.2,0.6-0.5,1.2-0.9,1.6s-0.9,0.8-1.4,1s-1.1,0.3-1.7,0.3c-0.1,0-0.3,0-0.6,0s-0.5,0-0.6-0.1v1.8h-1.5V100
		H1077.7z M1076.5,98.9c0.1,0,0.1,0,0.2,0s0.2,0,0.3,0c0.1,0,0.2,0,0.3,0s0.2,0,0.3-0.1v-7.5c-0.1,0-0.3,0-0.5-0.1
		c-0.2,0-0.4,0-0.6,0c-0.4,0-0.8,0.1-1.1,0.2c-0.4,0.2-0.7,0.4-0.9,0.7c-0.3,0.3-0.5,0.7-0.6,1.2s-0.2,1.1-0.2,1.7s0.1,1.1,0.2,1.6
		s0.3,0.9,0.6,1.2c0.2,0.3,0.5,0.6,0.9,0.7C1075.7,98.8,1076,98.9,1076.5,98.9z M1080.4,91.2c-0.2,0-0.4,0-0.7,0s-0.5,0-0.6,0.1v7.5
		c0.1,0,0.3,0,0.5,0s0.4,0,0.6,0c0.4,0,0.8-0.1,1.1-0.2c0.4-0.2,0.7-0.4,0.9-0.7c0.3-0.3,0.5-0.7,0.6-1.2c0.2-0.5,0.2-1.1,0.2-1.7
		s-0.1-1.1-0.2-1.5c-0.1-0.5-0.3-0.9-0.5-1.2s-0.5-0.6-0.9-0.8C1081.2,91.3,1080.8,91.2,1080.4,91.2z"/>
	<path d="M1097,103.7h-1l-0.3-2.3h-8.8l-0.3,2.3h-1V100h1.3c0.1-0.1,0.2-0.4,0.4-0.9s0.4-1.2,0.6-2.1s0.4-2,0.5-3.4
		c0.2-1.4,0.2-3,0.2-4.9h6.7V100h1.6v3.7H1097z M1093.8,100.1v-9.9h-3.8c0,1.3-0.1,2.5-0.2,3.6s-0.2,2-0.4,2.8
		c-0.1,0.8-0.3,1.5-0.5,2.1s-0.4,1.1-0.6,1.5L1093.8,100.1L1093.8,100.1z"/>
</g>
<g class="st7">
	<path d="M553.6,72.1c-0.4,0.3-0.8,0.5-1.4,0.6c-0.6,0.1-1.1,0.2-1.8,0.2c-0.8,0-1.5-0.1-2.1-0.4s-1.2-0.7-1.7-1.2s-0.9-1.2-1.2-2
		s-0.4-1.8-0.4-2.9c0-1.2,0.2-2.2,0.5-3c0.3-0.8,0.7-1.5,1.3-2s1.1-0.9,1.8-1.1s1.3-0.4,2-0.4s1.3,0,1.8,0.1s0.8,0.2,1.2,0.3
		l-0.4,1.3c-0.6-0.3-1.4-0.4-2.5-0.4c-0.5,0-1,0.1-1.5,0.3s-0.9,0.5-1.3,0.9c-0.4,0.4-0.7,0.9-0.9,1.6s-0.3,1.5-0.3,2.4
		s0.1,1.6,0.3,2.3s0.5,1.2,0.9,1.6s0.8,0.8,1.3,1s1.1,0.3,1.7,0.3c0.5,0,1-0.1,1.4-0.2s0.7-0.2,1-0.4L553.6,72.1z"/>
	<path d="M555.8,60h6.8v1.3h-5.3v3.8c0.2,0,0.5-0.1,0.8-0.1s0.6-0.1,0.9-0.1c0.6,0,1.2,0.1,1.7,0.2c0.6,0.1,1,0.3,1.5,0.6
		s0.8,0.7,1,1.1s0.4,1.1,0.4,1.8c0,0.7-0.1,1.3-0.4,1.9s-0.6,0.9-1,1.3c-0.4,0.3-0.9,0.6-1.5,0.7c-0.6,0.2-1.1,0.2-1.8,0.2
		c-0.2,0-0.4,0-0.7,0s-0.5,0-0.8,0s-0.6,0-0.8-0.1s-0.5-0.1-0.7-0.1V60H555.8z M559.1,71.5c0.4,0,0.7-0.1,1.1-0.2
		c0.3-0.1,0.7-0.3,0.9-0.5s0.5-0.5,0.6-0.8s0.2-0.7,0.2-1.1c0-0.6-0.1-1-0.3-1.3s-0.4-0.6-0.7-0.8c-0.3-0.2-0.6-0.3-1-0.4
		s-0.8-0.1-1.2-0.1c-0.1,0-0.2,0-0.4,0s-0.3,0-0.4,0s-0.3,0-0.4,0s-0.2,0-0.3,0v5c0.1,0,0.2,0,0.3,0.1s0.3,0,0.5,0s0.3,0,0.5,0
		S558.9,71.5,559.1,71.5z"/>
	<path d="M573.4,64.1l0.1-1.4h-0.1l-0.8,1.5l-6.1,8.5h-0.9V60h1.5v8.6L567,70h0.1l0.8-1.5l6.1-8.6h0.9v12.6h-1.5V64.1z"/>
	<path d="M586,72.1c-0.4,0.3-0.8,0.5-1.4,0.6c-0.6,0.1-1.1,0.2-1.8,0.2c-0.8,0-1.5-0.1-2.1-0.4s-1.2-0.7-1.7-1.2s-0.9-1.2-1.2-2
		s-0.4-1.8-0.4-2.9c0-1.2,0.2-2.2,0.5-3c0.3-0.8,0.7-1.5,1.3-2s1.1-0.9,1.8-1.1s1.3-0.4,2-0.4s1.3,0,1.8,0.1s0.8,0.2,1.2,0.3
		l-0.4,1.3c-0.6-0.3-1.4-0.4-2.5-0.4c-0.5,0-1,0.1-1.5,0.3s-0.9,0.5-1.3,0.9c-0.4,0.4-0.7,0.9-0.9,1.6s-0.3,1.5-0.3,2.4
		s0.1,1.6,0.3,2.3s0.5,1.2,0.9,1.6s0.8,0.8,1.3,1s1.1,0.3,1.7,0.3c0.5,0,1-0.1,1.4-0.2s0.7-0.2,1-0.4L586,72.1z"/>
</g>
<g class="st7">
	<path d="M515.4,218.5h-0.8v5.8h-1.5v-12.6h1.5v5.9l0.8-0.3l4.2-5.6h1.7l-4.2,5.4l-0.8,0.6l0.9,0.7l4.6,5.9h-1.9L515.4,218.5z"/>
	<path d="M523.4,219.9c0-1.5,0.3-2.7,1-3.5s1.7-1.2,2.9-1.2c0.7,0,1.3,0.1,1.8,0.3s0.9,0.5,1.2,1s0.6,0.9,0.7,1.5s0.2,1.2,0.2,1.9
		c0,1.5-0.3,2.7-1,3.5s-1.7,1.2-2.9,1.2c-0.7,0-1.3-0.1-1.8-0.3s-0.9-0.5-1.2-1s-0.6-0.9-0.7-1.5S523.4,220.6,523.4,219.9z
		 M524.8,219.9c0,0.5,0,0.9,0.1,1.3s0.2,0.8,0.4,1.1s0.4,0.6,0.8,0.8c0.3,0.2,0.7,0.3,1.1,0.3c1.6,0,2.4-1.1,2.4-3.5
		c0-0.5,0-0.9-0.1-1.3s-0.2-0.8-0.4-1.1s-0.4-0.6-0.8-0.7c-0.3-0.2-0.7-0.3-1.1-0.3C525.7,216.4,524.8,217.6,524.8,219.9z"/>
	<path d="M541.5,226.7h-1l-0.3-2.3h-6.8l-0.3,2.3h-1v-3.5h1.1c0.1-0.1,0.2-0.4,0.4-0.7s0.3-0.8,0.5-1.4s0.3-1.4,0.4-2.3
		s0.2-2,0.2-3.3h5.4v7.7h1.3L541.5,226.7L541.5,226.7z M538.7,223.1v-6.5H536c0,0.5-0.1,1.1-0.1,1.6c-0.1,0.6-0.1,1.2-0.2,1.8
		s-0.2,1.2-0.4,1.7s-0.3,1-0.5,1.4H538.7z"/>
	<path d="M544.7,218.8c0.3,0,0.6-0.1,0.8-0.1s0.5,0,0.8,0c0.6,0,1.1,0.1,1.5,0.2c0.4,0.1,0.8,0.3,1,0.6s0.4,0.5,0.5,0.9
		s0.1,0.7,0.1,1.1c0,1.1-0.3,1.9-0.9,2.4s-1.6,0.7-2.9,0.7c-0.8,0-1.6,0-2.4-0.1v-9h1.4v3.3H544.7z M544.7,223.1
		c0.4,0.1,0.9,0.1,1.3,0.1c0.8,0,1.3-0.1,1.6-0.4s0.4-0.7,0.4-1.3c0-0.5-0.1-0.9-0.4-1.2s-0.8-0.5-1.5-0.5c-0.2,0-0.4,0-0.7,0
		s-0.5,0-0.7,0.1L544.7,223.1L544.7,223.1z M550.9,215.4h1.4v9h-1.4V215.4z"/>
	<path d="M565.6,219.1l0.1-1.1h-0.1l-0.7,1.2l-4.1,5.3H560v-9h1.4v5.5l-0.1,1.1h0.1l0.7-1.1l4.1-5.4h0.9v9h-1.5V219.1z"/>
	<path d="M570.6,220.4v-1.2h1.3c0.2,0,0.4,0,0.6-0.1s0.4-0.2,0.6-0.3c0.2-0.1,0.3-0.3,0.4-0.5s0.2-0.4,0.2-0.6c0-0.5-0.2-0.8-0.5-1
		s-0.8-0.3-1.5-0.3c-0.5,0-0.9,0.1-1.3,0.2s-0.7,0.3-0.9,0.4l-0.4-1.1c0.4-0.2,0.8-0.4,1.3-0.5c0.5-0.2,1.1-0.2,1.7-0.2
		c2,0,3,0.7,3,2.2c0,0.4-0.1,0.8-0.4,1.2s-0.7,0.7-1.2,0.9v0.1c0.7,0.1,1.2,0.4,1.5,0.8s0.4,0.9,0.4,1.5c0,0.4-0.1,0.7-0.2,1.1
		s-0.4,0.6-0.7,0.8s-0.7,0.4-1.2,0.6c-0.5,0.1-1,0.2-1.6,0.2s-1.1-0.1-1.5-0.2s-0.8-0.2-1.1-0.4l0.4-1.2c0.3,0.2,0.6,0.3,1,0.4
		c0.4,0.1,0.8,0.1,1.3,0.1c0.7,0,1.3-0.1,1.7-0.4s0.6-0.6,0.6-1.2c0-0.4-0.2-0.8-0.5-1s-1-0.4-1.8-0.4L570.6,220.4L570.6,220.4z"/>
	<path d="M586.2,218.4l0.5,1.6h0.1l0.4-1.7l2.4-6.6h1.5l-3.2,8.2c-0.3,0.9-0.6,1.6-0.9,2.1s-0.5,1-0.7,1.4c-0.3,0.4-0.5,0.6-0.8,0.8
		s-0.6,0.2-1.1,0.2c-0.4,0-0.7,0-0.9-0.1s-0.5-0.2-0.7-0.3l0.5-1.2c0.2,0.1,0.5,0.2,0.7,0.3c0.2,0,0.4,0.1,0.6,0.1
		c0.3,0,0.6-0.2,0.8-0.5s0.4-0.9,0.6-1.5l-4.7-9.3h1.7L586.2,218.4z"/>
	<path d="M599.9,213.1h-5.8v11.3h-1.5v-12.6h8.8v12.6h-1.5V213.1z"/>
	<path d="M614.5,226.7h-1l-0.3-2.3h-8.8l-0.3,2.3h-1V223h1.3c0.1-0.1,0.2-0.4,0.4-0.9s0.4-1.2,0.6-2.1c0.2-0.9,0.4-2,0.5-3.4
		c0.2-1.4,0.2-3,0.2-4.9h6.7V223h1.6L614.5,226.7L614.5,226.7z M611.3,223v-9.9h-3.8c0,1.3-0.1,2.5-0.2,3.6s-0.2,2-0.4,2.8
		s-0.3,1.5-0.5,2.1s-0.4,1.1-0.6,1.5h5.5V223z"/>
</g>
<g>
	<g>
		<line class="st5" x1="1055.1" y1="248.9" x2="1055.2" y2="276"/>
	</g>
</g>
<g class="st7">
	<path d="M1043,219.3v4.2c0,1.6,0.7,2.5,2.2,2.5c0.6,0,1.1-0.1,1.6-0.2c0.5-0.1,0.9-0.3,1.2-0.6v-5.8h1.5V232h-1.5v-5.4
		c-0.3,0.2-0.7,0.4-1.3,0.5s-1.1,0.3-1.8,0.3c-0.5,0-1-0.1-1.4-0.2c-0.4-0.1-0.8-0.3-1.1-0.6s-0.5-0.6-0.7-1.1s-0.3-1-0.3-1.7v-4.4
		h1.6V219.3z"/>
	<path d="M1059,231.2c-0.4,0.3-0.8,0.5-1.4,0.7s-1.1,0.3-1.7,0.3c-0.7,0-1.3-0.1-1.8-0.3s-0.9-0.5-1.2-1s-0.6-0.9-0.7-1.5
		s-0.2-1.2-0.2-1.9c0-1.5,0.3-2.7,1-3.5s1.7-1.2,2.9-1.2c0.4,0,0.8,0,1.2,0.1c0.4,0.1,0.8,0.3,1.1,0.5s0.6,0.6,0.8,1.1
		s0.3,1.1,0.3,1.8c0,0.4,0,0.8-0.1,1.3h-5.8c0,0.5,0.1,1,0.2,1.4s0.3,0.8,0.5,1c0.2,0.3,0.5,0.5,0.9,0.6s0.8,0.2,1.3,0.2
		c0.4,0,0.8-0.1,1.2-0.2s0.7-0.3,0.9-0.5L1059,231.2z M1055.9,224c-0.7,0-1.3,0.2-1.7,0.6c-0.4,0.4-0.7,1-0.8,1.9h4.5
		c0-0.9-0.2-1.6-0.5-1.9C1057.1,224.2,1056.6,224,1055.9,224z"/>
	<path d="M1063.9,227.9h-0.8v4.1h-1.4v-9h1.4v4.1l0.8-0.3l2.9-3.8h1.6l-2.8,3.6l-0.8,0.6l0.9,0.7l3,4.1h-1.8L1063.9,227.9z"/>
</g>
<g class="st7">
	<path d="M741.8,95.6H741v5.8h-1.5V88.8h1.5v5.9l0.8-0.3l4.2-5.6h1.7l-4.2,5.4l-0.8,0.6l0.9,0.7l4.6,5.9h-1.9L741.8,95.6z"/>
	<path d="M749.8,96.9c0-1.5,0.3-2.7,1-3.5s1.7-1.2,2.9-1.2c0.7,0,1.3,0.1,1.8,0.3s0.9,0.5,1.2,1s0.6,0.9,0.7,1.5s0.2,1.2,0.2,1.9
		c0,1.5-0.3,2.7-1,3.5s-1.7,1.2-2.9,1.2c-0.7,0-1.3-0.1-1.8-0.3s-0.9-0.5-1.2-1s-0.6-0.9-0.7-1.5S749.8,97.6,749.8,96.9z
		 M751.3,96.9c0,0.5,0,0.9,0.1,1.3s0.2,0.8,0.4,1.1s0.4,0.6,0.8,0.8c0.3,0.2,0.7,0.3,1.1,0.3c1.6,0,2.4-1.1,2.4-3.5
		c0-0.5,0-0.9-0.1-1.3s-0.2-0.8-0.4-1.1s-0.4-0.6-0.8-0.7c-0.3-0.2-0.7-0.3-1.1-0.3C752.1,93.5,751.3,94.6,751.3,96.9z"/>
	<path d="M767.9,103.7h-1l-0.3-2.3h-6.8l-0.3,2.3h-1v-3.5h1.1c0.1-0.1,0.2-0.4,0.4-0.7c0.2-0.3,0.3-0.8,0.5-1.4s0.3-1.4,0.4-2.3
		s0.2-2,0.2-3.3h5.4v7.7h1.3L767.9,103.7L767.9,103.7z M765.2,100.2v-6.5h-2.7c0,0.5-0.1,1.1-0.1,1.6c-0.1,0.6-0.1,1.2-0.2,1.8
		s-0.2,1.2-0.4,1.7s-0.3,1-0.5,1.4H765.2z"/>
	<path d="M771.2,95.9c0.3,0,0.6-0.1,0.8-0.1s0.5,0,0.8,0c0.6,0,1.1,0.1,1.5,0.2s0.8,0.3,1,0.6s0.4,0.5,0.5,0.9s0.1,0.7,0.1,1.1
		c0,1.1-0.3,1.9-0.9,2.4s-1.6,0.7-2.9,0.7c-0.8,0-1.6,0-2.4-0.1v-9h1.4v3.3H771.2z M771.2,100.2c0.4,0.1,0.9,0.1,1.3,0.1
		c0.8,0,1.3-0.1,1.6-0.4s0.4-0.7,0.4-1.3c0-0.5-0.1-0.9-0.4-1.2s-0.8-0.5-1.5-0.5c-0.2,0-0.4,0-0.7,0s-0.5,0-0.7,0.1L771.2,100.2
		L771.2,100.2z M777.4,92.4h1.4v9h-1.4V92.4z"/>
	<path d="M794.4,103.7h-1l-0.3-2.3h-6.8l-0.3,2.3h-1v-3.5h1.1c0.1-0.1,0.2-0.4,0.4-0.7c0.2-0.3,0.3-0.8,0.5-1.4s0.3-1.4,0.4-2.3
		s0.2-2,0.2-3.3h5.4v7.7h1.3L794.4,103.7L794.4,103.7z M791.6,100.2v-6.5h-2.7c0,0.5-0.1,1.1-0.1,1.6c-0.1,0.6-0.1,1.2-0.2,1.8
		s-0.2,1.2-0.4,1.7s-0.3,1-0.5,1.4H791.6z"/>
	<path d="M801,93.7h-2.6c0,0.5-0.1,1-0.1,1.6s-0.1,1.2-0.2,1.8s-0.2,1.1-0.3,1.7s-0.3,1-0.5,1.4s-0.4,0.7-0.7,1s-0.6,0.4-1,0.4
		c-0.2,0-0.4,0-0.6,0s-0.3-0.1-0.4-0.1l0.2-1.2c0.1,0,0.3,0.1,0.5,0.1s0.5-0.1,0.6-0.3s0.4-0.6,0.5-1.2s0.3-1.4,0.4-2.4
		c0.1-1,0.2-2.3,0.2-3.9h5.4v9H801L801,93.7L801,93.7z"/>
	<path d="M809.7,97.7l-1.4,0.2l-2.4,3.5h-1.7l2.2-3.1l0.7-0.7c-0.6-0.1-1.2-0.3-1.6-0.8s-0.7-1-0.7-1.7c0-0.5,0.1-1,0.3-1.4
		s0.5-0.7,0.8-1s0.8-0.4,1.2-0.5c0.5-0.1,1-0.2,1.6-0.2c0.4,0,0.9,0,1.2,0.1c0.4,0.1,0.8,0.1,1.1,0.2v8.9h-1.4v-3.5H809.7z
		 M809.7,93.6c-0.2-0.1-0.3-0.1-0.5-0.1s-0.4,0-0.5,0c-0.8,0-1.4,0.1-1.8,0.4s-0.6,0.7-0.6,1.3c0,0.5,0.2,1,0.6,1.3s1,0.4,1.7,0.4
		c0,0,0,0,0.1,0s0.1,0,0.1,0s0.2,0,0.3,0s0.3,0,0.6,0L809.7,93.6L809.7,93.6z"/>
	<path d="M824.7,100.8c-0.4,0.3-0.8,0.5-1.3,0.6s-1,0.2-1.5,0.2c-0.7,0-1.3-0.1-1.8-0.3s-0.9-0.5-1.2-1s-0.5-0.9-0.7-1.5
		s-0.2-1.2-0.2-1.9c0-1.5,0.3-2.7,1-3.5s1.6-1.2,2.9-1.2c0.6,0,1.1,0,1.5,0.1s0.8,0.2,1.1,0.4l-0.4,1.2c-0.3-0.2-0.6-0.3-0.9-0.4
		s-0.7-0.1-1.1-0.1c-1.7,0-2.6,1.2-2.6,3.5c0,0.5,0,0.9,0.1,1.3s0.2,0.8,0.5,1.1s0.5,0.6,0.8,0.8c0.3,0.2,0.8,0.3,1.3,0.3
		c0.4,0,0.8-0.1,1.2-0.2s0.6-0.3,0.8-0.5L824.7,100.8z"/>
	<path d="M832.1,93.7h-4v7.7h-1.4v-9h6.9v9h-1.4L832.1,93.7L832.1,93.7z"/>
	<path d="M841.9,96.1L842,95h-0.1l-0.7,1.2l-4.1,5.3h-0.8v-9h1.4V98l-0.1,1.1h0.1l0.7-1.1l4.1-5.4h0.9v9H842v-5.5H841.9z"/>
	<path d="M852.3,100.8c-0.4,0.3-0.8,0.5-1.3,0.6s-1,0.2-1.5,0.2c-0.7,0-1.3-0.1-1.8-0.3s-0.9-0.5-1.2-1s-0.5-0.9-0.7-1.5
		s-0.2-1.2-0.2-1.9c0-1.5,0.3-2.7,1-3.5s1.6-1.2,2.9-1.2c0.6,0,1.1,0,1.5,0.1s0.8,0.2,1.1,0.4l-0.4,1.2c-0.3-0.2-0.6-0.3-0.9-0.4
		s-0.7-0.1-1.1-0.1c-1.7,0-2.6,1.2-2.6,3.5c0,0.5,0,0.9,0.1,1.3s0.2,0.8,0.5,1.1s0.5,0.6,0.8,0.8c0.3,0.2,0.8,0.3,1.3,0.3
		c0.4,0,0.8-0.1,1.2-0.2s0.6-0.3,0.8-0.5L852.3,100.8z"/>
	<path d="M854.1,93.1c0.5-0.3,1-0.5,1.6-0.6s1.2-0.2,1.9-0.2c0.6,0,1.1,0.1,1.5,0.3c0.4,0.2,0.7,0.4,0.9,0.7s0.3,0.6,0.4,0.9
		c0.1,0.3,0.1,0.6,0.1,1c0,0.7,0,1.4-0.1,2.1c0,0.7-0.1,1.3-0.1,1.9c0,0.4,0,0.9,0.1,1.3c0,0.4,0.1,0.8,0.2,1.1h-1l-0.4-1.3h-0.1
		c-0.1,0.2-0.2,0.3-0.4,0.5s-0.4,0.3-0.6,0.4c-0.2,0.1-0.5,0.2-0.8,0.3s-0.6,0.1-1,0.1s-0.7-0.1-1.1-0.2c-0.3-0.1-0.6-0.3-0.9-0.5
		c-0.2-0.2-0.4-0.5-0.6-0.8c-0.1-0.3-0.2-0.7-0.2-1.1c0-0.5,0.1-1,0.3-1.3s0.5-0.6,0.9-0.8s0.9-0.4,1.4-0.5s1.1-0.1,1.8-0.1
		c0.2,0,0.3,0,0.5,0s0.3,0,0.5,0c0-0.4,0.1-0.7,0.1-1c0-0.7-0.1-1.1-0.4-1.4s-0.7-0.4-1.4-0.4c-0.2,0-0.4,0-0.7,0s-0.5,0.1-0.7,0.1
		c-0.2,0.1-0.5,0.1-0.7,0.2s-0.4,0.2-0.6,0.3L854.1,93.1z M856.7,100.3c0.3,0,0.6,0,0.9-0.1s0.5-0.2,0.7-0.3
		c0.2-0.1,0.3-0.3,0.5-0.5c0.1-0.2,0.2-0.3,0.3-0.5v-1.5c-0.2,0-0.3,0-0.5,0s-0.3,0-0.5,0c-0.4,0-0.7,0-1.1,0.1s-0.7,0.1-0.9,0.2
		c-0.3,0.1-0.5,0.3-0.6,0.5s-0.2,0.4-0.2,0.7c0,0.4,0.1,0.8,0.4,1S856.2,100.3,856.7,100.3z"/>
	<path d="M868.7,97.4h-4.1v4h-1.4v-9h1.4v3.8h4.1v-3.8h1.4v9h-1.4V97.4z"/>
	<path d="M878.5,96.1l0.1-1.1h-0.1l-0.7,1.2l-4.1,5.3h-0.8v-9h1.4V98l-0.1,1.1h0.1L875,98l4.1-5.4h0.9v9h-1.4v-5.5H878.5z"/>
	<path d="M887.2,97.7l-1.4,0.2l-2.4,3.5h-1.7l2.2-3.1l0.7-0.7c-0.6-0.1-1.2-0.3-1.6-0.8s-0.7-1-0.7-1.7c0-0.5,0.1-1,0.3-1.4
		s0.5-0.7,0.8-1s0.8-0.4,1.2-0.5c0.5-0.1,1-0.2,1.6-0.2c0.4,0,0.9,0,1.2,0.1c0.4,0.1,0.8,0.1,1.1,0.2v8.9h-1.4v-3.5H887.2z
		 M887.2,93.6c-0.2-0.1-0.3-0.1-0.5-0.1s-0.4,0-0.5,0c-0.8,0-1.4,0.1-1.8,0.4s-0.6,0.7-0.6,1.3c0,0.5,0.2,1,0.6,1.3s1,0.4,1.7,0.4
		c0,0,0,0,0.1,0s0.1,0,0.1,0s0.2,0,0.3,0s0.3,0,0.6,0L887.2,93.6L887.2,93.6z"/>
</g>
<g class="st7">
	<path d="M788.3,197.6l-0.7-0.4l-2.8,5.1l-1.3-0.7l6-11.1l1.3,0.7l-2.8,5.2l0.8,0.2l6.4-2.9l1.5,0.8l-6.3,2.8l-0.9,0.2l0.5,1.1
		l1.3,7.4l-1.7-0.9L788.3,197.6z"/>
	<path d="M794.7,202.6c0.7-1.3,1.6-2.2,2.6-2.6c1-0.4,2-0.3,3.2,0.3c0.6,0.3,1.1,0.7,1.4,1.1c0.3,0.4,0.5,0.9,0.6,1.4
		s0.1,1.1-0.1,1.7s-0.4,1.2-0.7,1.8c-0.7,1.3-1.6,2.2-2.6,2.6c-1,0.4-2,0.3-3.1-0.3c-0.6-0.3-1.1-0.7-1.4-1.1
		c-0.3-0.4-0.5-0.9-0.6-1.4s-0.1-1.1,0.1-1.7C794.1,203.8,794.4,203.2,794.7,202.6z M796,203.3c-0.2,0.4-0.4,0.8-0.5,1.2
		s-0.2,0.8-0.1,1.2c0,0.4,0.1,0.7,0.3,1s0.5,0.6,0.9,0.8c1.4,0.8,2.7,0.2,3.8-1.9c0.2-0.4,0.4-0.8,0.5-1.2s0.2-0.8,0.2-1.2
		s-0.1-0.7-0.3-1s-0.5-0.6-0.9-0.8C798.4,200.7,797.1,201.3,796,203.3z"/>
	<path d="M807.4,217.2l-0.9-0.5l0.9-2.1l-6-3.2l-1.3,1.9l-0.9-0.5l1.7-3.1l0.9,0.5c0.1-0.1,0.4-0.2,0.7-0.4s0.7-0.6,1.1-1
		c0.4-0.5,0.9-1.1,1.4-1.8c0.5-0.8,1.1-1.7,1.7-2.8l4.8,2.6l-3.7,6.8l1.2,0.6L807.4,217.2z M806.7,212.8l3.1-5.7l-2.4-1.3
		c-0.3,0.4-0.6,0.9-0.9,1.4c-0.3,0.5-0.7,1-1.1,1.5c-0.4,0.5-0.8,0.9-1.1,1.3c-0.4,0.4-0.8,0.7-1.1,0.9L806.7,212.8z"/>
	<path d="M814,211.8c0.3,0.1,0.5,0.2,0.8,0.3s0.5,0.2,0.7,0.3c0.5,0.3,1,0.6,1.3,0.9c0.3,0.3,0.5,0.6,0.6,1c0.1,0.3,0.1,0.7,0.1,1
		c-0.1,0.3-0.2,0.7-0.4,1c-0.5,1-1.2,1.5-1.9,1.7c-0.8,0.1-1.7-0.1-2.9-0.8c-0.7-0.4-1.4-0.8-2.1-1.2l4.3-7.9l1.3,0.7L814,211.8z
		 M811.9,215.6c0.4,0.3,0.7,0.5,1.1,0.7c0.7,0.4,1.2,0.5,1.6,0.4s0.7-0.4,1-0.9c0.2-0.4,0.3-0.8,0.2-1.3c-0.1-0.4-0.5-0.8-1.1-1.1
		c-0.2-0.1-0.4-0.2-0.6-0.3s-0.4-0.2-0.6-0.2L811.9,215.6z M821.1,211.8l1.3,0.7l-4.3,7.9l-1.3-0.7L821.1,211.8z"/>
	<path d="M832.2,222l0.6-1l0,0l-1.2,0.7l-6.1,2.7l-0.7-0.4l4.3-7.9l1.3,0.7l-2.6,4.8l-0.6,0.9h0.1l1.1-0.7l6.1-2.8l0.8,0.4l-4.3,7.9
		l-1.3-0.7L832.2,222z"/>
	<path d="M836,225.5l0.6-1l1.1,0.6c0.2,0.1,0.4,0.2,0.6,0.2c0.2,0,0.4,0,0.6,0c0.2,0,0.4-0.1,0.6-0.2c0.2-0.1,0.3-0.2,0.4-0.4
		c0.2-0.4,0.2-0.8,0-1.1s-0.6-0.6-1.1-0.9c-0.4-0.2-0.8-0.4-1.2-0.4s-0.7-0.1-1-0.1l0.2-1.2c0.4,0,0.9,0,1.4,0.1s1,0.3,1.6,0.6
		c1.8,0.9,2.3,2.1,1.6,3.4c-0.2,0.4-0.5,0.7-0.9,0.9s-0.9,0.3-1.4,0.2v0.1c0.6,0.5,0.9,0.9,0.9,1.4c0.1,0.5,0,1-0.3,1.5
		c-0.2,0.3-0.4,0.6-0.7,0.8s-0.6,0.3-1,0.4c-0.4,0.1-0.8,0-1.3-0.1s-1-0.3-1.5-0.6s-1-0.6-1.3-0.9c-0.3-0.3-0.6-0.6-0.8-0.9l0.9-0.8
		c0.2,0.3,0.4,0.5,0.7,0.8s0.7,0.5,1.1,0.7c0.6,0.3,1.2,0.5,1.7,0.5s0.8-0.3,1.1-0.7c0.2-0.4,0.2-0.8,0-1.2s-0.7-0.8-1.4-1.2
		L836,225.5z"/>
	<path d="M850.7,231.3l-0.4,1.6h0.1l1.1-1.3l5.3-4.6l1.3,0.7l-6.7,5.7c-0.7,0.6-1.3,1.1-1.8,1.5s-0.9,0.7-1.3,0.9
		c-0.4,0.2-0.7,0.3-1.1,0.3c-0.3,0-0.7-0.1-1-0.3c-0.4-0.2-0.6-0.4-0.8-0.5c-0.2-0.2-0.3-0.4-0.4-0.6l1-0.9c0.2,0.2,0.3,0.4,0.5,0.5
		s0.3,0.2,0.5,0.3c0.3,0.2,0.6,0.1,1-0.1c0.4-0.2,0.8-0.5,1.3-1.1l0.3-10.4l1.5,0.8L850.7,231.3z"/>
	<path d="M865.3,233.1l-5.1-2.8l-5.4,9.9l-1.3-0.7l6-11.1l7.7,4.2l-6,11.1l-1.3-0.7L865.3,233.1z"/>
	<path d="M871.6,252l-0.9-0.5l0.9-2.2l-7.8-4.2l-1.3,1.9l-0.9-0.5l1.7-3.2l1.1,0.6c0.1-0.1,0.4-0.3,0.8-0.6c0.4-0.3,0.9-0.9,1.5-1.6
		c0.6-0.7,1.3-1.6,2.1-2.7c0.8-1.1,1.6-2.5,2.5-4.2l5.9,3.2l-5.4,9.9l1.4,0.8L871.6,252z M870.6,247.3l4.7-8.7l-3.4-1.8
		c-0.7,1.1-1.3,2.2-1.9,3c-0.6,0.9-1.1,1.6-1.7,2.3s-1,1.2-1.4,1.6c-0.4,0.4-0.8,0.8-1.2,1L870.6,247.3z"/>
</g>
<g class="st7">
	<path d="M269.6,243.8c0.1,0.3,0.2,0.6,0.3,0.9c0.1,0.3,0.1,0.6,0,1c0,0.3-0.2,0.6-0.4,0.9c-0.2,0.3-0.5,0.5-0.8,0.8v0.1
		c0.3-0.1,0.7-0.2,1.1-0.1c0.4,0,0.8,0.1,1.1,0.2c0.3,0.1,0.7,0.3,1,0.5s0.6,0.6,0.8,1c0.3,0.6,0.4,1.1,0.4,1.7
		c0,0.5-0.2,1.1-0.4,1.5c-0.2,0.5-0.6,0.9-1,1.3c-0.4,0.4-0.9,0.7-1.4,1c-0.2,0.1-0.4,0.2-0.6,0.3s-0.5,0.3-0.8,0.4
		s-0.6,0.2-0.8,0.4c-0.3,0.1-0.5,0.2-0.8,0.3l-5.7-11c0.4-0.3,0.8-0.6,1.3-0.9c0.5-0.3,1.1-0.6,1.7-1c0.4-0.2,0.9-0.4,1.3-0.6
		c0.5-0.2,0.9-0.2,1.4-0.2s0.9,0.1,1.3,0.3S269.3,243.3,269.6,243.8z M266.2,248.4c0.2-0.1,0.4-0.2,0.6-0.4c0.3-0.1,0.5-0.3,0.6-0.4
		c0.2-0.2,0.4-0.4,0.6-0.6c0.2-0.2,0.3-0.4,0.4-0.7s0.1-0.5,0.1-0.8s-0.1-0.5-0.2-0.8c-0.2-0.4-0.4-0.6-0.6-0.7s-0.5-0.2-0.8-0.2
		s-0.6,0-0.9,0.1s-0.6,0.2-0.9,0.4c-0.4,0.2-0.7,0.4-1,0.5c-0.3,0.2-0.5,0.3-0.6,0.4l1.9,3.6L266.2,248.4z M269.9,253.3
		c0.3-0.2,0.7-0.4,0.9-0.6c0.3-0.2,0.5-0.5,0.6-0.8c0.2-0.3,0.2-0.6,0.2-0.9c0-0.3-0.1-0.7-0.3-1c-0.2-0.4-0.5-0.8-0.9-1
		c-0.3-0.2-0.7-0.3-1.1-0.3s-0.7,0.1-1.1,0.2c-0.4,0.1-0.7,0.3-1.1,0.5l-1.4,0.7l2.2,4.2c0.1,0,0.2-0.1,0.3-0.1
		c0.1-0.1,0.3-0.1,0.5-0.2c0.2-0.1,0.3-0.2,0.5-0.2C269.6,253.5,269.7,253.4,269.9,253.3z"/>
	<path d="M275.2,245.5c0.2-0.2,0.5-0.3,0.7-0.5c0.2-0.1,0.4-0.3,0.7-0.4c0.5-0.3,1-0.5,1.5-0.5c0.4-0.1,0.8-0.1,1.2,0
		s0.6,0.3,0.9,0.5c0.2,0.2,0.4,0.5,0.6,0.9c0.5,1,0.6,1.8,0.3,2.5c-0.3,0.7-1.1,1.4-2.3,2c-0.7,0.4-1.4,0.7-2.2,1l-4.2-8l1.3-0.7
		L275.2,245.5z M277.2,249.3c0.4-0.1,0.8-0.3,1.2-0.5c0.7-0.4,1.1-0.7,1.2-1.1c0.1-0.4,0.1-0.8-0.2-1.3c-0.2-0.4-0.5-0.7-0.9-0.8
		s-0.9,0-1.6,0.3c-0.2,0.1-0.4,0.2-0.6,0.3s-0.4,0.3-0.5,0.4L277.2,249.3z M279.2,239.6l1.3-0.7l4.2,8l-1.3,0.7L279.2,239.6z"/>
	<path d="M295.2,243.9l-0.9,0.5l-1.3-1.9l-6,3.1l0.8,2.1l-0.9,0.5l-1.6-3.1l0.9-0.5c0-0.2,0-0.4,0-0.8c0-0.4-0.1-0.9-0.3-1.5
		c-0.2-0.6-0.4-1.4-0.7-2.2c-0.3-0.9-0.8-1.9-1.3-3l4.8-2.5l3.6,6.9l1.2-0.6L295.2,243.9z M291.1,242.1l-3-5.7l-2.4,1.3
		c0.2,0.5,0.4,1,0.7,1.5c0.2,0.6,0.4,1.1,0.6,1.7c0.2,0.6,0.3,1.1,0.4,1.7c0.1,0.5,0.2,1,0.2,1.5L291.1,242.1z"/>
	<path d="M291.7,233.8c0.3-0.5,0.7-0.9,1.1-1.3c0.5-0.4,1-0.8,1.6-1.1c0.5-0.3,1-0.4,1.4-0.5c0.4,0,0.8,0,1.1,0.2
		c0.3,0.1,0.6,0.3,0.8,0.6c0.2,0.3,0.4,0.5,0.5,0.8c0.3,0.6,0.6,1.3,0.9,1.9c0.3,0.6,0.6,1.2,0.9,1.7c0.2,0.4,0.4,0.8,0.6,1.1
		s0.4,0.6,0.7,0.9l-0.9,0.5l-0.9-0.9h-0.1c0,0.2-0.1,0.4-0.1,0.6c-0.1,0.2-0.2,0.4-0.3,0.7c-0.1,0.2-0.3,0.4-0.6,0.6
		s-0.5,0.4-0.9,0.6c-0.3,0.2-0.7,0.3-1,0.3s-0.7,0-1-0.1s-0.6-0.2-0.9-0.4s-0.5-0.5-0.7-0.8c-0.2-0.5-0.4-0.9-0.3-1.3
		c0-0.4,0.2-0.8,0.4-1.2c0.2-0.4,0.6-0.7,1-1.1s1-0.7,1.5-1c0.1-0.1,0.3-0.2,0.4-0.2c0.1-0.1,0.3-0.1,0.5-0.2
		c-0.1-0.3-0.3-0.6-0.4-0.9c-0.3-0.6-0.6-0.9-1-1s-0.8,0-1.5,0.3c-0.2,0.1-0.4,0.2-0.6,0.3s-0.4,0.3-0.6,0.4
		c-0.2,0.2-0.4,0.3-0.5,0.5c-0.2,0.2-0.3,0.3-0.4,0.5L291.7,233.8z M297.3,239c0.3-0.2,0.5-0.3,0.7-0.5s0.3-0.4,0.4-0.6
		c0.1-0.2,0.2-0.4,0.2-0.6c0-0.2,0-0.4,0-0.6l-0.7-1.3c-0.2,0.1-0.3,0.1-0.5,0.2c-0.2,0.1-0.3,0.2-0.5,0.2c-0.3,0.2-0.6,0.4-0.9,0.6
		c-0.3,0.2-0.5,0.4-0.7,0.6c-0.2,0.2-0.3,0.5-0.4,0.7c0,0.3,0,0.5,0.1,0.8c0.2,0.4,0.5,0.6,0.9,0.7S296.9,239.2,297.3,239z"/>
	<path d="M300.2,228.5l1.1,2.2c0.1,0.3,0.3,0.5,0.5,0.7s0.3,0.4,0.5,0.5s0.4,0.2,0.6,0.2s0.5-0.1,0.8-0.2c0.5-0.3,0.8-0.5,1.1-0.8
		s0.4-0.5,0.5-0.7l-1.9-3.5l1.3-0.7l4.2,8l-1.3,0.7l-1.8-3.3c-0.1,0.2-0.3,0.4-0.6,0.7c-0.3,0.3-0.7,0.6-1.3,0.9
		c-0.4,0.2-0.8,0.3-1.1,0.4c-0.3,0.1-0.7,0.1-1-0.1c-0.3-0.1-0.6-0.3-0.9-0.6s-0.6-0.7-0.8-1.2l-1.3-2.4L300.2,228.5z"/>
	<path d="M307.4,225.5c0.3-0.5,0.7-0.9,1.1-1.3c0.5-0.4,1-0.8,1.6-1.1c0.5-0.3,1-0.4,1.4-0.5c0.4,0,0.8,0,1.1,0.2s0.6,0.3,0.8,0.6
		c0.2,0.3,0.4,0.5,0.5,0.8c0.3,0.6,0.6,1.3,0.9,1.9c0.3,0.6,0.6,1.2,0.9,1.7c0.2,0.4,0.4,0.8,0.6,1.1s0.4,0.6,0.7,0.9l-0.9,0.5
		l-0.9-0.9h-0.1c0,0.2-0.1,0.4-0.1,0.6s-0.2,0.4-0.3,0.7c-0.1,0.2-0.3,0.4-0.6,0.6c-0.2,0.2-0.5,0.4-0.9,0.6c-0.3,0.2-0.7,0.3-1,0.3
		s-0.7,0-1-0.1s-0.6-0.2-0.9-0.4s-0.5-0.5-0.7-0.8c-0.2-0.5-0.4-0.9-0.3-1.3c0-0.4,0.2-0.8,0.4-1.2c0.2-0.4,0.6-0.7,1-1.1
		c0.4-0.3,1-0.7,1.5-1c0.1-0.1,0.3-0.2,0.4-0.2c0.1-0.1,0.3-0.1,0.5-0.2c-0.1-0.3-0.3-0.6-0.4-0.9c-0.3-0.6-0.6-0.9-1-1
		s-0.8,0-1.5,0.3c-0.2,0.1-0.4,0.2-0.6,0.3s-0.4,0.3-0.6,0.4c-0.2,0.2-0.4,0.3-0.5,0.5c-0.2,0.2-0.3,0.3-0.4,0.5L307.4,225.5z
		 M313,230.7c0.3-0.2,0.5-0.3,0.7-0.5s0.3-0.4,0.4-0.6c0.1-0.2,0.2-0.4,0.2-0.6c0-0.2,0-0.4,0-0.6l-0.7-1.3
		c-0.2,0.1-0.3,0.1-0.5,0.2s-0.3,0.2-0.5,0.2c-0.3,0.2-0.6,0.4-0.9,0.6c-0.3,0.2-0.5,0.4-0.7,0.6c-0.2,0.2-0.3,0.5-0.4,0.7
		c0,0.3,0,0.5,0.1,0.8c0.2,0.4,0.5,0.6,0.9,0.7C312.2,231,312.6,230.9,313,230.7z"/>
	<path d="M323.7,221.8l-0.7,0.4l1.9,3.6l-1.3,0.7l-4.2-8l1.3-0.7l1.9,3.6l0.6-0.6l0.8-4.7l1.4-0.7l-0.8,4.5l-0.4,0.9l1.2,0.2
		l4.6,2.2l-1.6,0.8L323.7,221.8z"/>
	<path d="M328.7,218.7c-0.7-1.3-1-2.5-0.7-3.6c0.2-1,0.9-1.8,2-2.4c0.6-0.3,1.2-0.5,1.7-0.5s1.1,0.1,1.5,0.3s0.9,0.5,1.3,1
		c0.4,0.4,0.8,1,1.1,1.6c0.7,1.3,1,2.5,0.7,3.6c-0.2,1-0.9,1.8-2,2.4c-0.6,0.3-1.2,0.5-1.7,0.5s-1.1-0.1-1.5-0.3s-0.9-0.5-1.3-1
		C329.3,219.8,329,219.3,328.7,218.7z M330,218c0.2,0.4,0.5,0.8,0.7,1.1s0.6,0.6,0.9,0.8s0.7,0.3,1,0.3c0.4,0,0.7-0.1,1.1-0.3
		c1.4-0.7,1.6-2.1,0.6-4.2c-0.2-0.4-0.5-0.8-0.7-1.1s-0.6-0.6-0.9-0.8s-0.7-0.3-1-0.3c-0.4,0-0.7,0.1-1.1,0.3
		C329.1,214.5,328.9,215.9,330,218z"/>
	<path d="M347.8,216.3l-0.9,0.5l-1.3-1.9l-6,3.1l0.8,2.1l-0.9,0.5l-1.6-3.1l0.9-0.5c0-0.2,0-0.4,0-0.8c0-0.4-0.1-0.9-0.3-1.5
		c-0.2-0.6-0.4-1.4-0.7-2.2c-0.3-0.9-0.8-1.9-1.3-3l4.8-2.5l3.6,6.9l1.2-0.6L347.8,216.3z M343.8,214.4l-3-5.7l-2.4,1.3
		c0.2,0.5,0.4,1,0.7,1.5c0.2,0.6,0.4,1.1,0.6,1.7c0.2,0.6,0.3,1.1,0.4,1.7c0.1,0.5,0.2,1,0.2,1.5L343.8,214.4z"/>
	<path d="M345.8,209.7c-0.7-1.3-0.9-2.5-0.7-3.6c0.2-1,0.9-1.8,2-2.4c0.6-0.3,1.2-0.5,1.7-0.5s1.1,0.1,1.5,0.3
		c0.5,0.2,0.9,0.5,1.3,1c0.4,0.4,0.8,1,1.1,1.6c0.7,1.3,1,2.5,0.7,3.6c-0.2,1-0.9,1.8-2,2.4c-0.6,0.3-1.2,0.5-1.7,0.5
		s-1.1-0.1-1.5-0.3c-0.5-0.2-0.9-0.5-1.3-1C346.5,210.8,346.1,210.3,345.8,209.7z M347.1,209c0.2,0.4,0.5,0.8,0.7,1.1
		c0.3,0.3,0.6,0.6,0.9,0.8s0.7,0.3,1,0.3c0.4,0,0.7-0.1,1.1-0.3c1.4-0.7,1.6-2.1,0.6-4.2c-0.2-0.4-0.5-0.8-0.7-1.1
		c-0.3-0.3-0.6-0.6-0.9-0.8s-0.7-0.3-1-0.3c-0.4,0-0.7,0.1-1.1,0.3C346.2,205.5,346.1,206.9,347.1,209z"/>
	<path d="M352.7,201c0.4-0.2,0.7-0.4,1.1-0.7s0.9-0.5,1.5-0.8c1.1-0.6,1.9-0.8,2.5-0.7s1.1,0.5,1.5,1.1c0.2,0.4,0.3,0.8,0.2,1.3
		s-0.3,0.9-0.7,1.4v0.1c0.7-0.2,1.2-0.2,1.7,0c0.4,0.2,0.8,0.5,1.1,1.1c0.4,0.8,0.5,1.6,0.1,2.3s-1.2,1.3-2.4,2
		c-0.4,0.2-0.9,0.4-1.3,0.6s-0.8,0.3-1.2,0.5L352.7,201z M357.3,202.8c0.2-0.1,0.4-0.2,0.5-0.4s0.3-0.3,0.3-0.5
		c0.1-0.2,0.1-0.4,0.1-0.6c0-0.2,0-0.4-0.1-0.6c-0.2-0.4-0.5-0.6-0.8-0.7c-0.3,0-0.8,0.1-1.5,0.5c-0.3,0.2-0.6,0.3-0.8,0.4
		c-0.2,0.1-0.4,0.2-0.5,0.3l1.2,2.3L357.3,202.8z M357.6,207.2c0.2-0.1,0.4-0.2,0.6-0.3s0.4-0.2,0.7-0.3c0.7-0.4,1.2-0.8,1.4-1.1
		c0.2-0.4,0.2-0.8,0-1.3c-0.2-0.4-0.5-0.6-0.9-0.7c-0.4-0.1-1,0.1-1.7,0.5l-1.4,0.7L357.6,207.2z"/>
</g>
<g>
	<g>
		<line class="st5" x1="716.4" y1="187.6" x2="924.4" y2="299.6"/>
	</g>
	<polygon class="st6" points="710.5,184.2 714.3,198.6 716.7,187.9 725.1,180.5 	"/>
</g>
<g class="st7">
	<path d="M20.7,456.8h-5.8v11.3h-1.5v-12.6h8.8v12.6h-1.5V456.8z"/>
	<path d="M25.2,455.6c0.5-0.1,0.9-0.2,1.5-0.2s1-0.1,1.6-0.1s1.1,0.1,1.7,0.2c0.6,0.1,1.1,0.3,1.6,0.6s0.8,0.7,1.1,1.2
		s0.4,1.1,0.4,1.9s-0.1,1.4-0.4,1.9s-0.6,1-1.1,1.3s-1,0.6-1.6,0.7s-1.2,0.2-1.8,0.2c-0.1,0-0.2,0-0.3,0s-0.3,0-0.4,0s-0.3,0-0.4,0
		s-0.2,0-0.3,0v4.8h-1.5L25.2,455.6L25.2,455.6z M28.3,456.6c-0.3,0-0.6,0-0.9,0s-0.5,0-0.7,0.1v5.2c0.1,0,0.2,0,0.3,0s0.3,0,0.4,0
		s0.3,0,0.4,0s0.2,0,0.3,0c0.4,0,0.8,0,1.2-0.1s0.8-0.2,1.1-0.4c0.3-0.2,0.6-0.5,0.8-0.9s0.3-0.8,0.3-1.4c0-0.5-0.1-0.9-0.3-1.2
		s-0.4-0.6-0.7-0.8s-0.6-0.3-1-0.4S28.7,456.6,28.3,456.6z"/>
	<path d="M34.8,461.8c0-2.1,0.4-3.7,1.3-4.8s2.2-1.7,3.8-1.7c0.9,0,1.7,0.2,2.3,0.5s1.2,0.8,1.6,1.3c0.4,0.6,0.7,1.3,0.9,2.1
		s0.3,1.7,0.3,2.7c0,2.1-0.4,3.7-1.3,4.8s-2.2,1.7-3.8,1.7c-0.9,0-1.6-0.2-2.3-0.5c-0.6-0.3-1.2-0.8-1.6-1.3s-0.7-1.3-0.9-2.1
		C34.9,463.6,34.8,462.7,34.8,461.8z M36.4,461.8c0,0.7,0.1,1.4,0.2,2c0.1,0.6,0.4,1.2,0.6,1.6s0.7,0.9,1.1,1.1s1,0.4,1.6,0.4
		c1.1,0,2-0.4,2.6-1.3c0.6-0.8,1-2.2,1-3.9c0-0.7-0.1-1.3-0.2-2c-0.1-0.6-0.4-1.2-0.7-1.7s-0.7-0.8-1.1-1.1s-1-0.4-1.6-0.4
		c-1.1,0-2,0.4-2.6,1.3S36.4,460,36.4,461.8z"/>
	<path d="M55.3,459.5l0.1-1.4h-0.1l-0.8,1.5l-6.1,8.5h-0.8v-12.6h1.5v8.6l-0.1,1.4h0.1l0.8-1.5l6.1-8.6h0.9V468h-1.5v-8.5H55.3z"/>
	<path d="M60.8,462.1v-1.3h0.3c0.1,0,0.2,0,0.4,0s0.3,0,0.5,0s0.3,0,0.5,0s0.3,0,0.4,0c0.3-0.1,0.6-0.1,0.9-0.3
		c0.3-0.1,0.5-0.3,0.7-0.4c0.2-0.2,0.4-0.4,0.5-0.6s0.2-0.5,0.2-0.8c0-0.4-0.1-0.7-0.2-1s-0.3-0.5-0.5-0.6s-0.5-0.3-0.8-0.3
		c-0.3-0.1-0.6-0.1-1-0.1c-0.6,0-1.2,0-1.7,0.1s-0.8,0.2-1.1,0.3l-0.4-1.2c0.2-0.1,0.7-0.3,1.3-0.4s1.3-0.2,2.1-0.2
		c0.5,0,1,0.1,1.4,0.2c0.4,0.1,0.9,0.3,1.2,0.5s0.7,0.6,0.9,1s0.3,0.9,0.3,1.5s-0.2,1.2-0.6,1.7s-1,0.9-1.8,1.2v0.1
		c0.8,0.1,1.5,0.4,2,1c0.5,0.5,0.7,1.2,0.7,2.1c0,0.7-0.1,1.3-0.4,1.8s-0.6,0.9-1.1,1.2s-0.9,0.6-1.5,0.7c-0.6,0.1-1.1,0.2-1.7,0.2
		c-0.8,0-1.4,0-2-0.1c-0.5-0.1-0.9-0.2-1.3-0.3l0.4-1.3c0.3,0.1,0.7,0.2,1.2,0.3c0.5,0.1,1.1,0.1,1.8,0.1c0.4,0,0.7-0.1,1.1-0.2
		s0.7-0.3,1-0.5s0.5-0.5,0.7-0.8s0.3-0.7,0.3-1.1c0-0.8-0.3-1.3-0.8-1.7c-0.5-0.4-1.2-0.6-2.1-0.6c-0.1,0-0.3,0-0.4,0s-0.3,0-0.4,0
		h-1V462.1z"/>
	<path d="M77.2,458.3c0,0.3,0,0.6-0.1,0.9s-0.2,0.6-0.4,0.9s-0.4,0.5-0.7,0.6s-0.7,0.3-1.1,0.4v0.1c0.4,0.1,0.7,0.2,1,0.4
		s0.6,0.4,0.9,0.7s0.5,0.6,0.6,0.9s0.2,0.8,0.2,1.3c0,0.7-0.1,1.2-0.4,1.7s-0.6,0.9-1.1,1.2s-0.9,0.5-1.5,0.7
		c-0.6,0.1-1.1,0.2-1.7,0.2c-0.2,0-0.4,0-0.7,0s-0.6,0-0.9,0s-0.6,0-0.9-0.1s-0.6-0.2-0.8-0.2v-12.3c0.4-0.1,1-0.1,1.6-0.2
		s1.2-0.1,1.9-0.1c0.5,0,0.9,0,1.4,0.1s0.9,0.2,1.3,0.4c0.4,0.2,0.7,0.5,1,0.9S77.2,457.7,77.2,458.3z M72,460.8c0.2,0,0.4,0,0.7,0
		s0.5,0,0.7-0.1c0.3-0.1,0.6-0.2,0.8-0.3c0.3-0.1,0.5-0.2,0.7-0.4s0.4-0.4,0.5-0.7s0.2-0.5,0.2-0.8c0-0.4-0.1-0.7-0.2-0.9
		s-0.4-0.4-0.6-0.6c-0.3-0.2-0.5-0.3-0.9-0.3c-0.3-0.1-0.7-0.1-1-0.1c-0.4,0-0.8,0-1.1,0c-0.3,0-0.6,0-0.7,0.1v4L72,460.8L72,460.8z
		 M73,466.9c0.4,0,0.8,0,1.1-0.1s0.7-0.2,1-0.4c0.3-0.2,0.5-0.4,0.7-0.7c0.2-0.3,0.2-0.6,0.2-1c0-0.5-0.1-0.9-0.3-1.3
		c-0.2-0.4-0.5-0.6-0.8-0.8c-0.3-0.2-0.7-0.3-1.1-0.3s-0.8-0.1-1.2-0.1H71v4.7c0.1,0,0.2,0,0.4,0.1s0.3,0,0.5,0s0.4,0,0.6,0
		S72.9,466.9,73,466.9z"/>
	<path d="M79.6,461.8c0-2.1,0.4-3.7,1.3-4.8s2.2-1.7,3.8-1.7c0.9,0,1.7,0.2,2.3,0.5s1.2,0.8,1.6,1.3c0.4,0.6,0.7,1.3,0.9,2.1
		s0.3,1.7,0.3,2.7c0,2.1-0.4,3.7-1.3,4.8s-2.2,1.7-3.8,1.7c-0.9,0-1.6-0.2-2.3-0.5c-0.6-0.3-1.2-0.8-1.6-1.3s-0.7-1.3-0.9-2.1
		C79.7,463.6,79.6,462.7,79.6,461.8z M81.2,461.8c0,0.7,0.1,1.4,0.2,2s0.4,1.2,0.6,1.6s0.7,0.9,1.1,1.1s1,0.4,1.6,0.4
		c1.1,0,2-0.4,2.6-1.3c0.6-0.8,1-2.2,1-3.9c0-0.7-0.1-1.3-0.2-2c-0.1-0.6-0.4-1.2-0.7-1.7c-0.3-0.5-0.7-0.8-1.1-1.1s-1-0.4-1.6-0.4
		c-1.1,0-2,0.4-2.6,1.3S81.2,460,81.2,461.8z"/>
	<path d="M102.4,470.4h-1l-0.3-2.3h-8.8l-0.3,2.3h-1v-3.7h1.3c0.1-0.1,0.2-0.4,0.4-0.9s0.4-1.2,0.6-2.1s0.4-2,0.5-3.4
		c0.2-1.4,0.2-3,0.2-4.9h6.7v11.3h1.6v3.7H102.4z M99.3,466.7v-9.9h-3.8c0,1.3-0.1,2.5-0.2,3.6s-0.2,2-0.4,2.8s-0.3,1.5-0.5,2.1
		s-0.4,1.1-0.6,1.5h5.5V466.7z"/>
	<path d="M112.2,459.5l0.1-1.4h-0.1l-0.8,1.5l-6.1,8.5h-0.9v-12.6h1.5v8.6l-0.1,1.4h0.1l0.8-1.5l6.1-8.6h0.9V468h-1.5V459.5z"/>
	<path d="M124.9,456.8H121v11.3h-1.5v-11.3h-3.9v-1.3h9.3L124.9,456.8L124.9,456.8z"/>
	<path d="M126.7,455.5h6.9v1.3h-5.4v4.1h4.9v1.3h-4.9v4.5h5.5v1.3h-7V455.5z"/>
	<path d="M143.1,456.8h-3.8c-0.1,2.4-0.3,4.4-0.5,6s-0.5,2.8-0.9,3.7c-0.3,0.6-0.6,1-0.9,1.3s-0.7,0.4-1.2,0.4c-0.2,0-0.4,0-0.6,0
		s-0.3-0.1-0.4-0.1l0.2-1.3c0.1,0,0.2,0.1,0.4,0.1s0.4-0.1,0.6-0.2c0.2-0.1,0.4-0.4,0.6-0.7c0.2-0.3,0.3-0.8,0.5-1.3
		c0.1-0.5,0.3-1.2,0.4-2.1s0.2-1.8,0.3-3c0.1-1.1,0.1-2.5,0.2-4h6.7v12.6h-1.5v-11.4H143.1z"/>
	<path d="M147.6,455.5h1.5v4.9c0.1,0,0.2,0,0.3,0s0.3,0,0.5,0s0.3,0,0.5,0s0.3,0,0.5,0c0.6,0,1.1,0.1,1.7,0.2c0.5,0.1,1,0.3,1.5,0.6
		s0.8,0.7,1,1.2s0.4,1.1,0.4,1.8c0,0.7-0.1,1.3-0.4,1.9s-0.6,1-1,1.3s-1,0.6-1.6,0.8c-0.6,0.2-1.2,0.3-1.9,0.3c-0.2,0-0.4,0-0.6,0
		s-0.5,0-0.8,0s-0.5,0-0.8-0.1s-0.5-0.1-0.7-0.1L147.6,455.5L147.6,455.5z M150.7,466.9c0.4,0,0.8-0.1,1.2-0.2s0.7-0.3,1-0.5
		s0.5-0.5,0.7-0.9s0.2-0.8,0.2-1.2c0-0.5-0.1-0.9-0.3-1.3s-0.4-0.6-0.7-0.8s-0.6-0.3-1-0.4s-0.8-0.1-1.2-0.1c-0.1,0-0.2,0-0.4,0
		s-0.3,0-0.5,0s-0.3,0-0.4,0.1s-0.2,0-0.3,0.1v5.1c0.2,0,0.4,0.1,0.7,0.1S150.4,466.9,150.7,466.9z"/>
</g>
<g>
	<g>
		<g>
			<path class="st5" d="M631.1,146.9H495.6c-23.2,0-42-20.1-42-44.9c0-20.1,12.5-37.9,30.7-43.3c3.2-14.6,15.6-25,29.7-25
				c2.8,0,5.6,0.4,8.2,1.2C534.4,14.4,555,2.3,577.5,2.3c17.4,0,33.8,7.3,46.2,20.4c11.5,12.1,18.3,28.2,19.2,45.4
				c6.9,2.5,13,7.1,17.4,13.1c5.4,7.1,8.3,16.1,8.3,25.3c0.1,11.4-4.1,21.9-11.8,29.6C650,143.1,640.8,146.9,631.1,146.9z"/>
		</g>
	</g>
</g>
<g>
	<g>
		<line class="st5" x1="916" y1="429.3" x2="685.3" y2="429.3"/>
	</g>
	<polygon class="st6" points="922.8,429.3 912.5,418.5 915.7,429.1 911.9,439.6 	"/>
</g>
<g>
	<g>
		<line class="st5" x1="433.7" y1="429.3" x2="197.5" y2="429.3"/>
	</g>
	<polygon class="st6" points="440.5,429.3 430.4,418.5 433.4,429.1 429.6,439.6 	"/>
</g>
<g class="st7">
	<path d="M756.2,398.4l0.5,1.6h0.1l0.4-1.7l2.4-6.6h1.5l-3.2,8.2c-0.3,0.9-0.6,1.6-0.9,2.1s-0.5,1-0.7,1.4c-0.3,0.4-0.5,0.6-0.8,0.8
		c-0.3,0.2-0.6,0.2-1.1,0.2c-0.4,0-0.7,0-0.9-0.1s-0.5-0.2-0.7-0.3l0.5-1.2c0.2,0.1,0.5,0.2,0.7,0.3c0.2,0,0.4,0.1,0.6,0.1
		c0.3,0,0.6-0.2,0.8-0.5s0.4-0.9,0.6-1.5l-4.7-9.3h1.7L756.2,398.4z"/>
	<path d="M769.9,393.1h-5.8v11.3h-1.5v-12.6h8.8v12.6h-1.5V393.1z"/>
	<path d="M784.5,406.7h-1l-0.3-2.3h-8.8l-0.3,2.3h-1V403h1.3c0.1-0.1,0.2-0.4,0.4-0.9s0.4-1.2,0.6-2.1c0.2-0.9,0.4-2,0.5-3.4
		c0.2-1.4,0.2-3,0.2-4.9h6.7V403h1.6L784.5,406.7L784.5,406.7z M781.3,403.1v-9.9h-3.8c0,1.3-0.1,2.5-0.2,3.6s-0.2,2-0.4,2.8
		s-0.3,1.5-0.5,2.1s-0.4,1.1-0.6,1.5h5.5V403.1z"/>
	<path d="M791.2,395.4c0.4,0,0.9-0.1,1.3-0.1s1-0.1,1.7-0.1c1.2,0,2,0.2,2.6,0.5c0.5,0.4,0.8,0.9,0.8,1.7c0,0.4-0.1,0.8-0.4,1.2
		s-0.7,0.7-1.2,0.9v0.1c0.7,0.1,1.2,0.4,1.5,0.7c0.3,0.4,0.4,0.8,0.4,1.4c0,0.9-0.3,1.6-1,2s-1.7,0.6-3,0.6c-0.5,0-1,0-1.4,0
		s-0.9-0.1-1.3-0.1L791.2,395.4L791.2,395.4z M794.4,399.2c0.2,0,0.4,0,0.6-0.1s0.4-0.2,0.5-0.3c0.2-0.1,0.3-0.3,0.4-0.4
		s0.2-0.4,0.2-0.5c0-0.5-0.1-0.8-0.4-1s-0.8-0.3-1.5-0.3c-0.4,0-0.7,0-0.9,0s-0.4,0-0.6,0v2.6L794.4,399.2L794.4,399.2z
		 M792.6,403.2c0.2,0,0.4,0,0.7,0.1s0.5,0,0.8,0c0.8,0,1.4-0.1,1.8-0.3s0.6-0.6,0.6-1.2c0-0.4-0.2-0.8-0.5-1.1s-0.9-0.4-1.8-0.4
		h-1.6V403.2z"/>
	<path d="M813.2,403.9c-0.4,0.3-0.8,0.5-1.4,0.6c-0.6,0.1-1.1,0.2-1.8,0.2c-0.8,0-1.5-0.1-2.1-0.4s-1.2-0.7-1.7-1.2s-0.9-1.2-1.2-2
		s-0.4-1.8-0.4-2.9c0-1.2,0.2-2.2,0.5-3s0.7-1.5,1.3-2s1.1-0.9,1.8-1.1s1.3-0.4,2-0.4s1.3,0,1.8,0.1s0.8,0.2,1.2,0.3l-0.4,1.3
		c-0.6-0.3-1.4-0.4-2.5-0.4c-0.5,0-1,0.1-1.5,0.3s-0.9,0.5-1.3,0.9c-0.4,0.4-0.7,0.9-0.9,1.6s-0.3,1.5-0.3,2.4s0.1,1.6,0.3,2.3
		s0.5,1.2,0.9,1.6s0.8,0.8,1.3,1s1.1,0.3,1.7,0.3c0.5,0,1-0.1,1.4-0.2s0.7-0.2,1-0.4L813.2,403.9z"/>
	<path d="M815.4,391.8h6.8v1.3h-5.3v3.8c0.2,0,0.5-0.1,0.8-0.1s0.6-0.1,0.9-0.1c0.6,0,1.2,0.1,1.7,0.2c0.6,0.1,1,0.3,1.5,0.6
		s0.8,0.7,1,1.1s0.4,1.1,0.4,1.8c0,0.7-0.1,1.3-0.4,1.9s-0.6,0.9-1,1.3c-0.4,0.3-0.9,0.6-1.5,0.7c-0.6,0.2-1.1,0.2-1.8,0.2
		c-0.2,0-0.4,0-0.7,0s-0.5,0-0.8,0s-0.6,0-0.8-0.1s-0.5-0.1-0.7-0.1v-12.5H815.4z M818.6,403.3c0.4,0,0.7-0.1,1.1-0.2
		c0.3-0.1,0.7-0.3,0.9-0.5s0.5-0.5,0.6-0.8s0.2-0.7,0.2-1.1c0-0.6-0.1-1-0.3-1.3s-0.4-0.6-0.7-0.8c-0.3-0.2-0.6-0.3-1-0.4
		s-0.8-0.1-1.2-0.1c-0.1,0-0.2,0-0.4,0s-0.3,0-0.4,0s-0.3,0-0.4,0s-0.2,0-0.3,0v5c0.1,0,0.2,0,0.3,0.1s0.3,0,0.5,0s0.3,0,0.5,0
		S818.5,403.3,818.6,403.3z"/>
	<path d="M833,395.9l0.1-1.4H833l-0.8,1.5l-6.1,8.5h-0.9v-12.6h1.5v8.6l-0.1,1.4h0.1l0.8-1.5l6.1-8.6h0.9v12.6H833V395.9z"/>
	<path d="M845.6,403.9c-0.4,0.3-0.8,0.5-1.4,0.6c-0.6,0.1-1.1,0.2-1.8,0.2c-0.8,0-1.5-0.1-2.1-0.4s-1.2-0.7-1.7-1.2s-0.9-1.2-1.2-2
		s-0.4-1.8-0.4-2.9c0-1.2,0.2-2.2,0.5-3s0.7-1.5,1.3-2s1.1-0.9,1.8-1.1s1.3-0.4,2-0.4s1.3,0,1.8,0.1s0.8,0.2,1.2,0.3l-0.4,1.3
		c-0.6-0.3-1.4-0.4-2.5-0.4c-0.5,0-1,0.1-1.5,0.3s-0.9,0.5-1.3,0.9c-0.4,0.4-0.7,0.9-0.9,1.6s-0.3,1.5-0.3,2.4s0.1,1.6,0.3,2.3
		s0.5,1.2,0.9,1.6s0.8,0.8,1.3,1s1.1,0.3,1.7,0.3c0.5,0,1-0.1,1.4-0.2s0.7-0.2,1-0.4L845.6,403.9z"/>
</g>
<g class="st7">
	<path d="M271.1,398.4l0.5,1.6h0.1l0.4-1.7l2.4-6.6h1.5l-3.2,8.2c-0.3,0.9-0.6,1.6-0.9,2.1s-0.5,1-0.7,1.4c-0.3,0.4-0.5,0.6-0.8,0.8
		c-0.3,0.2-0.6,0.2-1.1,0.2c-0.4,0-0.7,0-0.9-0.1s-0.5-0.2-0.7-0.3l0.5-1.2c0.2,0.1,0.5,0.2,0.7,0.3c0.2,0,0.4,0.1,0.6,0.1
		c0.3,0,0.6-0.2,0.8-0.5c0.2-0.3,0.4-0.9,0.6-1.5l-4.7-9.3h1.7L271.1,398.4z"/>
	<path d="M284.8,393.1H279v11.3h-1.5v-12.6h8.8v12.6h-1.5V393.1z"/>
	<path d="M299.4,406.7h-1l-0.3-2.3h-8.8l-0.3,2.3h-1V403h1.3c0.1-0.1,0.2-0.4,0.4-0.9s0.4-1.2,0.6-2.1s0.4-2,0.5-3.4
		c0.2-1.4,0.2-3,0.2-4.9h6.7V403h1.6L299.4,406.7L299.4,406.7z M296.2,403.1v-9.9h-3.8c0,1.3-0.1,2.5-0.2,3.6s-0.2,2-0.4,2.8
		s-0.3,1.5-0.5,2.1s-0.4,1.1-0.6,1.5h5.5V403.1z"/>
	<path d="M306.1,395.4c0.4,0,0.9-0.1,1.3-0.1s1-0.1,1.7-0.1c1.2,0,2,0.2,2.6,0.5c0.5,0.4,0.8,0.9,0.8,1.7c0,0.4-0.1,0.8-0.4,1.2
		s-0.7,0.7-1.2,0.9v0.1c0.7,0.1,1.2,0.4,1.5,0.7c0.3,0.4,0.4,0.8,0.4,1.4c0,0.9-0.3,1.6-1,2s-1.7,0.6-3,0.6c-0.5,0-1,0-1.4,0
		s-0.9-0.1-1.3-0.1V395.4z M309.3,399.2c0.2,0,0.4,0,0.6-0.1s0.4-0.2,0.5-0.3c0.2-0.1,0.3-0.3,0.4-0.4s0.2-0.4,0.2-0.5
		c0-0.5-0.1-0.8-0.4-1s-0.8-0.3-1.5-0.3c-0.4,0-0.7,0-0.9,0s-0.4,0-0.6,0v2.6L309.3,399.2L309.3,399.2z M307.5,403.2
		c0.2,0,0.4,0,0.7,0.1s0.5,0,0.8,0c0.8,0,1.4-0.1,1.8-0.3s0.6-0.6,0.6-1.2c0-0.4-0.2-0.8-0.5-1.1s-0.9-0.4-1.8-0.4h-1.6V403.2z"/>
	<path d="M328.1,403.9c-0.4,0.3-0.8,0.5-1.4,0.6s-1.1,0.2-1.8,0.2c-0.8,0-1.5-0.1-2.1-0.4s-1.2-0.7-1.7-1.2s-0.9-1.2-1.2-2
		s-0.4-1.8-0.4-2.9c0-1.2,0.2-2.2,0.5-3s0.7-1.5,1.3-2s1.1-0.9,1.8-1.1s1.3-0.4,2-0.4s1.3,0,1.8,0.1s0.8,0.2,1.2,0.3l-0.4,1.3
		c-0.6-0.3-1.4-0.4-2.5-0.4c-0.5,0-1,0.1-1.5,0.3s-0.9,0.5-1.3,0.9s-0.7,0.9-0.9,1.6c-0.2,0.7-0.3,1.5-0.3,2.4s0.1,1.6,0.3,2.3
		s0.5,1.2,0.9,1.6s0.8,0.8,1.3,1s1.1,0.3,1.7,0.3c0.5,0,1-0.1,1.4-0.2s0.7-0.2,1-0.4L328.1,403.9z"/>
	<path d="M330.3,391.8h6.8v1.3h-5.3v3.8c0.2,0,0.5-0.1,0.8-0.1s0.6-0.1,0.9-0.1c0.6,0,1.2,0.1,1.7,0.2c0.6,0.1,1,0.3,1.5,0.6
		s0.8,0.7,1,1.1s0.4,1.1,0.4,1.8c0,0.7-0.1,1.3-0.4,1.9s-0.6,0.9-1,1.3c-0.4,0.3-0.9,0.6-1.5,0.7c-0.6,0.2-1.1,0.2-1.8,0.2
		c-0.2,0-0.4,0-0.7,0s-0.5,0-0.8,0s-0.6,0-0.8-0.1s-0.5-0.1-0.7-0.1v-12.5H330.3z M333.5,403.3c0.4,0,0.7-0.1,1.1-0.2
		c0.3-0.1,0.7-0.3,0.9-0.5s0.5-0.5,0.6-0.8s0.2-0.7,0.2-1.1c0-0.6-0.1-1-0.3-1.3c-0.2-0.3-0.4-0.6-0.7-0.8c-0.3-0.2-0.6-0.3-1-0.4
		s-0.8-0.1-1.2-0.1c-0.1,0-0.2,0-0.4,0s-0.3,0-0.4,0s-0.3,0-0.4,0s-0.2,0-0.3,0v5c0.1,0,0.2,0,0.3,0.1s0.3,0,0.5,0s0.3,0,0.5,0
		S333.4,403.3,333.5,403.3z"/>
	<path d="M347.9,395.9l0.1-1.4h-0.1l-0.8,1.5l-6.1,8.5h-0.9v-12.6h1.5v8.6l-0.1,1.4h0.1l0.8-1.5l6.1-8.6h0.9v12.6h-1.5V395.9z"/>
	<path d="M360.5,403.9c-0.4,0.3-0.8,0.5-1.4,0.6s-1.1,0.2-1.8,0.2c-0.8,0-1.5-0.1-2.1-0.4s-1.2-0.7-1.7-1.2s-0.9-1.2-1.2-2
		s-0.4-1.8-0.4-2.9c0-1.2,0.2-2.2,0.5-3s0.7-1.5,1.3-2s1.1-0.9,1.8-1.1s1.3-0.4,2-0.4s1.3,0,1.8,0.1s0.8,0.2,1.2,0.3l-0.4,1.3
		c-0.6-0.3-1.4-0.4-2.5-0.4c-0.5,0-1,0.1-1.5,0.3s-0.9,0.5-1.3,0.9s-0.7,0.9-0.9,1.6c-0.2,0.7-0.3,1.5-0.3,2.4s0.1,1.6,0.3,2.3
		s0.5,1.2,0.9,1.6s0.8,0.8,1.3,1s1.1,0.3,1.7,0.3c0.5,0,1-0.1,1.4-0.2s0.7-0.2,1-0.4L360.5,403.9z"/>
</g>
<path class="st5" d="M1110.3,124.5H998.1c-10.5-0.1-19-9.8-18.9-21.8c0-10.4,6.7-19.4,15.8-21.2c0.2-12.9,9.5-23.3,20.9-23.3
	c2.8,0,5.7,0.7,8.3,2c4.3-17.9,20.6-28.4,36.3-23.4c10.3,3.2,18.3,12.4,20.9,24.1c10.3-5.9,22.8-1.4,28.1,10.2
	c1.4,3.2,2.2,6.6,2.4,10.3c10.5,0.9,18.3,11.4,17.5,23.2C1128.4,115.9,1120.2,124.5,1110.3,124.5L1110.3,124.5z"/>
<g>
	<g transform="translate(-90 -20)">
		<g id="a">
			<path class="st8" d="M540.3,42.3h25.9c5.3,0,7.1,0.6,9.1,1.6c1.9,1.1,3.5,2.6,4.4,4.4c1.1,1.9,1.6,3.9,1.6,9.1v25.9
				c0,5.3-0.6,7.1-1.6,9.1c-1.1,1.9-2.6,3.5-4.4,4.4c-1.9,1.1-3.9,1.5-9.1,1.5h-25.9c-5.3,0-7.1-0.6-9.1-1.5
				c-1.9-1.1-3.5-2.6-4.4-4.4c-1.1-1.9-1.6-3.9-1.6-9.1V57.5c0-5.3,0.6-7.1,1.6-9.1c1.1-1.9,2.6-3.5,4.4-4.4
				C533.2,42.9,535,42.3,540.3,42.3z"/>
		</g>
	</g>
	<g transform="translate(-90 -20)">
		<g id="M">
			<path class="st9" d="M567.3,53.8c1.5,0,2.7,1.2,2.7,2.7v6.7h5.6v-6.7c0-4.6-3.7-8.3-8.2-8.3h-6.7v5.6H567.3z"/>
		</g>
	</g>
	<g transform="translate(-90 -20)">
		<g id="N">
			<path class="st9" d="M570,84.4c0,1.5-1.2,2.7-2.7,2.7h-6.7v5.6h6.7c4.6,0,8.2-3.6,8.2-8.2v-6.7h-5.6L570,84.4L570,84.4z"/>
		</g>
	</g>
	<g transform="translate(-90 -20)">
		<g id="O">
			<path class="st9" d="M536.5,56.3c0-1.5,1.2-2.7,2.7-2.7l0,0h6.7V48h-6.7c-4.6,0-8.2,3.7-8.2,8.3V63h5.6L536.5,56.3L536.5,56.3z"
				/>
		</g>
	</g>
	<g transform="translate(-90 -20)">
		<g id="P">
			<path class="st9" d="M539.2,87.1c-1.5,0-2.7-1.2-2.7-2.7v-6.7h-5.6v6.7c0,4.6,3.7,8.2,8.2,8.2h6.7V87L539.2,87.1L539.2,87.1
				L539.2,87.1z"/>
		</g>
	</g>
	<g transform="translate(-90 -20)">
		<g id="Q">
			<path class="st9" d="M550.1,83.7l-11.9-11.9l4-4l8,8l14.4-14.3l4,4L550.1,83.7z"/>
		</g>
	</g>
</g>
<g>
	<path class="st0" d="M137.2,403h-108c-7.9,0-14.3,6.4-14.3,14.3l0,0c0,7.9,6.4,14.3,14.3,14.3h108c7.9,0,14.3-6.4,14.3-14.3l0,0
		C151.5,409.4,145.1,403,137.2,403z"/>
	<path class="st1" d="M137.2,408.5h-108c-4.9,0-8.8,3.9-8.8,8.8l0,0c0,4.9,3.9,8.8,8.8,8.8h108c4.9,0,8.8-3.9,8.8-8.8l0,0
		C146,412.4,142,408.5,137.2,408.5z"/>
	<g>
		<path class="st6" d="M135,415.1c1.2,0,2.2,1,2.2,2.2s-1,2.2-2.2,2.2s-2.2-1-2.2-2.2S133.7,415.1,135,415.1 M135,413.1
			c-2.3,0-4.2,1.9-4.2,4.2c0,2.3,1.9,4.2,4.2,4.2s4.2-1.9,4.2-4.2C139.2,415,137.3,413.1,135,413.1L135,413.1z"/>
	</g>
	<g>
		<path class="st6" d="M33.6,415.1c1.2,0,2.2,1,2.2,2.2s-1,2.2-2.2,2.2s-2.2-1-2.2-2.2S32.4,415.1,33.6,415.1 M33.6,413.1
			c-2.3,0-4.2,1.9-4.2,4.2c0,2.3,1.9,4.2,4.2,4.2s4.2-1.9,4.2-4.2S35.9,413.1,33.6,413.1L33.6,413.1z"/>
	</g>
	<g>
		<path class="st6" d="M66.7,415.1c1.2,0,2.2,1,2.2,2.2s-1,2.2-2.2,2.2s-2.2-1-2.2-2.2S65.4,415.1,66.7,415.1 M66.7,413.1
			c-2.3,0-4.2,1.9-4.2,4.2c0,2.3,1.9,4.2,4.2,4.2s4.2-1.9,4.2-4.2C70.9,415,69,413.1,66.7,413.1L66.7,413.1z"/>
	</g>
	<g>
		<path class="st6" d="M104.1,415.1c1.2,0,2.2,1,2.2,2.2s-1,2.2-2.2,2.2s-2.2-1-2.2-2.2S102.9,415.1,104.1,415.1 M104.1,413.1
			c-2.3,0-4.2,1.9-4.2,4.2c0,2.3,1.9,4.2,4.2,4.2s4.2-1.9,4.2-4.2S106.4,413.1,104.1,413.1L104.1,413.1z"/>
	</g>
	<line class="st1" x1="40.2" y1="403" x2="40.2" y2="409.6"/>
	<line class="st1" x1="126.1" y1="403" x2="126.1" y2="409.6"/>
	<line class="st1" x1="40.2" y1="425" x2="40.2" y2="431.6"/>
	<line class="st1" x1="71.1" y1="403" x2="71.1" y2="409.6"/>
	<line class="st1" x1="71.1" y1="425" x2="71.1" y2="431.6"/>
	<line class="st1" x1="99.7" y1="403" x2="99.7" y2="409.6"/>
	<line class="st1" x1="99.7" y1="425" x2="99.7" y2="431.6"/>
	<line class="st1" x1="126.1" y1="425" x2="126.1" y2="431.6"/>
	<line class="st1" x1="14.9" y1="417.3" x2="21.5" y2="417.3"/>
	<line class="st1" x1="144.9" y1="417.3" x2="151.5" y2="417.3"/>
</g>
<g>
	<line class="st4" x1="92.7" y1="357" x2="92.7" y2="358.7"/>
	<line class="st4" x1="91" y1="358.7" x2="91" y2="360.5"/>
	<line class="st4" x1="91" y1="357" x2="91" y2="358.7"/>
	<line class="st4" x1="91" y1="362.2" x2="91" y2="364"/>
	<line class="st4" x1="96.2" y1="357" x2="96.2" y2="358.7"/>
	<line class="st4" x1="92.7" y1="360.5" x2="92.7" y2="362.2"/>
	<line class="st4" x1="94.5" y1="358.7" x2="94.5" y2="360.5"/>
	<line class="st4" x1="98" y1="362.2" x2="98" y2="364"/>
	<line class="st4" x1="94.5" y1="362.2" x2="94.5" y2="364"/>
	<line class="st4" x1="91" y1="364" x2="91" y2="365.7"/>
	<line class="st4" x1="92.7" y1="364" x2="92.7" y2="365.7"/>
	<line class="st4" x1="98" y1="364" x2="98" y2="365.7"/>
	<line class="st4" x1="96.2" y1="364" x2="96.2" y2="365.7"/>
	<line class="st4" x1="96.2" y1="360.5" x2="96.2" y2="362.2"/>
	<line class="st4" x1="96.2" y1="358.7" x2="96.2" y2="360.5"/>
	<line class="st4" x1="98" y1="357" x2="98" y2="358.7"/>
</g>
<line class="st10" x1="103.2" y1="357.9" x2="117.3" y2="357.9"/>
<line class="st10" x1="103.2" y1="361.4" x2="113.7" y2="361.4"/>
<line class="st10" x1="103.2" y1="364.9" x2="115.5" y2="364.9"/>
<g>
	<path class="st3" d="M175.9,330.5v5.3l0,0c-2.2,3.3-5.9,5.3-9.8,5.2l-62.2-0.1c-4.6,0-9.1-1.2-13-3.5l0,0
		c-3.8-2.1-6.1-6.2-6.1-10.5l0,0l0,0c0-3.9,3.1-7,7-7l0,0l0,0c13.7-2.3,26.5-8.5,36.8-17.8l3.2-2.9c3-3,7.8-2.7,10.4,0.6l6.3,7.8
		c4.7,5.9,13.8,5.1,17.4-1.5l1.2-2.3c0.7-1.3,2.5-1.2,3.1,0.1l0,0c3.7,8.3,5.6,17.2,5.6,26.2v0.4L175.9,330.5L175.9,330.5z"/>
	<path class="st3" d="M86.6,334l2.3,0.2c12.4,1,25,0.7,37.4-0.9l10.3-1.3c7.5-1,15.1-1.5,22.8-1.5h14.9"/>
	<path class="st4" d="M86.6,324.4h10.1c7.2,0,13.8,4.1,17,10.5l0,0"/>
	<path class="st4" d="M109.6,314.6L109.6,314.6c3.4,3.6,8.9,4.3,13.2,1.7l12-7.3c2.1-1.3,4.7-0.9,6.5,0.8l0,0
		c1.5,1.5,3.5,2.1,5.6,1.7l5.5-1.1"/>
	<path class="st4" d="M173.3,313.9l-12.5,2.9c-6,1.4-10.2,6.7-10.2,12.9l0,0"/>
	<path class="st4" d="M119.6,317.9l0.2,0.3c4,4,6.2,9.4,6.2,15l0,0"/>
	<path class="st4" d="M126,313.9L126,313.9c5.5,5.5,13.3,8,21,6.7l8.8-1.5"/>
	<line class="st11" x1="118.1" y1="313" x2="114.6" y2="309.5"/>
	<line class="st11" x1="123.4" y1="309.5" x2="119.9" y2="306"/>
	<line class="st11" x1="128.6" y1="306" x2="125.1" y2="302.5"/>
	<line class="st11" x1="133.9" y1="302.5" x2="130.4" y2="299"/>
	<line class="st4" x1="149.7" y1="341" x2="140.9" y2="332.3"/>
	<line class="st4" x1="158.4" y1="341" x2="147.9" y2="330.5"/>
	<line class="st4" x1="167.2" y1="341" x2="156.7" y2="330.5"/>
</g>
<path class="st3" d="M153,351.7H84.1c-0.6,0-1-0.4-1-1v-8.5c0-0.6,0.4-1,1-1h68.8c0.6,0,1,0.4,1,1v8.5
	C154,351.3,153.5,351.7,153,351.7z"/>
<path class="st3" d="M150.4,351.6H86.6c-1,0-1.8,0.8-1.8,1.8v33.3c0,1,0.8,1.8,1.8,1.8h56.1h7.8c1,0,1.8-0.8,1.8-1.8v-33.3
	C152.2,352.4,151.4,351.6,150.4,351.6z"/>
<g>
	<path class="st6" d="M143.4,352.4v4c0,0.6-0.4,1-1,1h-10c-0.6,0-1-0.4-1-1v-4H143.4 M144.4,351.4h-14v5c0,1.1,0.9,2,2,2h10
		c1.1,0,2-0.9,2-2V351.4L144.4,351.4z"/>
</g>
<line class="st10" x1="85.7" y1="370.1" x2="103.2" y2="387.6"/>
<g>
	<line class="st4" x1="92.7" y1="357" x2="92.7" y2="358.7"/>
	<line class="st4" x1="91" y1="358.7" x2="91" y2="360.5"/>
	<line class="st4" x1="91" y1="357" x2="91" y2="358.7"/>
	<line class="st4" x1="91" y1="362.2" x2="91" y2="364"/>
	<line class="st4" x1="96.2" y1="357" x2="96.2" y2="358.7"/>
	<line class="st4" x1="92.7" y1="360.5" x2="92.7" y2="362.2"/>
	<line class="st4" x1="94.5" y1="358.7" x2="94.5" y2="360.5"/>
	<line class="st4" x1="98" y1="362.2" x2="98" y2="364"/>
	<line class="st4" x1="94.5" y1="362.2" x2="94.5" y2="364"/>
	<line class="st4" x1="91" y1="364" x2="91" y2="365.7"/>
	<line class="st4" x1="92.7" y1="364" x2="92.7" y2="365.7"/>
	<line class="st4" x1="98" y1="364" x2="98" y2="365.7"/>
	<line class="st4" x1="96.2" y1="364" x2="96.2" y2="365.7"/>
	<line class="st4" x1="96.2" y1="360.5" x2="96.2" y2="362.2"/>
	<line class="st4" x1="96.2" y1="358.7" x2="96.2" y2="360.5"/>
	<line class="st4" x1="98" y1="357" x2="98" y2="358.7"/>
</g>
<line class="st10" x1="103.2" y1="357.9" x2="117.3" y2="357.9"/>
<line class="st10" x1="103.2" y1="361.4" x2="113.7" y2="361.4"/>
<line class="st10" x1="103.2" y1="364.9" x2="115.5" y2="364.9"/>
<g>
	<path class="st3" d="M175.9,330.5v5.3l0,0c-2.2,3.3-5.9,5.3-9.8,5.2l-62.2-0.1c-4.6,0-9.1-1.2-13-3.5l0,0
		c-3.8-2.1-6.1-6.2-6.1-10.5l0,0l0,0c0-3.9,3.1-7,7-7l0,0l0,0c13.7-2.3,26.5-8.5,36.8-17.8l3.2-2.9c3-3,7.8-2.7,10.4,0.6l6.3,7.8
		c4.7,5.9,13.8,5.1,17.4-1.5l1.2-2.3c0.7-1.3,2.5-1.2,3.1,0.1l0,0c3.7,8.3,5.6,17.2,5.6,26.2v0.4L175.9,330.5L175.9,330.5z"/>
	<path class="st3" d="M86.6,334l2.3,0.2c12.4,1,25,0.7,37.4-0.9l10.3-1.3c7.5-1,15.1-1.5,22.8-1.5h14.9"/>
	<path class="st4" d="M86.6,324.4h10.1c7.2,0,13.8,4.1,17,10.5l0,0"/>
	<path class="st4" d="M109.6,314.6L109.6,314.6c3.4,3.6,8.9,4.3,13.2,1.7l12-7.3c2.1-1.3,4.7-0.9,6.5,0.8l0,0
		c1.5,1.5,3.5,2.1,5.6,1.7l5.5-1.1"/>
	<path class="st4" d="M173.3,313.9l-12.5,2.9c-6,1.4-10.2,6.7-10.2,12.9l0,0"/>
	<path class="st4" d="M119.6,317.9l0.2,0.3c4,4,6.2,9.4,6.2,15l0,0"/>
	<path class="st4" d="M126,313.9L126,313.9c5.5,5.5,13.3,8,21,6.7l8.8-1.5"/>
	<line class="st11" x1="118.1" y1="313" x2="114.6" y2="309.5"/>
	<line class="st11" x1="123.4" y1="309.5" x2="119.9" y2="306"/>
	<line class="st11" x1="128.6" y1="306" x2="125.1" y2="302.5"/>
	<line class="st11" x1="133.9" y1="302.5" x2="130.4" y2="299"/>
	<line class="st4" x1="149.7" y1="341" x2="140.9" y2="332.3"/>
	<line class="st4" x1="158.4" y1="341" x2="147.9" y2="330.5"/>
	<line class="st4" x1="167.2" y1="341" x2="156.7" y2="330.5"/>
</g>
<line class="st10" x1="85.7" y1="370.1" x2="103.2" y2="387.6"/>
<g>
	<line class="st4" x1="23.5" y1="357.4" x2="23.5" y2="359.1"/>
	<line class="st4" x1="21.8" y1="359.1" x2="21.8" y2="360.9"/>
	<line class="st4" x1="21.8" y1="357.4" x2="21.8" y2="359.1"/>
	<line class="st4" x1="21.8" y1="362.6" x2="21.8" y2="364.4"/>
	<line class="st4" x1="27" y1="357.4" x2="27" y2="359.1"/>
	<line class="st4" x1="23.5" y1="360.9" x2="23.5" y2="362.6"/>
	<line class="st4" x1="25.3" y1="359.1" x2="25.3" y2="360.9"/>
	<line class="st4" x1="28.8" y1="362.6" x2="28.8" y2="364.4"/>
	<line class="st4" x1="25.3" y1="362.6" x2="25.3" y2="364.4"/>
	<line class="st4" x1="21.8" y1="364.4" x2="21.8" y2="366.1"/>
	<line class="st4" x1="23.5" y1="364.4" x2="23.5" y2="366.1"/>
	<line class="st4" x1="28.8" y1="364.4" x2="28.8" y2="366.1"/>
	<line class="st4" x1="27" y1="364.4" x2="27" y2="366.1"/>
	<line class="st4" x1="27" y1="360.9" x2="27" y2="362.6"/>
	<line class="st4" x1="27" y1="359.1" x2="27" y2="360.9"/>
	<line class="st4" x1="28.8" y1="357.4" x2="28.8" y2="359.1"/>
</g>
<line class="st10" x1="34" y1="358.2" x2="48.1" y2="358.2"/>
<line class="st10" x1="34" y1="361.7" x2="44.6" y2="361.7"/>
<line class="st10" x1="34" y1="365.2" x2="46.3" y2="365.2"/>
<path class="st3" d="M75.7,352.1H14.9c-0.6,0-1-0.4-1-1v-8.5c0-0.6,0.4-1,1-1h60.8c0.6,0,1,0.4,1,1v8.5
	C76.7,351.7,76.2,352.1,75.7,352.1z"/>
<line class="st10" x1="16.5" y1="370.5" x2="34" y2="388"/>
<path class="st12" d="M84.8,388"/>
<g>
	<line class="st4" x1="23.5" y1="357.4" x2="23.5" y2="359.1"/>
	<line class="st4" x1="21.8" y1="359.1" x2="21.8" y2="360.9"/>
	<line class="st4" x1="21.8" y1="357.4" x2="21.8" y2="359.1"/>
	<line class="st4" x1="21.8" y1="362.6" x2="21.8" y2="364.4"/>
	<line class="st4" x1="27" y1="357.4" x2="27" y2="359.1"/>
	<line class="st4" x1="23.5" y1="360.9" x2="23.5" y2="362.6"/>
	<line class="st4" x1="25.3" y1="359.1" x2="25.3" y2="360.9"/>
	<line class="st4" x1="28.8" y1="362.6" x2="28.8" y2="364.4"/>
	<line class="st4" x1="25.3" y1="362.6" x2="25.3" y2="364.4"/>
	<line class="st4" x1="21.8" y1="364.4" x2="21.8" y2="366.1"/>
	<line class="st4" x1="23.5" y1="364.4" x2="23.5" y2="366.1"/>
	<line class="st4" x1="28.8" y1="364.4" x2="28.8" y2="366.1"/>
	<line class="st4" x1="27" y1="364.4" x2="27" y2="366.1"/>
	<line class="st4" x1="27" y1="360.9" x2="27" y2="362.6"/>
	<line class="st4" x1="27" y1="359.1" x2="27" y2="360.9"/>
	<line class="st4" x1="28.8" y1="357.4" x2="28.8" y2="359.1"/>
</g>
<line class="st10" x1="34" y1="358.2" x2="48.1" y2="358.2"/>
<line class="st10" x1="34" y1="361.7" x2="44.6" y2="361.7"/>
<line class="st10" x1="34" y1="365.2" x2="46.3" y2="365.2"/>
<path class="st3" d="M74.8,352H17.4c-1,0-1.8,0.8-1.8,1.8v33.3c0,1,0.8,1.8,1.8,1.8h56.1h1.7l0.1-36.9L74.8,352L74.8,352z"/>
<line class="st10" x1="16.5" y1="370.5" x2="34" y2="388"/>
<path class="st12" d="M84.8,388"/>
<g>
	<path class="st13" d="M13.2,326.7c0.3,0,0.6,0,0.9-0.1"/>
	<g>
		<g>
			<path d="M13.6,329.4L13.6,329.4C13.6,329.4,13.7,329.4,13.6,329.4C13.7,329.4,13.6,329.4,13.6,329.4z"/>
			<g>
				<path class="st6" d="M52,290c1,0.8,3.2,2.7,5,5.5c3.1,4.7,3.4,9.5,0.9,14.2l0,0l0,0c-0.3,0.7-3.3,7.1-3.5,12
					c-0.2,4.2-0.1,13.7,0,16.5h-3.1V318v-4.9l-3.4,3.4c-3,3-6.9,7.5-8.2,11.7c-0.3,0.8-0.5,1.6-0.7,2.4c-1.4,5-2.4,8.6-10.4,8.9
					c-1.6,0.1-3.2,0.1-4.7,0.1c-12,0-17.5-1.7-18.1-1.9H5.7H5.6c-0.1,0-2.8-0.7-2.8-2.8c0-0.8,0.4-2.3,2-2.9
					c0.9-0.4,2.9-1.1,5.8-2.2l8.4-3l1.8-0.6c0.7,0.3,2.6,1,4.6,1c2.6,0,5.9-1.1,7.1-6.2c1-4.3,3.8-10.4,7.5-16.4
					C44,298.4,48.2,293.2,52,290 M52,287.8c-0.3,0-0.5,0.1-0.8,0.3c-4.1,3.3-8.6,8.8-12.7,15.5c-3.8,6.2-6.7,12.5-7.7,17
					c-0.7,3.1-2.4,4.6-5.2,4.6l0,0c-2.1,0-4-0.9-4.1-0.9c-0.2-0.1-0.4-0.1-0.5-0.1s-0.3,0-0.4,0.1c-0.1,0-0.9,0.3-2.1,0.7l-8.4,3
					c-2.5,0.9-4.8,1.8-5.9,2.2c-2.3,0.9-3.3,3.1-3.3,4.8c0,2.9,2.7,4.3,4.3,4.7c0.7,0.2,6.4,2,18.7,2l0,0c1.5,0,3.2,0,4.8-0.1
					c9.4-0.3,10.8-5.2,12.2-10.3c0.2-0.8,0.4-1.5,0.7-2.3c1.2-4,5.2-8.4,7.7-10.9v21c0,0.7,0.5,1.2,1.2,1.2h4.7
					c0.3,0,0.6-0.1,0.9-0.4c0.2-0.2,0.4-0.6,0.3-0.9c0-0.1-0.2-12.3,0-17.2c0.2-4.5,3.1-10.8,3.3-11.2c2.8-5.3,2.5-11-1-16.3
					c-2.6-3.9-5.9-6.3-6-6.4C52.5,287.9,52.2,287.8,52,287.8L52,287.8z"/>
			</g>
		</g>
		<g>
			<path d="M54.4,292.9L54.4,292.9L54.4,292.9L54.4,292.9L54.4,292.9z"/>
		</g>
	</g>
	<path class="st4" d="M12.2,328.6l5.5,1.5c2,0.5,4.5,1,7,1c1.9,0,3.9-0.3,5.7-1.1c2.8-1.2,4.7-3.4,5.7-6.5
		c1.9-5.8,5.1-12.4,8.8-18.2c2.9-4.5,7.7-9.7,10.3-11.9"/>
	
		<ellipse transform="matrix(0.9454 -0.3259 0.3259 0.9454 -104.8517 22.505)" class="st14" cx="14.7" cy="324.2" rx="4.5" ry="2.4"/>
</g>
<g>
	<g>
		<g>
			<path class="st6" d="M1141.1,310v2.7H960.4V310H1141.1 M1142.1,309H959.4v4.7h182.7V309L1142.1,309z"/>
		</g>
		<line class="st15" x1="970.5" y1="319.6" x2="959.7" y2="313.3"/>
		<line class="st15" x1="1131.5" y1="319.2" x2="1141.7" y2="313.3"/>
		<g>
			<path class="st6" d="M1130.2,320.8v1.9H971.6v-1.9H1130.2 M1132.2,318.8H969.6v5.9h162.6V318.8L1132.2,318.8z"/>
		</g>
		<g>
			<path class="st6" d="M1130.2,324.9v90H971.6v-90H1130.2 M1132.2,322.9H969.6v94h162.6V322.9L1132.2,322.9z"/>
		</g>
		<g>
			<path class="st6" d="M1042.9,417.4v15.8h-77.4v-15.8H1042.9 M1044.9,415.3h-81.4v20h81.4V415.3L1044.9,415.3z"/>
		</g>
		<g>
			<path class="st6" d="M1133.7,417.4v15.8h-37.6v-15.8H1133.7 M1135.7,415.3h-41.6v20h41.6V415.3L1135.7,415.3z"/>
		</g>
		<g>
			<g>
				<path class="st6" d="M1122.1,283.8v25.4h-139v-25.4H1122.1 M1123.1,282.8h-141v27.4h141V282.8L1123.1,282.8z"/>
			</g>
			<g class="st7">
				<path class="st6" d="M999.6,304v-15.7h3.1l3.7,11.2c0.3,1,0.6,1.8,0.8,2.3c0.2-0.6,0.5-1.4,0.8-2.5l3.8-11h2.8V304h-2v-13.2
					L1008,304h-1.9l-4.6-13.4V304H999.6z"/>
				<path class="st6" d="M1017.2,304l6-15.7h2.2l6.4,15.7h-2.4l-1.8-4.8h-6.6l-1.7,4.8H1017.2z M1021.8,297.5h5.3l-1.6-4.4
					c-0.5-1.3-0.9-2.4-1.1-3.3c-0.2,1-0.5,2-0.8,3L1021.8,297.5z"/>
				<path class="st6" d="M1034.7,288.2h10.2v1.9h-8.1V304h-2.1V288.2z"/>
				<path class="st6" d="M1044.3,304l6-15.7h2.2l6.4,15.7h-2.4l-1.8-4.8h-6.6l-1.7,4.8H1044.3z M1048.9,297.5h5.3l-1.6-4.4
					c-0.5-1.3-0.9-2.4-1.1-3.3c-0.2,1-0.5,2-0.8,3L1048.9,297.5z"/>
				<path class="st6" d="M1060.6,299.5l2-0.5c0.2,0.8,0.6,1.5,1.2,2.3s1.5,1.1,2.6,1.1s2-0.3,2.6-0.8c0.6-0.6,1-1.3,1-2.1
					c0-0.9-0.3-1.6-1-2.1s-1.6-0.8-2.8-0.8h-1v-1.8c1,0,1.7-0.1,2.2-0.2s1-0.4,1.3-0.8c0.4-0.5,0.6-1,0.6-1.6c0-0.7-0.3-1.3-0.8-1.8
					s-1.3-0.8-2.2-0.8c-0.8,0-1.5,0.2-2,0.6c-0.6,0.4-1,0.9-1.2,1.6s-0.3,1.1-0.3,1.5l-2-0.5c0.5-3.3,2.3-5,5.5-5
					c1.5,0,2.8,0.4,3.7,1.3c0.9,0.9,1.4,1.9,1.4,3c0,1.5-0.7,2.6-2.1,3.4c0.8,0.2,1.5,0.7,2,1.4c0.5,0.7,0.8,1.5,0.8,2.5
					c0,1.4-0.5,2.5-1.6,3.4c-1,0.9-2.4,1.4-4.2,1.4C1063.5,304.2,1061.5,302.7,1060.6,299.5z"/>
				<path class="st6" d="M1075.8,288.2h1.9v12.5l8.4-12.5h2.1V304h-1.9v-12.4l-8.4,12.4h-2.1V288.2z"/>
				<path class="st6" d="M1092.6,304v-15.7h2.1v6.5h8.2v-6.5h2.1V304h-2.1v-7.4h-8.2v7.4H1092.6z"/>
			</g>
		</g>
		<g>
			<line class="st16" x1="963.5" y1="434.3" x2="1135.7" y2="434.3"/>
		</g>
		<g>
			<g>
				<path class="st6" d="M1093.9,427.4v6.7h-48.8v-6.7H1093.9 M1094.9,426.4h-50.8v8.7h50.8V426.4L1094.9,426.4z"/>
			</g>
			<path class="st15" d="M1094.9,429.5"/>
			<path class="st15" d="M1044.9,429.5"/>
		</g>
		<g>
			<g>
				<path class="st6" d="M1093.9,419.9v7.4h-48.8v-7.4H1093.9 M1094.9,418.9h-50.8v9.4h50.8V418.9L1094.9,418.9z"/>
			</g>
			<line class="st15" x1="1044.9" y1="423.4" x2="1094.9" y2="423.4"/>
		</g>
		<g>
			<path class="st6" d="M1027,335.7v73.2h-42.9v-73.2H1027 M1029,333.7h-46.9v77.2h46.9V333.7L1029,333.7z"/>
		</g>
		<g>
			<line class="st15" x1="982.1" y1="361" x2="1028.4" y2="361"/>
		</g>
		<g>
			<path class="st6" d="M1118.1,335.7v73.2h-9.6v-73.2H1118.1 M1120.1,333.7h-13.6v77.2h13.6V333.7L1120.1,333.7z"/>
		</g>
		<g>
			<path class="st6" d="M1092.9,335.7v83h-46.8v-83H1092.9 M1094.9,333.7h-50.8v87h50.8V333.7L1094.9,333.7z"/>
		</g>
		<g>
			<line class="st15" x1="1107.1" y1="360.5" x2="1119.1" y2="360.5"/>
		</g>
		<g>
			<path class="st6" d="M1028,334.7v3h-44.9v-3H1028 M1029,333.7h-46.9v5h46.9V333.7L1029,333.7z"/>
		</g>
		<g>
			<path class="st6" d="M1119.1,334.7v2.9h-11.6v-2.9H1119.1 M1120.1,333.7h-13.6v4.9h13.6V333.7L1120.1,333.7z"/>
		</g>
	</g>
</g>
<g>
	<path class="st6" d="M1066.7,361.7v19.5c-0.3-0.1-0.7-0.2-1.1-0.2c-1.9,0-3.5,1.6-3.5,3.6s1.6,3.6,3.5,3.6c0.4,0,0.8-0.1,1.1-0.2
		v23.9H1051v-50.2L1066.7,361.7 M1068,359.7h-18.3c-0.4,0-0.7,0.3-0.7,0.8V414h19.7v-53.5C1068.7,360,1068.4,359.7,1068,359.7
		L1068,359.7z M1065.6,386.2c-0.8,0-1.5-0.7-1.5-1.6s0.7-1.6,1.5-1.6s1.5,0.7,1.5,1.6S1066.4,386.2,1065.6,386.2L1065.6,386.2z"/>
</g>
<path class="st17" d="M1066.1,383c-0.8,0-1.5,0.7-1.5,1.6s0.7,1.6,1.5,1.6s1.5-0.7,1.5-1.6S1067,383,1066.1,383z"/>
<g>
	<path class="st6" d="M1087.8,361.7v50.2h-15.7V388c0.3,0.1,0.7,0.2,1.1,0.2c1.9,0,3.5-1.6,3.5-3.6s-1.6-3.6-3.5-3.6
		c-0.4,0-0.8,0.1-1.1,0.2v-19.5H1087.8 M1089.1,359.7h-18.3c-0.4,0-0.7,0.3-0.7,0.8V414h19.7v-53.5
		C1089.8,360,1089.5,359.7,1089.1,359.7L1089.1,359.7z M1073.2,386.2c-0.8,0-1.5-0.7-1.5-1.6s0.7-1.6,1.5-1.6s1.5,0.7,1.5,1.6
		S1074,386.2,1073.2,386.2L1073.2,386.2z"/>
</g>
<path class="st17" d="M1073.7,383c0.8,0,1.5,0.7,1.5,1.6s-0.7,1.6-1.5,1.6s-1.5-0.7-1.5-1.6S1072.9,383,1073.7,383z"/>
<g>
	<path d="M250.2,207.8l-0.6-1.1l0.2-0.1c0.1-0.1,0.2-0.1,0.4-0.2s0.3-0.2,0.4-0.2c0.1-0.1,0.3-0.2,0.4-0.2s0.2-0.1,0.3-0.2
		c0.3-0.2,0.5-0.4,0.7-0.6c0.2-0.2,0.3-0.5,0.4-0.7c0.1-0.3,0.1-0.5,0.1-0.8c0-0.3-0.1-0.5-0.2-0.8c-0.2-0.4-0.4-0.6-0.6-0.8
		c-0.2-0.2-0.5-0.3-0.8-0.3c-0.3,0-0.6,0-0.9,0.1c-0.3,0.1-0.6,0.2-0.9,0.4c-0.6,0.3-1,0.6-1.4,0.9c-0.4,0.3-0.6,0.6-0.8,0.8
		l-0.9-0.9c0.2-0.2,0.5-0.5,1-1c0.5-0.4,1.1-0.8,1.8-1.2c0.4-0.2,0.9-0.4,1.3-0.5c0.5-0.1,0.9-0.2,1.3-0.1c0.4,0,0.8,0.2,1.2,0.4
		c0.4,0.3,0.7,0.6,1,1.2c0.3,0.5,0.4,1.1,0.3,1.8c-0.1,0.7-0.4,1.3-1,1.9l0,0.1c0.8-0.3,1.5-0.3,2.2-0.1c0.7,0.2,1.2,0.7,1.6,1.5
		c0.3,0.6,0.5,1.2,0.5,1.8c0,0.6-0.1,1.1-0.4,1.6s-0.6,0.9-1,1.3c-0.4,0.4-0.9,0.7-1.4,1c-0.7,0.4-1.3,0.6-1.8,0.8
		c-0.5,0.2-0.9,0.3-1.3,0.3l-0.3-1.4c0.3,0,0.7-0.1,1.2-0.2s1-0.4,1.7-0.7c0.3-0.2,0.6-0.4,0.9-0.6c0.3-0.3,0.5-0.5,0.6-0.9
		c0.2-0.3,0.2-0.7,0.2-1c0-0.4-0.1-0.7-0.3-1.1c-0.4-0.7-0.8-1-1.5-1.1c-0.6-0.1-1.3,0.1-2.1,0.4c-0.1,0.1-0.3,0.1-0.4,0.2
		c-0.1,0.1-0.2,0.1-0.4,0.2L250.2,207.8z"/>
	<path d="M256.6,201.7c0.3-0.5,0.7-0.9,1.1-1.3c0.5-0.4,1-0.8,1.6-1.1c0.5-0.3,1-0.4,1.4-0.5c0.4,0,0.8,0,1.1,0.2
		c0.3,0.1,0.6,0.3,0.8,0.6s0.4,0.5,0.5,0.8c0.3,0.6,0.6,1.3,0.9,1.9c0.3,0.6,0.6,1.2,0.9,1.7c0.2,0.4,0.4,0.8,0.6,1.1
		s0.4,0.6,0.7,0.9l-0.9,0.5l-0.9-0.9l-0.1,0c0,0.2-0.1,0.4-0.1,0.6c-0.1,0.2-0.2,0.4-0.3,0.7c-0.1,0.2-0.3,0.4-0.6,0.6
		c-0.2,0.2-0.5,0.4-0.9,0.6c-0.3,0.2-0.7,0.3-1,0.3c-0.3,0-0.7,0-1-0.1c-0.3-0.1-0.6-0.2-0.9-0.4c-0.3-0.2-0.5-0.5-0.7-0.8
		c-0.2-0.5-0.4-0.9-0.3-1.3c0-0.4,0.2-0.8,0.4-1.2c0.2-0.4,0.6-0.7,1-1.1c0.4-0.3,1-0.7,1.5-1c0.1-0.1,0.3-0.2,0.4-0.2
		c0.1-0.1,0.3-0.1,0.5-0.2c-0.1-0.3-0.3-0.6-0.4-0.9c-0.3-0.6-0.6-0.9-1-1s-0.8,0-1.5,0.3c-0.2,0.1-0.4,0.2-0.6,0.3
		c-0.2,0.1-0.4,0.3-0.6,0.4c-0.2,0.2-0.4,0.3-0.5,0.5c-0.2,0.2-0.3,0.3-0.4,0.5L256.6,201.7z M262.3,206.9c0.3-0.2,0.5-0.3,0.7-0.5
		c0.2-0.2,0.3-0.4,0.4-0.6c0.1-0.2,0.2-0.4,0.2-0.6c0-0.2,0-0.4,0-0.6l-0.7-1.3c-0.2,0.1-0.3,0.1-0.5,0.2c-0.2,0.1-0.3,0.2-0.5,0.2
		c-0.3,0.2-0.6,0.4-0.9,0.6c-0.3,0.2-0.5,0.4-0.7,0.6c-0.2,0.2-0.3,0.5-0.4,0.7c-0.1,0.3,0,0.5,0.1,0.8c0.2,0.4,0.5,0.6,0.9,0.7
		C261.4,207.2,261.8,207.1,262.3,206.9z"/>
	<path d="M268.7,200.2l-0.7,0.4l1.9,3.6l-1.3,0.7l-4.2-8l1.3-0.7l1.9,3.6l0.6-0.6l0.8-4.7l1.4-0.7l-0.8,4.5l-0.4,0.9l1.2,0.2
		l4.6,2.2l-1.6,0.8L268.7,200.2z"/>
	<path d="M272.2,193.6c0.3-0.5,0.7-0.9,1.1-1.3c0.5-0.4,1-0.8,1.6-1.1c0.6-0.3,1-0.4,1.4-0.5c0.4,0,0.8,0,1.1,0.2
		c0.3,0.1,0.6,0.3,0.8,0.6c0.2,0.3,0.4,0.5,0.5,0.8c0.3,0.6,0.6,1.3,0.9,1.9c0.3,0.6,0.6,1.2,0.9,1.7c0.2,0.4,0.4,0.8,0.6,1.1
		c0.2,0.3,0.4,0.6,0.7,0.9l-0.9,0.5l-0.9-0.9l-0.1,0c0,0.2-0.1,0.4-0.1,0.6c-0.1,0.2-0.2,0.4-0.3,0.7c-0.1,0.2-0.3,0.4-0.6,0.6
		c-0.2,0.2-0.5,0.4-0.9,0.6c-0.3,0.2-0.7,0.3-1,0.3c-0.3,0-0.7,0-1-0.1c-0.3-0.1-0.6-0.2-0.9-0.4c-0.3-0.2-0.5-0.5-0.7-0.8
		c-0.2-0.5-0.4-0.9-0.3-1.3c0-0.4,0.2-0.8,0.4-1.2c0.2-0.4,0.6-0.7,1-1.1c0.4-0.3,1-0.7,1.5-1c0.1-0.1,0.3-0.2,0.4-0.2
		s0.3-0.1,0.5-0.2c-0.1-0.3-0.3-0.6-0.4-0.9c-0.3-0.6-0.6-0.9-1-1c-0.4-0.1-0.8,0-1.5,0.3c-0.2,0.1-0.4,0.2-0.6,0.3
		c-0.2,0.1-0.4,0.3-0.6,0.4c-0.2,0.2-0.4,0.3-0.5,0.5c-0.2,0.2-0.3,0.3-0.4,0.5L272.2,193.6z M277.8,198.8c0.3-0.2,0.5-0.3,0.7-0.5
		c0.2-0.2,0.3-0.4,0.4-0.6c0.1-0.2,0.2-0.4,0.2-0.6s0-0.4,0-0.6l-0.7-1.3c-0.2,0.1-0.3,0.1-0.5,0.2c-0.2,0.1-0.3,0.2-0.5,0.2
		c-0.3,0.2-0.6,0.4-0.9,0.6c-0.3,0.2-0.5,0.4-0.7,0.6c-0.2,0.2-0.3,0.5-0.4,0.7c-0.1,0.3,0,0.5,0.1,0.8c0.2,0.4,0.5,0.6,0.9,0.7
		C277,199,277.4,199,277.8,198.8z"/>
	<path d="M283,192.8l-0.5-1l1.1-0.6c0.2-0.1,0.4-0.2,0.5-0.4c0.2-0.2,0.3-0.3,0.4-0.5c0.1-0.2,0.1-0.4,0.1-0.6c0-0.2,0-0.4-0.1-0.6
		c-0.2-0.4-0.5-0.6-0.9-0.6c-0.4,0-0.9,0.1-1.4,0.4c-0.4,0.2-0.8,0.5-1,0.8s-0.5,0.6-0.6,0.8l-0.9-0.8c0.2-0.3,0.5-0.7,0.9-1.1
		c0.4-0.4,0.8-0.7,1.4-1c1.8-0.9,3-0.7,3.7,0.6c0.2,0.4,0.3,0.8,0.2,1.3c-0.1,0.5-0.3,0.9-0.6,1.3l0,0.1c0.7-0.2,1.2-0.2,1.7,0
		c0.4,0.2,0.8,0.6,1.1,1.1c0.2,0.3,0.3,0.7,0.3,1s-0.1,0.7-0.2,1.1s-0.4,0.7-0.8,1c-0.4,0.3-0.8,0.7-1.4,0.9c-0.5,0.3-1,0.5-1.4,0.6
		c-0.4,0.1-0.8,0.1-1.1,0.2l-0.2-1.2c0.3,0,0.7,0,1-0.1c0.4-0.1,0.8-0.3,1.2-0.5c0.6-0.3,1.1-0.7,1.3-1.1c0.2-0.4,0.2-0.8,0-1.3
		c-0.2-0.4-0.5-0.6-1-0.7c-0.4-0.1-1,0.1-1.7,0.5L283,192.8z"/>
	<path d="M295.5,186.2l-0.7,0.4l1.9,3.6l-1.3,0.7l-4.2-8l1.3-0.7l1.9,3.6l0.6-0.6l0.8-4.7l1.4-0.7l-0.8,4.5l-0.4,0.9l1.2,0.2
		l4.6,2.2l-1.6,0.8L295.5,186.2z"/>
	<path d="M300.4,183c-0.7-1.3-1-2.5-0.7-3.6c0.2-1,0.9-1.8,2-2.4c0.6-0.3,1.2-0.5,1.7-0.5c0.5,0,1.1,0.1,1.5,0.3
		c0.5,0.2,0.9,0.5,1.3,1c0.4,0.4,0.8,1,1.1,1.6c0.7,1.3,1,2.5,0.7,3.6s-0.9,1.8-2,2.4c-0.6,0.3-1.2,0.5-1.7,0.5
		c-0.5,0-1.1-0.1-1.5-0.3c-0.5-0.2-0.9-0.5-1.3-1C301.1,184.2,300.8,183.7,300.4,183z M301.7,182.4c0.2,0.4,0.5,0.8,0.7,1.1
		c0.3,0.3,0.6,0.6,0.9,0.8c0.3,0.2,0.7,0.3,1,0.3c0.4,0,0.7-0.1,1.1-0.3c1.4-0.7,1.6-2.1,0.6-4.2c-0.2-0.4-0.5-0.8-0.7-1.1
		c-0.3-0.3-0.6-0.6-0.9-0.8c-0.3-0.2-0.7-0.3-1-0.3c-0.4,0-0.7,0.1-1.1,0.3C300.9,178.9,300.7,180.3,301.7,182.4z"/>
	<path d="M319.6,180.6l-0.9,0.5l-1.3-1.9l-6,3.1l0.8,2.1l-0.9,0.5l-1.6-3.1l0.9-0.5c0-0.2,0-0.4,0-0.8c0-0.4-0.1-0.9-0.3-1.5
		c-0.2-0.6-0.4-1.4-0.7-2.2c-0.3-0.9-0.8-1.9-1.3-3l4.8-2.5l3.6,6.9l1.2-0.6L319.6,180.6z M315.5,178.8l-3-5.7l-2.4,1.3
		c0.2,0.5,0.4,1,0.7,1.5s0.4,1.1,0.6,1.7c0.2,0.6,0.3,1.1,0.4,1.7c0.1,0.5,0.2,1,0.2,1.5L315.5,178.8z"/>
	<path d="M317.6,174c-0.7-1.3-1-2.5-0.7-3.6c0.2-1,0.9-1.8,2-2.4c0.6-0.3,1.2-0.5,1.7-0.5c0.5,0,1.1,0.1,1.5,0.3
		c0.5,0.2,0.9,0.5,1.3,1c0.4,0.4,0.8,1,1.1,1.6c0.7,1.3,1,2.5,0.7,3.6c-0.2,1-0.9,1.8-2,2.4c-0.6,0.3-1.2,0.5-1.7,0.5
		s-1.1-0.1-1.5-0.3c-0.5-0.2-0.9-0.5-1.3-1C318.3,175.2,317.9,174.7,317.6,174z M318.9,173.3c0.2,0.4,0.5,0.8,0.7,1.1
		c0.3,0.3,0.6,0.6,0.9,0.8c0.3,0.2,0.7,0.3,1,0.3c0.4,0,0.7-0.1,1.1-0.3c1.4-0.7,1.6-2.1,0.6-4.2c-0.2-0.4-0.5-0.8-0.7-1.1
		s-0.6-0.6-0.9-0.8s-0.7-0.3-1-0.3c-0.4,0-0.7,0.1-1.1,0.3C318,169.9,317.8,171.3,318.9,173.3z"/>
	<path d="M324.5,165.3c0.4-0.2,0.7-0.4,1.1-0.7c0.4-0.2,0.9-0.5,1.5-0.8c1.1-0.6,1.9-0.8,2.5-0.7c0.6,0.1,1.1,0.5,1.5,1.1
		c0.2,0.4,0.3,0.8,0.2,1.3c0,0.5-0.3,0.9-0.7,1.4l0,0.1c0.7-0.2,1.2-0.2,1.7,0c0.4,0.2,0.8,0.5,1.1,1.1c0.4,0.8,0.5,1.6,0.1,2.3
		c-0.4,0.7-1.2,1.3-2.4,2c-0.4,0.2-0.9,0.4-1.3,0.6c-0.4,0.2-0.8,0.3-1.2,0.5L324.5,165.3z M329.1,167.2c0.2-0.1,0.4-0.2,0.5-0.4
		c0.1-0.2,0.3-0.3,0.3-0.5c0.1-0.2,0.1-0.4,0.1-0.6c0-0.2,0-0.4-0.1-0.6c-0.2-0.4-0.5-0.6-0.8-0.7c-0.3,0-0.8,0.1-1.5,0.5
		c-0.3,0.2-0.6,0.3-0.8,0.4c-0.2,0.1-0.4,0.2-0.5,0.3l1.2,2.3L329.1,167.2z M329.4,171.6c0.2-0.1,0.4-0.2,0.6-0.3
		c0.2-0.1,0.4-0.2,0.7-0.3c0.7-0.4,1.2-0.8,1.4-1.1c0.2-0.4,0.2-0.8,0-1.3c-0.2-0.4-0.5-0.6-0.9-0.7c-0.4-0.1-1,0.1-1.7,0.5L328,169
		L329.4,171.6z"/>
</g>
</svg>