<?xml version="1.0" encoding="utf-8"?>
<!-- Generator: Adobe Illustrator 24.0.2, SVG Export Plug-In . SVG Version: 6.00 Build 0)  -->
<svg version="1.1" id="Слой_1" xmlns="http://www.w3.org/2000/svg" xmlns:xlink="http://www.w3.org/1999/xlink" x="0px" y="0px"
	 viewBox="0 0 1170 441.4" style="enable-background:new 0 0 1170 441.4;" xml:space="preserve">
<style type="text/css">
	.st0{fill:none;stroke:#0055BB;stroke-width:2;stroke-linecap:round;stroke-miterlimit:10;}
	.st1{fill:#0055BB;}
	.st2{fill:#EAE60E;}
	.st3{fill:#63666A;}
	.st4{fill:none;stroke:#0055BB;stroke-width:2;stroke-linejoin:round;stroke-miterlimit:10;}
	.st5{fill:none;stroke:#0055BB;stroke-linejoin:round;stroke-miterlimit:10;}
	.st6{fill:#FFFFFF;stroke:#0055BB;stroke-width:2;stroke-linecap:round;stroke-linejoin:round;stroke-miterlimit:10;}
	.st7{fill:#FFFFFF;stroke:#0055BB;stroke-linejoin:round;stroke-miterlimit:10;}
	.st8{fill:none;stroke:#0055BB;stroke-width:2;stroke-linecap:round;stroke-linejoin:round;}
	.st9{fill:none;stroke:#0055BB;stroke-miterlimit:10;}
	.st10{fill:none;stroke:#0055BB;stroke-linecap:round;stroke-linejoin:round;}
	.st11{fill:none;stroke:#0055BB;stroke-linejoin:round;}
	.st12{fill:#FFFFFF;stroke:#0055BB;stroke-width:2;stroke-linecap:round;stroke-linejoin:round;}
	.st13{fill:#FFFFFF;stroke:#0055BB;stroke-linecap:round;stroke-linejoin:round;}
	.st14{fill:none;stroke:#0055BB;stroke-linecap:round;stroke-linejoin:round;stroke-miterlimit:10;}
	.st15{fill:none;stroke:#0055BB;stroke-width:2;stroke-miterlimit:10;}
</style>
<g>
	<g>
		<line class="st0" x1="570.1" y1="175.2" x2="570" y2="200.2"/>
	</g>
	<polygon class="st1" points="579.8,180.6 570.2,177.2 560.3,180 570.1,170.6 	"/>
</g>
<g>
	<g>
		<line class="st0" x1="570" y1="231.9" x2="570.1" y2="256.9"/>
	</g>
</g>
<g>
	<g>
		<line class="st0" x1="1035" y1="128.7" x2="1034.9" y2="193.2"/>
	</g>
	<polygon class="st1" points="1044.7,134.1 1035.1,130.7 1025.2,133.5 1035.3,124.1 	"/>
</g>
<g>
	<g>
		<line class="st0" x1="694.8" y1="107.5" x2="913.4" y2="107.6"/>
	</g>
	<polygon class="st1" points="688.6,108 697.4,97.4 695.2,107.4 699.2,116.8 	"/>
</g>
<g>
	<g>
		<line class="st0" x1="434.5" y1="163.9" x2="242.1" y2="267.4"/>
	</g>
	<polygon class="st1" points="250.1,274.1 242.4,267.3 240.1,257.3 236.7,270.6 	"/>
</g>
<g>
	<g>
		<line class="st0" x1="216.4" y1="236" x2="408.8" y2="132.4"/>
	</g>
	<polygon class="st1" points="400.8,125.7 408.6,132.6 410.8,142.5 414.2,129.2 	"/>
</g>
<g>
	<g>
		<line class="st0" x1="694.8" y1="171.5" x2="906.5" y2="226.1"/>
	</g>
	<polygon class="st1" points="688.9,169.2 694.8,181.7 695.1,171.4 701.4,163.3 	"/>
</g>
<g>
	<path d="M947.3,422.3c0.5-0.1,0.9-0.2,1.5-0.2s1-0.1,1.6-0.1s1.1,0.1,1.7,0.2c0.6,0.1,1.1,0.3,1.6,0.6s0.8,0.7,1.1,1.2
		s0.4,1.1,0.4,1.9s-0.1,1.4-0.4,1.9s-0.6,1-1.1,1.3s-1,0.6-1.6,0.7s-1.2,0.2-1.8,0.2c-0.1,0-0.2,0-0.3,0s-0.3,0-0.4,0s-0.3,0-0.4,0
		c-0.1,0-0.2,0-0.3,0v4.8h-1.5L947.3,422.3L947.3,422.3z M950.4,423.3c-0.3,0-0.6,0-0.9,0s-0.5,0-0.7,0.1v5.2c0.1,0,0.2,0,0.3,0
		s0.3,0,0.4,0s0.3,0,0.4,0c0.1,0,0.2,0,0.3,0c0.4,0,0.8,0,1.2-0.1s0.8-0.2,1.1-0.4c0.3-0.2,0.6-0.5,0.8-0.9s0.3-0.8,0.3-1.4
		c0-0.5-0.1-0.9-0.3-1.2s-0.4-0.6-0.7-0.8s-0.7-0.3-1-0.4C951.2,423.3,950.8,423.3,950.4,423.3z"/>
	<path d="M956.8,428.4c0-2.1,0.4-3.7,1.3-4.8c0.9-1.1,2.2-1.7,3.8-1.7c0.9,0,1.7,0.2,2.3,0.5s1.2,0.8,1.6,1.3
		c0.4,0.6,0.7,1.3,0.9,2.1c0.2,0.8,0.3,1.7,0.3,2.7c0,2.1-0.4,3.7-1.3,4.8c-0.9,1.1-2.2,1.7-3.8,1.7c-0.9,0-1.6-0.2-2.3-0.5
		c-0.6-0.3-1.2-0.8-1.6-1.3s-0.7-1.3-0.9-2.1C957,430.3,956.8,429.4,956.8,428.4z M958.4,428.4c0,0.7,0.1,1.4,0.2,2
		c0.1,0.6,0.3,1.2,0.6,1.6s0.7,0.9,1.1,1.1s1,0.4,1.6,0.4c1.1,0,2-0.4,2.6-1.3c0.6-0.8,1-2.2,1-3.9c0-0.7-0.1-1.3-0.2-2
		c-0.1-0.6-0.4-1.2-0.7-1.7s-0.7-0.8-1.1-1.1c-0.4-0.3-1-0.4-1.6-0.4c-1.1,0-2,0.4-2.6,1.3C958.7,425.4,958.4,426.7,958.4,428.4z"/>
	<path d="M970.7,428.8v-1.3h0.3c0.1,0,0.2,0,0.4,0s0.3,0,0.5,0s0.3,0,0.5,0s0.3,0,0.4,0c0.3-0.1,0.6-0.1,0.9-0.3
		c0.3-0.1,0.5-0.3,0.7-0.4c0.2-0.2,0.4-0.4,0.5-0.6s0.2-0.5,0.2-0.8c0-0.4-0.1-0.7-0.2-1c-0.1-0.3-0.3-0.5-0.5-0.6s-0.5-0.3-0.8-0.3
		c-0.3-0.1-0.6-0.1-1-0.1c-0.6,0-1.2,0-1.7,0.1s-0.8,0.2-1.1,0.3l-0.4-1.2c0.2-0.1,0.7-0.3,1.3-0.4s1.3-0.2,2.1-0.2
		c0.5,0,1,0.1,1.4,0.2s0.9,0.3,1.2,0.5s0.7,0.6,0.9,1s0.3,0.9,0.3,1.5s-0.2,1.2-0.6,1.7c-0.4,0.5-1,0.9-1.8,1.2v0.1
		c0.8,0.1,1.5,0.4,2,1c0.5,0.5,0.7,1.2,0.7,2.1c0,0.7-0.1,1.3-0.4,1.8s-0.6,0.9-1.1,1.2c-0.4,0.3-0.9,0.6-1.5,0.7
		c-0.6,0.2-1.1,0.2-1.7,0.2c-0.8,0-1.4,0-2-0.1c-0.5-0.1-0.9-0.2-1.3-0.3l0.4-1.3c0.3,0.1,0.7,0.2,1.2,0.3c0.5,0.1,1.1,0.1,1.8,0.1
		c0.4,0,0.7-0.1,1.1-0.2s0.7-0.3,1-0.5s0.5-0.5,0.7-0.8s0.3-0.7,0.3-1.1c0-0.8-0.3-1.3-0.8-1.7c-0.5-0.4-1.2-0.6-2.1-0.6
		c-0.1,0-0.3,0-0.4,0c-0.1,0-0.3,0-0.4,0h-1V428.8z"/>
	<path d="M987,429h-6v5.8h-1.5v-12.6h1.5v5.5h6v-5.5h1.5v12.6H987V429z"/>
	<path d="M999.2,426.2l0.1-1.4h-0.1l-0.8,1.5l-6.1,8.5h-0.9v-12.6h1.5v8.6l-0.1,1.4h0.1l0.8-1.5l6.1-8.6h0.9v12.6h-1.5V426.2z"/>
	<path d="M1014.1,437.1h-1l-0.3-2.3h-9v-12.6h1.5v11.3h5.7v-11.3h1.5v11.3h1.7v3.6H1014.1z"/>
	<path d="M1022.1,431.2h-4.6l-1.3,3.5h-1.5l4.8-12.8h0.7l4.8,12.8h-1.6L1022.1,431.2z M1018,429.9h3.7l-1.4-3.8l-0.4-1.9l0,0
		l-0.4,1.9L1018,429.9z"/>
	<path d="M1036.3,420l-5.3,16.9h-1.6l5.3-16.9H1036.3z"/>
	<path d="M1041,428.4c0-2.1,0.4-3.7,1.3-4.8c0.9-1.1,2.2-1.7,3.8-1.7c0.9,0,1.7,0.2,2.3,0.5c0.6,0.3,1.2,0.8,1.6,1.3
		c0.4,0.6,0.7,1.3,0.9,2.1c0.2,0.8,0.3,1.7,0.3,2.7c0,2.1-0.4,3.7-1.3,4.8c-0.9,1.1-2.2,1.7-3.8,1.7c-0.9,0-1.6-0.2-2.3-0.5
		c-0.6-0.3-1.2-0.8-1.6-1.3s-0.7-1.3-0.9-2.1S1041,429.4,1041,428.4z M1042.6,428.4c0,0.7,0.1,1.4,0.2,2s0.4,1.2,0.6,1.6
		s0.7,0.9,1.1,1.1s1,0.4,1.6,0.4c1.1,0,2-0.4,2.6-1.3c0.6-0.8,1-2.2,1-3.9c0-0.7-0.1-1.3-0.2-2c-0.1-0.6-0.4-1.2-0.7-1.7
		c-0.3-0.5-0.7-0.8-1.1-1.1c-0.4-0.3-1-0.4-1.6-0.4c-1.1,0-2,0.4-2.6,1.3C1042.9,425.4,1042.6,426.7,1042.6,428.4z"/>
	<path d="M1053.9,422.1h6.8v1.3h-5.3v3.8c0.2,0,0.5-0.1,0.8-0.1s0.6-0.1,0.9-0.1c0.6,0,1.2,0.1,1.7,0.2c0.6,0.1,1,0.3,1.5,0.6
		s0.8,0.7,1,1.1s0.4,1.1,0.4,1.8c0,0.7-0.1,1.3-0.4,1.9s-0.6,0.9-1,1.3c-0.4,0.3-0.9,0.6-1.5,0.7c-0.6,0.2-1.1,0.2-1.8,0.2
		c-0.2,0-0.4,0-0.7,0s-0.5,0-0.8,0s-0.6,0-0.8-0.1s-0.5-0.1-0.7-0.1L1053.9,422.1L1053.9,422.1z M1057.1,433.6
		c0.4,0,0.7-0.1,1.1-0.2c0.3-0.1,0.7-0.3,0.9-0.5s0.5-0.5,0.6-0.8c0.2-0.3,0.2-0.7,0.2-1.1c0-0.6-0.1-1-0.3-1.3
		c-0.2-0.3-0.4-0.6-0.7-0.8c-0.3-0.2-0.6-0.3-1-0.4s-0.8-0.1-1.2-0.1c-0.1,0-0.2,0-0.4,0s-0.3,0-0.4,0s-0.3,0-0.4,0s-0.2,0-0.3,0v5
		c0.1,0,0.2,0,0.3,0.1s0.3,0,0.5,0s0.3,0,0.5,0C1056.8,433.6,1057,433.6,1057.1,433.6z"/>
	<path d="M1063.8,434.7v-12.6h1.5v11.3h4.1v-11.3h1.5v11.3h4.1v-11.3h1.5v11.3h1.7v3.7h-1l-0.3-2.3h-13.1V434.7z"/>
	<path d="M1080.2,422.1h6.9v1.3h-5.4v4.1h4.9v1.3h-4.9v4.5h5.5v1.3h-7V422.1z"/>
	<path d="M1097.2,423.5h-5.8v11.3h-1.5v-12.6h8.8v12.6h-1.5V423.5z"/>
	<path d="M1109.4,426.2l0.1-1.4h-0.1l-0.8,1.5l-6.1,8.5h-0.9v-12.6h1.5v8.6l-0.1,1.4h0.1l0.8-1.5l6.1-8.6h0.9v12.6h-1.5V426.2z"/>
	<path d="M1122.1,423.5h-3.9v11.3h-1.5v-11.3h-3.9v-1.3h9.3V423.5z"/>
</g>
<g>
	<path d="M526.1,87l0.2-1.9h-0.1l-0.7,1.7l-3.3,5.7h-0.5l-3.5-5.7l-0.7-1.7h-0.1l0.3,1.9v8.5h-1.4V82.8h1.1l3.9,6.5l0.6,1.4l0,0
		l0.6-1.4l3.8-6.4h1.2v12.6H526V87H526.1z"/>
	<path d="M536.6,92H532l-1.3,3.5h-1.5l4.8-12.8h0.7l4.8,12.8h-1.6L536.6,92z M532.5,90.6h3.7l-1.4-3.8l-0.4-1.9l0,0l-0.4,1.9
		L532.5,90.6z"/>
	<path d="M541.2,83c0.5-0.1,0.9-0.2,1.5-0.2s1-0.1,1.6-0.1s1.1,0.1,1.7,0.2c0.6,0.1,1.1,0.3,1.6,0.6s0.8,0.7,1.1,1.2
		s0.4,1.1,0.4,1.9s-0.1,1.4-0.4,1.9s-0.6,1-1.1,1.3s-1,0.6-1.6,0.7s-1.2,0.2-1.8,0.2c-0.1,0-0.2,0-0.3,0s-0.3,0-0.4,0s-0.3,0-0.4,0
		s-0.2,0-0.3,0v4.8h-1.5L541.2,83L541.2,83z M544.2,84c-0.3,0-0.6,0-0.9,0s-0.5,0-0.7,0.1v5.2c0.1,0,0.2,0,0.3,0s0.3,0,0.4,0
		s0.3,0,0.4,0c0.1,0,0.2,0,0.3,0c0.4,0,0.8,0,1.2-0.1s0.8-0.2,1.1-0.4c0.3-0.2,0.6-0.5,0.8-0.9s0.3-0.8,0.3-1.4
		c0-0.5-0.1-0.9-0.3-1.2s-0.4-0.6-0.7-0.8s-0.6-0.3-1-0.4C545,84,544.6,84,544.2,84z"/>
	<path d="M553.6,89.6h-0.8v5.8h-1.5V82.8h1.5v5.9l0.8-0.3l4.2-5.6h1.7l-4.2,5.4l-0.8,0.6l0.9,0.7l4.6,5.9h-1.9L553.6,89.6z"/>
	<path d="M569.9,86.9l0.1-1.4l0,0l-0.8,1.5l-6.1,8.5h-0.9V82.8h1.5v8.6l-0.1,1.4h0.1l0.8-1.5l6.1-8.6h0.9v12.6H570L569.9,86.9
		L569.9,86.9z"/>
	<path d="M574.5,83c0.5-0.1,0.9-0.2,1.5-0.2s1-0.1,1.6-0.1s1.1,0.1,1.7,0.2c0.6,0.1,1.1,0.3,1.6,0.6s0.8,0.7,1.1,1.2
		s0.4,1.1,0.4,1.9s-0.1,1.4-0.4,1.9s-0.6,1-1.1,1.3s-1,0.6-1.6,0.7s-1.2,0.2-1.8,0.2c-0.1,0-0.2,0-0.3,0s-0.3,0-0.4,0s-0.3,0-0.4,0
		s-0.2,0-0.3,0v4.8h-1.5L574.5,83L574.5,83z M577.5,84c-0.3,0-0.6,0-0.9,0s-0.5,0-0.7,0.1v5.2c0.1,0,0.2,0,0.3,0s0.3,0,0.4,0
		s0.3,0,0.4,0c0.1,0,0.2,0,0.3,0c0.4,0,0.8,0,1.2-0.1s0.8-0.2,1.1-0.4c0.3-0.2,0.6-0.5,0.8-0.9s0.3-0.8,0.3-1.4
		c0-0.5-0.1-0.9-0.3-1.2s-0.4-0.6-0.7-0.8s-0.6-0.3-1-0.4C578.3,84,577.9,84,577.5,84z"/>
	<path d="M584,89.1c0-2.1,0.4-3.7,1.3-4.8c0.9-1.1,2.2-1.7,3.8-1.7c0.9,0,1.7,0.2,2.3,0.5s1.2,0.8,1.6,1.3c0.4,0.6,0.7,1.3,0.9,2.1
		c0.2,0.8,0.3,1.7,0.3,2.7c0,2.1-0.4,3.7-1.3,4.8c-0.9,1.1-2.2,1.7-3.8,1.7c-0.9,0-1.6-0.2-2.3-0.5c-0.6-0.3-1.2-0.8-1.6-1.3
		s-0.7-1.3-0.9-2.1S584,90.1,584,89.1z M585.6,89.1c0,0.7,0.1,1.4,0.2,2c0.1,0.6,0.4,1.2,0.6,1.6s0.7,0.9,1.1,1.1s1,0.4,1.6,0.4
		c1.1,0,2-0.4,2.6-1.3c0.6-0.8,1-2.2,1-3.9c0-0.7-0.1-1.3-0.2-2c-0.1-0.6-0.4-1.2-0.7-1.7s-0.7-0.8-1.1-1.1c-0.4-0.3-1-0.4-1.6-0.4
		c-1.1,0-2,0.4-2.6,1.3C585.9,86.1,585.6,87.4,585.6,89.1z"/>
	<path d="M604.4,85.7c0,0.3,0,0.6-0.1,0.9s-0.2,0.6-0.4,0.9s-0.4,0.5-0.7,0.6s-0.7,0.3-1.1,0.4v0.1c0.4,0.1,0.7,0.2,1,0.4
		c0.3,0.2,0.6,0.4,0.9,0.7s0.5,0.6,0.6,0.9s0.2,0.8,0.2,1.3c0,0.7-0.1,1.2-0.4,1.7s-0.6,0.9-1.1,1.2s-0.9,0.5-1.5,0.7
		c-0.6,0.1-1.1,0.2-1.7,0.2c-0.2,0-0.4,0-0.7,0s-0.6,0-0.9,0s-0.6,0-0.9-0.1s-0.6-0.1-0.8-0.1V83c0.4-0.1,1-0.1,1.6-0.2
		c0.6,0,1.2-0.1,1.9-0.1c0.5,0,0.9,0,1.4,0.1s0.9,0.2,1.3,0.4c0.4,0.2,0.7,0.5,1,0.9S604.4,85.1,604.4,85.7z M599.3,88.2
		c0.2,0,0.4,0,0.7,0s0.5,0,0.7-0.1c0.3-0.1,0.6-0.2,0.8-0.3c0.3-0.1,0.5-0.2,0.7-0.4c0.2-0.2,0.4-0.4,0.5-0.7
		c0.1-0.2,0.2-0.5,0.2-0.8c0-0.4-0.1-0.7-0.2-0.9c-0.1-0.2-0.3-0.4-0.6-0.6s-0.5-0.3-0.9-0.3c-0.3-0.1-0.7-0.1-1-0.1
		c-0.4,0-0.8,0-1.1,0s-0.6,0-0.7,0.1v4h0.9V88.2z M600.3,94.3c0.4,0,0.8,0,1.1-0.1c0.4-0.1,0.7-0.2,1-0.4c0.3-0.2,0.5-0.4,0.7-0.7
		c0.2-0.3,0.2-0.6,0.2-1c0-0.5-0.1-0.9-0.3-1.3s-0.5-0.6-0.8-0.8c-0.3-0.2-0.7-0.3-1.1-0.3c-0.4-0.1-0.8-0.1-1.2-0.1h-1.6v4.7
		c0.1,0,0.2,0,0.4,0.1s0.3,0,0.5,0s0.4,0,0.6,0S600.1,94.3,600.3,94.3z"/>
	<path d="M609.7,89.6h-0.8v5.8h-1.5V82.8h1.5v5.9l0.8-0.3l4.2-5.6h1.7l-4.2,5.4l-0.8,0.6l0.9,0.7l4.6,5.9h-1.9L609.7,89.6z"/>
	<path d="M624.3,92h-4.6l-1.3,3.5H617l4.8-12.8h0.7l4.8,12.8h-1.6L624.3,92z M620.2,90.6h3.7l-1.4-3.8l-0.4-1.9l0,0l-0.4,1.9
		L620.2,90.6z"/>
</g>
<g>
	<path d="M1000.8,94.9c-0.4,0.3-0.8,0.5-1.4,0.6c-0.6,0.1-1.1,0.2-1.8,0.2c-0.8,0-1.5-0.1-2.1-0.4c-0.7-0.3-1.2-0.7-1.7-1.2
		s-0.9-1.2-1.2-2s-0.4-1.8-0.4-2.9c0-1.2,0.2-2.2,0.5-3s0.7-1.5,1.3-2s1.1-0.9,1.8-1.1s1.3-0.4,2-0.4s1.3,0,1.8,0.1s0.8,0.2,1.2,0.3
		l-0.4,1.3c-0.6-0.3-1.4-0.4-2.5-0.4c-0.5,0-1,0.1-1.5,0.3s-0.9,0.5-1.3,0.9c-0.4,0.4-0.7,0.9-0.9,1.6s-0.3,1.5-0.3,2.4
		s0.1,1.6,0.3,2.3s0.5,1.2,0.9,1.6s0.8,0.8,1.3,1s1.1,0.3,1.7,0.3c0.5,0,1-0.1,1.4-0.2s0.7-0.2,1-0.4L1000.8,94.9z"/>
	<path d="M1003,82.8h6.8v1.3h-5.3V88c0.2,0,0.5-0.1,0.8-0.1s0.6-0.1,0.9-0.1c0.6,0,1.2,0.1,1.7,0.2c0.6,0.1,1,0.3,1.5,0.6
		s0.8,0.7,1,1.1s0.4,1.1,0.4,1.8c0,0.7-0.1,1.3-0.4,1.9s-0.6,0.9-1,1.3c-0.4,0.3-0.9,0.6-1.5,0.7c-0.6,0.2-1.1,0.2-1.8,0.2
		c-0.2,0-0.4,0-0.7,0s-0.5,0-0.8,0s-0.6,0-0.8-0.1s-0.5-0.1-0.7-0.1V82.8H1003z M1006.2,94.3c0.4,0,0.7-0.1,1.1-0.2
		c0.3-0.1,0.7-0.3,0.9-0.5s0.5-0.5,0.6-0.8c0.2-0.3,0.2-0.7,0.2-1.1c0-0.6-0.1-1-0.3-1.3s-0.4-0.6-0.7-0.8c-0.3-0.2-0.6-0.3-1-0.4
		s-0.8-0.1-1.2-0.1c-0.1,0-0.2,0-0.4,0s-0.3,0-0.4,0c-0.1,0-0.3,0-0.4,0s-0.2,0-0.3,0v5c0.1,0,0.2,0,0.3,0.1s0.3,0,0.5,0
		s0.3,0,0.5,0C1005.9,94.3,1006.1,94.3,1006.2,94.3z"/>
	<path d="M1020.6,86.9l0.1-1.4h-0.1l-0.8,1.5l-6.1,8.5h-0.9V82.8h1.5v8.6l-0.1,1.4h0.1l0.8-1.5l6.1-8.6h0.9v12.6h-1.5V86.9z"/>
	<path d="M1033.2,94.9c-0.4,0.3-0.8,0.5-1.4,0.6s-1.1,0.2-1.8,0.2c-0.8,0-1.5-0.1-2.1-0.4c-0.7-0.3-1.2-0.7-1.7-1.2s-0.9-1.2-1.2-2
		s-0.4-1.8-0.4-2.9c0-1.2,0.2-2.2,0.5-3s0.7-1.5,1.3-2s1.1-0.9,1.8-1.1s1.3-0.4,2-0.4s1.3,0,1.8,0.1s0.8,0.2,1.2,0.3l-0.4,1.3
		c-0.6-0.3-1.4-0.4-2.5-0.4c-0.5,0-1,0.1-1.5,0.3s-0.9,0.5-1.3,0.9s-0.7,0.9-0.9,1.6c-0.2,0.7-0.3,1.5-0.3,2.4s0.1,1.6,0.3,2.3
		s0.5,1.2,0.9,1.6s0.8,0.8,1.3,1s1.1,0.3,1.7,0.3c0.5,0,1-0.1,1.4-0.2s0.7-0.2,1-0.4L1033.2,94.9z"/>
	<path d="M1039.7,89.1c0-2.1,0.4-3.7,1.3-4.8c0.9-1.1,2.2-1.7,3.8-1.7c0.9,0,1.7,0.2,2.3,0.5s1.2,0.8,1.6,1.3
		c0.4,0.6,0.7,1.3,0.9,2.1c0.2,0.8,0.3,1.7,0.3,2.7c0,2.1-0.4,3.7-1.3,4.8c-0.9,1.1-2.2,1.7-3.8,1.7c-0.9,0-1.6-0.2-2.3-0.5
		c-0.6-0.3-1.2-0.8-1.6-1.3s-0.7-1.3-0.9-2.1C1039.8,91,1039.7,90.1,1039.7,89.1z M1041.3,89.1c0,0.7,0.1,1.4,0.2,2s0.4,1.2,0.6,1.6
		s0.7,0.9,1.1,1.1s1,0.4,1.6,0.4c1.1,0,2-0.4,2.6-1.3c0.6-0.8,1-2.2,1-3.9c0-0.7-0.1-1.3-0.2-2c-0.1-0.6-0.4-1.2-0.7-1.7
		c-0.3-0.5-0.7-0.8-1.1-1.1c-0.4-0.3-1-0.4-1.6-0.4c-1.1,0-2,0.4-2.6,1.3S1041.3,87.4,1041.3,89.1z"/>
	<path d="M1057.3,94c-0.2,0-0.4,0.1-0.7,0.1s-0.5,0-0.8,0c-0.6,0-1.1-0.1-1.6-0.3s-0.9-0.5-1.3-0.9s-0.7-0.9-0.9-1.6
		s-0.3-1.4-0.3-2.2c0-0.8,0.1-1.5,0.3-2.2c0.2-0.6,0.5-1.2,0.9-1.6s0.9-0.8,1.4-1s1.1-0.4,1.8-0.4c0.2,0,0.3,0,0.6,0s0.4,0,0.6,0.1
		v-1.6h1.5V84c0.2-0.1,0.5-0.1,0.8-0.1s0.5,0,0.7,0c0.6,0,1.1,0.1,1.6,0.3s0.9,0.5,1.3,0.9s0.7,0.9,0.9,1.6c0.2,0.6,0.3,1.4,0.3,2.2
		c0,0.8-0.1,1.6-0.3,2.2c-0.2,0.6-0.5,1.2-0.9,1.6s-0.9,0.8-1.4,1s-1.1,0.3-1.7,0.3c-0.1,0-0.3,0-0.6,0s-0.5,0-0.6-0.1v1.8h-1.5V94
		H1057.3z M1056.1,92.9c0.1,0,0.1,0,0.2,0s0.2,0,0.3,0c0.1,0,0.2,0,0.3,0s0.2,0,0.3-0.1v-7.5c-0.1,0-0.3,0-0.5-0.1s-0.4,0-0.6,0
		c-0.4,0-0.8,0.1-1.1,0.2c-0.4,0.2-0.7,0.4-0.9,0.7c-0.3,0.3-0.5,0.7-0.6,1.2c-0.2,0.5-0.2,1.1-0.2,1.7s0.1,1.1,0.2,1.6
		s0.3,0.9,0.6,1.2c0.2,0.3,0.5,0.6,0.9,0.7C1055.3,92.8,1055.6,92.9,1056.1,92.9z M1060,85.2c-0.2,0-0.4,0-0.7,0s-0.5,0-0.6,0.1v7.5
		c0.1,0,0.3,0,0.5,0s0.4,0,0.6,0c0.4,0,0.8-0.1,1.1-0.2c0.4-0.2,0.7-0.4,0.9-0.7c0.3-0.3,0.5-0.7,0.6-1.2s0.2-1.1,0.2-1.7
		s-0.1-1.1-0.2-1.5c-0.1-0.5-0.3-0.9-0.5-1.2s-0.5-0.6-0.9-0.8C1060.8,85.3,1060.4,85.2,1060,85.2z"/>
	<path d="M1076.6,97.8h-1l-0.3-2.3h-8.8l-0.3,2.3h-1v-3.7h1.3c0.1-0.1,0.2-0.4,0.4-0.9s0.4-1.2,0.6-2.1s0.4-2,0.5-3.4
		c0.2-1.4,0.2-3,0.2-4.9h6.7v11.3h1.6v3.7H1076.6z M1073.4,94.1v-9.9h-3.8c0,1.3-0.1,2.5-0.2,3.6s-0.2,2-0.4,2.8s-0.3,1.5-0.5,2.1
		s-0.4,1.1-0.6,1.5L1073.4,94.1L1073.4,94.1z"/>
</g>
<g>
	<path d="M559.4,68.3c-0.4,0.3-0.8,0.5-1.4,0.6c-0.6,0.1-1.1,0.2-1.8,0.2c-0.8,0-1.5-0.1-2.1-0.4c-0.7-0.3-1.2-0.7-1.7-1.2
		s-0.9-1.2-1.2-2s-0.4-1.8-0.4-2.9c0-1.2,0.2-2.2,0.5-3s0.7-1.5,1.3-2s1.1-0.9,1.8-1.1s1.3-0.4,2-0.4s1.3,0,1.8,0.1s0.8,0.2,1.2,0.3
		l-0.4,1.3c-0.6-0.3-1.4-0.4-2.5-0.4c-0.5,0-1,0.1-1.5,0.3s-0.9,0.5-1.3,0.9c-0.4,0.4-0.7,0.9-0.9,1.6c-0.2,0.7-0.3,1.5-0.3,2.4
		s0.1,1.6,0.3,2.3s0.5,1.2,0.9,1.6s0.8,0.8,1.3,1s1.1,0.3,1.7,0.3c0.5,0,1-0.1,1.4-0.2s0.7-0.2,1-0.4L559.4,68.3z"/>
	<path d="M561.6,56.2h6.8v1.3h-5.3v3.8c0.2,0,0.5-0.1,0.8-0.1s0.6-0.1,0.9-0.1c0.6,0,1.2,0.1,1.7,0.2c0.6,0.1,1,0.3,1.5,0.6
		s0.8,0.7,1,1.1s0.4,1.1,0.4,1.8c0,0.7-0.1,1.3-0.4,1.9s-0.6,0.9-1,1.3c-0.4,0.3-0.9,0.6-1.5,0.7c-0.6,0.2-1.1,0.2-1.8,0.2
		c-0.2,0-0.4,0-0.7,0s-0.5,0-0.8,0s-0.6,0-0.8-0.1s-0.5-0.1-0.7-0.1V56.2H561.6z M564.8,67.7c0.4,0,0.7-0.1,1.1-0.2
		c0.3-0.1,0.7-0.3,0.9-0.5s0.5-0.5,0.6-0.8c0.2-0.3,0.2-0.7,0.2-1.1c0-0.6-0.1-1-0.3-1.3s-0.4-0.6-0.7-0.8s-0.6-0.3-1-0.4
		c-0.4-0.1-0.8-0.1-1.2-0.1c-0.1,0-0.2,0-0.4,0s-0.3,0-0.4,0c-0.1,0-0.3,0-0.4,0s-0.2,0-0.3,0v5c0.1,0,0.2,0,0.3,0.1s0.3,0,0.5,0
		s0.3,0,0.5,0C564.5,67.7,564.7,67.7,564.8,67.7z"/>
	<path d="M579.2,60.3l0.1-1.4h-0.1l-0.8,1.5l-6.1,8.5h-0.9V56.2h1.5v8.6l-0.1,1.4h0.1l0.8-1.5l6.1-8.6h0.9v12.6h-1.5V60.3z"/>
	<path d="M591.8,68.3c-0.4,0.3-0.8,0.5-1.4,0.6c-0.6,0.1-1.1,0.2-1.8,0.2c-0.8,0-1.5-0.1-2.1-0.4c-0.7-0.3-1.2-0.7-1.7-1.2
		s-0.9-1.2-1.2-2s-0.4-1.8-0.4-2.9c0-1.2,0.2-2.2,0.5-3s0.7-1.5,1.3-2s1.1-0.9,1.8-1.1s1.3-0.4,2-0.4s1.3,0,1.8,0.1s0.8,0.2,1.2,0.3
		l-0.4,1.3c-0.6-0.3-1.4-0.4-2.5-0.4c-0.5,0-1,0.1-1.5,0.3s-0.9,0.5-1.3,0.9c-0.4,0.4-0.7,0.9-0.9,1.6c-0.2,0.7-0.3,1.5-0.3,2.4
		s0.1,1.6,0.3,2.3s0.5,1.2,0.9,1.6s0.8,0.8,1.3,1s1.1,0.3,1.7,0.3c0.5,0,1-0.1,1.4-0.2s0.7-0.2,1-0.4L591.8,68.3z"/>
</g>
<g>
	<path d="M501,209.4h-5.8v11.3h-1.5v-12.6h8.8v12.6H501V209.4z"/>
	<path d="M505,216.2c0-1.5,0.3-2.7,1-3.5s1.7-1.2,2.9-1.2c0.7,0,1.3,0.1,1.8,0.3s0.9,0.5,1.2,1s0.6,0.9,0.7,1.5s0.2,1.2,0.2,1.9
		c0,1.5-0.3,2.7-1,3.5s-1.7,1.2-2.9,1.2c-0.7,0-1.3-0.1-1.8-0.3s-0.9-0.5-1.2-1s-0.6-0.9-0.7-1.5S505,216.9,505,216.2z M506.4,216.2
		c0,0.5,0,0.9,0.1,1.3c0.1,0.4,0.2,0.8,0.4,1.1s0.4,0.6,0.8,0.8c0.3,0.2,0.7,0.3,1.1,0.3c1.6,0,2.4-1.1,2.4-3.5c0-0.5,0-0.9-0.1-1.3
		s-0.2-0.8-0.4-1.1s-0.4-0.6-0.8-0.7c-0.3-0.2-0.7-0.3-1.1-0.3C507.3,212.7,506.4,213.9,506.4,216.2z"/>
	<path d="M523.1,223h-1l-0.3-2.3H515l-0.3,2.3h-1v-3.5h1.1c0.1-0.1,0.2-0.4,0.4-0.7s0.3-0.8,0.5-1.4c0.2-0.6,0.3-1.4,0.4-2.3
		c0.1-0.9,0.2-2,0.2-3.3h5.4v7.7h1.3L523.1,223L523.1,223z M520.3,219.4V213h-2.7c0,0.5-0.1,1.1-0.1,1.6c-0.1,0.6-0.1,1.2-0.2,1.8
		s-0.2,1.2-0.4,1.7s-0.3,1-0.5,1.4h3.9V219.4z"/>
	<path d="M530.6,213h-2.8v7.7h-1.4V213h-2.8v-1.3h7.1L530.6,213L530.6,213z"/>
	<path d="M532,211.7c0.4,0,0.9-0.1,1.3-0.1s1-0.1,1.7-0.1c1.2,0,2,0.2,2.6,0.5c0.5,0.4,0.8,0.9,0.8,1.7c0,0.4-0.1,0.8-0.4,1.2
		s-0.7,0.7-1.2,0.9v0.1c0.7,0.1,1.2,0.4,1.5,0.7c0.3,0.4,0.4,0.8,0.4,1.4c0,0.9-0.3,1.6-1,2s-1.7,0.6-3,0.6c-0.5,0-1,0-1.4,0
		s-0.9-0.1-1.3-0.1L532,211.7L532,211.7z M535.2,215.5c0.2,0,0.4,0,0.6-0.1s0.4-0.2,0.5-0.3c0.2-0.1,0.3-0.3,0.4-0.4
		c0.1-0.2,0.2-0.4,0.2-0.5c0-0.5-0.1-0.8-0.4-1s-0.8-0.3-1.5-0.3c-0.4,0-0.7,0-0.9,0s-0.4,0-0.6,0v2.6H535.2z M533.5,219.5
		c0.2,0,0.4,0,0.7,0.1s0.5,0,0.8,0c0.8,0,1.4-0.1,1.8-0.3c0.4-0.2,0.6-0.6,0.6-1.2c0-0.4-0.2-0.8-0.5-1.1s-0.9-0.4-1.8-0.4h-1.6
		V219.5z"/>
	<path d="M547.6,220c-0.4,0.3-0.8,0.5-1.4,0.7s-1.1,0.3-1.7,0.3c-0.7,0-1.3-0.1-1.8-0.3s-0.9-0.5-1.2-1s-0.6-0.9-0.7-1.5
		s-0.2-1.2-0.2-1.9c0-1.5,0.3-2.7,1-3.5s1.7-1.2,2.9-1.2c0.4,0,0.8,0,1.2,0.1s0.8,0.3,1.1,0.5s0.6,0.6,0.8,1.1s0.3,1.1,0.3,1.8
		c0,0.4,0,0.8-0.1,1.3H542c0,0.5,0.1,1,0.2,1.4s0.3,0.8,0.5,1c0.2,0.3,0.5,0.5,0.9,0.6s0.8,0.2,1.3,0.2c0.4,0,0.8-0.1,1.2-0.2
		c0.4-0.1,0.7-0.3,0.9-0.5L547.6,220z M544.5,212.7c-0.7,0-1.3,0.2-1.7,0.6c-0.4,0.4-0.7,1-0.8,1.9h4.5c0-0.9-0.2-1.6-0.5-1.9
		C545.6,212.9,545.1,212.7,544.5,212.7z"/>
	<path d="M550.1,211.7h1l0.3,1.1h0.1c0.3-0.4,0.6-0.7,1.1-1s0.9-0.3,1.5-0.3c1.2,0,2.1,0.4,2.7,1.1c0.6,0.7,0.9,1.9,0.9,3.5
		c0,0.8-0.1,1.4-0.3,2s-0.5,1.1-0.8,1.5c-0.4,0.4-0.8,0.7-1.3,1s-1.1,0.3-1.7,0.3c-0.4,0-0.8,0-1.1-0.1s-0.5-0.1-0.8-0.3v3.7h-1.4
		v-12.5H550.1z M553.8,212.7c-0.6,0-1.1,0.2-1.4,0.5c-0.4,0.3-0.6,0.8-0.7,1.5v4.5c0.2,0.2,0.5,0.3,0.7,0.4c0.3,0.1,0.6,0.1,1.1,0.1
		c0.8,0,1.5-0.3,2-0.9c0.5-0.6,0.7-1.5,0.7-2.7c0-0.5,0-0.9-0.1-1.3c-0.1-0.4-0.2-0.7-0.4-1s-0.4-0.5-0.7-0.7
		S554.2,212.7,553.8,212.7z"/>
	<path d="M562.8,216.7l-2.7,4h-1.7l2.8-4.1l0.6-0.5l-0.9-0.7l-2.3-3.7h1.5l2.5,3.9h0.9v-3.9h1.4v4.1l0.8-0.3l2.5-3.8h1.5l-2.4,3.7
		l-0.7,0.6l0.9,0.7l2.7,4.1h-1.7l-2.6-4.1H565v4.1h-1.4v-4.2L562.8,216.7z"/>
	<path d="M579.7,223h-1l-0.3-2.3h-6.8l-0.3,2.3h-1v-3.5h1.1c0.1-0.1,0.2-0.4,0.4-0.7s0.3-0.8,0.5-1.4c0.2-0.6,0.3-1.4,0.4-2.3
		c0.1-0.9,0.2-2,0.2-3.3h5.4v7.7h1.3L579.7,223L579.7,223z M576.9,219.4V213h-2.7c0,0.5-0.1,1.1-0.1,1.6c-0.1,0.6-0.1,1.2-0.2,1.8
		s-0.2,1.2-0.4,1.7s-0.3,1-0.5,1.4h3.9V219.4z"/>
	<path d="M581.3,212.4c0.5-0.3,1-0.5,1.6-0.6s1.2-0.2,1.9-0.2c0.6,0,1.1,0.1,1.5,0.3s0.7,0.4,0.9,0.7s0.3,0.6,0.4,0.9
		c0.1,0.3,0.1,0.6,0.1,1c0,0.7,0,1.4-0.1,2.1c0,0.7-0.1,1.3-0.1,1.9c0,0.4,0,0.9,0.1,1.3c0,0.4,0.1,0.8,0.2,1.1h-1.1l-0.4-1.3h-0.1
		c-0.1,0.2-0.2,0.3-0.4,0.5s-0.4,0.3-0.6,0.4c-0.2,0.1-0.5,0.2-0.8,0.3s-0.6,0.1-1,0.1s-0.7-0.1-1.1-0.2c-0.3-0.1-0.6-0.3-0.9-0.5
		c-0.2-0.2-0.4-0.5-0.6-0.8c-0.1-0.3-0.2-0.7-0.2-1.1c0-0.5,0.1-1,0.3-1.3s0.5-0.6,0.9-0.8s0.9-0.4,1.4-0.5s1.1-0.1,1.8-0.1
		c0.2,0,0.3,0,0.5,0s0.3,0,0.5,0c0-0.4,0.1-0.7,0.1-1c0-0.7-0.1-1.1-0.4-1.4c-0.3-0.3-0.7-0.4-1.4-0.4c-0.2,0-0.4,0-0.7,0
		s-0.5,0.1-0.7,0.1c-0.2,0.1-0.5,0.1-0.7,0.2s-0.4,0.2-0.6,0.3L581.3,212.4z M583.9,219.6c0.3,0,0.6,0,0.9-0.1s0.5-0.2,0.7-0.3
		s0.3-0.3,0.5-0.5c0.1-0.2,0.2-0.3,0.3-0.5v-1.5c-0.2,0-0.3,0-0.5,0s-0.3,0-0.5,0c-0.4,0-0.7,0-1.1,0.1c-0.4,0-0.7,0.1-0.9,0.2
		c-0.3,0.1-0.5,0.3-0.6,0.5c-0.2,0.2-0.2,0.4-0.2,0.7c0,0.4,0.1,0.8,0.4,1S583.4,219.6,583.9,219.6z"/>
	<path d="M597,220c-0.4,0.3-0.8,0.5-1.4,0.7s-1.1,0.3-1.7,0.3c-0.7,0-1.3-0.1-1.8-0.3s-0.9-0.5-1.2-1s-0.6-0.9-0.7-1.5
		s-0.2-1.2-0.2-1.9c0-1.5,0.3-2.7,1-3.5s1.7-1.2,2.9-1.2c0.4,0,0.8,0,1.2,0.1s0.8,0.3,1.1,0.5s0.6,0.6,0.8,1.1s0.3,1.1,0.3,1.8
		c0,0.4,0,0.8-0.1,1.3h-5.8c0,0.5,0.1,1,0.2,1.4s0.3,0.8,0.5,1c0.2,0.3,0.5,0.5,0.9,0.6s0.8,0.2,1.3,0.2c0.4,0,0.8-0.1,1.2-0.2
		c0.4-0.1,0.7-0.3,0.9-0.5L597,220z M593.9,212.7c-0.7,0-1.3,0.2-1.7,0.6c-0.4,0.4-0.7,1-0.8,1.9h4.5c0-0.9-0.2-1.6-0.5-1.9
		C595,212.9,594.5,212.7,593.9,212.7z"/>
	<path d="M605.3,213h-2.8v7.7H601V213h-2.8v-1.3h7.1V213z"/>
	<path d="M613.8,216.6H613v4.1h-1.4v-9h1.4v4.1l0.8-0.3l2.9-3.8h1.6l-2.8,3.6l-0.8,0.6l0.9,0.7l3,4.1h-1.8L613.8,216.6z"/>
	<path d="M619.6,216.2c0-1.5,0.3-2.7,1-3.5s1.7-1.2,2.9-1.2c0.7,0,1.3,0.1,1.8,0.3s0.9,0.5,1.2,1s0.6,0.9,0.7,1.5s0.2,1.2,0.2,1.9
		c0,1.5-0.3,2.7-1,3.5s-1.7,1.2-2.9,1.2c-0.7,0-1.3-0.1-1.8-0.3s-0.9-0.5-1.2-1s-0.6-0.9-0.7-1.5S619.6,216.9,619.6,216.2z
		 M621.1,216.2c0,0.5,0,0.9,0.1,1.3c0.1,0.4,0.2,0.8,0.4,1.1s0.4,0.6,0.8,0.8c0.3,0.2,0.7,0.3,1.1,0.3c1.6,0,2.4-1.1,2.4-3.5
		c0-0.5,0-0.9-0.1-1.3s-0.2-0.8-0.4-1.1s-0.4-0.6-0.8-0.7c-0.3-0.2-0.7-0.3-1.1-0.3C621.9,212.7,621.1,213.9,621.1,216.2z"/>
	<path d="M637.7,223h-1l-0.3-2.3h-6.8l-0.3,2.3h-1v-3.5h1.1c0.1-0.1,0.2-0.4,0.4-0.7s0.3-0.8,0.5-1.4c0.2-0.6,0.3-1.4,0.4-2.3
		c0.1-0.9,0.2-2,0.2-3.3h5.4v7.7h1.3L637.7,223L637.7,223z M635,219.4V213h-2.7c0,0.5-0.1,1.1-0.1,1.6c-0.1,0.6-0.1,1.2-0.2,1.8
		s-0.2,1.2-0.4,1.7s-0.3,1-0.5,1.4h3.9V219.4z"/>
	<path d="M641,215.1c0.3,0,0.6-0.1,0.8-0.1s0.5,0,0.8,0c0.6,0,1.1,0.1,1.5,0.2c0.4,0.1,0.8,0.3,1,0.6s0.4,0.5,0.5,0.9
		s0.1,0.7,0.1,1.1c0,1.1-0.3,1.9-0.9,2.4s-1.6,0.7-2.9,0.7c-0.8,0-1.6,0-2.4-0.1v-9h1.4v3.3H641z M641,219.4
		c0.4,0.1,0.9,0.1,1.3,0.1c0.8,0,1.3-0.1,1.6-0.4s0.4-0.7,0.4-1.3c0-0.5-0.1-0.9-0.4-1.2s-0.8-0.5-1.5-0.5c-0.2,0-0.4,0-0.7,0
		s-0.5,0-0.7,0.1L641,219.4L641,219.4z M647.2,211.7h1.4v9h-1.4V211.7z"/>
</g>
<g>
	<g>
		<line class="st0" x1="1035.6" y1="231.9" x2="1035.7" y2="256.9"/>
	</g>
</g>
<g>
	<path d="M1022.6,208.1v4.2c0,1.6,0.7,2.5,2.2,2.5c0.6,0,1.1-0.1,1.6-0.2c0.5-0.1,0.9-0.3,1.2-0.6v-5.8h1.5v12.6h-1.5v-5.4
		c-0.3,0.2-0.7,0.4-1.3,0.5c-0.5,0.2-1.1,0.3-1.8,0.3c-0.5,0-1-0.1-1.4-0.2c-0.4-0.1-0.8-0.3-1.1-0.6s-0.5-0.6-0.7-1.1
		s-0.3-1-0.3-1.7v-4.4h1.6V208.1z"/>
	<path d="M1038.6,220c-0.4,0.3-0.8,0.5-1.4,0.7s-1.1,0.3-1.7,0.3c-0.7,0-1.3-0.1-1.8-0.3s-0.9-0.5-1.2-1s-0.6-0.9-0.7-1.5
		s-0.2-1.2-0.2-1.9c0-1.5,0.3-2.7,1-3.5s1.7-1.2,2.9-1.2c0.4,0,0.8,0,1.2,0.1c0.4,0.1,0.8,0.3,1.1,0.5s0.6,0.6,0.8,1.1
		s0.3,1.1,0.3,1.8c0,0.4,0,0.8-0.1,1.3h-5.8c0,0.5,0.1,1,0.2,1.4s0.3,0.8,0.5,1c0.2,0.3,0.5,0.5,0.9,0.6s0.8,0.2,1.3,0.2
		c0.4,0,0.8-0.1,1.2-0.2c0.4-0.1,0.7-0.3,0.9-0.5L1038.6,220z M1035.5,212.7c-0.7,0-1.3,0.2-1.7,0.6c-0.4,0.4-0.7,1-0.8,1.9h4.5
		c0-0.9-0.2-1.6-0.5-1.9C1036.7,212.9,1036.2,212.7,1035.5,212.7z"/>
	<path d="M1043.5,216.6h-0.8v4.1h-1.4v-9h1.4v4.1l0.8-0.3l2.9-3.8h1.6l-2.8,3.6l-0.8,0.6l0.9,0.7l3,4.1h-1.8L1043.5,216.6z"/>
</g>
<g>
	<path d="M729.2,89.6h-0.8v5.8h-1.5V82.8h1.5v5.9l0.8-0.3l4.2-5.6h1.7l-4.2,5.4l-0.8,0.6l0.9,0.7l4.6,5.9h-1.9L729.2,89.6z"/>
	<path d="M737.2,90.9c0-1.5,0.3-2.7,1-3.5s1.7-1.2,2.9-1.2c0.7,0,1.3,0.1,1.8,0.3s0.9,0.5,1.2,1s0.6,0.9,0.7,1.5s0.2,1.2,0.2,1.9
		c0,1.5-0.3,2.7-1,3.5s-1.7,1.2-2.9,1.2c-0.7,0-1.3-0.1-1.8-0.3s-0.9-0.5-1.2-1s-0.6-0.9-0.7-1.5S737.2,91.6,737.2,90.9z
		 M738.7,90.9c0,0.5,0,0.9,0.1,1.3s0.2,0.8,0.4,1.1s0.4,0.6,0.8,0.8c0.3,0.2,0.7,0.3,1.1,0.3c1.6,0,2.4-1.1,2.4-3.5
		c0-0.5,0-0.9-0.1-1.3s-0.2-0.8-0.4-1.1s-0.4-0.6-0.8-0.7c-0.3-0.2-0.7-0.3-1.1-0.3C739.5,87.5,738.7,88.6,738.7,90.9z"/>
	<path d="M755.3,97.7h-1l-0.3-2.3h-6.8l-0.3,2.3h-1v-3.5h1.1c0.1-0.1,0.2-0.4,0.4-0.7c0.2-0.3,0.3-0.8,0.5-1.4s0.3-1.4,0.4-2.3
		c0.1-0.9,0.2-2,0.2-3.3h5.4v7.7h1.3L755.3,97.7L755.3,97.7z M752.6,94.2v-6.5h-2.7c0,0.5-0.1,1.1-0.1,1.6c-0.1,0.6-0.1,1.2-0.2,1.8
		s-0.2,1.2-0.4,1.7s-0.3,1-0.5,1.4H752.6z"/>
	<path d="M758.6,89.9c0.3,0,0.6-0.1,0.8-0.1s0.5,0,0.8,0c0.6,0,1.1,0.1,1.5,0.2s0.8,0.3,1,0.6s0.4,0.5,0.5,0.9s0.1,0.7,0.1,1.1
		c0,1.1-0.3,1.9-0.9,2.4s-1.6,0.7-2.9,0.7c-0.8,0-1.6,0-2.4-0.1v-9h1.4v3.3H758.6z M758.6,94.2c0.4,0.1,0.9,0.1,1.3,0.1
		c0.8,0,1.3-0.1,1.6-0.4s0.4-0.7,0.4-1.3c0-0.5-0.1-0.9-0.4-1.2s-0.8-0.5-1.5-0.5c-0.2,0-0.4,0-0.7,0s-0.5,0-0.7,0.1L758.6,94.2
		L758.6,94.2z M764.8,86.4h1.4v9h-1.4V86.4z"/>
	<path d="M781.8,97.7h-1l-0.3-2.3h-6.8l-0.3,2.3h-1v-3.5h1.1c0.1-0.1,0.2-0.4,0.4-0.7c0.2-0.3,0.3-0.8,0.5-1.4s0.3-1.4,0.4-2.3
		c0.1-0.9,0.2-2,0.2-3.3h5.4v7.7h1.3L781.8,97.7L781.8,97.7z M779,94.2v-6.5h-2.7c0,0.5-0.1,1.1-0.1,1.6c-0.1,0.6-0.1,1.2-0.2,1.8
		s-0.2,1.2-0.4,1.7s-0.3,1-0.5,1.4H779z"/>
	<path d="M788.4,87.7h-2.6c0,0.5-0.1,1-0.1,1.6s-0.1,1.2-0.2,1.8s-0.2,1.1-0.3,1.7s-0.3,1-0.5,1.4s-0.4,0.7-0.7,1s-0.6,0.4-1,0.4
		c-0.2,0-0.4,0-0.6,0s-0.3-0.1-0.4-0.1l0.2-1.2c0.1,0,0.3,0.1,0.5,0.1s0.5-0.1,0.6-0.3c0.2-0.2,0.4-0.6,0.5-1.2s0.3-1.4,0.4-2.4
		c0.1-1,0.2-2.3,0.2-3.9h5.4v9h-1.4L788.4,87.7L788.4,87.7z"/>
	<path d="M797.1,91.7l-1.4,0.2l-2.4,3.5h-1.7l2.2-3.1l0.7-0.7c-0.6-0.1-1.2-0.3-1.6-0.8c-0.4-0.4-0.7-1-0.7-1.7c0-0.5,0.1-1,0.3-1.4
		s0.5-0.7,0.8-1s0.8-0.4,1.2-0.5c0.5-0.1,1-0.2,1.6-0.2c0.4,0,0.9,0,1.2,0.1c0.4,0.1,0.8,0.1,1.1,0.2v8.9H797v-3.5H797.1z
		 M797.1,87.7c-0.2-0.1-0.3-0.1-0.5-0.1s-0.4,0-0.5,0c-0.8,0-1.4,0.1-1.8,0.4c-0.4,0.3-0.6,0.7-0.6,1.3c0,0.5,0.2,1,0.6,1.3
		c0.4,0.3,1,0.4,1.7,0.4c0,0,0,0,0.1,0s0.1,0,0.1,0c0.1,0,0.2,0,0.3,0s0.3,0,0.6,0L797.1,87.7L797.1,87.7z"/>
	<path d="M812.1,94.8c-0.4,0.3-0.8,0.5-1.3,0.6s-1,0.2-1.5,0.2c-0.7,0-1.3-0.1-1.8-0.3s-0.9-0.5-1.2-1c-0.3-0.4-0.5-0.9-0.7-1.5
		c-0.1-0.6-0.2-1.2-0.2-1.9c0-1.5,0.3-2.7,1-3.5s1.6-1.2,2.9-1.2c0.6,0,1.1,0,1.5,0.1s0.8,0.2,1.1,0.4l-0.4,1.2
		c-0.3-0.2-0.6-0.3-0.9-0.4s-0.7-0.1-1.1-0.1c-1.7,0-2.6,1.2-2.6,3.5c0,0.5,0,0.9,0.1,1.3s0.2,0.8,0.5,1.1s0.5,0.6,0.8,0.8
		c0.3,0.2,0.8,0.3,1.3,0.3c0.4,0,0.8-0.1,1.2-0.2c0.3-0.1,0.6-0.3,0.8-0.5L812.1,94.8z"/>
	<path d="M819.5,87.7h-4v7.7h-1.4v-9h6.9v9h-1.4L819.5,87.7L819.5,87.7z"/>
	<path d="M829.3,90.1l0.1-1.1h-0.1l-0.7,1.2l-4.1,5.3h-0.8v-9h1.4V92l-0.1,1.1h0.1l0.7-1.1l4.1-5.4h0.9v9h-1.4v-5.5H829.3z"/>
	<path d="M839.7,94.8c-0.4,0.3-0.8,0.5-1.3,0.6s-1,0.2-1.5,0.2c-0.7,0-1.3-0.1-1.8-0.3s-0.9-0.5-1.2-1c-0.3-0.4-0.5-0.9-0.7-1.5
		c-0.1-0.6-0.2-1.2-0.2-1.9c0-1.5,0.3-2.7,1-3.5s1.6-1.2,2.9-1.2c0.6,0,1.1,0,1.5,0.1s0.8,0.2,1.1,0.4l-0.4,1.2
		c-0.3-0.2-0.6-0.3-0.9-0.4s-0.7-0.1-1.1-0.1c-1.7,0-2.6,1.2-2.6,3.5c0,0.5,0,0.9,0.1,1.3s0.2,0.8,0.5,1.1s0.5,0.6,0.8,0.8
		c0.3,0.2,0.8,0.3,1.3,0.3c0.4,0,0.8-0.1,1.2-0.2c0.3-0.1,0.6-0.3,0.8-0.5L839.7,94.8z"/>
	<path d="M841.5,87.1c0.5-0.3,1-0.5,1.6-0.6s1.2-0.2,1.9-0.2c0.6,0,1.1,0.1,1.5,0.3c0.4,0.2,0.7,0.4,0.9,0.7s0.3,0.6,0.4,0.9
		c0.1,0.3,0.1,0.6,0.1,1c0,0.7,0,1.4-0.1,2.1c0,0.7-0.1,1.3-0.1,1.9c0,0.4,0,0.9,0.1,1.3c0,0.4,0.1,0.8,0.2,1.1h-1.1l-0.4-1.3h-0.1
		c-0.1,0.2-0.2,0.3-0.4,0.5s-0.4,0.3-0.6,0.4c-0.2,0.1-0.5,0.2-0.8,0.3s-0.6,0.1-1,0.1s-0.7-0.1-1.1-0.2c-0.3-0.1-0.6-0.3-0.9-0.5
		c-0.2-0.2-0.4-0.5-0.6-0.8c-0.1-0.3-0.2-0.7-0.2-1.1c0-0.5,0.1-1,0.3-1.3s0.5-0.6,0.9-0.8s0.9-0.4,1.4-0.5s1.1-0.1,1.8-0.1
		c0.2,0,0.3,0,0.5,0s0.3,0,0.5,0c0-0.4,0.1-0.7,0.1-1c0-0.7-0.1-1.1-0.4-1.4c-0.3-0.3-0.7-0.4-1.4-0.4c-0.2,0-0.4,0-0.7,0
		s-0.5,0.1-0.7,0.1c-0.2,0.1-0.5,0.1-0.7,0.2s-0.4,0.2-0.6,0.3L841.5,87.1z M844.1,94.3c0.3,0,0.6,0,0.9-0.1s0.5-0.2,0.7-0.3
		c0.2-0.1,0.3-0.3,0.5-0.5c0.1-0.2,0.2-0.3,0.3-0.5v-1.5c-0.2,0-0.3,0-0.5,0s-0.3,0-0.5,0c-0.4,0-0.7,0-1.1,0.1
		c-0.4,0-0.7,0.1-0.9,0.2c-0.3,0.1-0.5,0.3-0.6,0.5c-0.2,0.2-0.2,0.4-0.2,0.7c0,0.4,0.1,0.8,0.4,1S843.6,94.3,844.1,94.3z"/>
	<path d="M856.1,91.5H852v4h-1.4v-9h1.4v3.8h4.1v-3.8h1.4v9h-1.4V91.5z"/>
	<path d="M865.9,90.1L866,89h-0.1l-0.7,1.2l-4.1,5.3h-0.8v-9h1.4V92l-0.1,1.1h0.1l0.7-1.1l4.1-5.4h0.9v9H866v-5.5H865.9z"/>
	<path d="M874.6,91.7l-1.4,0.2l-2.4,3.5h-1.7l2.2-3.1l0.7-0.7c-0.6-0.1-1.2-0.3-1.6-0.8c-0.4-0.4-0.7-1-0.7-1.7c0-0.5,0.1-1,0.3-1.4
		s0.5-0.7,0.8-1s0.8-0.4,1.2-0.5c0.5-0.1,1-0.2,1.6-0.2c0.4,0,0.9,0,1.2,0.1c0.4,0.1,0.8,0.1,1.1,0.2v8.9h-1.4v-3.5H874.6z
		 M874.6,87.7c-0.2-0.1-0.3-0.1-0.5-0.1s-0.4,0-0.5,0c-0.8,0-1.4,0.1-1.8,0.4c-0.4,0.3-0.6,0.7-0.6,1.3c0,0.5,0.2,1,0.6,1.3
		c0.4,0.3,1,0.4,1.7,0.4c0,0,0,0,0.1,0s0.1,0,0.1,0c0.1,0,0.2,0,0.3,0s0.3,0,0.6,0L874.6,87.7L874.6,87.7z"/>
</g>
<g>
	<path d="M282.7,219.4c0.1,0.3,0.2,0.6,0.3,0.9c0.1,0.3,0.1,0.6,0,1s-0.2,0.6-0.4,0.9c-0.2,0.3-0.4,0.5-0.8,0.8v0.1
		c0.3-0.1,0.7-0.2,1.1-0.1s0.8,0.1,1.1,0.2c0.3,0.1,0.7,0.3,1,0.5s0.6,0.6,0.8,1c0.3,0.6,0.5,1.1,0.4,1.7c0,0.5-0.1,1.1-0.4,1.5
		c-0.2,0.5-0.6,0.9-1,1.3c-0.4,0.4-0.9,0.7-1.4,1c-0.2,0.1-0.4,0.2-0.6,0.3s-0.5,0.3-0.8,0.4c-0.3,0.1-0.5,0.2-0.8,0.4
		c-0.3,0.1-0.5,0.2-0.8,0.3l-5.8-10.9c0.4-0.3,0.8-0.6,1.3-0.9c0.5-0.3,1.1-0.6,1.7-1c0.4-0.2,0.9-0.4,1.3-0.6
		c0.5-0.2,0.9-0.2,1.4-0.2s0.9,0.1,1.3,0.3C282.1,218.5,282.4,218.9,282.7,219.4z M279.3,224.1c0.2-0.1,0.4-0.2,0.6-0.4
		c0.3-0.1,0.5-0.3,0.6-0.4c0.2-0.2,0.4-0.4,0.6-0.6c0.2-0.2,0.3-0.4,0.4-0.7s0.1-0.5,0.1-0.8s-0.1-0.5-0.2-0.8
		c-0.2-0.4-0.4-0.6-0.6-0.7c-0.2-0.1-0.5-0.2-0.8-0.2s-0.6,0-0.9,0.1s-0.6,0.2-0.9,0.4c-0.4,0.2-0.7,0.4-0.9,0.5
		c-0.3,0.2-0.5,0.3-0.6,0.4l1.9,3.5L279.3,224.1z M283.1,229c0.3-0.2,0.6-0.4,0.9-0.6c0.3-0.3,0.5-0.5,0.6-0.8
		c0.2-0.3,0.2-0.6,0.2-1c0-0.3-0.1-0.7-0.3-1c-0.2-0.4-0.5-0.8-0.9-1c-0.3-0.2-0.7-0.3-1.1-0.3s-0.7,0.1-1.1,0.2
		c-0.4,0.1-0.7,0.3-1.1,0.5l-1.4,0.7l2.2,4.1c0.1,0,0.2-0.1,0.3-0.1s0.3-0.1,0.5-0.2c0.2-0.1,0.3-0.2,0.5-0.2
		C282.8,229.1,283,229,283.1,229z"/>
	<path d="M288.4,221.1c0.2-0.2,0.5-0.3,0.7-0.5c0.2-0.1,0.4-0.3,0.7-0.4c0.5-0.3,1-0.5,1.5-0.5c0.4-0.1,0.8-0.1,1.2,0
		s0.6,0.3,0.9,0.5c0.2,0.2,0.5,0.5,0.6,0.9c0.5,1,0.6,1.8,0.3,2.5s-1,1.4-2.2,2c-0.7,0.4-1.4,0.7-2.2,1l-4.3-7.9l1.3-0.7
		L288.4,221.1z M290.4,224.9c0.4-0.1,0.8-0.3,1.2-0.5c0.7-0.4,1.1-0.7,1.2-1.1c0.1-0.4,0.1-0.8-0.2-1.3c-0.2-0.4-0.5-0.7-0.9-0.8
		s-0.9,0-1.6,0.3c-0.2,0.1-0.4,0.2-0.6,0.3s-0.4,0.3-0.5,0.4L290.4,224.9z M292.3,215.1l1.3-0.7l4.3,7.9l-1.3,0.7L292.3,215.1z"/>
	<path d="M308.3,219.3l-0.9,0.5l-1.3-1.9l-6,3.2l0.8,2.1l-0.9,0.5l-1.7-3.1l0.9-0.5c0-0.2,0-0.4,0-0.8c0-0.4-0.1-0.9-0.3-1.5
		c-0.2-0.6-0.4-1.4-0.7-2.2c-0.3-0.9-0.8-1.9-1.4-3l4.8-2.6l3.7,6.8l1.2-0.6L308.3,219.3z M304.2,217.5l-3.1-5.7l-2.4,1.3
		c0.2,0.5,0.4,1,0.7,1.5c0.2,0.6,0.4,1.1,0.6,1.7c0.2,0.6,0.3,1.1,0.5,1.7c0.1,0.5,0.2,1,0.2,1.5L304.2,217.5z"/>
	<path d="M304.7,209.2c0.3-0.5,0.6-0.9,1.1-1.3c0.5-0.4,1-0.8,1.6-1.1c0.5-0.3,1-0.5,1.4-0.5s0.8,0,1.1,0.2c0.3,0.1,0.6,0.3,0.8,0.6
		c0.2,0.3,0.4,0.5,0.5,0.8c0.3,0.6,0.7,1.3,0.9,1.9c0.3,0.6,0.6,1.2,0.9,1.7c0.2,0.4,0.4,0.8,0.6,1.1s0.4,0.6,0.7,0.9l-0.9,0.5
		l-0.9-0.9h-0.1c0,0.2-0.1,0.4-0.1,0.6c-0.1,0.2-0.2,0.4-0.3,0.7c-0.1,0.2-0.3,0.4-0.5,0.6c-0.2,0.2-0.5,0.4-0.8,0.6
		c-0.3,0.2-0.7,0.3-1,0.3c-0.4,0.1-0.7,0-1,0c-0.3-0.1-0.6-0.2-0.9-0.4s-0.5-0.5-0.7-0.8c-0.3-0.5-0.4-0.9-0.3-1.3
		c0-0.4,0.2-0.8,0.4-1.2c0.2-0.4,0.6-0.7,1-1.1s0.9-0.7,1.5-1c0.1-0.1,0.3-0.2,0.4-0.2s0.3-0.1,0.5-0.2c-0.1-0.3-0.3-0.6-0.4-0.9
		c-0.3-0.6-0.6-0.9-1-1s-0.8,0-1.5,0.3c-0.2,0.1-0.4,0.2-0.6,0.3s-0.4,0.3-0.6,0.5s-0.4,0.3-0.5,0.5s-0.3,0.3-0.4,0.5L304.7,209.2z
		 M310.4,214.4c0.3-0.2,0.5-0.3,0.7-0.5s0.3-0.4,0.4-0.6c0.1-0.2,0.2-0.4,0.2-0.6c0-0.2,0-0.4,0-0.6l-0.7-1.3
		c-0.1,0.1-0.3,0.1-0.5,0.2c-0.2,0.1-0.3,0.2-0.5,0.2c-0.3,0.2-0.6,0.4-0.9,0.6c-0.3,0.2-0.5,0.4-0.7,0.6c-0.2,0.2-0.3,0.5-0.3,0.7
		c0,0.3,0,0.5,0.1,0.8c0.2,0.4,0.5,0.6,0.9,0.7C309.6,214.6,310,214.6,310.4,214.4z"/>
	<path d="M313.2,203.9l1.2,2.2c0.2,0.3,0.3,0.5,0.5,0.7s0.3,0.4,0.5,0.5s0.4,0.2,0.6,0.2s0.5-0.1,0.8-0.2c0.5-0.3,0.8-0.5,1.1-0.8
		c0.3-0.3,0.4-0.5,0.5-0.7l-1.9-3.5l1.3-0.7l4.3,7.9l-1.3,0.7l-1.8-3.3c-0.1,0.2-0.3,0.4-0.6,0.7c-0.3,0.3-0.7,0.6-1.3,0.9
		c-0.4,0.2-0.8,0.4-1.1,0.4c-0.3,0.1-0.7,0.1-1,0s-0.6-0.3-0.9-0.6s-0.6-0.7-0.9-1.2l-1.3-2.4L313.2,203.9z"/>
	<path d="M320.4,200.8c0.3-0.5,0.6-0.9,1.1-1.3c0.5-0.4,1-0.8,1.6-1.1c0.5-0.3,1-0.5,1.4-0.5s0.8,0,1.1,0.2c0.3,0.1,0.6,0.3,0.8,0.6
		c0.2,0.3,0.4,0.5,0.5,0.8c0.3,0.6,0.7,1.3,0.9,1.9c0.3,0.6,0.6,1.2,0.9,1.7c0.2,0.4,0.4,0.8,0.6,1.1s0.4,0.6,0.7,0.9l-0.9,0.5
		l-0.9-0.9h-0.1c0,0.2-0.1,0.4-0.1,0.6s-0.2,0.4-0.3,0.7c-0.1,0.2-0.3,0.4-0.5,0.6c-0.2,0.2-0.5,0.4-0.8,0.6c-0.3,0.2-0.7,0.3-1,0.3
		c-0.3,0.1-0.7,0-1,0c-0.3-0.1-0.6-0.2-0.9-0.4s-0.5-0.5-0.7-0.8c-0.3-0.5-0.4-0.9-0.3-1.3s0.2-0.8,0.4-1.2c0.2-0.4,0.6-0.7,1-1.1
		c0.4-0.3,0.9-0.7,1.5-1c0.1-0.1,0.3-0.2,0.4-0.2c0.1-0.1,0.3-0.1,0.4-0.2c-0.1-0.3-0.3-0.6-0.4-0.9c-0.3-0.6-0.6-0.9-1-1
		s-0.8,0-1.5,0.3c-0.2,0.1-0.4,0.2-0.6,0.3s-0.4,0.3-0.6,0.5s-0.4,0.3-0.5,0.5s-0.3,0.3-0.4,0.5L320.4,200.8z M326.1,206
		c0.3-0.2,0.5-0.3,0.7-0.5s0.3-0.4,0.4-0.6c0.1-0.2,0.2-0.4,0.2-0.6c0-0.2,0-0.4,0-0.6l-0.7-1.3c-0.2,0.1-0.3,0.1-0.5,0.2
		c-0.2,0.1-0.3,0.2-0.5,0.2c-0.3,0.2-0.6,0.4-0.9,0.6c-0.3,0.2-0.5,0.4-0.7,0.6c-0.2,0.2-0.3,0.5-0.3,0.7c0,0.3,0,0.5,0.1,0.8
		c0.2,0.4,0.5,0.6,0.9,0.7C325.2,206.3,325.6,206.2,326.1,206z"/>
	<path d="M336.6,197l-0.7,0.4l1.9,3.6l-1.3,0.7l-4.3-7.9l1.3-0.7l1.9,3.6l0.6-0.6l0.7-4.7l1.4-0.7l-0.7,4.5l-0.4,0.9l1.2,0.2
		l4.6,2.2l-1.6,0.8L336.6,197z"/>
	<path d="M341.6,193.8c-0.7-1.3-1-2.5-0.8-3.6c0.2-1,0.9-1.9,2-2.5c0.6-0.3,1.2-0.5,1.7-0.5s1.1,0,1.5,0.3c0.5,0.2,0.9,0.5,1.3,1
		c0.4,0.4,0.8,1,1.1,1.6c0.7,1.3,1,2.5,0.8,3.6c-0.2,1-0.9,1.9-2,2.5c-0.6,0.3-1.2,0.5-1.7,0.5s-1.1,0-1.5-0.3
		c-0.5-0.2-0.9-0.5-1.3-1C342.3,195,341.9,194.4,341.6,193.8z M342.9,193.1c0.2,0.4,0.5,0.8,0.7,1.1c0.3,0.3,0.6,0.6,0.9,0.8
		s0.7,0.3,1,0.3c0.4,0,0.7-0.1,1.1-0.3c1.4-0.8,1.6-2.2,0.5-4.2c-0.2-0.4-0.5-0.8-0.7-1.1s-0.6-0.6-0.9-0.8s-0.7-0.3-1-0.3
		c-0.4,0-0.7,0.1-1.1,0.3C342,189.7,341.8,191.1,342.9,193.1z"/>
	<path d="M360.7,191.2l-0.9,0.5l-1.3-1.9l-6,3.2l0.8,2.1l-0.9,0.5l-1.7-3.1l0.9-0.5c0-0.2,0-0.4,0-0.8c0-0.4-0.1-0.9-0.3-1.5
		c-0.2-0.6-0.4-1.4-0.7-2.2c-0.3-0.9-0.8-1.9-1.4-3l4.8-2.6l3.7,6.8l1.2-0.6L360.7,191.2z M356.6,189.4l-3.1-5.7l-2.4,1.3
		c0.2,0.5,0.4,1,0.7,1.5c0.2,0.6,0.4,1.1,0.6,1.7c0.2,0.6,0.3,1.1,0.5,1.7c0.1,0.5,0.2,1,0.2,1.5L356.6,189.4z"/>
	<path d="M358.7,184.7c-0.7-1.3-1-2.5-0.8-3.6c0.2-1,0.9-1.9,2-2.5c0.6-0.3,1.2-0.5,1.7-0.5s1.1,0,1.5,0.3c0.5,0.2,0.9,0.5,1.3,1
		c0.4,0.4,0.8,1,1.1,1.6c0.7,1.3,1,2.5,0.8,3.6c-0.2,1-0.9,1.9-2,2.5c-0.6,0.3-1.2,0.5-1.7,0.5s-1.1,0-1.5-0.3
		c-0.5-0.2-0.9-0.5-1.3-1S359,185.3,358.7,184.7z M360,184c0.2,0.4,0.5,0.8,0.7,1.1c0.3,0.3,0.6,0.6,0.9,0.8s0.7,0.3,1,0.3
		c0.4,0,0.7-0.1,1.1-0.3c1.4-0.8,1.6-2.2,0.5-4.2c-0.2-0.4-0.5-0.8-0.7-1.1c-0.3-0.3-0.6-0.6-0.9-0.8s-0.7-0.3-1-0.3
		s-0.7,0.1-1.1,0.3C359.1,180.5,358.9,181.9,360,184z"/>
	<path d="M365.5,175.9c0.4-0.2,0.7-0.5,1.1-0.7s0.9-0.5,1.5-0.9c1-0.6,1.9-0.8,2.5-0.7s1.1,0.4,1.5,1.1c0.2,0.4,0.3,0.8,0.3,1.3
		s-0.2,0.9-0.7,1.4v0.1c0.7-0.2,1.2-0.2,1.7-0.1c0.4,0.2,0.8,0.5,1.1,1.1c0.4,0.8,0.5,1.6,0.1,2.3s-1.2,1.3-2.4,2
		c-0.4,0.2-0.9,0.4-1.3,0.6s-0.8,0.4-1.2,0.5L365.5,175.9z M370.1,177.7c0.2-0.1,0.4-0.2,0.5-0.4s0.3-0.3,0.3-0.5
		c0.1-0.2,0.1-0.4,0.1-0.6c0-0.2,0-0.4-0.1-0.6c-0.2-0.4-0.5-0.6-0.8-0.7c-0.3,0-0.8,0.1-1.5,0.5c-0.3,0.2-0.6,0.3-0.8,0.4
		c-0.2,0.1-0.4,0.2-0.5,0.3l1.2,2.3L370.1,177.7z M370.4,182.1c0.2-0.1,0.4-0.2,0.6-0.3s0.4-0.2,0.7-0.4c0.7-0.4,1.2-0.8,1.4-1.2
		c0.2-0.4,0.2-0.8,0-1.3c-0.2-0.4-0.5-0.6-0.9-0.7c-0.4-0.1-1,0.1-1.7,0.5l-1.4,0.7L370.4,182.1z"/>
</g>
<g>
	<path d="M265.3,186.8l-0.6-1.1l0.2-0.1c0.1-0.1,0.2-0.1,0.3-0.2c0.1-0.1,0.3-0.2,0.4-0.2c0.1-0.1,0.3-0.2,0.4-0.2
		c0.1-0.1,0.2-0.2,0.3-0.2c0.2-0.2,0.5-0.4,0.7-0.6c0.2-0.2,0.3-0.5,0.4-0.7c0.1-0.3,0.1-0.5,0.1-0.8s-0.1-0.5-0.2-0.8
		c-0.2-0.3-0.4-0.6-0.6-0.8s-0.5-0.3-0.8-0.3s-0.6,0-0.9,0.1s-0.6,0.2-0.9,0.4c-0.6,0.3-1,0.6-1.4,0.9c-0.4,0.3-0.6,0.6-0.8,0.8
		l-0.9-0.9c0.1-0.2,0.5-0.6,0.9-1c0.5-0.4,1.1-0.8,1.7-1.2c0.4-0.2,0.9-0.4,1.3-0.5c0.5-0.1,0.9-0.2,1.3-0.2s0.8,0.2,1.2,0.4
		c0.4,0.2,0.7,0.6,1,1.1s0.4,1.1,0.3,1.8s-0.4,1.3-1,1.9v0.1c0.8-0.3,1.5-0.3,2.2-0.1s1.2,0.7,1.6,1.5c0.3,0.6,0.5,1.2,0.5,1.8
		s-0.1,1.1-0.3,1.6c-0.2,0.5-0.6,0.9-1,1.3c-0.4,0.4-0.9,0.8-1.4,1c-0.7,0.4-1.3,0.7-1.8,0.8c-0.5,0.2-0.9,0.3-1.3,0.3l-0.3-1.4
		c0.3,0,0.7-0.1,1.2-0.3s1-0.4,1.7-0.7c0.3-0.2,0.6-0.4,0.9-0.7s0.5-0.5,0.6-0.9c0.1-0.3,0.2-0.7,0.2-1s-0.1-0.7-0.3-1.1
		c-0.4-0.7-0.9-1-1.5-1.1s-1.3,0.1-2.1,0.5c-0.1,0.1-0.3,0.1-0.4,0.2c-0.1,0.1-0.2,0.1-0.3,0.2L265.3,186.8z"/>
	<path d="M271.6,180.6c0.3-0.5,0.6-0.9,1.1-1.3c0.5-0.4,1-0.8,1.6-1.1c0.5-0.3,1-0.5,1.4-0.5s0.8,0,1.1,0.2c0.3,0.1,0.6,0.3,0.8,0.6
		c0.2,0.3,0.4,0.5,0.6,0.8c0.3,0.6,0.7,1.3,1,1.9c0.3,0.6,0.6,1.2,0.9,1.7c0.2,0.4,0.4,0.8,0.7,1.1c0.2,0.3,0.5,0.6,0.7,0.9
		l-0.9,0.5l-0.9-0.9h-0.1c0,0.2-0.1,0.4-0.1,0.6c-0.1,0.2-0.2,0.4-0.3,0.7c-0.1,0.2-0.3,0.4-0.5,0.7c-0.2,0.2-0.5,0.4-0.8,0.6
		c-0.3,0.2-0.7,0.3-1,0.4c-0.3,0.1-0.7,0-1,0c-0.3-0.1-0.6-0.2-0.9-0.4s-0.5-0.5-0.7-0.8c-0.3-0.5-0.4-0.9-0.4-1.3
		c0-0.4,0.2-0.8,0.4-1.2c0.2-0.4,0.6-0.7,1-1.1c0.4-0.3,0.9-0.7,1.5-1c0.1-0.1,0.3-0.2,0.4-0.2c0.1-0.1,0.3-0.1,0.4-0.2
		c-0.1-0.3-0.3-0.6-0.4-0.9c-0.3-0.6-0.7-0.9-1-1c-0.4-0.1-0.8,0-1.5,0.3c-0.2,0.1-0.4,0.2-0.6,0.4c-0.2,0.1-0.4,0.3-0.6,0.5
		s-0.4,0.3-0.5,0.5c-0.2,0.2-0.3,0.3-0.4,0.5L271.6,180.6z M277.3,185.7c0.3-0.2,0.5-0.3,0.7-0.6c0.2-0.2,0.3-0.4,0.4-0.6
		c0.1-0.2,0.2-0.4,0.2-0.6c0-0.2,0-0.4,0-0.6l-0.7-1.3c-0.1,0.1-0.3,0.1-0.5,0.2c-0.2,0.1-0.3,0.2-0.5,0.2c-0.3,0.2-0.6,0.4-0.9,0.6
		c-0.3,0.2-0.5,0.4-0.7,0.7c-0.2,0.2-0.3,0.5-0.3,0.7s0,0.5,0.1,0.8c0.2,0.4,0.5,0.6,0.9,0.7C276.5,186,276.9,186,277.3,185.7z"/>
	<path d="M283.6,179l-0.7,0.4l1.9,3.6l-1.3,0.7l-4.3-7.9l1.3-0.7l2,3.6l0.6-0.6l0.7-4.7l1.4-0.8l-0.7,4.5l-0.4,0.9l1.2,0.2l4.6,2.1
		l-1.6,0.9L283.6,179z"/>
	<path d="M287,172.2c0.3-0.5,0.6-0.9,1.1-1.3c0.5-0.4,1-0.8,1.6-1.1c0.5-0.3,1-0.5,1.4-0.5s0.8,0,1.1,0.2s0.6,0.3,0.8,0.6
		c0.2,0.3,0.4,0.5,0.6,0.8c0.3,0.6,0.7,1.3,1,1.9c0.3,0.6,0.6,1.2,0.9,1.7c0.2,0.4,0.4,0.8,0.7,1.1c0.2,0.3,0.5,0.6,0.7,0.9L296,177
		l-0.9-0.9H295c0,0.2-0.1,0.4-0.1,0.6c-0.1,0.2-0.2,0.4-0.3,0.7c-0.1,0.2-0.3,0.4-0.5,0.7c-0.2,0.2-0.5,0.4-0.8,0.6
		c-0.3,0.2-0.7,0.3-1,0.4c-0.3,0.1-0.7,0-1,0c-0.3-0.1-0.6-0.2-0.9-0.4s-0.5-0.5-0.7-0.8c-0.3-0.5-0.4-0.9-0.4-1.3
		c0-0.4,0.2-0.8,0.4-1.2c0.2-0.4,0.6-0.7,1-1.1c0.4-0.3,0.9-0.7,1.5-1c0.1-0.1,0.3-0.2,0.4-0.2s0.3-0.1,0.4-0.2
		c-0.1-0.3-0.3-0.6-0.4-0.9c-0.3-0.6-0.7-0.9-1-1c-0.4-0.1-0.8,0-1.5,0.3c-0.2,0.1-0.4,0.2-0.6,0.4c-0.2,0.1-0.4,0.3-0.6,0.5
		s-0.4,0.3-0.5,0.5c-0.2,0.2-0.3,0.3-0.4,0.5L287,172.2z M292.7,177.3c0.3-0.2,0.5-0.3,0.7-0.6c0.2-0.2,0.3-0.4,0.4-0.6
		c0.1-0.2,0.2-0.4,0.2-0.6c0-0.2,0-0.4,0-0.6l-0.7-1.3c-0.1,0.1-0.3,0.1-0.5,0.2c-0.2,0.1-0.3,0.2-0.5,0.2c-0.3,0.2-0.6,0.4-0.9,0.6
		c-0.3,0.2-0.5,0.4-0.7,0.7c-0.2,0.2-0.3,0.5-0.3,0.7c0,0.3,0,0.5,0.1,0.8c0.2,0.4,0.5,0.6,0.9,0.7
		C291.9,177.6,292.3,177.6,292.7,177.3z"/>
	<path d="M297.8,171.3l-0.6-1l1.1-0.6c0.2-0.1,0.4-0.2,0.5-0.4c0.2-0.2,0.3-0.3,0.4-0.5s0.1-0.4,0.1-0.6c0-0.2,0-0.4-0.1-0.6
		c-0.2-0.4-0.5-0.6-0.9-0.6s-0.8,0.1-1.4,0.4c-0.4,0.2-0.8,0.5-1,0.8c-0.3,0.3-0.5,0.6-0.6,0.8l-0.9-0.8c0.2-0.4,0.5-0.7,0.9-1.1
		c0.4-0.4,0.8-0.7,1.4-1c1.7-1,3-0.8,3.7,0.5c0.2,0.4,0.3,0.8,0.2,1.3c0,0.5-0.2,0.9-0.6,1.3v0.1c0.7-0.2,1.2-0.2,1.7,0
		c0.4,0.2,0.8,0.6,1.1,1.1c0.2,0.3,0.3,0.7,0.3,1c0,0.4-0.1,0.7-0.2,1.1c-0.2,0.4-0.4,0.7-0.8,1.1c-0.4,0.3-0.8,0.7-1.3,1
		s-1,0.5-1.4,0.6s-0.8,0.2-1.1,0.2l-0.2-1.2c0.3,0,0.7-0.1,1-0.2c0.4-0.1,0.8-0.3,1.2-0.5c0.6-0.4,1.1-0.7,1.3-1.1
		c0.2-0.4,0.2-0.8,0-1.3c-0.2-0.4-0.5-0.6-1-0.6c-0.4,0-1,0.1-1.7,0.5L297.8,171.3z"/>
	<path d="M310.2,164.4l-0.7,0.4l1.9,3.6l-1.3,0.7l-4.3-7.9l1.3-0.7l2,3.6l0.6-0.6l0.7-4.7l1.4-0.8l-0.7,4.5l-0.4,0.9l1.2,0.2
		l4.6,2.1l-1.6,0.9L310.2,164.4z"/>
	<path d="M315.1,161.3c-0.7-1.3-1-2.5-0.8-3.6c0.2-1,0.9-1.9,2-2.5c0.6-0.3,1.2-0.5,1.7-0.6c0.5,0,1.1,0,1.5,0.3
		c0.5,0.2,0.9,0.5,1.3,1c0.4,0.4,0.8,1,1.1,1.6c0.7,1.3,1,2.5,0.8,3.6c-0.2,1-0.9,1.9-2,2.5c-0.6,0.3-1.2,0.5-1.7,0.5
		s-1.1,0-1.5-0.3c-0.5-0.2-0.9-0.5-1.3-1C315.8,162.4,315.5,161.9,315.1,161.3z M316.4,160.5c0.2,0.4,0.5,0.8,0.8,1.1
		s0.6,0.6,0.9,0.8s0.7,0.3,1,0.3c0.4,0,0.7-0.1,1.1-0.3c1.4-0.8,1.6-2.2,0.5-4.2c-0.2-0.4-0.5-0.8-0.8-1.1s-0.6-0.6-0.9-0.8
		s-0.7-0.3-1-0.3c-0.4,0-0.7,0.1-1.1,0.3C315.5,157.1,315.3,158.5,316.4,160.5z"/>
	<path d="M334.3,158.5l-0.9,0.5l-1.3-1.9l-5.9,3.2l0.9,2.1l-0.9,0.5l-1.7-3.1l0.9-0.5c0-0.2,0-0.4,0-0.8c0-0.4-0.1-0.9-0.3-1.5
		c-0.2-0.6-0.4-1.4-0.8-2.2c-0.3-0.9-0.8-1.9-1.4-3l4.8-2.6l3.7,6.8l1.2-0.6L334.3,158.5z M330.2,156.7l-3.1-5.7l-2.4,1.3
		c0.2,0.5,0.4,1,0.7,1.5c0.2,0.6,0.4,1.1,0.6,1.7c0.2,0.6,0.3,1.1,0.5,1.7s0.2,1,0.2,1.5L330.2,156.7z"/>
	<path d="M332.1,152c-0.7-1.3-1-2.5-0.8-3.6c0.2-1,0.9-1.9,2-2.5c0.6-0.3,1.2-0.5,1.7-0.6c0.5,0,1.1,0,1.5,0.3
		c0.5,0.2,0.9,0.5,1.3,1c0.4,0.4,0.8,1,1.1,1.6c0.7,1.3,1,2.5,0.8,3.6c-0.2,1-0.9,1.9-2,2.5c-0.6,0.3-1.2,0.5-1.7,0.5
		s-1.1,0-1.5-0.3s-0.9-0.5-1.3-1C332.9,153.1,332.5,152.6,332.1,152z M333.4,151.2c0.2,0.4,0.5,0.8,0.8,1.1s0.6,0.6,0.9,0.8
		s0.7,0.3,1,0.3c0.4,0,0.7-0.1,1.1-0.3c1.4-0.8,1.6-2.2,0.5-4.2c-0.2-0.4-0.5-0.8-0.8-1.1s-0.6-0.6-0.9-0.8s-0.7-0.3-1-0.3
		c-0.4,0-0.7,0.1-1.1,0.3C332.5,147.8,332.3,149.2,333.4,151.2z"/>
	<path d="M338.9,143.2c0.4-0.2,0.7-0.5,1.1-0.7c0.4-0.3,0.9-0.5,1.5-0.9c1-0.6,1.9-0.8,2.5-0.7s1.1,0.4,1.5,1.1
		c0.2,0.4,0.3,0.8,0.3,1.3s-0.2,0.9-0.6,1.4v0.1c0.7-0.2,1.2-0.2,1.7-0.1c0.4,0.2,0.8,0.5,1.1,1.1c0.4,0.8,0.5,1.6,0.1,2.3
		s-1.2,1.4-2.4,2c-0.4,0.2-0.9,0.5-1.3,0.6c-0.4,0.2-0.8,0.4-1.2,0.5L338.9,143.2z M343.5,144.9c0.2-0.1,0.4-0.2,0.5-0.4
		s0.3-0.3,0.3-0.5c0.1-0.2,0.1-0.4,0.1-0.6c0-0.2,0-0.4-0.1-0.6c-0.2-0.4-0.5-0.6-0.9-0.7c-0.3,0-0.8,0.1-1.5,0.5
		c-0.3,0.2-0.6,0.3-0.8,0.5c-0.2,0.1-0.4,0.2-0.5,0.3l1.3,2.3L343.5,144.9z M343.9,149.3c0.2-0.1,0.4-0.2,0.6-0.3s0.4-0.2,0.7-0.4
		c0.7-0.4,1.2-0.8,1.4-1.2c0.2-0.4,0.2-0.8,0-1.3c-0.2-0.4-0.5-0.6-0.9-0.7c-0.4-0.1-1,0.1-1.7,0.5l-1.4,0.8L343.9,149.3z"/>
</g>
<g>
	<path d="M755.9,168.8l-0.8-0.2l-1.4,5.7l-1.4-0.4l3-12.2l1.5,0.4l-1.4,5.7l0.8-0.1l5.5-4.4l1.7,0.4L758,168l-0.9,0.4l0.7,0.9
		l3.1,6.8l-1.8-0.5L755.9,168.8z"/>
	<path d="M763.4,172c0.4-1.5,1-2.5,1.8-3.2c0.9-0.6,1.9-0.8,3.1-0.5c0.7,0.2,1.2,0.4,1.6,0.7s0.8,0.7,1,1.2s0.3,1,0.3,1.6
		s-0.1,1.2-0.2,1.9c-0.4,1.5-1,2.5-1.8,3.2c-0.9,0.6-1.9,0.8-3.1,0.5c-0.7-0.2-1.2-0.4-1.6-0.7s-0.8-0.7-1-1.2s-0.3-1-0.3-1.6
		S763.2,172.7,763.4,172z M764.8,172.4c-0.1,0.4-0.2,0.9-0.2,1.3c0,0.4,0,0.8,0.2,1.2c0.1,0.4,0.3,0.7,0.6,0.9
		c0.3,0.3,0.6,0.4,1,0.5c1.6,0.4,2.6-0.5,3.2-2.8c0.1-0.5,0.2-0.9,0.2-1.3c0-0.4,0-0.8-0.1-1.2s-0.3-0.7-0.6-0.9
		c-0.3-0.3-0.6-0.4-1-0.5C766.5,169.2,765.4,170.1,764.8,172.4z"/>
	<path d="M779.3,183l-0.9-0.2l0.3-2.3l-6.6-1.6l-0.8,2.2l-0.9-0.2l0.9-3.4l1,0.3c0.1-0.1,0.3-0.3,0.5-0.6s0.5-0.7,0.8-1.3
		s0.6-1.3,0.9-2.1c0.3-0.9,0.7-1.9,1-3.1l5.3,1.3l-1.9,7.5l1.3,0.3L779.3,183z M777.5,178.9l1.6-6.3l-2.6-0.7
		c-0.1,0.5-0.3,1-0.5,1.6s-0.4,1.1-0.7,1.7s-0.5,1.1-0.8,1.5s-0.6,0.9-0.9,1.2L777.5,178.9z"/>
	<path d="M784.4,176.1c0.3,0,0.6,0.1,0.8,0.1c0.3,0,0.5,0.1,0.7,0.2c0.6,0.1,1.1,0.3,1.4,0.6c0.4,0.2,0.7,0.5,0.8,0.8
		c0.2,0.3,0.3,0.6,0.3,1c0,0.3,0,0.7-0.1,1.1c-0.3,1.1-0.7,1.8-1.4,2.1s-1.7,0.3-3,0c-0.7-0.2-1.5-0.4-2.3-0.7l2.2-8.7l1.4,0.3
		L784.4,176.1z M783.3,180.3c0.4,0.2,0.8,0.3,1.2,0.4c0.7,0.2,1.3,0.2,1.6,0c0.4-0.2,0.6-0.6,0.7-1.1c0.1-0.5,0.1-0.9-0.1-1.3
		c-0.2-0.4-0.7-0.6-1.4-0.8c-0.2-0.1-0.4-0.1-0.7-0.1s-0.5-0.1-0.7-0.1L783.3,180.3z M791.2,174.3l1.4,0.3l-2.2,8.7L789,183
		L791.2,174.3z"/>
	<path d="M804.5,181.4l0.3-1.1h-0.1l-1,0.9l-5.2,4.2l-0.8-0.2l2.2-8.7l1.4,0.3l-1.3,5.3l-0.3,1h0.1l0.9-0.9l5.2-4.3l0.8,0.2
		l-2.2,8.7l-1.4-0.3L804.5,181.4z"/>
	<path d="M809.2,183.8l0.3-1.1l1.2,0.3c0.2,0.1,0.4,0.1,0.6,0.1c0.2,0,0.4-0.1,0.6-0.2c0.2-0.1,0.4-0.2,0.5-0.3s0.2-0.3,0.3-0.5
		c0.1-0.4,0-0.8-0.2-1.1c-0.3-0.3-0.7-0.5-1.3-0.6c-0.5-0.1-0.9-0.1-1.3-0.1c-0.4,0-0.7,0.1-1,0.2l-0.1-1.2c0.4-0.1,0.8-0.2,1.4-0.2
		c0.5,0,1.1,0,1.7,0.2c1.9,0.5,2.7,1.4,2.4,2.9c-0.1,0.4-0.3,0.8-0.7,1.1s-0.8,0.5-1.3,0.6v0.1c0.7,0.3,1.1,0.7,1.3,1.1
		c0.2,0.4,0.2,0.9,0.1,1.5c-0.1,0.4-0.3,0.7-0.5,1s-0.5,0.5-0.9,0.7s-0.8,0.2-1.3,0.3c-0.5,0-1,0-1.6-0.2c-0.6-0.1-1.1-0.3-1.4-0.5
		c-0.4-0.2-0.7-0.4-1-0.6l0.7-1.1c0.2,0.2,0.5,0.4,0.9,0.6c0.4,0.2,0.8,0.3,1.2,0.4c0.7,0.2,1.3,0.2,1.7,0s0.7-0.5,0.8-1
		c0.1-0.4,0-0.8-0.3-1.1s-0.8-0.6-1.6-0.8L809.2,183.8z"/>
	<path d="M824.7,185.7l0.1,1.7h0.1l0.7-1.5l3.9-5.8l1.5,0.4l-5.1,7.2c-0.5,0.8-1,1.4-1.3,1.9c-0.4,0.5-0.7,0.9-1.1,1.2
		c-0.3,0.3-0.7,0.5-1,0.5c-0.3,0.1-0.7,0.1-1.1,0c-0.4-0.1-0.7-0.2-0.9-0.3s-0.4-0.3-0.6-0.4l0.7-1.1c0.2,0.2,0.4,0.3,0.6,0.4
		c0.2,0.1,0.4,0.1,0.5,0.2c0.3,0.1,0.6,0,0.9-0.3s0.6-0.7,0.9-1.3l-2.3-10.2l1.7,0.4L824.7,185.7z"/>
	<path d="M839.3,183.8l-5.6-1.4l-2.7,10.9l-1.5-0.4l3-12.2l8.5,2.1l-3,12.2l-1.4-0.4L839.3,183.8z"/>
	<path d="M850.2,200.5l-1-0.2l0.3-2.3l-8.6-2.1l-0.8,2.2l-1-0.3l0.9-3.5l1.2,0.3c0.1-0.1,0.3-0.4,0.6-0.8c0.3-0.4,0.7-1.1,1.1-1.9
		c0.4-0.8,0.8-1.9,1.3-3.2s0.9-2.8,1.4-4.7l6.5,1.6l-2.7,10.9l1.6,0.4L850.2,200.5z M848,196.2l2.4-9.6l-3.7-0.9
		c-0.4,1.3-0.7,2.4-1.1,3.4s-0.7,1.9-1,2.6s-0.7,1.4-1,1.9s-0.6,1-0.9,1.3L848,196.2z"/>
</g>
<g>
	<path d="M59.1,423.5h-5.8v11.3h-1.5v-12.6h8.8v12.6h-1.5V423.5z"/>
	<path d="M63.6,422.3c0.5-0.1,0.9-0.2,1.5-0.2s1-0.1,1.6-0.1s1.1,0.1,1.7,0.2s1.1,0.3,1.6,0.6s0.8,0.7,1.1,1.2s0.4,1.1,0.4,1.9
		s-0.1,1.4-0.4,1.9s-0.6,1-1.1,1.3s-1,0.6-1.6,0.7s-1.2,0.2-1.8,0.2c-0.1,0-0.2,0-0.3,0s-0.3,0-0.4,0s-0.3,0-0.4,0s-0.2,0-0.3,0v4.8
		h-1.5L63.6,422.3L63.6,422.3z M66.7,423.3c-0.3,0-0.6,0-0.9,0s-0.5,0-0.7,0.1v5.2c0.1,0,0.2,0,0.3,0c0.1,0,0.3,0,0.4,0s0.3,0,0.4,0
		s0.2,0,0.3,0c0.4,0,0.8,0,1.2-0.1c0.4-0.1,0.8-0.2,1.1-0.4c0.3-0.2,0.6-0.5,0.8-0.9c0.2-0.4,0.3-0.8,0.3-1.4c0-0.5-0.1-0.9-0.3-1.2
		s-0.4-0.6-0.7-0.8s-0.6-0.3-1-0.4C67.5,423.3,67.1,423.3,66.7,423.3z"/>
	<path d="M73.2,428.4c0-2.1,0.4-3.7,1.3-4.8c0.9-1.1,2.2-1.7,3.8-1.7c0.9,0,1.7,0.2,2.3,0.5s1.2,0.8,1.6,1.3
		c0.4,0.6,0.7,1.3,0.9,2.1c0.2,0.8,0.3,1.7,0.3,2.7c0,2.1-0.4,3.7-1.3,4.8c-0.9,1.1-2.2,1.7-3.8,1.7c-0.9,0-1.6-0.2-2.3-0.5
		c-0.6-0.3-1.2-0.8-1.6-1.3s-0.7-1.3-0.9-2.1C73.3,430.3,73.2,429.4,73.2,428.4z M74.8,428.4c0,0.7,0.1,1.4,0.2,2s0.4,1.2,0.6,1.6
		s0.7,0.9,1.1,1.1s1,0.4,1.6,0.4c1.1,0,2-0.4,2.6-1.3c0.6-0.8,1-2.2,1-3.9c0-0.7-0.1-1.3-0.2-2c-0.1-0.6-0.4-1.2-0.7-1.7
		c-0.3-0.5-0.7-0.8-1.1-1.1c-0.4-0.3-1-0.4-1.6-0.4c-1.1,0-2,0.4-2.6,1.3C75.1,425.4,74.8,426.7,74.8,428.4z"/>
	<path d="M93.7,426.2l0.1-1.4h-0.1l-0.8,1.5l-6.1,8.5H86v-12.6h1.5v8.6l-0.1,1.4h0.1l0.8-1.5l6.1-8.6h0.9v12.6h-1.5v-8.5H93.7z"/>
	<path d="M99.3,428.8v-1.3h0.3c0.1,0,0.2,0,0.4,0s0.3,0,0.5,0s0.3,0,0.5,0s0.3,0,0.4,0c0.3-0.1,0.6-0.1,0.9-0.3
		c0.3-0.1,0.5-0.3,0.7-0.4c0.2-0.2,0.4-0.4,0.5-0.6s0.2-0.5,0.2-0.8c0-0.4-0.1-0.7-0.2-1s-0.3-0.5-0.5-0.6c-0.2-0.2-0.5-0.3-0.8-0.3
		c-0.3-0.1-0.6-0.1-1-0.1c-0.6,0-1.2,0-1.7,0.1s-0.8,0.2-1.1,0.3l-0.4-1.2c0.2-0.1,0.7-0.3,1.3-0.4c0.6-0.1,1.3-0.2,2.1-0.2
		c0.5,0,1,0.1,1.4,0.2c0.5,0.1,0.9,0.3,1.2,0.5s0.7,0.6,0.9,1c0.2,0.4,0.3,0.9,0.3,1.5s-0.2,1.2-0.6,1.7s-1,0.9-1.8,1.2v0.1
		c0.8,0.1,1.5,0.4,2,1c0.5,0.5,0.7,1.2,0.7,2.1c0,0.7-0.1,1.3-0.4,1.8s-0.6,0.9-1.1,1.2s-0.9,0.6-1.5,0.7c-0.6,0.2-1.1,0.2-1.7,0.2
		c-0.8,0-1.4,0-2-0.1s-0.9-0.2-1.3-0.3l0.4-1.3c0.3,0.1,0.7,0.2,1.2,0.3c0.5,0.1,1.1,0.1,1.8,0.1c0.4,0,0.7-0.1,1.1-0.2
		s0.7-0.3,1-0.5s0.5-0.5,0.7-0.8s0.3-0.7,0.3-1.1c0-0.8-0.3-1.3-0.8-1.7c-0.5-0.4-1.2-0.6-2.1-0.6c-0.1,0-0.3,0-0.4,0s-0.3,0-0.4,0
		h-1V428.8z"/>
	<path d="M115.6,425c0,0.3,0,0.6-0.1,0.9s-0.2,0.6-0.4,0.9s-0.4,0.5-0.7,0.6s-0.7,0.3-1.1,0.4v0.1c0.4,0.1,0.7,0.2,1,0.4
		c0.3,0.2,0.6,0.4,0.9,0.7s0.5,0.6,0.6,0.9s0.2,0.8,0.2,1.3c0,0.7-0.1,1.2-0.4,1.7s-0.6,0.9-1.1,1.2s-0.9,0.5-1.5,0.7
		c-0.6,0.1-1.1,0.2-1.7,0.2c-0.2,0-0.4,0-0.7,0s-0.6,0-0.9,0s-0.6,0-0.9-0.1s-0.6-0.1-0.8-0.1v-12.3c0.4-0.1,1-0.1,1.6-0.2
		c0.6,0,1.2-0.1,1.9-0.1c0.5,0,0.9,0,1.4,0.1s0.9,0.2,1.3,0.4c0.4,0.2,0.7,0.5,1,0.9S115.6,424.4,115.6,425z M110.5,427.5
		c0.2,0,0.4,0,0.7,0c0.3,0,0.5,0,0.7-0.1c0.3-0.1,0.6-0.2,0.8-0.3c0.3-0.1,0.5-0.2,0.7-0.4c0.2-0.2,0.4-0.4,0.5-0.7
		c0.1-0.2,0.2-0.5,0.2-0.8c0-0.4-0.1-0.7-0.2-0.9c-0.1-0.2-0.3-0.4-0.6-0.6c-0.3-0.2-0.5-0.3-0.9-0.3c-0.3-0.1-0.7-0.1-1-0.1
		c-0.4,0-0.8,0-1.1,0c-0.3,0-0.6,0-0.7,0.1v4L110.5,427.5L110.5,427.5z M111.4,433.6c0.4,0,0.8,0,1.1-0.1c0.4-0.1,0.7-0.2,1-0.4
		c0.3-0.2,0.5-0.4,0.7-0.7c0.2-0.3,0.2-0.6,0.2-1c0-0.5-0.1-0.9-0.3-1.3c-0.2-0.4-0.5-0.6-0.8-0.8c-0.3-0.2-0.7-0.3-1.1-0.3
		c-0.4-0.1-0.8-0.1-1.2-0.1h-1.6v4.7c0.1,0,0.2,0,0.4,0.1s0.3,0,0.5,0s0.4,0,0.6,0S111.3,433.6,111.4,433.6z"/>
	<path d="M118,428.4c0-2.1,0.4-3.7,1.3-4.8c0.9-1.1,2.2-1.7,3.8-1.7c0.9,0,1.7,0.2,2.3,0.5s1.2,0.8,1.6,1.3c0.4,0.6,0.7,1.3,0.9,2.1
		c0.2,0.8,0.3,1.7,0.3,2.7c0,2.1-0.4,3.7-1.3,4.8c-0.9,1.1-2.2,1.7-3.8,1.7c-0.9,0-1.6-0.2-2.3-0.5c-0.6-0.3-1.2-0.8-1.6-1.3
		s-0.7-1.3-0.9-2.1S118,429.4,118,428.4z M119.6,428.4c0,0.7,0.1,1.4,0.2,2s0.4,1.2,0.6,1.6s0.7,0.9,1.1,1.1s1,0.4,1.6,0.4
		c1.1,0,2-0.4,2.6-1.3c0.6-0.8,1-2.2,1-3.9c0-0.7-0.1-1.3-0.2-2c-0.1-0.6-0.4-1.2-0.7-1.7c-0.3-0.5-0.7-0.8-1.1-1.1
		c-0.4-0.3-1-0.4-1.6-0.4c-1.1,0-2,0.4-2.6,1.3C119.9,425.4,119.6,426.7,119.6,428.4z"/>
	<path d="M140.9,437.1h-1l-0.3-2.3h-8.8l-0.3,2.3h-1v-3.7h1.3c0.1-0.1,0.2-0.4,0.4-0.9s0.4-1.2,0.6-2.1c0.2-0.9,0.4-2,0.5-3.4
		c0.2-1.4,0.2-3,0.2-4.9h6.7v11.3h1.6v3.7H140.9z M137.7,433.4v-9.9h-3.8c0,1.3-0.1,2.5-0.2,3.6c-0.1,1.1-0.2,2-0.4,2.8
		s-0.3,1.5-0.5,2.1s-0.4,1.1-0.6,1.5h5.5V433.4z"/>
	<path d="M150.6,426.2l0.1-1.4h-0.1l-0.8,1.5l-6.1,8.5h-0.9v-12.6h1.5v8.6l-0.1,1.4h0.1l0.8-1.5l6.1-8.6h0.9v12.6h-1.5V426.2z"/>
	<path d="M163.3,423.5h-3.9v11.3h-1.5v-11.3H154v-1.3h9.3L163.3,423.5L163.3,423.5z"/>
	<path d="M165.1,422.1h6.9v1.3h-5.4v4.1h4.9v1.3h-4.9v4.5h5.5v1.3h-7V422.1z"/>
	<path d="M181.5,423.5h-3.8c-0.1,2.4-0.3,4.4-0.5,6s-0.5,2.8-0.9,3.7c-0.3,0.6-0.6,1-0.9,1.3c-0.4,0.3-0.7,0.4-1.2,0.4
		c-0.2,0-0.4,0-0.6,0s-0.3-0.1-0.4-0.1l0.2-1.3c0.1,0,0.2,0.1,0.4,0.1s0.4-0.1,0.6-0.2c0.2-0.1,0.4-0.4,0.6-0.7
		c0.2-0.3,0.3-0.8,0.5-1.3s0.3-1.2,0.4-2.1c0.1-0.8,0.2-1.8,0.3-3c0.1-1.1,0.1-2.5,0.2-4h6.7v12.6h-1.5v-11.4H181.5z"/>
	<path d="M186,422.1h1.5v4.9c0.1,0,0.2,0,0.3,0s0.3,0,0.5,0s0.3,0,0.5,0s0.3,0,0.5,0c0.6,0,1.1,0.1,1.7,0.2c0.5,0.1,1,0.3,1.5,0.6
		s0.8,0.7,1,1.2s0.4,1.1,0.4,1.8c0,0.7-0.1,1.3-0.4,1.9s-0.6,1-1,1.3s-1,0.6-1.6,0.8c-0.6,0.2-1.2,0.3-1.9,0.3c-0.2,0-0.4,0-0.6,0
		s-0.5,0-0.8,0s-0.5,0-0.8-0.1s-0.5-0.1-0.7-0.1L186,422.1L186,422.1z M189.2,433.6c0.4,0,0.8-0.1,1.2-0.2s0.7-0.3,1-0.5
		s0.5-0.5,0.7-0.9s0.2-0.8,0.2-1.2c0-0.5-0.1-0.9-0.3-1.3s-0.4-0.6-0.7-0.8s-0.6-0.3-1-0.4s-0.8-0.1-1.2-0.1c-0.1,0-0.2,0-0.4,0
		s-0.3,0-0.5,0s-0.3,0-0.4,0.1c-0.1,0-0.2,0-0.3,0.1v5.1c0.2,0,0.4,0.1,0.7,0.1S188.9,433.6,189.2,433.6z"/>
</g>
<g>
	<path d="M515,437.1h-1l-0.3-2.3h-8.8l-0.3,2.3h-1v-3.7h1.3c0.1-0.1,0.2-0.4,0.4-0.9s0.4-1.2,0.6-2.1s0.4-2,0.5-3.4
		c0.2-1.4,0.2-3,0.2-4.9h6.7v11.3h1.6L515,437.1L515,437.1z M511.9,433.4v-9.9h-3.8c0,1.3-0.1,2.5-0.2,3.6s-0.2,2-0.4,2.8
		s-0.3,1.5-0.5,2.1s-0.4,1.1-0.6,1.5h5.5V433.4z"/>
	<path d="M524.8,426.2l0.1-1.4h-0.1l-0.8,1.5l-6.1,8.5H517v-12.6h1.5v8.6l-0.1,1.4h0.1l0.8-1.5l6.1-8.6h0.9v12.6h-1.5V426.2z"/>
	<path d="M537.4,434.2c-0.4,0.3-0.8,0.5-1.4,0.6c-0.6,0.1-1.1,0.2-1.8,0.2c-0.8,0-1.5-0.1-2.1-0.4c-0.7-0.3-1.2-0.7-1.7-1.2
		s-0.9-1.2-1.2-2s-0.4-1.8-0.4-2.9c0-1.2,0.2-2.2,0.5-3s0.7-1.5,1.3-2s1.1-0.9,1.8-1.1s1.3-0.4,2-0.4s1.3,0,1.8,0.1s0.8,0.2,1.2,0.3
		l-0.4,1.3c-0.6-0.3-1.4-0.4-2.5-0.4c-0.5,0-1,0.1-1.5,0.3s-0.9,0.5-1.3,0.9c-0.4,0.4-0.7,0.9-0.9,1.6s-0.3,1.5-0.3,2.4
		s0.1,1.6,0.3,2.3c0.2,0.6,0.5,1.2,0.9,1.6s0.8,0.8,1.3,1s1.1,0.3,1.7,0.3c0.5,0,1-0.1,1.4-0.2s0.7-0.2,1-0.4L537.4,434.2z"/>
	<path d="M547.7,423.5h-3.9v11.3h-1.5v-11.3h-3.9v-1.3h9.3L547.7,423.5L547.7,423.5z"/>
	<path d="M549.6,422.3c0.5-0.1,0.9-0.2,1.5-0.2s1-0.1,1.6-0.1s1.1,0.1,1.7,0.2c0.6,0.1,1.1,0.3,1.6,0.6s0.8,0.7,1.1,1.2
		s0.4,1.1,0.4,1.9s-0.1,1.4-0.4,1.9c-0.3,0.5-0.6,1-1.1,1.3s-1,0.6-1.6,0.7s-1.2,0.2-1.8,0.2c-0.1,0-0.2,0-0.3,0s-0.3,0-0.4,0
		s-0.3,0-0.4,0s-0.2,0-0.3,0v4.8h-1.5L549.6,422.3L549.6,422.3z M552.7,423.3c-0.3,0-0.6,0-0.9,0c-0.3,0-0.5,0-0.7,0.1v5.2
		c0.1,0,0.2,0,0.3,0s0.3,0,0.4,0s0.3,0,0.4,0c0.1,0,0.2,0,0.3,0c0.4,0,0.8,0,1.2-0.1s0.8-0.2,1.1-0.4c0.3-0.2,0.6-0.5,0.8-0.9
		s0.3-0.8,0.3-1.4c0-0.5-0.1-0.9-0.3-1.2s-0.4-0.6-0.7-0.8s-0.6-0.3-1-0.4C553.4,423.3,553.1,423.3,552.7,423.3z"/>
	<path d="M567.4,426.2l0.1-1.4h-0.1l-0.8,1.5l-6.1,8.5h-0.9v-12.6h1.5v8.6l-0.1,1.4h0.1l0.8-1.5l6.1-8.6h0.9v12.6h-1.5V426.2z"/>
	<path d="M571.9,422.1h6.8v1.3h-5.3v3.8c0.2,0,0.5-0.1,0.8-0.1s0.6-0.1,0.9-0.1c0.6,0,1.2,0.1,1.7,0.2c0.6,0.1,1,0.3,1.5,0.6
		s0.8,0.7,1,1.1s0.4,1.1,0.4,1.8c0,0.7-0.1,1.3-0.4,1.9s-0.6,0.9-1,1.3c-0.4,0.3-0.9,0.6-1.5,0.7c-0.6,0.2-1.1,0.2-1.8,0.2
		c-0.2,0-0.4,0-0.7,0s-0.5,0-0.8,0s-0.6,0-0.8-0.1s-0.5-0.1-0.7-0.1v-12.5H571.9z M575.2,433.6c0.4,0,0.7-0.1,1.1-0.2
		c0.3-0.1,0.7-0.3,0.9-0.5s0.5-0.5,0.6-0.8c0.2-0.3,0.2-0.7,0.2-1.1c0-0.6-0.1-1-0.3-1.3s-0.4-0.6-0.7-0.8c-0.3-0.2-0.6-0.3-1-0.4
		s-0.8-0.1-1.2-0.1c-0.1,0-0.2,0-0.4,0s-0.3,0-0.4,0c-0.1,0-0.3,0-0.4,0s-0.2,0-0.3,0v5c0.1,0,0.2,0,0.3,0.1s0.3,0,0.5,0
		s0.3,0,0.5,0C574.9,433.6,575,433.6,575.2,433.6z"/>
	<path d="M581.8,422.1h1.5v4.9c0.1,0,0.2,0,0.3,0s0.3,0,0.5,0s0.3,0,0.5,0s0.3,0,0.5,0c0.6,0,1.1,0.1,1.7,0.2c0.5,0.1,1,0.3,1.5,0.6
		s0.8,0.7,1,1.2s0.4,1.1,0.4,1.8c0,0.7-0.1,1.3-0.4,1.9s-0.6,1-1,1.3s-1,0.6-1.6,0.8c-0.6,0.2-1.2,0.3-1.9,0.3c-0.2,0-0.4,0-0.6,0
		s-0.5,0-0.8,0s-0.5,0-0.8-0.1s-0.5-0.1-0.7-0.1v-12.8H581.8z M584.9,433.6c0.4,0,0.8-0.1,1.2-0.2s0.7-0.3,1-0.5s0.5-0.5,0.7-0.9
		s0.2-0.8,0.2-1.2c0-0.5-0.1-0.9-0.3-1.3s-0.4-0.6-0.7-0.8s-0.6-0.3-1-0.4s-0.8-0.1-1.2-0.1c-0.1,0-0.2,0-0.4,0s-0.3,0-0.5,0
		s-0.3,0-0.4,0.1c-0.1,0-0.2,0-0.3,0.1v5.1c0.2,0,0.4,0.1,0.7,0.1S584.6,433.6,584.9,433.6z"/>
	<path d="M593.3,427.6h2.2c0.1-1.8,0.6-3.2,1.4-4.2c0.8-1,2-1.5,3.5-1.5c0.9,0,1.6,0.2,2.3,0.5c0.6,0.3,1.1,0.8,1.5,1.3
		c0.4,0.6,0.7,1.3,0.8,2.1c0.2,0.8,0.3,1.7,0.3,2.7c0,2.1-0.4,3.7-1.2,4.8c-0.8,1.1-2,1.7-3.7,1.7c-0.8,0-1.5-0.1-2.2-0.4
		c-0.6-0.3-1.1-0.7-1.5-1.2s-0.7-1.2-0.9-1.9s-0.3-1.6-0.4-2.5h-2.2v5.8h-1.5v-12.6h1.5v5.4H593.3z M597.1,428.4
		c0,0.7,0.1,1.4,0.2,2c0.1,0.6,0.3,1.2,0.6,1.6s0.6,0.9,1,1.1s1,0.4,1.6,0.4c1.1,0,1.9-0.4,2.5-1.3c0.5-0.8,0.8-2.1,0.8-3.9
		c0-0.7-0.1-1.3-0.2-2c-0.1-0.6-0.3-1.2-0.5-1.7c-0.3-0.5-0.6-0.8-1-1.1c-0.4-0.3-0.9-0.4-1.6-0.4c-1.1,0-2,0.4-2.5,1.3
		C597.4,425.4,597.1,426.7,597.1,428.4z"/>
	<path d="M616,423.5h-3.9v11.3h-1.5v-11.3h-3.9v-1.3h9.3L616,423.5L616,423.5z"/>
	<path d="M617.4,428.4c0-2.1,0.4-3.7,1.3-4.8c0.9-1.1,2.2-1.7,3.8-1.7c0.9,0,1.7,0.2,2.3,0.5s1.2,0.8,1.6,1.3
		c0.4,0.6,0.7,1.3,0.9,2.1c0.2,0.8,0.3,1.7,0.3,2.7c0,2.1-0.4,3.7-1.3,4.8c-0.9,1.1-2.2,1.7-3.8,1.7c-0.9,0-1.6-0.2-2.3-0.5
		c-0.6-0.3-1.2-0.8-1.6-1.3s-0.7-1.3-0.9-2.1S617.4,429.4,617.4,428.4z M618.9,428.4c0,0.7,0.1,1.4,0.2,2c0.1,0.6,0.4,1.2,0.6,1.6
		s0.7,0.9,1.1,1.1s1,0.4,1.6,0.4c1.1,0,2-0.4,2.6-1.3c0.6-0.8,1-2.2,1-3.9c0-0.7-0.1-1.3-0.2-2c-0.1-0.6-0.4-1.2-0.7-1.7
		s-0.7-0.8-1.1-1.1c-0.4-0.3-1-0.4-1.6-0.4c-1.1,0-2,0.4-2.6,1.3C619.3,425.4,618.9,426.7,618.9,428.4z"/>
	<path d="M630.2,422.3c0.5-0.1,0.9-0.2,1.5-0.2s1-0.1,1.6-0.1s1.1,0.1,1.7,0.2c0.6,0.1,1.1,0.3,1.6,0.6s0.8,0.7,1.1,1.2
		s0.4,1.1,0.4,1.9s-0.1,1.4-0.4,1.9c-0.3,0.5-0.6,1-1.1,1.3s-1,0.6-1.6,0.7s-1.2,0.2-1.8,0.2c-0.1,0-0.2,0-0.3,0s-0.3,0-0.4,0
		s-0.3,0-0.4,0s-0.2,0-0.3,0v4.8h-1.5L630.2,422.3L630.2,422.3z M633.3,423.3c-0.3,0-0.6,0-0.9,0c-0.3,0-0.5,0-0.7,0.1v5.2
		c0.1,0,0.2,0,0.3,0s0.3,0,0.4,0s0.3,0,0.4,0c0.1,0,0.2,0,0.3,0c0.4,0,0.8,0,1.2-0.1s0.8-0.2,1.1-0.4c0.3-0.2,0.6-0.5,0.8-0.9
		s0.3-0.8,0.3-1.4c0-0.5-0.1-0.9-0.3-1.2s-0.4-0.6-0.7-0.8s-0.6-0.3-1-0.4C634,423.3,633.6,423.3,633.3,423.3z"/>
</g>
<g>
	<g>
		<g>
			<path class="st0" d="M633.3,134.1H511.1c-20.9,0-37.8-18.2-37.8-40.5c0-18.2,11.3-34.1,27.6-39C503.8,41.4,515,32,527.7,32
				c2.5,0,5,0.4,7.4,1.1c10.9-18.4,29.6-29.4,50-29.4c15.7,0,30.5,6.5,41.6,18.4C637,33,643.1,47.5,644,63.1
				c6.2,2.3,11.8,6.4,15.8,11.8c4.9,6.5,7.5,14.6,7.5,22.8c0.1,10.2-3.7,19.7-10.6,26.7C650.4,130.6,642.1,134.1,633.3,134.1z"/>
		</g>
	</g>
</g>
<g>
	<g>
		<line class="st0" x1="906.9" y1="398.9" x2="688.2" y2="398.9"/>
	</g>
	<polygon class="st1" points="913.2,398.9 903.7,388.9 906.6,398.7 903.1,408.3 	"/>
</g>
<g>
	<g>
		<line class="st0" x1="460.6" y1="398.9" x2="242" y2="398.9"/>
	</g>
	<polygon class="st1" points="466.9,398.9 457.5,388.9 460.3,398.7 456.8,408.3 	"/>
</g>
<g>
	<path d="M755.9,379.2l0.5,1.6h0.1l0.4-1.7l2.4-6.6h1.5l-3.2,8.2c-0.3,0.9-0.6,1.6-0.9,2.1s-0.5,1-0.7,1.4c-0.3,0.4-0.5,0.6-0.8,0.8
		c-0.3,0.2-0.6,0.2-1.1,0.2c-0.4,0-0.7,0-0.9-0.1s-0.5-0.2-0.7-0.3l0.5-1.2c0.2,0.1,0.5,0.2,0.7,0.3c0.2,0,0.4,0.1,0.6,0.1
		c0.3,0,0.6-0.2,0.8-0.5s0.4-0.9,0.6-1.5l-4.7-9.3h1.7L755.9,379.2z"/>
	<path d="M769.6,373.9h-5.8v11.3h-1.5v-12.6h8.8v12.6h-1.5V373.9z"/>
	<path d="M784.2,387.5h-1l-0.3-2.3H774l-0.3,2.3h-1v-3.7h1.3c0.1-0.1,0.2-0.4,0.4-0.9s0.4-1.2,0.6-2.1c0.2-0.9,0.4-2,0.5-3.4
		c0.2-1.4,0.2-3,0.2-4.9h6.7v11.3h1.6v3.7H784.2z M781,383.8v-9.9h-3.8c0,1.3-0.1,2.5-0.2,3.6c-0.1,1.1-0.2,2-0.4,2.8
		c-0.1,0.8-0.3,1.5-0.5,2.1s-0.4,1.1-0.6,1.5h5.5V383.8z"/>
	<path d="M790.9,376.2c0.4,0,0.9-0.1,1.3-0.1s1-0.1,1.7-0.1c1.2,0,2,0.2,2.6,0.5c0.5,0.4,0.8,0.9,0.8,1.7c0,0.4-0.1,0.8-0.4,1.2
		c-0.2,0.4-0.7,0.7-1.2,0.9v0.1c0.7,0.1,1.2,0.4,1.5,0.7c0.3,0.4,0.4,0.8,0.4,1.4c0,0.9-0.3,1.6-1,2s-1.7,0.6-3,0.6
		c-0.5,0-1,0-1.4,0s-0.9-0.1-1.3-0.1L790.9,376.2L790.9,376.2z M794.1,379.9c0.2,0,0.4,0,0.6-0.1s0.4-0.2,0.5-0.3
		c0.2-0.1,0.3-0.3,0.4-0.4c0.1-0.2,0.2-0.4,0.2-0.5c0-0.5-0.1-0.8-0.4-1s-0.8-0.3-1.5-0.3c-0.4,0-0.7,0-0.9,0s-0.4,0-0.6,0v2.6
		L794.1,379.9L794.1,379.9z M792.3,383.9c0.2,0,0.4,0,0.7,0.1s0.5,0,0.8,0c0.8,0,1.4-0.1,1.8-0.3c0.4-0.2,0.6-0.6,0.6-1.2
		c0-0.4-0.2-0.8-0.5-1.1c-0.3-0.3-0.9-0.4-1.8-0.4h-1.6V383.9z"/>
	<path d="M812.8,384.6c-0.4,0.3-0.8,0.5-1.4,0.6s-1.1,0.2-1.8,0.2c-0.8,0-1.5-0.1-2.1-0.4c-0.7-0.3-1.2-0.7-1.7-1.2s-0.9-1.2-1.2-2
		s-0.4-1.8-0.4-2.9c0-1.2,0.2-2.2,0.5-3s0.7-1.5,1.3-2s1.1-0.9,1.8-1.1s1.3-0.4,2-0.4s1.3,0,1.8,0.1s0.8,0.2,1.2,0.3l-0.4,1.3
		c-0.6-0.3-1.4-0.4-2.5-0.4c-0.5,0-1,0.1-1.5,0.3s-0.9,0.5-1.3,0.9c-0.4,0.4-0.7,0.9-0.9,1.6s-0.3,1.5-0.3,2.4s0.1,1.6,0.3,2.3
		c0.2,0.6,0.5,1.2,0.9,1.6s0.8,0.8,1.3,1s1.1,0.3,1.7,0.3c0.5,0,1-0.1,1.4-0.2s0.7-0.2,1-0.4L812.8,384.6z"/>
	<path d="M815.1,372.5h6.8v1.3h-5.3v3.8c0.2,0,0.5-0.1,0.8-0.1s0.6-0.1,0.9-0.1c0.6,0,1.2,0.1,1.7,0.2c0.6,0.1,1,0.3,1.5,0.6
		s0.8,0.7,1,1.1s0.4,1.1,0.4,1.8c0,0.7-0.1,1.3-0.4,1.9s-0.6,0.9-1,1.3c-0.4,0.3-0.9,0.6-1.5,0.7s-1.1,0.2-1.8,0.2
		c-0.2,0-0.4,0-0.7,0s-0.5,0-0.8,0s-0.6-0.1-0.8-0.1s-0.5-0.1-0.7-0.1v-12.5H815.1z M818.3,384c0.4,0,0.7-0.1,1.1-0.2
		c0.3-0.1,0.7-0.3,0.9-0.5s0.5-0.5,0.6-0.8c0.2-0.3,0.2-0.7,0.2-1.1c0-0.6-0.1-1-0.3-1.3s-0.4-0.6-0.7-0.8c-0.3-0.2-0.6-0.3-1-0.4
		s-0.8-0.1-1.2-0.1c-0.1,0-0.2,0-0.4,0s-0.3,0-0.4,0c-0.1,0-0.3,0-0.4,0c-0.1,0-0.2,0-0.3,0v5c0.1,0,0.2,0,0.3,0.1s0.3,0,0.5,0
		s0.3,0,0.5,0C818,384,818.2,384,818.3,384z"/>
	<path d="M832.7,376.6l0.1-1.4h-0.1l-0.8,1.5l-6.1,8.5H825v-12.6h1.5v8.6l-0.1,1.4h0.1l0.8-1.5l6.1-8.6h0.9v12.6h-1.5L832.7,376.6
		L832.7,376.6z"/>
	<path d="M845.3,384.6c-0.4,0.3-0.8,0.5-1.4,0.6s-1.1,0.2-1.8,0.2c-0.8,0-1.5-0.1-2.1-0.4c-0.7-0.3-1.2-0.7-1.7-1.2s-0.9-1.2-1.2-2
		s-0.4-1.8-0.4-2.9c0-1.2,0.2-2.2,0.5-3s0.7-1.5,1.3-2s1.1-0.9,1.8-1.1s1.3-0.4,2-0.4s1.3,0,1.8,0.1s0.8,0.2,1.2,0.3l-0.4,1.3
		c-0.6-0.3-1.4-0.4-2.5-0.4c-0.5,0-1,0.1-1.5,0.3s-0.9,0.5-1.3,0.9c-0.4,0.4-0.7,0.9-0.9,1.6s-0.3,1.5-0.3,2.4s0.1,1.6,0.3,2.3
		c0.2,0.6,0.5,1.2,0.9,1.6s0.8,0.8,1.3,1s1.1,0.3,1.7,0.3c0.5,0,1-0.1,1.4-0.2s0.7-0.2,1-0.4L845.3,384.6z"/>
</g>
<g>
	<path d="M303.1,379.2l0.5,1.6h0.1l0.4-1.7l2.4-6.6h1.5l-3.2,8.2c-0.3,0.9-0.6,1.6-0.9,2.1s-0.5,1-0.7,1.4c-0.3,0.4-0.5,0.6-0.8,0.8
		c-0.3,0.2-0.6,0.2-1.1,0.2c-0.4,0-0.7,0-0.9-0.1s-0.5-0.2-0.7-0.3l0.5-1.2c0.2,0.1,0.5,0.2,0.7,0.3c0.2,0,0.4,0.1,0.6,0.1
		c0.3,0,0.6-0.2,0.8-0.5c0.2-0.3,0.4-0.8,0.6-1.5l-4.7-9.3h1.7L303.1,379.2z"/>
	<path d="M316.8,373.9H311v11.3h-1.5v-12.6h8.8v12.6h-1.5V373.9z"/>
	<path d="M331.4,387.5h-1l-0.3-2.3h-8.8l-0.3,2.3h-1v-3.7h1.3c0.1-0.1,0.2-0.4,0.4-0.9s0.4-1.2,0.6-2.1s0.4-2,0.5-3.4
		c0.2-1.4,0.2-3,0.2-4.9h6.7v11.3h1.6L331.4,387.5L331.4,387.5z M328.2,383.8v-9.9h-3.8c0,1.3-0.1,2.5-0.2,3.6s-0.2,2-0.4,2.8
		s-0.3,1.5-0.5,2.1s-0.4,1.1-0.6,1.5h5.5V383.8z"/>
	<path d="M338.1,376.2c0.4,0,0.9-0.1,1.3-0.1s1-0.1,1.7-0.1c1.2,0,2,0.2,2.6,0.5c0.5,0.4,0.8,0.9,0.8,1.7c0,0.4-0.1,0.8-0.4,1.2
		c-0.2,0.4-0.7,0.7-1.2,0.9v0.1c0.7,0.1,1.2,0.4,1.5,0.7c0.3,0.4,0.4,0.8,0.4,1.4c0,0.9-0.3,1.6-1,2s-1.7,0.6-3,0.6
		c-0.5,0-1,0-1.4,0s-0.9-0.1-1.3-0.1V376.2z M341.3,379.9c0.2,0,0.4,0,0.6-0.1s0.4-0.2,0.5-0.3c0.2-0.1,0.3-0.3,0.4-0.4
		c0.1-0.2,0.2-0.4,0.2-0.5c0-0.5-0.1-0.8-0.4-1s-0.8-0.3-1.5-0.3c-0.4,0-0.7,0-0.9,0s-0.4,0-0.6,0v2.6L341.3,379.9L341.3,379.9z
		 M339.5,383.9c0.2,0,0.4,0,0.7,0.1s0.5,0,0.8,0c0.8,0,1.4-0.1,1.8-0.3c0.4-0.2,0.6-0.6,0.6-1.2c0-0.4-0.2-0.8-0.5-1.1
		c-0.3-0.3-0.9-0.4-1.8-0.4h-1.6V383.9z"/>
	<path d="M360.1,384.6c-0.4,0.3-0.8,0.5-1.4,0.6s-1.1,0.2-1.8,0.2c-0.8,0-1.5-0.1-2.1-0.4c-0.7-0.3-1.2-0.7-1.7-1.2s-0.9-1.2-1.2-2
		s-0.4-1.8-0.4-2.9c0-1.2,0.2-2.2,0.5-3s0.7-1.5,1.3-2s1.1-0.9,1.8-1.1s1.3-0.4,2-0.4s1.3,0,1.8,0.1s0.8,0.2,1.2,0.3l-0.4,1.3
		c-0.6-0.3-1.4-0.4-2.5-0.4c-0.5,0-1,0.1-1.5,0.3s-0.9,0.5-1.3,0.9s-0.7,0.9-0.9,1.6c-0.2,0.7-0.3,1.5-0.3,2.4s0.1,1.6,0.3,2.3
		c0.2,0.6,0.5,1.2,0.9,1.6s0.8,0.8,1.3,1s1.1,0.3,1.7,0.3c0.5,0,1-0.1,1.4-0.2s0.7-0.2,1-0.4L360.1,384.6z"/>
	<path d="M362.3,372.5h6.8v1.3h-5.3v3.8c0.2,0,0.5-0.1,0.8-0.1s0.6-0.1,0.9-0.1c0.6,0,1.2,0.1,1.7,0.2c0.6,0.1,1,0.3,1.5,0.6
		s0.8,0.7,1,1.1s0.4,1.1,0.4,1.8c0,0.7-0.1,1.3-0.4,1.9s-0.6,0.9-1,1.3c-0.4,0.3-0.9,0.6-1.5,0.7c-0.6,0.2-1.1,0.2-1.8,0.2
		c-0.2,0-0.4,0-0.7,0s-0.5,0-0.8,0s-0.6,0-0.8-0.1s-0.5-0.1-0.7-0.1v-12.5H362.3z M365.5,384c0.4,0,0.7-0.1,1.1-0.2
		c0.3-0.1,0.7-0.3,0.9-0.5s0.5-0.5,0.6-0.8c0.2-0.3,0.2-0.7,0.2-1.1c0-0.6-0.1-1-0.3-1.3c-0.2-0.3-0.4-0.6-0.7-0.8
		c-0.3-0.2-0.6-0.3-1-0.4s-0.8-0.1-1.2-0.1c-0.1,0-0.2,0-0.4,0s-0.3,0-0.4,0s-0.3,0-0.4,0s-0.2,0-0.3,0v5c0.1,0,0.2,0,0.3,0.1
		s0.3,0,0.5,0s0.3,0,0.5,0C365.2,384,365.4,384,365.5,384z"/>
	<path d="M379.9,376.6l0.1-1.4h-0.1l-0.8,1.5l-6.1,8.5h-0.9v-12.6h1.5v8.6l-0.1,1.4h0.1l0.8-1.5l6.1-8.6h0.9v12.6h-1.5V376.6z"/>
	<path d="M392.5,384.6c-0.4,0.3-0.8,0.5-1.4,0.6s-1.1,0.2-1.8,0.2c-0.8,0-1.5-0.1-2.1-0.4c-0.7-0.3-1.2-0.7-1.7-1.2s-0.9-1.2-1.2-2
		s-0.4-1.8-0.4-2.9c0-1.2,0.2-2.2,0.5-3s0.7-1.5,1.3-2s1.1-0.9,1.8-1.1s1.3-0.4,2-0.4s1.3,0,1.8,0.1s0.8,0.2,1.2,0.3l-0.4,1.3
		c-0.6-0.3-1.4-0.4-2.5-0.4c-0.5,0-1,0.1-1.5,0.3s-0.9,0.5-1.3,0.9s-0.7,0.9-0.9,1.6c-0.2,0.7-0.3,1.5-0.3,2.4s0.1,1.6,0.3,2.3
		c0.2,0.6,0.5,1.2,0.9,1.6s0.8,0.8,1.3,1s1.1,0.3,1.7,0.3c0.5,0,1-0.1,1.4-0.2s0.7-0.2,1-0.4L392.5,384.6z"/>
</g>
<path class="st0" d="M1080.4,112.4h-94.9c-8.9-0.1-16.1-8.3-16-18.4c0-8.8,5.7-16.4,13.4-17.9c0.2-10.9,8-19.7,17.7-19.7
	c2.4,0,4.8,0.6,7,1.7c3.6-15.1,17.4-24,30.7-19.8c8.7,2.7,15.5,10.5,17.7,20.4c8.7-5,19.3-1.2,23.8,8.6c1.2,2.7,1.9,5.6,2,8.7
	c8.9,0.8,15.5,9.6,14.8,19.6C1095.7,105.1,1088.8,112.4,1080.4,112.4L1080.4,112.4z"/>
<g>
	<g transform="translate(-90 -20)">
		<g id="a">
			<path class="st2" d="M577.4,41.2h22.1c4.5,0,6.1,0.5,7.8,1.4c1.6,0.9,3,2.2,3.8,3.8c0.9,1.6,1.3,3.3,1.3,7.8v22.1
				c0,4.5-0.5,6.1-1.3,7.8c-0.9,1.6-2.2,3-3.8,3.8c-1.6,0.9-3.3,1.3-7.8,1.3h-22.1c-4.5,0-6.1-0.5-7.8-1.3c-1.6-0.9-3-2.2-3.8-3.8
				c-0.9-1.6-1.4-3.3-1.4-7.8V54.1c0-4.5,0.5-6.1,1.4-7.8c0.9-1.6,2.2-3,3.8-3.8C571.3,41.7,572.9,41.2,577.4,41.2z"/>
		</g>
	</g>
	<g transform="translate(-90 -20)">
		<g id="M">
			<path class="st3" d="M600.4,50.9c1.3,0,2.3,1,2.3,2.3v5.7h4.8v-5.7c0-3.9-3.2-7.1-7-7.1h-5.7v4.8H600.4z"/>
		</g>
	</g>
	<g transform="translate(-90 -20)">
		<g id="N">
			<path class="st3" d="M602.7,77.2c0,1.3-1,2.3-2.3,2.3h-5.7v4.8h5.7c3.9,0,7-3.1,7-7v-5.7h-4.8L602.7,77.2L602.7,77.2z"/>
		</g>
	</g>
	<g transform="translate(-90 -20)">
		<g id="O">
			<path class="st3" d="M574.2,53.2c0-1.3,1-2.3,2.3-2.3l0,0h5.7v-4.8h-5.7c-3.9,0-7,3.2-7,7.1v5.7h4.8L574.2,53.2L574.2,53.2z"/>
		</g>
	</g>
	<g transform="translate(-90 -20)">
		<g id="P">
			<path class="st3" d="M576.5,79.5c-1.3,0-2.3-1-2.3-2.3v-5.7h-4.8v5.7c0,3.9,3.2,7,7,7h5.7v-4.8L576.5,79.5L576.5,79.5z"/>
		</g>
	</g>
	<g transform="translate(-90 -20)">
		<g id="Q">
			<path class="st3" d="M585.7,76.6l-10.2-10.2l3.4-3.4l6.8,6.8L598,57.5l3.4,3.4L585.7,76.6z"/>
		</g>
	</g>
</g>
<line class="st4" x1="475.7" y1="392.4" x2="600.7" y2="392.4"/>
<polyline class="st5" points="606.9,355.2 606.9,304.2 549.4,279 491.8,304.2 491.8,392.4 600.7,392.4 "/>
<rect x="503.3" y="321" class="st5" width="92.1" height="71.4"/>
<rect x="501" y="308.4" class="st5" width="96.7" height="12.6"/>
<g>
	<rect x="482.6" y="352.5" class="st6" width="40" height="40"/>
	<line class="st5" x1="482.6" y1="358.3" x2="522.6" y2="358.3"/>
	<rect x="497.9" y="353.6" class="st7" width="9.4" height="7.1"/>
</g>
<line class="st5" x1="505.7" y1="315.8" x2="510.3" y2="315.8"/>
<line class="st5" x1="588.5" y1="315.8" x2="593.1" y2="315.8"/>
<line class="st5" x1="512.6" y1="315.8" x2="514.9" y2="315.8"/>
<line class="st5" x1="505.7" y1="328.4" x2="593.1" y2="328.4"/>
<line class="st5" x1="505.7" y1="334.7" x2="593.1" y2="334.7"/>
<polygon class="st5" points="616.1,299.9 549.4,270.6 482.6,299.9 482.6,308.3 549.4,279 616.1,308.3 "/>
<line class="st5" x1="498.4" y1="291.9" x2="498.4" y2="302.4"/>
<line class="st5" x1="518.3" y1="283.2" x2="518.3" y2="293.7"/>
<line class="st5" x1="536.7" y1="274.8" x2="536.7" y2="285.3"/>
<line class="st5" x1="598.9" y1="291.6" x2="598.9" y2="302.1"/>
<line class="st5" x1="580.5" y1="283.2" x2="580.5" y2="293.7"/>
<line class="st5" x1="562" y1="274.8" x2="562" y2="285.3"/>
<line class="st5" x1="505.9" y1="334.6" x2="593.3" y2="334.6"/>
<line class="st5" x1="505.9" y1="340.9" x2="593.3" y2="340.9"/>
<line class="st4" x1="40.2" y1="394.3" x2="211.5" y2="394.3"/>
<rect x="110.6" y="376.5" class="st8" width="97.2" height="17.7"/>
<line class="st9" x1="46.6" y1="329.5" x2="155.5" y2="329.5"/>
<line class="st9" x1="110.6" y1="381" x2="207.8" y2="381"/>
<polyline class="st8" points="46.6,393.3 46.6,326.9 155.5,326.9 155.5,376.5 "/>
<path class="st8" d="M184,376.5h-20.2v-26.4c0-1.1,0.9-2,2-2H182c1.1,0,2,0.9,2,2V376.5z"/>
<path class="st8" d="M202.3,376.5h-11v-29.9c0-1.1,0.9-2,2-2h7c1.1,0,2,0.9,2,2V376.5z"/>
<line class="st5" x1="164.7" y1="352.6" x2="183.1" y2="352.6"/>
<line class="st5" x1="191.3" y1="352.6" x2="202.3" y2="352.6"/>
<line class="st5" x1="191.3" y1="361.5" x2="202.3" y2="361.5"/>
<line class="st5" x1="191.3" y1="370.3" x2="202.3" y2="370.3"/>
<line class="st5" x1="163.8" y1="361.5" x2="184" y2="361.5"/>
<line class="st5" x1="163.8" y1="370.3" x2="184" y2="370.3"/>
<polyline class="st10" points="115.8,326.9 115.8,312.7 169.3,295 169.3,348.2 "/>
<rect x="121.8" y="317.1" class="st5" width="10.4" height="3.5"/>
<rect x="137.4" y="317.1" class="st5" width="10.4" height="3.5"/>
<rect x="152.9" y="317.1" class="st5" width="10.4" height="3.5"/>
<rect x="155.5" y="327.8" class="st5" width="7.8" height="3.5"/>
<rect x="155.5" y="338.4" class="st5" width="7.8" height="3.5"/>
<polyline class="st8" points="77.7,326.9 74,264.8 65.7,264.8 61.9,326.9 "/>
<polyline class="st8" points="103.7,326.9 99.9,268.4 91.6,268.4 87.8,326.9 "/>
<line class="st9" x1="65.7" y1="272.8" x2="74.3" y2="272.8"/>
<line class="st9" x1="91.6" y1="272.8" x2="100.2" y2="272.8"/>
<line class="st9" x1="64.9" y1="287" x2="74.3" y2="287"/>
<line class="st9" x1="63.9" y1="294.1" x2="76" y2="294.1"/>
<line class="st9" x1="63.9" y1="306.5" x2="76" y2="306.5"/>
<line class="st9" x1="91.6" y1="287" x2="100.2" y2="287"/>
<line class="st9" x1="89.8" y1="294.1" x2="101.9" y2="294.1"/>
<line class="st9" x1="89.8" y1="306.5" x2="101.9" y2="306.5"/>
<g>
	<path class="st5" d="M143.4,256.8c-1,0-1.9,0.2-2.7,0.7c0-0.2,0.1-0.4,0.1-0.7c0-2.9-2.3-5.3-5.2-5.3c0-2.9-2.3-5.3-5.2-5.3
		c-2.4,0-4.4,1.7-5,4c-1.9-3.4-5.6-5.7-9.7-5.7c-6.2,0-11.2,5.2-11.2,11.5v0.1c-1.2-0.7-2.5-1.1-4-1c-3.7,0.3-6.4,3.7-6.4,7.5v4.9
		h3.5v-1.8c0-2,1.5-3.5,3.5-3.5h20.7h3.4h12.2h1.6h10.3C148.9,259.2,146.4,256.8,143.4,256.8z"/>
</g>
<line class="st11" x1="45.3" y1="394.6" x2="37.8" y2="398.9"/>
<line class="st11" x1="78.2" y1="394.6" x2="70.8" y2="398.9"/>
<line class="st11" x1="111.2" y1="394.6" x2="103.8" y2="398.9"/>
<line class="st11" x1="144.2" y1="394.6" x2="136.7" y2="398.9"/>
<line class="st11" x1="61.7" y1="394.6" x2="54.3" y2="398.9"/>
<line class="st11" x1="94.7" y1="394.6" x2="87.3" y2="398.9"/>
<line class="st11" x1="127.7" y1="394.6" x2="120.2" y2="398.9"/>
<line class="st11" x1="160.7" y1="394.6" x2="153.2" y2="398.9"/>
<line class="st11" x1="177.2" y1="394.6" x2="169.7" y2="398.9"/>
<line class="st11" x1="193.7" y1="394.6" x2="186.2" y2="398.9"/>
<line class="st11" x1="210.2" y1="394.6" x2="202.7" y2="398.9"/>
<path class="st8" d="M178.5,348.2v-8.9c0-2.9,2.5-5.3,5.5-5.3h7.3c3,0,5.5,2.4,5.5,5.3v5.3"/>
<rect x="52.7" y="339.4" class="st5" width="27.6" height="11.3"/>
<rect x="87.2" y="339.4" class="st5" width="27.6" height="11.3"/>
<rect x="121.8" y="339.4" class="st5" width="27.6" height="11.3"/>
<line class="st5" x1="61.3" y1="339.4" x2="61.3" y2="350.7"/>
<line class="st5" x1="71.7" y1="339.4" x2="71.7" y2="350.7"/>
<line class="st5" x1="95.9" y1="339.4" x2="95.9" y2="350.7"/>
<line class="st5" x1="106.3" y1="339.4" x2="106.3" y2="350.7"/>
<line class="st5" x1="130.4" y1="339.4" x2="130.4" y2="350.7"/>
<line class="st5" x1="140.8" y1="339.4" x2="140.8" y2="350.7"/>
<g>
	<path class="st8" d="M645.6,355.2h-42.5c-1.4,0-2.5,1.1-2.5,2.5v38.7c0,1.4,1.1,2.5,2.5,2.5h45v-41.2
		C648.1,356.3,647,355.2,645.6,355.2z"/>
	<path class="st8" d="M673.1,398.9h-25v-32.5h17.1c1.8,0,3.4,1,4.3,2.6l0,0c4,7.3,6.1,15.6,6.1,23.9v3.5
		C675.6,397.8,674.5,398.9,673.1,398.9z"/>
	<circle class="st12" cx="616.9" cy="398.9" r="7.5"/>
	<circle class="st12" cx="661.9" cy="398.9" r="7.5"/>
	<circle class="st13" cx="661.9" cy="398.9" r="2.5"/>
	<circle class="st13" cx="616.9" cy="398.9" r="2.5"/>
	<path class="st5" d="M673.7,380.8h-15c-0.7,0-1.2-0.6-1.2-1.2V372c0-0.7,0.6-1.2,1.2-1.2h12.5"/>
	<line class="st14" x1="605.1" y1="359.5" x2="643.8" y2="359.5"/>
</g>
<g>
	<rect x="487.1" y="370.2" class="st9" width="2.9" height="2.9"/>
	<rect x="488.3" y="371.4" class="st9" width="0.5" height="0.5"/>
	<rect x="494.7" y="370.2" class="st9" width="2.9" height="2.9"/>
	<rect x="495.9" y="371.4" class="st9" width="0.5" height="0.5"/>
	<rect x="487.1" y="377.8" class="st9" width="2.9" height="2.9"/>
	<rect x="488.3" y="379" class="st9" width="0.5" height="0.5"/>
	<line class="st5" x1="491.9" y1="369.7" x2="491.9" y2="370.7"/>
	<line class="st5" x1="488.1" y1="374.5" x2="488.1" y2="375.5"/>
	<line class="st5" x1="491.9" y1="376.4" x2="491.9" y2="377.4"/>
	<line class="st5" x1="491.9" y1="378.8" x2="491.9" y2="379.7"/>
	<line class="st5" x1="493.8" y1="378.8" x2="493.8" y2="379.7"/>
	<line class="st5" x1="492.8" y1="379.7" x2="492.8" y2="380.7"/>
	<line class="st5" x1="493.8" y1="379.7" x2="493.8" y2="380.7"/>
	<line class="st5" x1="492.8" y1="375.5" x2="492.8" y2="376.4"/>
	<line class="st5" x1="497.6" y1="379.7" x2="497.6" y2="380.7"/>
	<line class="st5" x1="497.6" y1="377.8" x2="497.6" y2="378.8"/>
	<line class="st5" x1="494.7" y1="376.9" x2="494.7" y2="378.8"/>
	<line class="st5" x1="496.6" y1="376.9" x2="496.6" y2="377.8"/>
	<line class="st5" x1="495.7" y1="376.9" x2="495.7" y2="377.8"/>
	<line class="st5" x1="493.8" y1="374.5" x2="493.8" y2="375.5"/>
	<line class="st5" x1="490.9" y1="374.5" x2="490.9" y2="375.5"/>
	<line class="st5" x1="491.9" y1="374.5" x2="491.9" y2="375.5"/>
	<line class="st5" x1="492.8" y1="373.5" x2="492.8" y2="375.5"/>
	<line class="st5" x1="497.6" y1="375.5" x2="497.6" y2="376.9"/>
	<line class="st5" x1="492.8" y1="377.4" x2="492.8" y2="378.8"/>
	<line class="st5" x1="492.8" y1="370.7" x2="492.8" y2="371.6"/>
	<line class="st5" x1="492.8" y1="372.6" x2="492.8" y2="373.5"/>
	<line class="st5" x1="491.9" y1="371.6" x2="491.9" y2="373.5"/>
	<line class="st5" x1="488.5" y1="375.9" x2="490.4" y2="375.9"/>
	<line class="st5" x1="495.7" y1="375" x2="498.1" y2="375"/>
	<line class="st5" x1="495.2" y1="379.3" x2="497.1" y2="379.3"/>
</g>
<g>
	<g>
		<path class="st1" d="M567.7,354.7c0.6,0,1,0.4,1,1v34.6c0,0.6-0.4,1-1,1h-34.9c-0.6,0-1-0.4-1-1v-34.6c0-0.6,0.4-1,1-1H567.7
			 M567.7,352.7h-34.9c-1.7,0-3,1.3-3,3v34.6c0,1.7,1.3,3,3,3h34.9c1.7,0,3-1.3,3-3v-34.6C570.7,354.1,569.4,352.7,567.7,352.7
			L567.7,352.7z"/>
	</g>
	<rect x="539" y="362" class="st15" width="6.8" height="6.8"/>
	<rect x="541.8" y="364.8" class="st15" width="1.1" height="1.1"/>
	<rect x="554.8" y="362" class="st15" width="6.8" height="6.8"/>
	<rect x="557.6" y="364.8" class="st15" width="1.1" height="1.1"/>
	<rect x="539" y="377.7" class="st15" width="6.8" height="6.8"/>
	<rect x="541.8" y="380.5" class="st15" width="1.1" height="1.1"/>
	<line class="st4" x1="549.2" y1="360.8" x2="549.2" y2="363.1"/>
	<line class="st4" x1="541.3" y1="371" x2="541.3" y2="373.2"/>
	<line class="st4" x1="549.2" y1="375.5" x2="549.2" y2="377.7"/>
	<line class="st4" x1="549.2" y1="381.1" x2="549.2" y2="383.3"/>
	<line class="st4" x1="553.7" y1="381.1" x2="553.7" y2="383.3"/>
	<line class="st4" x1="551.4" y1="383.3" x2="551.4" y2="385.6"/>
	<line class="st4" x1="553.7" y1="383.3" x2="553.7" y2="385.6"/>
	<line class="st4" x1="551.4" y1="373.2" x2="551.4" y2="375.5"/>
	<line class="st4" x1="561.5" y1="383.3" x2="561.5" y2="385.6"/>
	<line class="st4" x1="561.5" y1="378.8" x2="561.5" y2="381.1"/>
	<line class="st4" x1="555.9" y1="376.6" x2="555.9" y2="381.1"/>
	<line class="st4" x1="559.3" y1="376.6" x2="559.3" y2="378.8"/>
	<line class="st4" x1="557" y1="376.6" x2="557" y2="378.8"/>
	<line class="st4" x1="553.7" y1="371" x2="553.7" y2="373.2"/>
	<line class="st4" x1="546.9" y1="371" x2="546.9" y2="373.2"/>
	<line class="st4" x1="549.2" y1="371" x2="549.2" y2="373.2"/>
	<line class="st4" x1="551.4" y1="369.8" x2="551.4" y2="373.2"/>
	<line class="st4" x1="561.5" y1="373.2" x2="561.5" y2="376.6"/>
	<line class="st4" x1="551.4" y1="377.7" x2="551.4" y2="381.1"/>
	<line class="st4" x1="551.4" y1="363.1" x2="551.4" y2="365.3"/>
	<line class="st4" x1="551.4" y1="367.6" x2="551.4" y2="369.8"/>
	<line class="st4" x1="549.2" y1="365.3" x2="549.2" y2="369.8"/>
	<line class="st4" x1="539" y1="371" x2="539" y2="375.5"/>
	<line class="st4" x1="542.4" y1="374.3" x2="548" y2="374.3"/>
	<line class="st4" x1="557" y1="372.1" x2="562.7" y2="372.1"/>
	<line class="st4" x1="554.8" y1="382.2" x2="560.4" y2="382.2"/>
</g>
<g>
	<g>
		<rect x="937.1" y="395.1" class="st8" width="190.3" height="7.1"/>
	</g>
</g>
<line class="st9" x1="937.1" y1="401.3" x2="1128" y2="401.3"/>
<g>
	<path class="st14" d="M1004.4,314.5v-8.6c0-1.6,1.3-2.9,2.9-2.9l0,0c1.6,0,2.9,1.3,2.9,2.9v8.6v-5.7h-5.7"/>
	<path class="st14" d="M990,314.5v-8.6c0-1.6,1.3-2.9,2.9-2.9l0,0c1.6,0,2.9,1.3,2.9,2.9v8.6"/>
	<path class="st14" d="M1059,303v8.6c0,1.6,1.3,2.9,2.9,2.9l0,0c1.6,0,2.9,0,2.9,0V303"/>
	<path class="st14" d="M984.3,314.5v-8.6c0-1.6,1.3-2.9,2.9-2.9l0,0c1.6,0,2.9,1.3,2.9,2.9v8.6"/>
	<path class="st14" d="M1030.3,314.5v-8.6c0-1.6,1.3-2.9,2.9-2.9l0,0c1.6,0,2.9,1.3,2.9,2.9v8.6v-5.7h-5.7"/>
	<polyline class="st14" points="1018.8,314.5 1018.8,303 1024.5,303 	"/>
	<path class="st14" d="M1044.6,311.6L1044.6,311.6c0,1.6,1.3,2.9,2.9,2.9l0,0c1.6,0,2.9-1.3,2.9-2.9l0,0c0-1.6-1.3-2.9-2.9-2.9l0,0
		l0,0c1.6,0,2.9-1.3,2.9-2.9l0,0c0-1.6-1.3-2.9-2.9-2.9l0,0c-1.6,0-2.9,1.3-2.9,2.9l0,0"/>
	<polyline class="st14" points="1073.4,303 1073.4,314.5 1073.4,308.7 1079.1,308.7 1079.1,303 1079.1,314.5 	"/>
</g>
<polyline class="st8" points="1123.8,336.5 1123.8,395.1 940.1,395.1 940.1,336.5 "/>
<polyline class="st8" points="1112.8,302.1 1127.4,302.1 1127.4,323.7 936.5,323.7 936.5,302.1 951.4,302.1 "/>
<rect x="998.6" y="349.2" class="st5" width="115.2" height="45"/>
<rect x="998.6" y="372.9" class="st5" width="36" height="2"/>
<rect x="998.6" y="387" class="st5" width="39.6" height="7.2"/>
<line class="st5" x1="1034.6" y1="374.9" x2="1036.4" y2="387"/>
<path class="st5" d="M1062.5,352.8H1050c-0.6,0-1-0.4-1-1v-2.6h14.4v2.6C1063.5,352.4,1063,352.8,1062.5,352.8z"/>
<path class="st5" d="M1030,352.8h-12.4c-0.6,0-1-0.4-1-1v-2.6h14.4v2.6C1031,352.4,1030.6,352.8,1030,352.8z"/>
<path class="st5" d="M1094.9,352.8h-12.4c-0.6,0-1-0.4-1-1v-2.6h14.4v2.6C1095.9,352.4,1095.4,352.8,1094.9,352.8z"/>
<rect x="1043.6" y="361.8" class="st5" width="28.8" height="32.4"/>
<rect x="1076.1" y="379.8" class="st5" width="7.2" height="3.6"/>
<rect x="1077.9" y="376.2" class="st5" width="3.6" height="3.6"/>
<rect x="1047.2" y="365.4" class="st5" width="9" height="23.4"/>
<rect x="1059.9" y="365.4" class="st5" width="9" height="23.4"/>
<rect x="1072.5" y="383.4" class="st5" width="14.4" height="10.8"/>
<rect x="1094.1" y="383.4" class="st5" width="19.8" height="10.8"/>
<rect x="1092.3" y="381.6" class="st5" width="21.6" height="1.8"/>
<rect x="1086.9" y="365.4" class="st5" width="14.4" height="9"/>
<circle class="st5" cx="1095.9" cy="367.2" r="1.8"/>
<polyline class="st5" points="1086.9,372.6 1090.5,369 1097.7,374.4 "/>
<polyline class="st8" points="1112.8,296.1 1112.8,296.1 1112.8,301.7 "/>
<polyline class="st8" points="951.4,302.1 951.4,296.1 951.4,296.1 "/>
<path class="st8" d="M949.1,296.1L949.1,296.1c56-2.6,110.4-2.6,166.4,0l0,0"/>
<rect x="954.4" y="349.2" class="st5" width="30.7" height="45.9"/>
<line class="st9" x1="969.8" y1="349.2" x2="969.8" y2="395.1"/>
<g>
	<path class="st4" d="M971.8,331.9c0,2.6-4.5,4.7-10,4.7s-10-2.1-10-4.7"/>
	<path class="st4" d="M951.9,331.9c0,2.6-4.5,4.7-10,4.7s-10-2.1-10-4.7"/>
	<path class="st4" d="M1111.2,331.9c0,2.6-4.5,4.7-10,4.7s-10-2.1-10-4.7"/>
	<path class="st4" d="M1131.1,331.9c0,2.6-4.5,4.7-10,4.7s-10-2.1-10-4.7"/>
	<path class="st4" d="M991.7,331.9c0,2.6-4.5,4.7-10,4.7s-10-2.1-10-4.7"/>
	<path class="st4" d="M1011.7,331.9c0,2.6-4.5,4.7-10,4.7s-10-2.1-10-4.7"/>
	<path class="st4" d="M1031.6,331.9c0,2.6-4.5,4.7-10,4.7s-10-2.1-10-4.7"/>
	<path class="st4" d="M1051.5,331.9c0,2.6-4.5,4.7-10,4.7s-10-2.1-10-4.7"/>
	<path class="st4" d="M1071.4,331.9c0,2.6-4.5,4.7-10,4.7s-10-2.1-10-4.7"/>
	<path class="st4" d="M1091.3,331.9c0,2.6-4.5,4.7-10,4.7s-10-2.1-10-4.7"/>
	<polyline class="st8" points="1131.1,331.9 1126.1,324.9 937,324.9 932,331.9 	"/>
	<line class="st8" x1="971.8" y1="331.9" x2="974.3" y2="326"/>
	<line class="st8" x1="951.9" y1="331.9" x2="954.4" y2="326"/>
	<line class="st8" x1="991.7" y1="331.9" x2="994.2" y2="326"/>
	<line class="st8" x1="1091.3" y1="331.9" x2="1088.8" y2="326"/>
	<line class="st8" x1="1111.2" y1="331.9" x2="1108.7" y2="326"/>
	<line class="st8" x1="1071.4" y1="331.9" x2="1068.9" y2="326"/>
	<line class="st8" x1="1011.7" y1="331.9" x2="1014.1" y2="326"/>
	<line class="st8" x1="1051.5" y1="331.9" x2="1049" y2="326"/>
	<line class="st8" x1="1031.6" y1="331.9" x2="1031.6" y2="326"/>
</g>
<line class="st4" x1="998.1" y1="349.5" x2="1114.4" y2="349.5"/>
</svg>